<?xml version="1.0" encoding="utf-8" ?>
<svg baseProfile="full" height="200mm" version="1.1" viewBox="0,0,200,200" width="200mm" xmlns="http://www.w3.org/2000/svg" xmlns:ev="http://www.w3.org/2001/xml-events" xmlns:xlink="http://www.w3.org/1999/xlink"><defs /><rect fill="#1a1a1a" height="200" width="200" x="0" y="0" /><text alignment-baseline="middle" fill="#e1ed5e" style="dominant-baseline: central; font-size:9.0px; font-family:Arial;" text-anchor="middle" x="100.0" y="100.0">2025</text><line stroke="#e1ed5e" stroke-width="0.3" x1="100.0" x2="100.0" y1="15.0" y2="10.0" /><path d="M 100.0 14.0 a86.0,86.0 0 0,1 42.46469731375804,11.215312516191453" fill="none" id="id1" stroke="none" /><text fill="#e1ed5e" style="font-size:6.75px; font-family:Arial;" text-anchor="middle"><textPath startOffset="22.20632615414155" xlink:href="#id1">January</textPath></text><path d="M 103.59715602781102 79.31037775812273 l 1.943653667362828 -11.179237107278697 a32.34694372416687,32.34694372416687 0 0,0 0.5477490955106495,0.10009764608046348 l -2.1357978839763785 11.144123979847494" fill="red" stroke="none" /><path d="M 104.307194497241 79.44645832069477 l 1.4821774487601556 -7.072816421160459 a28.226450173982396,28.226450173982396 0 0,0 0.4746845833457048,0.1037476642905194 l -1.6037047562593882 7.046255258774069" fill="red" stroke="none" /><path d="M 105.01212808612495 79.60689891045804 l 4.070426169371396 -16.561550487765913 a38.054422410598455,38.054422410598455 0 0,0 0.6347679007932391,0.16181647160908244 l -4.35490295884966 16.489031019987962" fill="red" stroke="none" /><path d="M 105.71112130821622 79.79150937346287 l 1.5444883599826864 -5.465087652857849 a26.67913966614146,26.67913966614146 0 0,0 0.4408534498511441,0.12869721100911585 l -1.6383320275572577 5.43769211293003" fill="red" stroke="none" /><path d="M 106.0581310904928 79.89281104454417 l 5.1177437587367445 -16.986004304861275 a38.740226701619534,38.740226701619534 0 0,0 0.6368425200905652,0.19787007098268028 l -5.409371651538028 16.895394098996075" fill="red" stroke="none" /><path d="M 107.76421540070413 80.48803036053334 l 6.609289838382329 -16.609567871243776 a38.876253999012135,38.876253999012135 0 0,0 0.6196433001642057,0.2527680604536761 l -6.894217008134922 16.49333892460652" fill="red" stroke="none" /><path d="M 108.76106565485865 80.91482961587045 l 8.633050889213267 -18.806302069443245 a41.693152615850764,41.693152615850764 0 0,0 0.649662284548454,0.30502515361567806 l -8.95549138506132 18.654911933187567" fill="red" stroke="none" /><path d="M 109.41281617654863 81.2277094730956 l 9.24733293863418 -18.442261833982254 a41.63080677121249,41.63080677121249 0 0,0 0.6378226415169829,0.32671753015079924 l -9.563416067739919 18.280351778518956" fill="red" stroke="none" /><path d="M 110.05341064243156 81.56283822128135 l 14.038974319311453 -25.746371051428383 a50.32521819622347,50.32521819622347 0 0,0 0.7569773400181278,0.4212570701581115 l -14.480075748401617 25.50089858371009" fill="red" stroke="none" /><path d="M 110.36928655335952 81.73862282372117 l 9.912722903138487 -17.45732175947065 a41.075361973526,41.075361973526 0 0,0 0.6118336876423016,0.3544135630143696 l -10.211753323246116 17.284104039066232" fill="red" stroke="none" /><line stroke="#e1ed5e" stroke-width="0.3" x1="143.23703022742887" x2="145.7803849466894" y1="26.81831364943548" y2="22.513508569990506" /><path d="M 143.74570117128098 25.957352633546492 a86.0,86.0 0 0,1 28.547481713284135,27.462654790039103" fill="none" id="id2" stroke="none" /><text fill="#e1ed5e" style="font-size:6.75px; font-family:Arial;" text-anchor="middle"><textPath startOffset="19.985693538727396" xlink:href="#id2">February</textPath></text><path d="M 110.99172775467656 82.1063720568725 l 9.338910641693024 -15.202977743464531 a38.84224717466399,38.84224717466399 0 0,0 0.5666914577685531,0.35486213886629375 l -9.599221251833841 15.039971263275293" fill="red" stroke="none" /><path d="M 111.60114157652 82.49532879139004 l 7.430088695479397 -11.211074255693292 a34.449699029694294,34.449699029694294 0 0,0 0.49147467182875815,0.33184589231443895 l -7.621968061714697 11.081516451080182" fill="red" stroke="none" /><path d="M 112.19680574252982 82.90503203632743 l 8.338286817803162 -11.686891554336803 a35.35654767897836,35.35654767897836 0 0,0 0.49238990315608583,0.35774220500333526 l -8.538222037313036 11.541630114516794" fill="red" stroke="none" /><path d="M 113.06298171725822 83.55741782278167 l 11.31025018498367 -14.236391211188632 a39.182315418145514,39.182315418145514 0 0,0 0.5244769381149925,0.4240905423627695 l -11.553630521663152 14.039594571561734" fill="red" stroke="none" /><path d="M 114.94478906791727 85.2469230424477 l 10.592050545976097 -10.456175469115978 a35.883653456374724,35.883653456374724 0 0,0 0.4301522820887127,0.44330973814549984 l -10.770467091767918 10.272301535420365" fill="red" stroke="none" /><path d="M 115.4437574822437 85.77008943001954 l 13.254274259910758 -12.212516131865792 a39.02280046019528,39.02280046019528 0 0,0 0.4509109853637083,0.49790717220218494 l -13.462528885890503 11.982556172394057" fill="red" stroke="none" /><path d="M 115.9244219780498 86.31012108654704 l 13.551369312550516 -11.64981719625457 a38.870586194954114,38.870586194954114 0 0,0 0.43181405746747503,0.5111316428765228 l -13.749893983505109 11.41482660374894" fill="red" stroke="none" /><path d="M 116.15771136456269 86.58626213691792 l 18.128230031535278 -15.04961439637943 a44.56106146921162,44.56106146921162 0 0,0 0.484869987637652,0.5943932731710797 l -18.38459851124934 14.73533695360025" fill="red" stroke="none" /><path d="M 117.2510076193507 88.02491185347247 l 19.424699090009984 -13.48399403416401 a44.64607853008201,44.64607853008201 0 0,0 0.4328023472646255,0.6350840396062268 l -19.653925902943342 13.147631971287375" fill="red" stroke="none" /><path d="M 117.45458315368197 88.32363383020206 l 10.147304984405553 -6.78811104174329 a33.20844994098673,33.20844994098673 0 0,0 0.31374610489712795,0.4778568426413271 l -10.262647724660605 6.612436135124289" fill="red" stroke="none" /><line stroke="#e1ed5e" stroke-width="0.3" x1="172.23445277983987" x2="176.4835382374775" y1="55.19839476539836" y2="52.563006222186495" /><path d="M 173.08426987136738 54.67131705675599 a86.0,86.0 0 0,1 12.851231095245387,41.99856678651699" fill="none" id="id3" stroke="none" /><text fill="#e1ed5e" style="font-size:6.75px; font-family:Arial;" text-anchor="middle"><textPath startOffset="22.20632615414155" xlink:href="#id3">March</textPath></text><path d="M 118.56541770881063 90.18545643968196 l 15.873965459907717 -8.391716681241814 a38.9556032558245,38.9556032558245 0 0,0 0.30828827555595667,0.5955148221868279 l -16.01606316862379 8.117229136794641" fill="red" stroke="none" /><path d="M 119.04729006885535 91.15688171328212 l 13.581931695001774 -6.3057069066960025 a35.97433832130313,35.97433832130313 0 0,0 0.2559277520942555,0.5639028772305983 l -13.688461764059376 6.070982020623341" fill="red" stroke="none" /><path d="M 119.61058180528143 92.48833698450437 l 19.429892423097108 -7.442451517187044 a41.80650869701128,41.80650869701128 0 0,0 0.2516262319080535,0.6742332008218894 l -19.555123243506785 7.106895179335821" fill="red" stroke="none" /><path d="M 119.85752413597 93.16781622104841 l 16.903721202195886 -5.815897742879479 a38.876253999012135,38.876253999012135 0 0,0 0.21226935674013228,0.6346583584993005 l -17.00132785270779 5.5240662814578645" fill="red" stroke="none" /><path d="M 120.28053869075195 94.5502522615342 l 17.460862913063284 -4.6920498327551945 a39.08029494510106,39.08029494510106 0 0,0 0.16898257774312592,0.6511588043760025 l -17.53904182267671 4.390794602830342" fill="red" stroke="none" /><path d="M 120.6074358757038 95.95851677861258 l 17.619949652570554 -3.4555842518240105 a38.9556032558245,38.9556032558245 0 0,0 0.12338589286742357,0.6591323734507243 l -17.67682126934784 3.1517738009107235" fill="red" stroke="none" /><path d="M 120.78858239683441 97.02765380044208 l 17.797278105488253 -2.5446502762679266 a38.9782744720566,38.9782744720566 0 0,0 0.08924911363991851,0.6650095619670003 l -17.838443218186008 2.237922372236262" fill="red" stroke="none" /><path d="M 120.87857604477298 97.74499172005257 l 18.32512499815348 -1.9792206380977369 a39.431698796698626,39.431698796698626 0 0,0 0.06707683905955618,0.6754546153840468 l -18.356478962895263 1.663490492009255" fill="red" stroke="none" /><path d="M 120.94382443527127 98.46500227214037 l 6.087896004543428 -0.44618911714530257 a27.104224970493366,27.104224970493366 0 0,0 0.030097833695012798,0.4656001656453345 l -6.094674429242856 0.3413298872469328" fill="red" stroke="none" /><path d="M 120.96714384426684 98.82574320788733 l 17.94448710782646 -1.0049740691365125 a38.972606667998576,38.972606667998576 0 0,0 0.03174669894403006,0.6701226387507003 l -17.959127415003987 0.6959403237628125" fill="red" stroke="none" /><line stroke="#e1ed5e" stroke-width="0.3" x1="184.98032266829074" x2="189.97916517819016" y1="98.17113171792111" y2="98.06355123074" /><path d="M 185.9800911702706 98.14961562048488 a86.0,86.0 0 0,1 -9.607161424134198,41.387399972396054" fill="none" id="id4" stroke="none" /><text fill="#e1ed5e" style="font-size:6.75px; font-family:Arial;" text-anchor="middle"><textPath startOffset="21.466115282336823" xlink:href="#id4">April</textPath></text><path d="M 120.99513854157772 99.54816195383933 l 18.076109392618278 -0.38901738771443106 a39.08029494510106,39.08029494510106 0 0,0 0.008685117064112551,0.672671887950334 l -18.080127516800108 0.07780924170363443" fill="red" stroke="none" /><path d="M 120.99824983174949 100.27111621757518 l 19.932005573462238 0.2573495411790879 a40.933666872075364,40.933666872075364 0 0,0 -0.015160928333513768,0.7044687659344205 l -19.924622582443718 -0.6004081229036232" fill="red" stroke="none" /><path d="M 120.9764740272857 100.99374915477107 l 29.666021608673905 1.4054117894500366 a50.69929326405314,50.69929326405314 0 0,0 -0.04880084401380093,0.8713718524191302 l -29.637434413772574 -1.91585535820459" fill="red" stroke="none" /><path d="M 120.95626037817324 101.35467743843564 l 14.447288198770284 0.933917360076132 a35.47744238233324,35.47744238233324 0 0,0 -0.04463981512042488,0.6090748108199596 l -14.42907182498552 -1.182465307392862" fill="red" stroke="none" /><path d="M 120.89721153311464 102.0752229133903 l 17.895916473490026 1.7771756706895983 a38.98394227611462,38.98394227611462 0 0,0 -0.07206032940831497,0.6671891543555509 l -17.86267384258066 -2.0849611469299405" fill="red" stroke="none" /><path d="M 120.81339534386255 102.79330883721812 l 19.51498765037798 2.6190530935202494 a40.68995129758027,40.68995129758027 0 0,0 -0.09913999867756991,0.6933849198445581 l -19.46701360068381 -2.954583485345217" fill="red" stroke="none" /><path d="M 120.64145759157962 103.86396538481128 l 29.62676466208221 5.545964601111059 a51.141381980579126,51.141381980579126 0 0,0 -0.16942425581457396,0.8638906303040571 l -29.52691047329197 -6.055118958483061" fill="red" stroke="none" /><path d="M 120.49622156327973 104.57218783832717 l 19.40015081434098 4.327682218948899 a40.87698883149511,40.87698883149511 0 0,0 -0.15910771112140587,0.6854318552753377 l -19.32278253728902 -4.660982731572801" fill="red" stroke="none" /><path d="M 120.32669344350535 105.2749913415812 l 19.08059213360981 4.951614908581859 a40.71262251381238,40.71262251381238 0 0,0 -0.18187283024722897,0.6768164597034859 l -18.9925312270208 -5.279322301460893" fill="red" stroke="none" /><path d="M 120.13307415673323 105.97154293290107 l 14.426804667766042 4.279042673139452 a36.048019774057465,36.048019774057465 0 0,0 -0.18156739982213368,0.5933727680381787 l -14.351010495437777 -4.526742413729688" fill="red" stroke="none" /><path d="M 119.67450827220406 107.3425965602758 l 22.079229049320826 8.24004691899336 a44.56672927326965,44.56672927326965 0 0,0 -0.27441585880196584,0.7164132145706326 l -21.934118910925353 -8.618883700397136" fill="red" stroke="none" /><path d="M 119.41010516605496 108.01547362559984 l 16.63810709038701 6.870766923825386 a39.000945688288695,39.000945688288695 0 0,0 -0.2615830920365482,0.6183051591781766 l -16.51737301715815 -7.156146608669726" fill="red" stroke="none" /><line stroke="#e1ed5e" stroke-width="0.3" x1="174.80103733775053" x2="179.2010983576182" y1="140.37084112569926" y2="142.7455964860345" /><path d="M 175.68104954172406 140.8457921977663 a86.0,86.0 0 0,1 -30.038265399797805,32.042727171017184" fill="none" id="id5" stroke="none" /><text fill="#e1ed5e" style="font-size:6.75px; font-family:Arial;" text-anchor="middle"><textPath startOffset="22.206326154141568" xlink:href="#id5">May</textPath></text><path d="M 116.498646956653 112.99209946851258 l 14.124628733536614 11.1226442958657 a38.9782744720566,38.9782744720566 0 0,0 -0.4196328417686448,0.5235564916054565 l -13.931077979713116 -11.364128621049405" fill="red" stroke="none" /><path d="M 116.0416608686014 113.55231037782055 l 13.703092149970768 11.576641563079702 a38.93859984365042,38.93859984365042 0 0,0 -0.43696060571344403,0.5082839020823775 l -13.501789034686546 -11.810802564323607" fill="red" stroke="none" /><path d="M 115.80600337817218 113.82643327865902 l 13.531650811382532 11.83692440253854 a38.9782744720566,38.9782744720566 0 0,0 -0.4460992059684234,0.5011971869707368 l -13.325892755765771 -12.068095759250143" fill="red" stroke="none" /><path d="M 115.56566222782051 114.09645910891815 l 13.414115879306468 12.147991727391462 a39.097298357275136,39.097298357275136 0 0,0 -0.4560487462036906,0.49495084328282996 l -13.203020725107056 -12.377093825475626" fill="red" stroke="none" /><path d="M 115.32070863581623 114.36230785411682 l 13.066566079341772 12.249175223458492 a38.91026082336029,38.91026082336029 0 0,0 -0.4622788171221015,0.48469749158616804 l -12.853780710840706 -12.472279831627166" fill="red" stroke="none" /><path d="M 115.07121518719521 114.62390073753431 l 12.906660188448594 12.52358984359272 a38.98394227611462,38.98394227611462 0 0,0 -0.47144464825300714,0.4775709396495014 l -12.689174915140052 -12.743901277222886" fill="red" stroke="none" /><path d="M 114.81725581225074 114.88116024355365 l 12.61319183181586 12.667590491131731 a38.876253999012135,38.876253999012135 0 0,0 -0.4782705748616907,0.4680884201145794 l -12.393271304578374 -12.882829014168882" fill="red" stroke="none" /><path d="M 114.55890576462653 115.13401014063108 l 12.412918215333892 12.903252015142522 a38.90459301930227,38.90459301930227 0 0,0 -0.48661154589429717,0.4601215894043379 l -12.188970835048789 -13.11500824129278" fill="red" stroke="none" /><path d="M 113.75828350139079 115.86535959552629 l 11.715454748397171 13.509672364990001 a38.88192180307017,38.88192180307017 0 0,0 -0.5094170964312489,0.4341363011465989 l -11.481172175388874 -13.709333056359547" fill="red" stroke="none" /><path d="M 113.48314897796784 116.09983520530334 l 13.31160945089461 15.895004855836198 a41.732827244256946,41.732827244256946 0 0,0 -0.5547085097217168,0.45648733913790235 l -13.036030812628201 -16.12178731383128" fill="red" stroke="none" /><path d="M 112.92097659922987 116.55440617244103 l 7.115194408529889 9.11601513477747 a32.56407036508629,32.56407036508629 0 0,0 -0.4448426795742687,0.3410863976325795 l -6.957223000462126 -9.237140874237422" fill="red" stroke="none" /><path d="M 112.34349029814194 116.9893568818739 l 10.63399362910493 14.636436573505664 a39.0916305532171,39.0916305532171 0 0,0 -0.5477904086494944,0.3908339118339889 l -10.380475892606553 -14.817314747183874" fill="red" stroke="none" /><path d="M 111.7513745106137 117.40417183066458 l 9.997016505379541 14.805909972188353 a38.864918390896094,38.864918390896094 0 0,0 -0.5576658686944511,0.369590529180303 l -9.740675937945127 -14.975798522459973" fill="red" stroke="none" /><path d="M 111.1453310114006 117.79835938074945 l 7.183280522603487 11.471225766489638 a34.53471609056468,34.53471609056468 0 0,0 -0.5065433752536336,0.3111603132924963 l -6.9847579474175445 -11.593174546610513" fill="red" stroke="none" /><line stroke="#e1ed5e" stroke-width="0.3" x1="143.8653032363475" x2="146.44561519142675" y1="172.8068346515853" y2="177.08958963109032" /><path d="M 144.38136562736335 173.6633856474863 a86.0,86.0 0 0,1 -40.68145358897372,12.25698825130547" fill="none" id="id6" stroke="none" /><text fill="#e1ed5e" style="font-size:6.75px; font-family:Arial;" text-anchor="middle"><textPath startOffset="21.466115282336833" xlink:href="#id6">June</textPath></text><path d="M 110.5260780823613 118.17145234162733 l 7.593833647233856 13.109439729711829 a36.15004024710192,36.15004024710192 0 0,0 -0.5411337965487986,0.30726989240497427 l -7.367051083763858 -13.238212787911431" fill="red" stroke="none" /><path d="M 109.57404056367764 118.69057910512821 l 9.00520447930544 17.580089154506368 a40.75229714221855,40.75229714221855 0 0,0 -0.6270926464028063,0.31443727113615955 l -8.701257925219874 -17.73249426655183" fill="red" stroke="none" /><path d="M 108.92500713936063 119.00905698771935 l 7.599822845613797 16.18659383830962 a38.88192180307017,38.88192180307017 0 0,0 -0.6082836046846245,0.2792331684839258 l -7.320071245161754 -16.315014077127618" fill="red" stroke="none" /><path d="M 106.91757812671514 119.82793768551818 l 6.8239680865571755 19.559622097462466 a41.715823832082876,41.715823832082876 0 0,0 -0.6800280530085964,0.23070243709248572 l -6.486270300611352 -19.674187521453074" fill="red" stroke="none" /><path d="M 106.2309692047433 120.05430185196036 l 6.151695623153716 19.799160752422676 a41.732827244256946,41.732827244256946 0 0,0 -0.6878464712666305,0.2072424993019931 l -5.80997417744684 -19.902118620830393" fill="red" stroke="none" /><path d="M 105.18746579009965 120.34920634021253 l 4.455033294541689 17.476046191218174 a39.03495251263685,39.03495251263685 0 0,0 -0.6525281837983764,0.16037555164580486 l -4.153551826000101 -17.550143001178007" fill="red" stroke="none" /><path d="M 103.7750983002368 120.6578951692458 l 3.548765253925266 19.41936732912396 a40.740961534102496,40.740961534102496 0 0,0 -0.6909493025518216,0.12013039288631597 l -3.2139669799013943 -19.477576300531283" fill="red" stroke="none" /><path d="M 101.98527174616119 120.90594882070398 l 1.8667821574746544 19.658191539285507 a40.746629338160524,40.746629338160524 0 0,0 -0.6988157185246532,0.06029676065749945 l -1.5281221212084595 -19.68741255222167" fill="red" stroke="none" /><path d="M 101.26447882468166 120.96189622390904 l 1.421077668682755 23.557913375529917 a44.600736097617805,44.600736097617805 0 0,0 -0.7667332327991262,0.03963135019664694 l -1.0153563674701491 -23.578884532488765" fill="red" stroke="none" /><path d="M 100.90346689309514 120.98055641714683 l 0.7778546619187744 18.06355467306416 a39.08029494510106,39.08029494510106 0 0,0 -0.672329295915094,0.023156380360457172 l -0.4668050143290281 -18.074267851850713" fill="red" stroke="none" /><line stroke="#e1ed5e" stroke-width="0.3" x1="102.19456741930631" x2="102.32365962044197" y1="184.97166512339345" y2="189.96999836594603" /><path d="M 102.22038585953345 185.97133177190398 a86.0,86.0 0 0,1 -42.740103519485714,-10.115201625700543" fill="none" id="id7" stroke="none" /><text fill="#e1ed5e" style="font-size:6.75px; font-family:Arial;" text-anchor="middle"><textPath startOffset="22.20632615414155" xlink:href="#id7">July</textPath></text><path d="M 99.45781275523022 120.99299961872073 l -0.4635856694026086 17.949617728734502 a38.9556032558245,38.9556032558245 0 0,0 -0.6701841259317336,-0.023082496368825787 l 0.7724901470089852 -17.93897843393958" fill="red" stroke="none" /><path d="M 98.73552117531835 120.96189622390904 l -1.0774116714772826 17.860790712427455 a38.89325741118621,38.89325741118621 0 0,0 -0.667921760813553,-0.04606379518906963 l 1.3846961930697657 -17.8395985727221" fill="red" stroke="none" /><path d="M 97.65516085044442 120.86867818915974 l -1.997943356705953 17.7813633652306 a38.89325741118621,38.89325741118621 0 0,0 -0.6646535006227641,-0.08048028271200068 l 2.3037242803801066 -17.74433755379325" fill="red" stroke="none" /><path d="M 97.2962882734958 120.8252237178851 l -1.9403239979508091 14.94526245028073 a36.07069099028956,36.07069099028956 0 0,0 -0.6150420542741649,-0.08523922444643338 l 2.197294643411805 -14.909648660341691" fill="red" stroke="none" /><path d="M 96.22490169976321 120.6578951692458 l -3.2257797283742033 17.651942855011907 a38.94426764770844,38.94426764770844 0 0,0 -0.6584036305582995,-0.12618462281034262 l 3.5291509735041977 -17.593801033853097" fill="red" stroke="none" /><path d="M 94.81253420990036 120.34920634021253 l -4.448032927956918 17.44858540210565 a39.00661349234673,39.00661349234673 0 0,0 -0.6491992480539759,-0.1714594218912016 l 4.747722618822383 -17.369434630910867" fill="red" stroke="none" /><path d="M 94.46302465271185 120.25689768951611 l -3.523805456463071 12.891761680732708 a34.364681968823916,34.364681968823916 0 0,0 -0.5692572273786292,-0.1608777786139541 l 3.7451938519463144 -12.829195108780231" fill="red" stroke="none" /><path d="M 93.42475214034765 119.94407469862007 l -5.5368435945027 16.79438168725953 a38.683548661039275,38.683548661039275 0 0,0 -0.6305975973366379,-0.2139329427463911 l 5.825110924776563 -16.69658575761502" fill="red" stroke="none" /><path d="M 92.7421414339146 119.70592522655815 l -3.9275200508587513 10.66367107368068 a32.36394713634095,32.36394713634095 0 0,0 -0.5211054428827065,-0.1970374892779813 l 4.110495714501741 -10.594485334296067" fill="red" stroke="none" /><path d="M 92.40401165467489 119.57807347666478 l -4.811637626900541 12.401624478599933 a34.302336124185636,34.302336124185636 0 0,0 -0.548639606982951,-0.2183150222495803 l 5.024398309925351 -12.316962611944286" fill="red" stroke="none" /><path d="M 92.06813273071674 119.44442032107085 l -8.128097288059106 19.9254645487605 a42.51952841044769,42.51952841044769 0 0,0 -0.6753083930282289,-0.282278963054933 l 8.469877140584796 -19.782600542685596" fill="red" stroke="none" /><path d="M 91.7346041902142 119.30500536409082 l -9.138431948381777 21.34410521199966 a44.218134416359035,44.218134416359035 0 0,0 -0.6971290528791129,-0.30560089004782026 l 9.504481675918635 -21.18363976865739" fill="red" stroke="none" /><path d="M 91.40352486487194 119.15986991738527 l -11.869884149048348 26.4556614955895 a49.99648556085799,49.99648556085799 0 0,0 -0.7821640764711405,-0.3590531647825306 l 12.323516221286908 -26.247421260472894" fill="red" stroke="none" /><path d="M 91.07499286063937 119.00905698771935 l -13.26681219282877 28.256513981558367 a52.21600371844214,52.21600371844214 0 0,0 -0.8103111494996452,-0.3889985942872963 l 13.751236010328656 -28.023961110771506" fill="red" stroke="none" /><path d="M 90.7491055286396 118.85261126421891 l -11.321244469718692 23.071825289496353 a46.699799581556654,46.699799581556654 0 0,0 -0.718612273656109,-0.36032711215726165 l 11.71671065105756 -22.873530336429788" fill="red" stroke="none" /><path d="M 90.42595943632237 118.69057910512821 l -8.250705320633715 16.10714509122265 a39.09735509066536,39.09735509066536 0 0,0 -0.5963446915567687,-0.31197935763178714 l 8.52674091471698 -15.962736314646147" fill="red" stroke="none" /><path d="M 90.10565033884886 118.52300852407294 l -8.661611814299848 16.215225352145172 a39.38360825416137,39.38360825416137 0 0,0 -0.5952123260082255,-0.32455721789589875 l 8.939446952176713 -16.063727482489504" fill="red" stroke="none" /><line stroke="#e1ed5e" stroke-width="0.3" x1="58.666819895761336" x2="56.23545636021788" y1="174.27360380694188" y2="178.64263932499728" /><path d="M 58.180547188652646 175.14741091055294 a86.0,86.0 0 0,1 -31.652253787137756,-30.449443065178592" fill="none" id="id8" stroke="none" /><text fill="#e1ed5e" style="font-size:6.75px; font-family:Arial;" text-anchor="middle"><textPath startOffset="22.20632615414155" xlink:href="#id8">August</textPath></text><path d="M 89.7882731507175 118.34994917583269 l -15.733391054169735 28.272096430761938 a53.35507735508803,53.35507735508803 0 0,0 -0.7986778265517283,-0.4535101141269368 l 16.217717647642672 -27.997083150840368" fill="red" stroke="none" /><path d="M 89.1626897886671 117.98757091392108 l -18.669675359007357 30.98758851701508 a57.177167110078855,57.177167110078855 0 0,0 -0.8386550837547891,-0.5151704500622882 l 19.200309642694453 -30.661629600124414" fill="red" stroke="none" /><path d="M 88.8546689885994 117.79835938074946 l -12.721937755081312 20.316096484962763 a44.97063780191257,44.97063780191257 0 0,0 -0.652541510085681,-0.4164828656696566 l 13.069761067213916 -20.094099190469304" fill="red" stroke="none" /><path d="M 88.54995079064634 117.60387380957326 l -9.73347903266208 14.964733643165067 a38.851718883349825,38.851718883349825 0 0,0 -0.5574764712855096,-0.3694650069051787 l 9.989630202687552 -14.79497061516857" fill="red" stroke="none" /><path d="M 87.95078237400918 117.19931262002967 l -18.111728135837097 25.85307062803041 a52.56605703860401,52.56605703860401 0 0,0 -0.736607336628468,-0.5255497765466179 l 18.55406280031445 -25.53747658963957" fill="red" stroke="none" /><path d="M 87.65650970185807 116.9893568818739 l -17.068819349729274 23.493214356755917 a50.0392099549243,50.0392099549243 0 0,0 -0.6924831657753332,-0.5122824911062263 l 17.470687485923172 -23.195921916909924" fill="red" stroke="none" /><path d="M 87.36589467227662 116.77436683061367 l -7.074445577189767 9.392777894180929 a32.758913929187244,32.758913929187244 0 0,0 -0.44750434723992255,-0.34312725089926993 l 7.235078652923176 -9.269611301454292" fill="red" stroke="none" /><path d="M 86.79598089348748 116.32954008644616 l -14.68409446473055 18.159963815616752 a44.35394861760298,44.35394861760298 0 0,0 -0.5895481893412856,-0.485158023591486 l 14.994512782616523 -17.904510673168087" fill="red" stroke="none" /><path d="M 86.51685102203217 116.09983520530335 l -15.360454889330322 18.341471476790513 a44.92390332577591,44.92390332577591 0 0,0 -0.5885769872302733,-0.5015980774226897 l 15.673897353137653 -18.07434900914487" fill="red" stroke="none" /><path d="M 86.24171649860922 115.8653595955263 l -13.104228148048676 15.111135903660772 a41.00168052077167,41.00168052077167 0 0,0 -0.5292294785160079,-0.4669834823340244 l 13.362399979471272 -14.88332927955446" fill="red" stroke="none" /><path d="M 85.97065885151581 115.62618273729859 l -16.758206785231177 18.66565213604154 a46.08473767692779,46.08473767692779 0 0,0 -0.5857160594606593,-0.5350377331235786 l 17.077022394158693 -18.374421636331387" fill="red" stroke="none" /><path d="M 85.44109423537348 115.13401014063109 l -29.009960733609585 30.15590917474558 a62.84443427650892,62.84443427650892 0 0,0 -0.7731363137263023,-0.7566766066049817 l 29.52474699971168 -29.65208246521803" fill="red" stroke="none" /><path d="M 85.18274418774928 114.88116024355367 l -13.5078237079921 13.56608077010517 a40.14418576976338,40.14418576976338 0 0,0 -0.48547582503541264,-0.49178444765132184 l 13.739340158083046 -13.331555828473183" fill="red" stroke="none" /><path d="M 84.67929136418377 114.36230785411682 l -21.21594344904062 19.88876092312819 a50.0805616776953,50.0805616776953 0 0,0 -0.5841625463115669,-0.6339930705171042 l 21.55515240334792 -19.52061659780974" fill="red" stroke="none" /><path d="M 84.43433777217949 114.09645910891817 l -21.41226573358065 19.39121663601539 a49.88778992014363,49.88778992014363 0 0,0 -0.5709566103766359,-0.6414758044276254 l 21.742881193605626 -19.0197666618469" fill="red" stroke="none" /><path d="M 83.95833913139862 113.55231037782056 l -26.861966952446515 22.693517615177793 a56.16476944762632,56.16476944762632 0 0,0 -0.6175557109768672,-0.7438856366027724 l 27.24861866331692 -22.227770721461262" fill="red" stroke="none" /><path d="M 83.50135304334701 112.99209946851258 l -41.625423440411076 32.77854500297072 a73.9821563274401,73.9821563274401 0 0,0 -0.7792546965303282,-1.007291739855647 l 42.18348495415947 -32.05717526900182" fill="red" stroke="none" /><path d="M 83.28015986056508 112.70617746262583 l -23.21065893527247 17.638849952905193 a50.15242212699739,50.15242212699739 0 0,0 -0.516423630138824,-0.6918338453144544 l 23.510843832106378 -17.23670322808143" fill="red" stroke="none" /><path d="M 82.85270091963577 112.12312394758628 l -30.143033269594874 21.31109551252742 a57.91565042953963,57.91565042953963 0 0,0 -0.5685085543171557,-0.8189789738654425 l 30.505402731074163 -20.789075276474964" fill="red" stroke="none" /><path d="M 82.6465618267979 111.8261652097733 l -24.6420421074453 16.79326356887954 a50.820193502372916,50.820193502372916 0 0,0 -0.4864143369715587,-0.7271234362085838 l 24.92745954982759 -16.366603218465134" fill="red" stroke="none" /><path d="M 82.24976979558568 111.22182372390057 l -34.28445851322421 21.67488226767359 a61.56136852797872,61.56136852797872 0 0,0 -0.5585532159529611,-0.9005656313319061 l 34.65247636884512 -21.08152030497642" fill="red" stroke="none" /><line stroke="#e1ed5e" stroke-width="0.3" x1="26.63291911575756" x2="22.317208475507996" y1="142.92168965132927" y2="145.44649492493687" /><path d="M 25.769776987707644 143.4266507060508 a86.0,86.0 0 0,1 -11.730757126820373,-40.83630448921669" fill="none" id="id9" stroke="none" /><text fill="#e1ed5e" style="font-size:6.75px; font-family:Arial;" text-anchor="middle"><textPath startOffset="21.46611528233685" xlink:href="#id9">September</textPath></text><path d="M 81.87401531095188 110.60418214915194 l -29.870109860190457 17.474807090840187 a55.6062472094552,55.6062472094552 0 0,0 -0.4762225029560934,-0.8303340748181929 l 30.166484359298927 -16.958053170163687" fill="red" stroke="none" /><path d="M 81.69416730710424 110.29060199501025 l -25.794708973919352 14.500464856249783 a50.59105425794307,50.59105425794307 0 0,0 -0.42020349206207486,-0.7627913944476261 l 26.040488875432946 -14.054302943404334" fill="red" stroke="none" /><path d="M 81.35079622478065 109.6543875284942 l -34.206998631095985 17.708403262239905 a59.51890836259397,59.51890836259397 0 0,0 -0.4631742465468762,-0.9138867297891555 l 34.50675154742913 -17.116962320748065" fill="red" stroke="none" /><path d="M 81.02952815118164 109.00673069616217 l -28.68031968953061 13.616736461909854 a52.74864169325646,52.74864169325646 0 0,0 -0.3823658187111742,-0.823581956643723 l 28.91046012508161 -13.121034437987303" fill="red" stroke="none" /><path d="M 80.73074385275274 108.34839909993369 l -32.381618312291764 14.02932583940724 a56.290100425348875,56.290100425348875 0 0,0 -0.37754311492842446,-0.8924003992575633 l 32.61831240841249 -13.469850914483517" fill="red" stroke="none" /><path d="M 80.58989483394504 108.01547362559985 l -27.191828863793166 11.228964769893494 a50.419129945688816,50.419129945688816 0 0,0 -0.32435679271807677,-0.8050269592192953 l 27.38108827076863 -10.759238442831395" fill="red" stroke="none" /><path d="M 80.45479744820244 107.68017299344265 l -17.051182218337505 6.700162294685522 a39.32034360534962,39.32034360534962 0 0,0 -0.2421116836438329,-0.6320772069137417 l 17.163988181574847 -6.405661520938622" fill="red" stroke="none" /><path d="M 80.32549172779594 107.34259656027581 l -32.88306187632455 12.272075809160182 a56.098427358329936,56.098427358329936 0 0,0 -0.3298473702149774,-0.9075982990230906 l 33.08943350754475 -11.704229713130973" fill="red" stroke="none" /><path d="M 80.0844068197444 106.66101706037122 l -29.486100409065674 9.861991861900677 a52.09162267907061,52.09162267907061 0 0,0 -0.2770970433518988,-0.85281700852408 l 29.65148970343382 -9.352975953398794" fill="red" stroke="none" /><path d="M 79.86692584326677 105.97154293290107 l -28.175707861195953 8.35701730635807 a50.38894778208685,50.38894778208685 0 0,0 -0.23948514324828016,-0.833679201146445 l 28.315385641330337 -7.87078062970703" fill="red" stroke="none" /><path d="M 79.67330655649465 105.27499134158121 l -39.81632279220849 10.332755721743325 a62.13520878151174,62.13520878151174 0 0,0 -0.259750872139574,-1.0375756149003272 l 39.98828497864312 -9.645852267445607" fill="red" stroke="none" /><path d="M 79.58551787078972 104.9243191809786 l -23.241440842862136 5.606229548793009 a44.90804011637132,44.90804011637132 0 0,0 -0.17479798972762464,-0.7530251648581868 l 23.334499398520318 -5.205335726586248" fill="red" stroke="none" /><path d="M 79.4281124754447 104.21870165774334 l -28.964546396890334 5.939794282585484 a50.56731479348519,50.56731479348519 0 0,0 -0.16752245140111133,-0.8541933705724956 l 29.062498781267113 -5.440337184945034" fill="red" stroke="none" /><path d="M 79.23777060512086 103.15116336523772 l -34.84900766736612 5.289167853206444 a56.24810111168452,56.24810111168452 0 0,0 -0.13704702247112527,-0.9585065559676461 l 34.93488874085385 -4.688515825258397" fill="red" stroke="none" /><path d="M 79.18660465613746 102.79330883721812 l -28.495181886589346 3.824260389375588 a49.75065839725339,49.75065839725339 0 0,0 -0.10660497818342973,-0.8497465656955637 l 28.556788374019625 -3.3331960693926157" fill="red" stroke="none" /><path d="M 79.10278846688536 102.07522291339032 l -34.75450769133343 3.4513384998934042 a55.925456937709505,55.925456937709505 0 0,0 -0.08688526718961002,-0.9587716834048158 l 34.80876755480011 -2.852585427940022" fill="red" stroke="none" /><path d="M 79.07016306316243 101.71520430193888 l -29.077439962933266 2.3829019912721985 a50.174916224352685,50.174916224352685 0 0,0 -0.06313304549409866,-0.8614002463287462 l 29.114149567091697 -1.8820286084466915" fill="red" stroke="none" /><path d="M 79.0095281055655 100.63252640178507 l -62.697727970930394 1.8893319060667313 a83.72618805385889,83.72618805385889 0 0,0 -0.03101033534791391,-1.4409284308445456 l 62.72096036896332 -0.8098136594320567" fill="red" stroke="none" /><line stroke="#e1ed5e" stroke-width="0.3" x1="15.007084014347285" x2="10.007500721073583" y1="101.09737516637583" y2="101.16192664675087" /><path d="M 14.007167355692545 101.11028546245083 a86.0,86.0 0 0,1 10.666146001902534,-42.60595125391555" fill="none" id="id10" stroke="none" /><text fill="#e1ed5e" style="font-size:6.75px; font-family:Arial;" text-anchor="middle"><textPath startOffset="22.20632615414155" xlink:href="#id10">October</textPath></text><path d="M 79.01574976396665 99.18683210126434 l -35.245752125861394 -1.365820263920096 a56.27220588382583,56.27220588382583 0 0,0 0.04583878092447325,-0.9675842166891842 l 35.21701973670342 1.9723155872322893" fill="red" stroke="none" /><path d="M 79.03285615573316 98.82574320788736 l -34.00616209825955 -1.9045019729038422 a55.05945079442561,55.05945079442561 0 0,0 0.061140659626076115,-0.9458189429188737 l 33.968340847629065 2.4895799800757277" fill="red" stroke="none" /><path d="M 79.08570108090925 98.10471618934814 l -28.955133888192798 -2.6239558259089133 a50.073784113174746,50.073784113174746 0 0,0 0.08517997602334075,-0.8577507340825102 l 28.90567678648723 3.121982090695854" fill="red" stroke="none" /><path d="M 79.12142395522702 97.74499172005258 l -28.63099922877024 -3.092315308553275 a49.79750910765296,49.79750910765296 0 0,0 0.09938076323820483,-0.8514336886155962 l 28.573528112528447 3.584692735493733" fill="red" stroke="none" /><path d="M 79.21141760316559 97.0276538004421 l -34.750613281745615 -4.968633808144205 a56.10402320784426,56.10402320784426 0 0,0 0.14491964825572215,-0.9548394139456288 l 34.65993774005059 5.566072334481926" fill="red" stroke="none" /><path d="M 79.32604984820605 96.31383870115002 l -40.27102796737579 -7.180316469195167 a61.906144259108046,61.906144259108046 0 0,0 0.19607820813934512,-1.0474576283345518 l 40.141464035326585 7.872452174992291" fill="red" stroke="none" /><path d="M 79.3925641242962 95.95851677861259 l -17.979241812614024 -3.5260478090151968 a39.32173980024575,39.32173980024575 0 0,0 0.13597963953053463,-0.6630850145369261 l 17.915882877168492 3.8350084797155253" fill="red" stroke="none" /><path d="M 79.46518482838121 95.60439243477599 l -28.215608995224734 -6.039730249348786 a49.854790459407354,49.854790459407354 0 0,0 0.1868500878091726,-0.8376123060281587 l 28.107464520413522 6.524520724926903" fill="red" stroke="none" /><path d="M 79.62865764111835 94.90015583598534 l -34.60043072299282 -8.662011642944838 a56.6681966451787,56.6681966451787 0 0,0 0.24503238674652236,-0.9442097411356148 l 34.44620200437599 9.256317809629316" fill="red" stroke="none" /><path d="M 79.71946130924805 94.55025226153421 l -28.988236430477766 -7.78966369375321 a51.01660726682906,51.01660726682906 0 0,0 0.23519440496425661,-0.846119411854838 l 28.849855254947148 8.28749440902699" fill="red" stroke="none" /><path d="M 79.81627453868168 94.20196356495316 l -21.862834757002183 -6.280382317795739 a43.7470161926716,43.7470161926716 0 0,0 0.21413977540787174,-0.7219728680906322 l 21.751489084482603 6.655784572632911" fill="red" stroke="none" /><path d="M 80.02781315780177 93.51064311812611 l -28.02017544347452 -9.104306893486477 a50.462155995342194,50.462155995342194 0 0,0 0.2755298746922341,-0.8237992552253762 l 27.859308275010516 9.585279251634175" fill="red" stroke="none" /><path d="M 80.2630227832202 92.82701384747504 l -17.412650593684308 -6.328258892707546 a39.52693340277518,39.52693340277518 0 0,0 0.23790585774821574,-0.6374694194143827 l 17.301140147434467 6.62705144915127" fill="red" stroke="none" /><path d="M 80.52162464483688 92.15188598940014 l -27.01309773173497 -10.883960644178524 a50.12332481651592,50.12332481651592 0 0,0 0.32933008599228325,-0.7974989254584087 l 26.821745958856486 11.347334140090243" fill="red" stroke="none" /><path d="M 80.95270993114464 91.15688171328213 l -31.900067683064567 -14.810299567858609 a56.17043206265475,56.17043206265475 0 0,0 0.4147031066515801,-0.8734705050861016 l 31.640406382571232 15.357212488585242" fill="red" stroke="none" /><path d="M 81.10775173730289 90.83032412892265 l -26.459114883372653 -12.84238402663719 a50.41107933924116,50.41107933924116 0 0,0 0.3856207205742943,-0.7773878417824456 l 26.234134149844948 13.295931456918597" fill="red" stroke="none" /><line stroke="#e1ed5e" stroke-width="0.3" x1="26.266209847984243" x2="21.928928074336255" y1="57.711370442889674" y2="55.22380399835377" /><path d="M 25.398753493254645 57.213857153982495 a86.0,86.0 0 0,1 29.58750427330803,-30.492523968695096" fill="none" id="id11" stroke="none" /><text fill="#e1ed5e" style="font-size:6.75px; font-family:Arial;" text-anchor="middle"><textPath startOffset="21.46611528233685" xlink:href="#id11">November</textPath></text><path d="M 81.96595687620814 89.24020034530311 l -49.51259743630137 -29.541108732041554 a78.65565375578997,78.65565375578997 0 0,0 0.7037216531515391,-1.1567333666311406 l 48.996759984863616 30.389009871879768" fill="red" stroke="none" /><path d="M 82.54541684631803 88.32363383020206 l -23.839518530451613 -15.947613599383935 a49.68185878354123,49.68185878354123 0 0,0 0.48161956897283764,-0.7067172887342615 l 23.561474495810035 16.35560891138861" fill="red" stroke="none" /><path d="M 84.31358615837235 86.03803664274999 l -22.092898557176582 -19.664165642000857 a50.576605232070534,50.576605232070534 0 0,0 0.5844159474101775,-0.6453266857762519 l 21.751138969150357 20.041545115046663" fill="red" stroke="none" /><path d="M 85.05521093208273 85.24692304244772 l -25.139588087089518 -24.817096851918535 a56.32544671120293,56.32544671120293 0 0,0 0.6870744279520923,-0.6841239120069319 l 24.70867785897011 25.246156614575575" fill="red" stroke="none" /><path d="M 85.57189188830299 84.74124197986013 l -23.489235953161742 -24.841549890847602 a55.18840163919303,55.18840163919303 0 0,0 0.6958787457153025,-0.6467434545369434 l 23.058149323651584 25.24219793145919" fill="red" stroke="none" /><path d="M 86.10567301691215 84.25364557470407 l -19.49588498237167 -22.09456529567035 a50.4662407994387,50.4662407994387 0 0,0 0.656316348633901,-0.5691510700866214 l 19.112674835090996 22.42688135917665" fill="red" stroke="none" /><path d="M 87.22198572758235 83.33499621200491 l -17.785186282074548 -23.195325223634484 a50.22902604121914,50.22902604121914 0 0,0 0.6906583077320009,-0.5201895185354093 l 17.383281820584155 23.498031331675747" fill="red" stroke="none" /><path d="M 87.80319425747018 82.90503203632743 l -20.26297064738075 -28.400455117354632 a55.888018435123094,55.888018435123094 0 0,0 0.7879381870959181,-0.5520010538729873 l 19.771101320701174 28.74504101399156" fill="red" stroke="none" /><path d="M 88.39885842347998 82.49532879139004 l -19.26848258275096 -29.073729518354778 a55.87916525876488,55.87916525876488 0 0,0 0.806344268812136,-0.5244687423604616 l 18.765171288154534 29.401097184874775" fill="red" stroke="none" /><path d="M 89.00827224532344 82.1063720568725 l -19.3038209485214 -31.425031409337034 a57.88048403004484,57.88048403004484 0 0,0 0.8534282610183542,-0.5141809781895765 l 18.760030621285395 31.75265899698523" fill="red" stroke="none" /><line stroke="#e1ed5e" stroke-width="0.3" x1="56.762969772571076" x2="54.21961505331055" y1="26.818313649435495" y2="22.513508569990535" /><path d="M 56.25429882871897 25.957352633546506 a86.0,86.0 0 0,1 42.265352541879196,-11.944610805530505" fill="none" id="id12" stroke="none" /><text fill="#e1ed5e" style="font-size:6.75px; font-family:Arial;" text-anchor="middle"><textPath startOffset="22.20632615414155" xlink:href="#id12">December</textPath></text><path d="M 89.63071344664047 81.73862282372117 l -17.503476895568223 -30.82541810773805 a56.44824544248355,56.44824544248355 0 0,0 0.8490781404490115,-0.4725110658824806 l 16.970274666047167 31.122144571180716" fill="red" stroke="none" /><path d="M 90.26544431104013 81.39251694778311 l -15.923436949249572 -30.437453195962398 a55.35104658279174,55.35104658279174 0 0,0 0.8480294637618591,-0.434393628981895 l 15.39714699789895 30.7070393502568" fill="red" stroke="none" /><path d="M 90.91171255644093 81.06846463323043 l -14.74070383742273 -30.705912171276992 a55.06084837306296,55.06084837306296 0 0,0 0.8579575853330812,-0.4028225902691161 l 14.20996804079004 30.955099744186118" fill="red" stroke="none" /><path d="M 91.90106846888425 80.62456947434976 l -16.112636755743754 -38.546970405482924 a62.779013758868466,62.779013758868466 0 0,0 1.0006261217345844,-0.4081805192811871 l 15.44672676442079 38.81861181094769" fill="red" stroke="none" /><path d="M 92.23578459929587 80.48803036053334 l -4.623321841162626 -11.618703338661508 a33.50477397311904,33.50477397311904 0 0,0 0.5376987086581809,-0.20861874530872718 l 4.422639967504768 11.696564787860787" fill="red" stroke="none" /><path d="M 92.57280143429618 80.3572730644239 l -10.591655147342477 -28.011771600632084 a50.94732887865301,50.94732887865301 0 0,0 0.8229635433484134,-0.3031044182902614 l 10.107909278221495 28.189939286728666" fill="red" stroke="none" /><path d="M 93.25333710446033 80.11325718540243 l -11.33969157546097 -33.425344270148614 a56.2964905423264,56.2964905423264 0 0,0 0.920359630983257,-0.3034281000838661 l 10.762649122235302 33.61558609449172" fill="red" stroke="none" /><path d="M 93.94186890950719 79.89281104454417 l -8.187054340851386 -27.173173733137638 a49.379732724452055,49.379732724452055 0 0,0 0.8159643000756074,-0.23820235440642884 l 7.718099823052357 27.310074416462765" fill="red" stroke="none" /><path d="M 94.63758080256005 79.69619591428918 l -11.587937744348375 -43.87557351558544 a66.380020410842,66.380020410842 0 0,0 1.1072538628012507,-0.2822636636637094 l 10.830974992862124 44.06854017541801" fill="red" stroke="none" /><path d="M 95.33964822691252 79.52364482259891 l -6.305576465139674 -27.70503807117598 a49.413543057546235,49.413543057546235 0 0,0 0.8309882026726536,-0.1816218350143424 l 5.8277455383135 27.80947340428619" fill="red" stroke="none" /><path d="M 96.04723909329186 79.375362276772 l -2.9939442456697165 -15.62174310257122 a36.90605418414354,36.90605418414354 0 0,0 0.6249510918439249,-0.11420581744762935 l 2.7245980327228985 15.670964401369586" fill="red" stroke="none" /><path d="M 96.75951476605007 79.25152402106235 l -5.495321331420258 -35.18594729176877 a56.61248999093847,56.61248999093847 0 0,0 0.9641134531396305,-0.1420852613287807 l 4.888838897851979 35.27532703725852" fill="red" stroke="none" /><path d="M 97.47563105711357 79.15227682838746 l -4.370047036220048 -36.090418207201154 a57.35403137850673,57.35403137850673 0 0,0 0.9811179885289546,-0.11024003767670476 l 3.7481623441813756 36.16029419834845" fill="red" stroke="none" /><path d="M 98.19473922651362 79.07773832637324 l -5.415782320459142 -62.766785020880285 a84.0,84.0 0 0,0 1.4416392425506632,-0.11189895124615123 l 4.334552888546145 62.8507092343149" fill="red" stroke="none" /><path d="M 99.27714615592234 79.0124445844662 l -1.217503372288311 -35.349358246969366 a56.370318671650594,56.370318671650594 0 0,0 0.9700348444529197,-0.025053138150663824 l 0.6088418926405124 35.36507817726239" fill="red" stroke="none" /></svg>