<?xml version="1.0" encoding="utf-8" ?>
<svg baseProfile="full" height="200mm" version="1.1" viewBox="0,0,200,200" width="200mm" xmlns="http://www.w3.org/2000/svg" xmlns:ev="http://www.w3.org/2001/xml-events" xmlns:xlink="http://www.w3.org/1999/xlink"><defs /><rect fill="#1a1a1a" height="200" width="200" x="0" y="0" /><text alignment-baseline="middle" fill="#e1ed5e" style="dominant-baseline: central; font-size:9.0px; font-family:Arial;" text-anchor="middle" x="100.0" y="100.0">2026</text><line stroke="#e1ed5e" stroke-width="0.3" x1="100.0" x2="100.0" y1="15.0" y2="10.0" /><path d="M 100.0 14.0 a86.0,86.0 0 0,1 42.46469731375804,11.215312516191453" fill="none" id="id13" stroke="none" /><text fill="#e1ed5e" style="font-size:6.75px; font-family:Arial;" text-anchor="middle"><textPath startOffset="22.20632615414155" xlink:href="#id13">January</textPath></text><path d="M 100.36148047927253 79.00311137660856 l 0.8213128637559415 -47.70662792067608 a68.71369721979215,68.71369721979215 0 0,0 1.1824428558341593,0.03053901041996593 l -1.6423823547849687 47.685422118113756" fill="red" stroke="none" /><path d="M 101.08401301168833 79.027996857942 l 2.0374416046832073 -39.41763731103741 a60.47025841664813,60.47025841664813 0 0,0 1.039045912057263,0.06267808692659903 l -2.7156495655800823 39.3767259547305" fill="red" stroke="none" /><path d="M 101.80526077348638 79.07773832637324 l 4.09365105512299 -47.44380414935542 a68.62008537501276,68.62008537501276 0 0,0 1.1759354525423482,0.11166924061966876 l -4.909711634755583 47.36630936422058" fill="red" stroke="none" /><path d="M 102.52436894288641 79.15227682838746 l 4.762481737790583 -39.331374741836264 a60.618660646033256,60.618660646033256 0 0,0 1.0348046199611418,0.13434733876240687 l -5.438801086259571 39.24356907990972" fill="red" stroke="none" /><path d="M 103.95276090670814 79.375362276772 l 8.900655153742319 -46.44166251841366 a68.28688697345245,68.28688697345245 0 0,0 1.1525317398244448,0.23118702455310888 l -9.69875330303389 46.281571537783336" fill="red" stroke="none" /><path d="M 104.66035177308747 79.52364482259891 l 13.981055319262426 -61.429065532203275 a84.0,84.0 0 0,0 1.407105252149906,0.3330163514365254 l -15.036384258374856 61.17930326862588" fill="red" stroke="none" /><path d="M 105.36241919743992 79.69619591428918 l 12.166053160498015 -46.064500139232536 a68.64400300752885,68.64400300752885 0 0,0 1.1398242257552025,0.3115570180084704 l -12.957175275476928 45.84825658039777" fill="red" stroke="none" /><path d="M 106.40334571778207 80.00007090966166 l 17.10064169440517 -53.41139403696752 a77.08216257717456,77.08216257717456 0 0,0 1.2601728814974624,0.41545918610259347 l -18.01749739814505 53.10912112660569" fill="red" stroke="none" /><path d="M 107.08798089147638 80.2323363322302 l 16.067746179757354 -44.811323174204794 a68.60490680507768,68.60490680507768 0 0,0 1.1081903298575044,0.4081558508894305 l -16.836718835387433 44.52810405550904" fill="red" stroke="none" /><path d="M 107.76421540070413 80.48803036053334 l 20.527018394472165 -51.58570944147057 a76.51976137148668,76.51976137148668 0 0,0 1.2196380202992383,0.4975209717669891 l -21.41194028435979 51.22472758352" fill="red" stroke="none" /><path d="M 109.41281617654863 81.2277094730956 l 6.949674265658142 -13.859965172518812 a36.50472853623002,36.50472853623002 0 0,0 0.5592863599976898,0.28648819639089373 l -7.187221113244587 13.738284450815417" fill="red" stroke="none" /><line stroke="#e1ed5e" stroke-width="0.3" x1="143.23703022742887" x2="145.7803849466894" y1="26.81831364943548" y2="22.513508569990506" /><path d="M 143.74570117128098 25.957352633546492 a86.0,86.0 0 0,1 28.547481713284135,27.462654790039103" fill="none" id="id14" stroke="none" /><text fill="#e1ed5e" style="font-size:6.75px; font-family:Arial;" text-anchor="middle"><textPath startOffset="19.985693538727396" xlink:href="#id14">February</textPath></text><path d="M 110.99172775467656 82.1063720568725 l 29.03981246221691 -47.274424124635466 a76.48136519730426,76.48136519730426 0 0,0 1.1158297855655508,0.6987325093547266 l -29.849261400154724 46.767547273957796" fill="red" stroke="none" /><path d="M 111.90073688211348 82.69761687909136 l 28.483139007414103 -41.41140069511851 a71.26125063353813,71.26125063353813 0 0,0 1.0046779650912125,0.703841119285424 l -29.19174811208897 40.914974733069144" fill="red" stroke="none" /><path d="M 112.48926042617603 83.11751280151076 l 27.529328495760367 -37.21305506117797 a67.28904183944346,67.28904183944346 0 0,0 0.9252366495739234,0.6968690622917092 l -28.165811299092674 36.73366940938041" fill="red" stroke="none" /><path d="M 113.34407831869373 83.78471172551755 l 9.877827352214611 -12.003213276809296 a36.54505072904975,36.54505072904975 0 0,0 0.4822945414763262,0.40390780843793356 l -10.082979430650056 11.831404310977543" fill="red" stroke="none" /><path d="M 114.42810811169701 84.74124197986012 l 26.5155429795699 -28.042086388988682 a59.593168159000925,59.593168159000925 0 0,0 0.7392866129353637,0.7111931359078041 l -26.994312836117683 27.581510166318576" fill="red" stroke="none" /><path d="M 114.94478906791727 85.2469230424477 l 33.101947427428414 -32.67731485686066 a67.51393156617317,67.51393156617317 0 0,0 0.8093175844337386,0.8340729117830793 l -33.65952927556526 32.102677749527466" fill="red" stroke="none" /><path d="M 117.45458315368197 88.32363383020206 l 26.123656026994688 -17.475603443482647 a52.42995577360233,52.42995577360233 0 0,0 0.49534664921513777,0.754446930534861 l -26.42059931156775 17.02333844897011" fill="red" stroke="none" /><line stroke="#e1ed5e" stroke-width="0.3" x1="172.23445277983987" x2="176.4835382374775" y1="55.19839476539836" y2="52.563006222186495" /><path d="M 173.08426987136738 54.67131705675599 a86.0,86.0 0 0,1 12.851231095245387,41.99856678651699" fill="none" id="id15" stroke="none" /><text fill="#e1ed5e" style="font-size:6.75px; font-family:Arial;" text-anchor="middle"><textPath startOffset="22.20632615414155" xlink:href="#id15">March</textPath></text><path d="M 118.03404312379186 89.2402003453031 l 26.753796385008684 -15.962337847882479 a52.153841666485455,52.153841666485455 0 0,0 0.4533418683534887,0.7749082059418424 l -27.0245979278325 15.49945022958674" fill="red" stroke="none" /><line stroke="#e1ed5e" stroke-width="0.3" x1="184.98032266829074" x2="189.97916517819016" y1="98.17113171792111" y2="98.06355123074" /><path d="M 185.9800911702706 98.14961562048488 a86.0,86.0 0 0,1 -9.607161424134198,41.387399972396054" fill="none" id="id16" stroke="none" /><text fill="#e1ed5e" style="font-size:6.75px; font-family:Arial;" text-anchor="middle"><textPath startOffset="21.466115282336823" xlink:href="#id16">April</textPath></text><line stroke="#e1ed5e" stroke-width="0.3" x1="174.80103733775053" x2="179.2010983576182" y1="140.37084112569926" y2="142.7455964860345" /><path d="M 175.68104954172406 140.8457921977663 a86.0,86.0 0 0,1 -30.038265399797805,32.042727171017184" fill="none" id="id17" stroke="none" /><text fill="#e1ed5e" style="font-size:6.75px; font-family:Arial;" text-anchor="middle"><textPath startOffset="22.206326154141568" xlink:href="#id17">May</textPath></text><line stroke="#e1ed5e" stroke-width="0.3" x1="143.8653032363475" x2="146.44561519142675" y1="172.8068346515853" y2="177.08958963109032" /><path d="M 144.38136562736335 173.6633856474863 a86.0,86.0 0 0,1 -40.68145358897372,12.25698825130547" fill="none" id="id18" stroke="none" /><text fill="#e1ed5e" style="font-size:6.75px; font-family:Arial;" text-anchor="middle"><textPath startOffset="21.466115282336833" xlink:href="#id18">June</textPath></text><line stroke="#e1ed5e" stroke-width="0.3" x1="102.19456741930631" x2="102.32365962044197" y1="184.97166512339345" y2="189.96999836594603" /><path d="M 102.22038585953345 185.97133177190398 a86.0,86.0 0 0,1 -42.740103519485714,-10.115201625700543" fill="none" id="id19" stroke="none" /><text fill="#e1ed5e" style="font-size:6.75px; font-family:Arial;" text-anchor="middle"><textPath startOffset="22.20632615414155" xlink:href="#id19">July</textPath></text><line stroke="#e1ed5e" stroke-width="0.3" x1="58.666819895761336" x2="56.23545636021788" y1="174.27360380694188" y2="178.64263932499728" /><path d="M 58.180547188652646 175.14741091055294 a86.0,86.0 0 0,1 -31.652253787137756,-30.449443065178592" fill="none" id="id20" stroke="none" /><text fill="#e1ed5e" style="font-size:6.75px; font-family:Arial;" text-anchor="middle"><textPath startOffset="22.20632615414155" xlink:href="#id20">August</textPath></text><line stroke="#e1ed5e" stroke-width="0.3" x1="26.63291911575756" x2="22.317208475507996" y1="142.92168965132927" y2="145.44649492493687" /><path d="M 25.769776987707644 143.4266507060508 a86.0,86.0 0 0,1 -11.730757126820373,-40.83630448921669" fill="none" id="id21" stroke="none" /><text fill="#e1ed5e" style="font-size:6.75px; font-family:Arial;" text-anchor="middle"><textPath startOffset="21.46611528233685" xlink:href="#id21">September</textPath></text><line stroke="#e1ed5e" stroke-width="0.3" x1="15.007084014347285" x2="10.007500721073583" y1="101.09737516637583" y2="101.16192664675087" /><path d="M 14.007167355692545 101.11028546245083 a86.0,86.0 0 0,1 10.666146001902534,-42.60595125391555" fill="none" id="id22" stroke="none" /><text fill="#e1ed5e" style="font-size:6.75px; font-family:Arial;" text-anchor="middle"><textPath startOffset="22.20632615414155" xlink:href="#id22">October</textPath></text><line stroke="#e1ed5e" stroke-width="0.3" x1="26.266209847984243" x2="21.928928074336255" y1="57.711370442889674" y2="55.22380399835377" /><path d="M 25.398753493254645 57.213857153982495 a86.0,86.0 0 0,1 29.58750427330803,-30.492523968695096" fill="none" id="id23" stroke="none" /><text fill="#e1ed5e" style="font-size:6.75px; font-family:Arial;" text-anchor="middle"><textPath startOffset="21.46611528233685" xlink:href="#id23">November</textPath></text><line stroke="#e1ed5e" stroke-width="0.3" x1="56.762969772571076" x2="54.21961505331055" y1="26.818313649435495" y2="22.513508569990535" /><path d="M 56.25429882871897 25.957352633546506 a86.0,86.0 0 0,1 42.265352541879196,-11.944610805530505" fill="none" id="id24" stroke="none" /><text fill="#e1ed5e" style="font-size:6.75px; font-family:Arial;" text-anchor="middle"><textPath startOffset="22.20632615414155" xlink:href="#id24">December</textPath></text></svg>