<?xml version="1.0" encoding="utf-8" ?>
<svg baseProfile="full" height="200mm" version="1.1" viewBox="0,0,200,200" width="200mm" xmlns="http://www.w3.org/2000/svg" xmlns:ev="http://www.w3.org/2001/xml-events" xmlns:xlink="http://www.w3.org/1999/xlink"><defs /><rect fill="#1a1a1a" height="200" width="200" x="0" y="0" /><text alignment-baseline="middle" fill="#e1ed5e" style="dominant-baseline: central; font-size:9.0px; font-family:Arial;" text-anchor="middle" x="100.0" y="100.0">2025</text><line stroke="#e1ed5e" stroke-width="0.3" x1="100.0" x2="100.0" y1="15.0" y2="10.0" /><path d="M 100.0 14.0 a86.0,86.0 0 0,1 42.46469731375804,11.215312516191453" fill="none" id="id1" stroke="none" /><text fill="#e1ed5e" style="font-size:6.75px; font-family:Arial;" text-anchor="middle"><textPath startOffset="22.20632615414155" xlink:href="#id1">January</textPath></text><path d="M 103.59715602781102 79.31037775812273 l 3.31702623735635 -19.078410635154043 a40.364617616231655,40.364617616231655 0 0,0 0.6835169028165605,0.124908345059634 l -3.644938261275811 19.01848680874367" fill="red" stroke="none" /><path d="M 104.307194497241 79.44645832069477 l 2.5294740356835224 -12.070420793034517 a33.332611119228446,33.332611119228446 0 0,0 0.560554959034121,0.12251560245828252 l -2.7368717188711713 12.025091692480364" fill="red" stroke="none" /><path d="M 105.01212808612495 79.60689891045804 l 6.946561842648697 -28.263830342654597 a50.10496224137914,50.10496224137914 0 0,0 0.8357772812346456,0.21305823834415072 l -7.432048012568367 28.140069108141578" fill="red" stroke="none" /><path d="M 105.71112130821622 79.79150937346287 l 2.6358134164432405 -9.326681722355291 a30.69198144428777,30.69198144428777 0 0,0 0.5071627523151864,0.14805471471916645 l -2.795966386481854 9.27992867871742" fill="red" stroke="none" /><path d="M 106.0581310904928 79.89281104454417 l 8.733906975736732 -28.988200363658216 a51.275351218184355,51.275351218184355 0 0,0 0.8429048219005968,0.26189463121494466 l -9.231597170348046 28.83356559756075" fill="red" stroke="none" /><path d="M 107.76421540070413 80.48803036053334 l 11.279369453691066 -28.345776485385564 a51.507494486311,51.507494486311 0 0,0 0.8209709162693088,0.33489465009833713 l -11.765624239548764 28.147420949103648" fill="red" stroke="none" /><path d="M 108.76106565485865 80.91482961587045 l 14.733106411291224 -32.09470824945452 a56.31479466376712,56.31479466376712 0 0,0 0.8774965638177967,0.4119964026567872 l -15.283381186408619 31.836346864157726" fill="red" stroke="none" /><path d="M 109.41281617654863 81.2277094730956 l 15.781436013051406 -31.473439639334327 a56.208395665875734,56.208395665875734 0 0,0 0.8611648483312935,0.4411220831394652 l -16.320861348971455 31.19712503088236" fill="red" stroke="none" /><path d="M 110.05341064243156 81.56283822128135 l 23.95881887019081 -43.93858315827096 a71.04621955363766,71.04621955363766 0 0,0 1.0686566342615946,0.5947062599565889 l -24.711599593524443 43.51966150075419" fill="red" stroke="none" /><path d="M 110.36928655335952 81.73862282372117 l 16.916986037932656 -29.79254755231375 a55.260477321025235,55.260477321025235 0 0,0 0.8231265653115387,0.4768080357719631 l -17.427309335709523 29.49693535915174" fill="red" stroke="none" /><line stroke="#e1ed5e" stroke-width="0.3" x1="143.23703022742887" x2="145.7803849466894" y1="26.81831364943548" y2="22.513508569990506" /><path d="M 143.74570117128098 25.957352633546492 a86.0,86.0 0 0,1 28.547481713284135,27.462654790039103" fill="none" id="id2" stroke="none" /><text fill="#e1ed5e" style="font-size:6.75px; font-family:Arial;" text-anchor="middle"><textPath startOffset="19.985693538727396" xlink:href="#id2">February</textPath></text><path d="M 110.99172775467656 82.1063720568725 l 15.937721903333065 -25.94529926179631 a51.44945866927934,51.44945866927934 0 0,0 0.7506251789086673,0.4700414181701212 l -16.381966234613994 25.667113502303245" fill="red" stroke="none" /><path d="M 111.60114157652 82.49532879139004 l 12.680139246324519 -19.13274369787355 a43.95316563602283,43.95316563602283 0 0,0 0.6270553376440068,0.423390563091946 l -13.007599278375066 18.911641222482935" fill="red" stroke="none" /><path d="M 112.19680574252982 82.90503203632743 l 14.230064035421908 -19.944770290003003 a45.50078742353385,45.50078742353385 0 0,0 0.6336627805525287,0.4603829584855376 l -14.571272132328223 19.69686809670079" fill="red" stroke="none" /><path d="M 113.06298171725822 83.55741782278167 l 19.30199666978635 -24.295729206147126 a52.02981683959597,52.02981683959597 0 0,0 0.6964478422344017,0.5631457203859179 l -19.717347910585243 23.959877388497077" fill="red" stroke="none" /><path d="M 114.94478906791727 85.2469230424477 l 18.076322010637693 -17.844438521044953 a46.400342587524634,46.400342587524634 0 0,0 0.5562202097951666,0.573233819330702 l -18.380806484135967 17.530640506164136" fill="red" stroke="none" /><path d="M 115.4437574822437 85.77008943001954 l 22.6196550421932 -20.841797648291898 a51.75758968840312,51.75758968840312 0 0,0 0.5980622992512817,0.6603953283168547 l -22.97506098206052 20.449349532705494" fill="red" stroke="none" /><path d="M 115.9244219780498 86.31012108654704 l 23.126675454904866 -19.881499440593515 a51.49782185013906,51.49782185013906 0 0,0 0.5720902507699367,0.677174410357645 l -23.465476319161922 19.480466080606764" fill="red" stroke="none" /><path d="M 116.15771136456269 86.58626213691792 l 30.937515083652432 -25.68357040820879 a61.20914856677072,61.20914856677072 0 0,0 0.6660182260107728,0.8164595942077192 l -31.375031801739613 25.147226644392973" fill="red" stroke="none" /><path d="M 117.2510076193507 88.02491185347247 l 33.15006043321367 -23.011693259305964 a61.35423810934988,61.35423810934988 0 0,0 0.5947724669808887,0.872755204226817 l -33.541257365863295 22.437660031808743" fill="red" stroke="none" /><path d="M 117.45458315368197 88.32363383020206 l 17.317322235395384 -11.584544513067122 a41.834858314367125,41.834858314367125 0 0,0 0.3952465070902346,0.6019875466026267 l -17.514165377843543 11.284738902486822" fill="red" stroke="none" /><line stroke="#e1ed5e" stroke-width="0.3" x1="172.23445277983987" x2="176.4835382374775" y1="55.19839476539836" y2="52.563006222186495" /><path d="M 173.08426987136738 54.67131705675599 a86.0,86.0 0 0,1 12.851231095245387,41.99856678651699" fill="none" id="id3" stroke="none" /><text fill="#e1ed5e" style="font-size:6.75px; font-family:Arial;" text-anchor="middle"><textPath startOffset="22.20632615414155" xlink:href="#id3">March</textPath></text><path d="M 118.56541770881063 90.18545643968196 l 27.09040237237552 -14.321247079942815 a51.64291139271822,51.64291139271822 0 0,0 0.40869355798179646,0.7894658694740264 l -27.332905363517437 13.852808488208442" fill="red" stroke="none" /><path d="M 119.04729006885535 91.15688171328212 l 23.178833010630566 -10.76127687036401 a46.55510476627573,46.55510476627573 0 0,0 0.3312011802671541,0.7297578983385693 l -23.360636507861066 10.36069696318338" fill="red" stroke="none" /><path d="M 119.61058180528143 92.48833698450437 l 33.158923340427314 -12.701237554454512 a56.50824738720599,56.50824738720599 0 0,0 0.3401134848360886,0.9113350455747286 l -33.37264141376503 12.12857937185045" fill="red" stroke="none" /><path d="M 119.85752413597 93.16781622104841 l 28.847776575709155 -9.92537185551566 a51.507494486311,51.507494486311 0 0,0 0.2812375575636215,0.8408645005232391 l -29.01435142704455 9.427334252070107" fill="red" stroke="none" /><path d="M 120.28053869075195 94.5502522615342 l 29.79859086114726 -8.007420593273386 a51.85570938850098,51.85570938850098 0 0,0 0.22422326790207012,0.8640237176541204 l -29.93201046091963 7.493300450070415" fill="red" stroke="none" /><path d="M 120.6074358757038 95.95851677861258 l 30.070087217634 -5.8972767737205904 a51.64291139271822,51.64291139271822 0 0,0 0.16357099364161584,0.873802788642436 l -30.167143935185475 5.378795907615592" fill="red" stroke="none" /><path d="M 120.78858239683441 97.02765380044208 l 30.37271475917328 -4.342682995952257 a51.68160193740599,51.68160193740599 0 0,0 0.11833610458336974,0.8817414298518035 l -30.442966862814487 3.8192232240357886" fill="red" stroke="none" /><path d="M 120.87857604477298 97.74499172005257 l 31.273534705482554 -3.377724589687325 a52.45541283116151,52.45541283116151 0 0,0 0.08923133904068534,0.8985474067794927 l -31.327043170205467 2.838901652203397" fill="red" stroke="none" /><path d="M 120.94382443527127 98.46500227214037 l 10.389562254044211 -0.7614633374483554 a31.417429157183562,31.417429157183562 0 0,0 0.03488742286219832,0.5396929901393511 l -10.401130267910824 0.582511283055969" fill="red" stroke="none" /><path d="M 120.96714384426684 98.82574320788733 l 30.623940649531313 -1.7150819671035076 a51.67192930123405,51.67192930123405 0 0,0 0.0420914412360944,0.8884837985731998 l -30.648925699000902 1.1876870619073079" fill="red" stroke="none" /><line stroke="#e1ed5e" stroke-width="0.3" x1="184.98032266829074" x2="189.97916517819016" y1="98.17113171792111" y2="98.06355123074" /><path d="M 185.9800911702706 98.14961562048488 a86.0,86.0 0 0,1 -9.607161424134198,41.387399972396054" fill="none" id="id4" stroke="none" /><text fill="#e1ed5e" style="font-size:6.75px; font-family:Arial;" text-anchor="middle"><textPath startOffset="21.466115282336823" xlink:href="#id4">April</textPath></text><path d="M 120.99513854157772 99.54816195383933 l 30.84856635286848 -0.6638944496667449 a51.85570938850098,51.85570938850098 0 0,0 0.011524296505806903,0.8925694645950838 l -30.855423656492004 0.13278872701119843" fill="red" stroke="none" /><path d="M 120.99824983174949 100.27111621757518 l 34.01582625572015 0.4391909909654199 a55.01866141672664,55.01866141672664 0 0,0 -0.020377699983528508,0.9468716456000226 l -34.00322649305161 -1.0246524523555574" fill="red" stroke="none" /><path d="M 120.9764740272857 100.99374915477107 l 50.627832358357374 2.3984662793453717 a71.68461354098594,71.68461354098594 0 0,0 -0.06900036308955027,1.232047834786025 l -50.579045644380294 -3.2695858304668204" fill="red" stroke="none" /><path d="M 120.95626037817324 101.35467743843564 l 24.655644582499594 1.5938170667505165 a45.707105508756115,45.707105508756115 0 0,0 -0.057511381953978355,0.784697113756335 l -24.624556641881277 -2.0179873170036218" fill="red" stroke="none" /><path d="M 120.89721153311464 102.0752229133903 l 30.541050332617207 3.032916011249622 a51.69127457357794,51.69127457357794 0 0,0 -0.0955493481630234,0.8846682956289083 l -30.48431868295313 -3.5581806287633215" fill="red" stroke="none" /><path d="M 120.81339534386255 102.79330883721812 l 33.30414628127534 4.46965834197367 a54.60273806133305,54.60273806133305 0 0,0 -0.1330381385714308,0.9304684313102703 l -33.22227409168731 -5.04227224526435" fill="red" stroke="none" /><path d="M 120.64145759157962 103.86396538481128 l 50.560836718120804 9.46470577667007 a72.43907916239758,72.43907916239758 0 0,0 -0.23998055202424629,1.2236556646047148 l -50.39042623312089 -10.333625168342731" fill="red" stroke="none" /><path d="M 120.49622156327973 104.57218783832717 l 33.10816651155301 7.38559328147752 a54.9219350550072,54.9219350550072 0 0,0 -0.21377561378072477,0.920939749139743 l -32.97613033184173 -7.954401687965827" fill="red" stroke="none" /><path d="M 120.32669344350535 105.2749913415812 l 32.56280982267413 8.45039260072296 a54.641428606020824,54.641428606020824 0 0,0 -0.2440960728078217,0.9083722928858492 l -32.412525673524534 -9.009655826784357" fill="red" stroke="none" /><path d="M 120.13307415673323 105.97154293290107 l 24.620687526664145 7.302585360708415 a46.680849036511006,46.680849036511006 0 0,0 -0.23512305070217882,0.7683957338233879 l -24.491337703455834 -7.725308067083859" fill="red" stroke="none" /><path d="M 119.67450827220406 107.3425965602758 l 37.68026335502817 14.062408486813043 a61.218821202942664,61.218821202942664 0 0,0 -0.3769497037182288,0.984096728779471 l -37.432619371716434 -14.708928782425657" fill="red" stroke="none" /><path d="M 119.41010516605496 108.01547362559984 l 28.394481324257505 11.72560448385407 a51.72029248209377,51.72029248209377 0 0,0 -0.3468929737404623,0.8199525193945632 l -28.188437369324735 -12.212631528914798" fill="red" stroke="none" /><line stroke="#e1ed5e" stroke-width="0.3" x1="174.80103733775053" x2="179.2010983576182" y1="140.37084112569926" y2="142.7455964860345" /><path d="M 175.68104954172406 140.8457921977663 a86.0,86.0 0 0,1 -30.038265399797805,32.042727171017184" fill="none" id="id5" stroke="none" /><text fill="#e1ed5e" style="font-size:6.75px; font-family:Arial;" text-anchor="middle"><textPath startOffset="22.206326154141568" xlink:href="#id5">May</textPath></text><path d="M 116.498646956653 112.99209946851258 l 24.10499611570582 18.981829724956512 a51.68160193740599,51.68160193740599 0 0,0 -0.5563944987789835,0.6941876867919335 l -23.774683704871983 -19.393945245326695" fill="red" stroke="none" /><path d="M 116.0416608686014 113.55231037782055 l 23.385604625764802 19.75661839864043 a51.61389348420239,51.61389348420239 0 0,0 -0.5792000290365843,0.6737404859741652 l -23.04206208715744 -20.156235983776124" fill="red" stroke="none" /><path d="M 115.80600337817218 113.82643327865902 l 23.09302399382729 20.200815336662828 a51.68160193740599,51.68160193740599 0 0,0 -0.591486460078706,0.6645413082033379 l -22.741878684100246 -20.595330814607035" fill="red" stroke="none" /><path d="M 115.56566222782051 114.09645910891815 l 22.892439671605327 20.731680734880285 a51.884727297016816,51.884727297016816 0 0,0 -0.605207158169842,0.6568328403279453 l -22.532186105439763 -21.122664830009565" fill="red" stroke="none" /><path d="M 115.32070863581623 114.36230785411682 l 22.29931352746309 20.90435980671163 a51.56553030334267,51.56553030334267 0 0,0 -0.6126315231120701,0.6423417027144531 l -21.936175452972055 -21.285108626008586" fill="red" stroke="none" /><path d="M 115.07121518719521 114.62390073753431 l 22.026419212746944 21.37267394630546 a51.69127457357794,51.69127457357794 0 0,0 -0.6251182752756448,0.6332415124908805 l -21.655260312415763 -21.748655952777007" fill="red" stroke="none" /><path d="M 114.81725581225074 114.88116024355365 l 21.525588094976143 21.61842448000588 a51.507494486311,51.507494486311 0 0,0 -0.6336649358829507,0.6201745085514251 l -21.1502732067174 -21.985749091479878" fill="red" stroke="none" /><path d="M 114.55890576462653 115.13401014063108 l 21.183802492079984 22.020602847173414 a51.55585766717073,51.55585766717073 0 0,0 -0.6448512541149373,0.6097471103515442 l -20.801615403574242 -22.38198459427088" fill="red" stroke="none" /><path d="M 113.75828350139079 115.86535959552629 l 19.99351604430679 23.055515725474482 a51.517167122482945,51.517167122482945 0 0,0 -0.6749595821116645,0.5752151988109783 l -19.59369098561808 -23.396255314508405" fill="red" stroke="none" /><path d="M 113.48314897796784 116.09983520530334 l 22.71750289235846 27.12630806354097 a56.382503116970724,56.382503116970724 0 0,0 -0.7494305165413614,0.6167302941437395 l -22.24720224727241 -27.513333476541888" fill="red" stroke="none" /><path d="M 112.92097659922987 116.55440617244103 l 12.142742780408676 15.55732993482414 a40.735164476946785,40.735164476946785 0 0,0 -0.5564642108823044,0.4266730280533092 l -11.873149841032879 -15.76404230470482" fill="red" stroke="none" /><path d="M 112.34349029814194 116.9893568818739 l 18.147901793368607 24.97844392287893 a51.875054660844874,51.875054660844874 0 0,0 -0.7269243310967617,0.5186412091994838 l -17.71525013442296 -25.287129393922633" fill="red" stroke="none" /><path d="M 111.7513745106137 117.40417183066458 l 17.060840930895264 25.26766608184881 a51.48814921396712,51.48814921396712 0 0,0 -0.738794384439063,0.48963263277974817 l -16.623371847716236 -25.557596735719876" fill="red" stroke="none" /><path d="M 111.1453310114006 117.79835938074945 l 12.25893808339606 19.576716511286445 a44.09825517860199,44.09825517860199 0 0,0 -0.6468180877001045,0.39732849869222364 l -11.920140795763647 -19.784833476807048" fill="red" stroke="none" /><line stroke="#e1ed5e" stroke-width="0.3" x1="143.8653032363475" x2="146.44561519142675" y1="172.8068346515853" y2="177.08958963109032" /><path d="M 144.38136562736335 173.6633856474863 a86.0,86.0 0 0,1 -40.68145358897372,12.25698825130547" fill="none" id="id6" stroke="none" /><text fill="#e1ed5e" style="font-size:6.75px; font-family:Arial;" text-anchor="middle"><textPath startOffset="21.466115282336833" xlink:href="#id6">June</textPath></text><path d="M 110.5260780823613 118.17145234162733 l 12.959585276409255 22.372481409970504 a46.854956487605996,46.854956487605996 0 0,0 -0.7013768260825004,0.398260066660386 l -12.572559683405556 -22.59224464242552" fill="red" stroke="none" /><path d="M 109.57404056367764 118.69057910512821 l 15.368221217694463 30.002061560525863 a54.70913705922443,54.70913705922443 0 0,0 -0.8418592311779356,0.4221256952235738 l -14.849508078833768 -30.26215509665874" fill="red" stroke="none" /><path d="M 108.92500713936063 119.00905698771935 l 12.96980640196294 27.623931854049218 a51.517167122482945,51.517167122482945 0 0,0 -0.8059541984349584,0.36997404294432173 l -12.492384207760562 -27.843092967327614" fill="red" stroke="none" /><path d="M 106.91757812671514 119.82793768551818 l 11.64573790386451 33.380319127577735 a56.35348520845489,56.35348520845489 0 0,0 -0.9186430305394473,0.31165359285670263 l -11.069425140387837 -33.575835707332566" fill="red" stroke="none" /><path d="M 106.2309692047433 120.05430185196036 l 10.498442252789458 33.78911418026948 a56.382503116970724,56.382503116970724 0 0,0 -0.9293045396421148,0.279991834592789 l -9.915262738707098 -33.964821383967994" fill="red" stroke="none" /><path d="M 105.18746579009965 120.34920634021253 l 7.602929768008061 29.824502541224092 a51.778328299125434,51.778328299125434 0 0,0 -0.8655529557569343,0.2127318577262665 l -7.088423527507915 -29.950955657264387" fill="red" stroke="none" /><path d="M 103.7750983002368 120.6578951692458 l 6.056298843332609 33.14096128605221 a54.68979178688054,54.68979178688054 0 0,0 -0.9275155045179495,0.16126045942065925 l -5.484934367342609 -33.24030032399388" fill="red" stroke="none" /><path d="M 101.98527174616119 120.90594882070398 l 3.1858378371357308 33.54853707207 a54.69946442305249,54.69946442305249 0 0,0 -0.938110615640797,0.08094413128109548 l -2.6078829037533917 -33.59840545562976" fill="red" stroke="none" /><path d="M 101.26447882468166 120.96189622390904 l 2.42520156316612 40.20377605132971 a61.27685701997433,61.27685701997433 0 0,0 -1.0534131673491411,0.05444942823798316 l -1.7328003274034993 -40.23956528632989" fill="red" stroke="none" /><path d="M 100.90346689309514 120.98055641714683 l 1.3274815188321714 30.82714055316819 a51.85570938850098,51.85570938850098 0 0,0 -0.8921148786447175,0.030726240222810414 l -0.7966462885128017 -30.845423591817095" fill="red" stroke="none" /><line stroke="#e1ed5e" stroke-width="0.3" x1="102.19456741930631" x2="102.32365962044197" y1="184.97166512339345" y2="189.96999836594603" /><path d="M 102.22038585953345 185.97133177190398 a86.0,86.0 0 0,1 -42.740103519485714,-10.115201625700543" fill="none" id="id7" stroke="none" /><text fill="#e1ed5e" style="font-size:6.75px; font-family:Arial;" text-anchor="middle"><textPath startOffset="22.20632615414155" xlink:href="#id7">July</textPath></text><path d="M 99.45781275523022 120.99299961872073 l -0.7911521761782095 30.632696532563184 a51.64291139271822,51.64291139271822 0 0,0 -0.888453946021848,-0.030600150301093837 l 1.3183264738747005 -30.614539583835995" fill="red" stroke="none" /><path d="M 98.73552117531835 120.96189622390904 l -1.8387034906136772 30.48110494573676 a51.536512394826836,51.536512394826836 0 0,0 -0.8850469309120382,-0.061038018148396794 l 2.3631131823046454 -30.44493858307208" fill="red" stroke="none" /><path d="M 97.65516085044442 120.86867818915974 l -3.40967665496568 30.34555477080614 a51.536512394826836,51.536512394826836 0 0,0 -0.8807162385750248,-0.10664247130746281 l 3.931520316592094 -30.282366770773326" fill="red" stroke="none" /><path d="M 97.2962882734958 120.8252237178851 l -3.3113438459988536 25.50548408092692 a46.71953958119879,46.71953958119879 0 0,0 -0.7966157789020218,-0.11040368817630634 l 3.7498882160877067 -25.44470582725801" fill="red" stroke="none" /><path d="M 96.22490169976321 120.6578951692458 l -5.50509392420068 30.12468660110288 a51.623566120374335,51.623566120374335 0 0,0 -0.8727637059063013,-0.1672672414320653 l 6.0228252446786765 -30.02546216132235" fill="red" stroke="none" /><path d="M 94.81253420990036 120.34920634021253 l -7.5909829896170775 29.777638143767742 a51.72996511826571,51.72996511826571 0 0,0 -0.8609579619934359,-0.22738682288761408 l 8.102431394422004 -29.642559971576546" fill="red" stroke="none" /><path d="M 94.46302465271185 120.25689768951611 l -6.0137026213557085 22.000993519980327 a43.808076093443674,43.808076093443674 0 0,0 -0.7256887742004972,-0.20508689629830107 l 6.3915225636608195 -21.894217830343504" fill="red" stroke="none" /><path d="M 93.42475214034765 119.94407469862007 l -9.449139928320104 28.66117849709374 a51.178624856464914,51.178624856464914 0 0,0 -0.8342853483342461,-0.2830348869281577 l 9.941095009591576 -28.49428062326746" fill="red" stroke="none" /><path d="M 92.7421414339146 119.70592522655815 l -6.702679224801267 18.198549120085506 a40.39363552474748,40.39363552474748 0 0,0 -0.6503948125082123,-0.24592366601875384 l 7.014944258069762 -18.080477203960122" fill="red" stroke="none" /><path d="M 92.40401165467489 119.57807347666478 l -8.211508316054731 21.16452867715432 a43.70167709555229,43.70167709555229 0 0,0 -0.6989748703819181,-0.2781365261222708 l 8.574604262478505 -21.02004530662598" fill="red" stroke="none" /><path d="M 92.06813273071674 119.44442032107085 l -13.871356001842756 34.00466338708816 a57.7250820203173,57.7250820203173 0 0,0 -0.9168077312678911,-0.3832257060252884 l 14.454635192608109 -33.7608526380429" fill="red" stroke="none" /><path d="M 91.7346041902142 119.30500536409082 l -15.595586317703455 36.42570597320362 a60.623911571666184,60.623911571666184 0 0,0 -0.9557773210836128,-0.4189846898567333 l 16.22028431344481 -36.15185673005244" fill="red" stroke="none" /><path d="M 91.40352486487194 119.15986991738527 l -20.257064217718884 45.149053445593694 a70.48520665566491,70.48520665566491 0 0,0 -1.1026974386349153,-0.506194310183287 l 21.03122965212122 -44.793672065076336" fill="red" stroke="none" /><path d="M 91.07499286063937 119.00905698771935 l -22.64105219393355 48.22237615008147 a74.27302137112527,74.27302137112527 0 0,0 -1.1526017511522388,-0.5533188840461504 l 23.46776661308603 -47.82550298953576" fill="red" stroke="none" /><path d="M 90.7491055286396 118.85261126421891 l -19.320759441950656 39.374221402724366 a64.85910460194648,64.85910460194648 0 0,0 -0.9980460096816235,-0.5004409883496576 l 19.99565935931504 -39.03581257346541" fill="red" stroke="none" /><path d="M 90.42595943632237 118.69057910512821 l -14.080598043153762 27.488345158210496 a51.88482411783787,51.88482411783787 0 0,0 -0.791389580274103,-0.414017625017965 l 14.55167852595436 -27.241898114247814" fill="red" stroke="none" /><path d="M 90.10565033884886 118.52300852407294 l -14.781848293379653 27.672794202420484 a52.37334183567329,52.37334183567329 0 0,0 -0.7915287602308799,-0.4316045906306956 l 15.255999865479174 -27.414248960030022" fill="red" stroke="none" /><line stroke="#e1ed5e" stroke-width="0.3" x1="58.666819895761336" x2="56.23545636021788" y1="174.27360380694188" y2="178.64263932499728" /><path d="M 58.180547188652646 175.14741091055294 a86.0,86.0 0 0,1 -31.652253787137756,-30.449443065178592" fill="none" id="id8" stroke="none" /><text fill="#e1ed5e" style="font-size:6.75px; font-family:Arial;" text-anchor="middle"><textPath startOffset="22.20632615414155" xlink:href="#id8">August</textPath></text><path d="M 89.7882731507175 118.34994917583269 l -26.85049903982023 48.24896905277727 a76.21695675554065,76.21695675554065 0 0,0 -1.140899730362725,-0.6478326425538742 l 27.677047537104162 -47.779633244428766" fill="red" stroke="none" /><path d="M 89.1626897886671 117.98757091392108 l -31.86154202707168 52.883209529197394 a82.73970934861816,82.73970934861816 0 0,0 -1.2135976890918858,-0.7454908219060199 l 32.767118916095875 -52.326930240463" fill="red" stroke="none" /><path d="M 88.8546689885994 117.79835938074946 l -21.7111731540502 34.671313214312924 a61.90812877326633,61.90812877326633 0 0,0 -0.8983111161160343,-0.5733446564246754 l 22.30476607221316 -34.292454129064446" fill="red" stroke="none" /><path d="M 88.54995079064634 117.60387380957326 l -16.61108965770858 25.538713487355892 a51.46562302342899,51.46562302342899 0 0,0 -0.7384711600985856,-0.4894184173117606 l 17.048235516547127 -25.248997048952813" fill="red" stroke="none" /><path d="M 87.95078237400918 117.19931262002967 l -30.909353059771263 44.12067593593333 a74.87042000594795,74.87042000594795 0 0,0 -1.0491580266774505,-0.748546395161054 l 31.6642384142976 -43.582085278928055" fill="red" stroke="none" /><path d="M 87.65650970185807 116.9893568818739 l -29.12953196058191 40.09336114233218 a70.55811981837118,70.55811981837118 0 0,0 -0.9764404799155441,-0.7223473236465382 l 29.81535741091602 -39.58600386994587" fill="red" stroke="none" /><path d="M 87.36589467227662 116.77436683061367 l -12.073201099724281 16.029651393054912 a41.067683189079176,41.067683189079176 0 0,0 -0.5610065949656097,-0.4301559344711924 l 12.347336423183378 -15.819456116756355" fill="red" stroke="none" /><path d="M 86.79598089348748 116.32954008644616 l -25.05977655855599 30.991671745498298 a60.85569117134302,60.85569117134302 0 0,0 -0.8088876787610044,-0.6656594908274983 l 25.58953436586168 -30.55571713581362" fill="red" stroke="none" /><path d="M 86.51685102203217 116.09983520530335 l -26.21404869663239 31.30143149565555 a61.82837203154972,61.82837203154972 0 0,0 -0.8100533177579465,-0.6903450111247539 l 26.74896749096739 -30.845562094307844" fill="red" stroke="none" /><path d="M 86.24171649860922 115.8653595955263 l -22.363587359860098 25.788562597527577 a55.13473305078996,55.13473305078996 0 0,0 -0.7116519530414533,-0.6279501062053091 l 22.804181665808137 -25.399789349549977" fill="red" stroke="none" /><path d="M 85.97065885151581 115.62618273729859 l -28.599442653318313 31.854676021897795 a63.809444104549094,63.809444104549094 0 0,0 -0.8109890180844623,-0.7408192396561255 l 29.14353122086963 -31.357664015655093" fill="red" stroke="none" /><path d="M 85.44109423537348 115.13401014063109 l -41.40082209391029 43.03623304726949 a80.717212133107,80.717212133107 0 0,0 -0.9930140761276816,-0.9718732752492008 l 42.135486122413774 -42.31720966909772" fill="red" stroke="none" /><path d="M 85.18274418774928 114.88116024355367 l -23.052360819912415 23.151781929128106 a53.67133829314826,53.67133829314826 0 0,0 -0.6490637869219502,-0.6574981893662837 l 23.4474652318899 -22.751543245781157" fill="red" stroke="none" /><path d="M 84.67929136418377 114.36230785411682 l -36.206985973082524 33.94202522717685 a70.62869038950458,70.62869038950458 0 0,0 -0.8238453052126993,-0.8941213673844838 l 36.78587768629095 -33.31375260499102" fill="red" stroke="none" /><path d="M 84.43433777217949 114.09645910891817 l -36.54202825954119 33.09291950309013 a70.29970740845334,70.29970740845334 0 0,0 -0.8045672641872815,-0.9039398504734256 l 37.10625437337681 -32.45900548287584" fill="red" stroke="none" /><path d="M 83.95833913139862 113.55231037782056 l -45.8424515974385 38.728604077694165 a81.01195832723909,81.01195832723909 0 0,0 -0.8907612016294114,-1.0729792498995547 l 46.50230879896145 -37.933763570680846" fill="red" stroke="none" /><path d="M 83.50135304334701 112.99209946851258 l -33.003144289873 25.98880590112875 a63.007446544448776,63.007446544448776 0 0,0 -0.6636579828632876,-0.8578674048471809 l 33.44560908995436 -25.416860502168316" fill="red" stroke="none" /><path d="M 83.28015986056508 112.70617746262583 l -39.61115396607144 30.102342342688758 a70.75132694753226,70.75132694753226 0 0,0 -0.7285322532750605,-0.975988008301244 l 40.123447486041584 -29.416041454878208" fill="red" stroke="none" /><path d="M 82.85270091963577 112.12312394758628 l -51.44189724109269 36.36937184275885 a84.0,84.0 0 0,0 -0.8245563713514645,-1.1878349512519497 l 52.06031451960629 -35.47849562931989" fill="red" stroke="none" /><line stroke="#e1ed5e" stroke-width="0.3" x1="26.63291911575756" x2="22.317208475507996" y1="142.92168965132927" y2="145.44649492493687" /><path d="M 25.769776987707644 143.4266507060508 a86.0,86.0 0 0,1 -11.730757126820373,-40.83630448921669" fill="none" id="id9" stroke="none" /><text fill="#e1ed5e" style="font-size:6.75px; font-family:Arial;" text-anchor="middle"><textPath startOffset="21.46611528233685" xlink:href="#id9">September</textPath></text><line stroke="#e1ed5e" stroke-width="0.3" x1="15.007084014347285" x2="10.007500721073583" y1="101.09737516637583" y2="101.16192664675087" /><path d="M 14.007167355692545 101.11028546245083 a86.0,86.0 0 0,1 10.666146001902534,-42.60595125391555" fill="none" id="id10" stroke="none" /><text fill="#e1ed5e" style="font-size:6.75px; font-family:Arial;" text-anchor="middle"><textPath startOffset="22.20632615414155" xlink:href="#id10">October</textPath></text><line stroke="#e1ed5e" stroke-width="0.3" x1="26.266209847984243" x2="21.928928074336255" y1="57.711370442889674" y2="55.22380399835377" /><path d="M 25.398753493254645 57.213857153982495 a86.0,86.0 0 0,1 29.58750427330803,-30.492523968695096" fill="none" id="id11" stroke="none" /><text fill="#e1ed5e" style="font-size:6.75px; font-family:Arial;" text-anchor="middle"><textPath startOffset="21.46611528233685" xlink:href="#id11">November</textPath></text><line stroke="#e1ed5e" stroke-width="0.3" x1="56.762969772571076" x2="54.21961505331055" y1="26.818313649435495" y2="22.513508569990535" /><path d="M 56.25429882871897 25.957352633546506 a86.0,86.0 0 0,1 42.265352541879196,-11.944610805530505" fill="none" id="id12" stroke="none" /><text fill="#e1ed5e" style="font-size:6.75px; font-family:Arial;" text-anchor="middle"><textPath startOffset="22.20632615414155" xlink:href="#id12">December</textPath></text></svg>