<?xml version="1.0" encoding="utf-8" ?>
<svg baseProfile="full" height="200mm" version="1.1" viewBox="0,0,200,200" width="200mm" xmlns="http://www.w3.org/2000/svg" xmlns:ev="http://www.w3.org/2001/xml-events" xmlns:xlink="http://www.w3.org/1999/xlink"><defs /><rect fill="#1a1a1a" height="200" width="200" x="0" y="0" /><text alignment-baseline="middle" fill="#e1ed5e" style="dominant-baseline: central; font-size:9.0px; font-family:Arial;" text-anchor="middle" x="100.0" y="100.0">2025</text><line stroke="#e1ed5e" stroke-width="0.3" x1="100.0" x2="100.0" y1="15.0" y2="10.0" /><path d="M 100.0 14.0 a86.0,86.0 0 0,1 42.46469731375804,11.215312516191453" fill="none" id="id1" stroke="none" /><text fill="#e1ed5e" style="font-size:6.75px; font-family:Arial;" text-anchor="middle"><textPath startOffset="22.20632615414155" xlink:href="#id1">January</textPath></text><path d="M 103.59715602781102 79.31037775812273 l 3.9226731950802423 -22.561886656313675 a43.9003514053332,43.9003514053332 0 0,0 0.7433894830968384,0.1358496764099527 l -4.310457799279981 22.491021498552985" fill="red" stroke="none" /><path d="M 104.307194497241 79.44645832069477 l 2.9913239412104318 -14.274326673976528 a35.58438963126865,35.58438963126865 0 0,0 0.5984231478494421,0.13079212181100963 l -3.236589813213402 14.220721054069648" fill="red" stroke="none" /><path d="M 105.01212808612495 79.60689891045804 l 8.214916008575992 -33.42444760515051 a55.41915952979401,55.41915952979401 0 0,0 0.9244209038015918,0.23565547146905425 l -8.78904580106261 33.27808913751259" fill="red" stroke="none" /><path d="M 105.71112130821622 79.79150937346287 l 3.1170795453686995 -11.029615617537706 a32.4616144396323,32.4616144396323 0 0,0 0.536404655192517,0.15659122803483316 l -3.3064744182846435 10.97432606058417" fill="red" stroke="none" /><path d="M 106.0581310904928 79.89281104454417 l 10.328607713803331 -34.281078412802856 a56.80324670264382,56.80324670264382 0 0,0 0.9337767447273481,0.29012897997907067 l -10.917169831241397 34.09820929794127" fill="red" stroke="none" /><path d="M 107.76421540070413 80.48803036053334 l 13.338839384238353 -33.521356075126064 a57.077776389820635,57.077776389820635 0 0,0 0.9097548783666696,0.3711118574703776 l -13.91387813219341 33.28678333147211" fill="red" stroke="none" /><path d="M 108.76106565485865 80.91482961587045 l 17.42318494468641 -37.95479527300791 a62.76282866177399,62.76282866177399 0 0,0 0.9779697646953592,0.45916991766734133 l -18.07393292068137 37.64926037270057" fill="red" stroke="none" /><path d="M 109.41281617654863 81.2277094730956 l 18.662926247339254 -37.220090887369544 a62.63700255515128,62.63700255515128 0 0,0 0.9596570790950593,0.49157362919566344 l -19.300843814023068 36.89332473286138" fill="red" stroke="none" /><path d="M 110.05341064243156 81.56283822128135 l 28.333395590739674 -51.96121165508807 a80.18402506053646,80.18402506053646 0 0,0 1.206104855136558,0.6711960460614749 l -29.223624534948268 51.46580021146642" fill="red" stroke="none" /><path d="M 110.36928655335952 81.73862282372117 l 20.005813317121525 -35.23228920545305 a61.51600633251259,61.51600633251259 0 0,0 0.9163051326901663,0.5307830762580318 l -20.60931518227702 34.88270197180496" fill="red" stroke="none" /><line stroke="#e1ed5e" stroke-width="0.3" x1="143.23703022742887" x2="145.7803849466894" y1="26.81831364943548" y2="22.513508569990506" /><path d="M 143.74570117128098 25.957352633546492 a86.0,86.0 0 0,1 28.547481713284135,27.462654790039103" fill="none" id="id2" stroke="none" /><text fill="#e1ed5e" style="font-size:6.75px; font-family:Arial;" text-anchor="middle"><textPath startOffset="19.985693538727396" xlink:href="#id2">February</textPath></text><path d="M 110.99172775467656 82.1063720568725 l 18.847747960738094 -30.682582129256122 a57.00914396802643,57.00914396802643 0 0,0 0.8317385643550292,0.5208346126952768 l -19.373105677465386 30.353603175237904" fill="red" stroke="none" /><path d="M 111.60114157652 82.49532879139004 l 14.995371990510606 -22.62614024777948 a48.144122819608235,48.144122819608235 0 0,0 0.6868453899366433,0.4637610732969766 l -15.38262207485379 22.364667262183833" fill="red" stroke="none" /><path d="M 112.19680574252982 82.90503203632743 l 16.828293405515254 -23.586432605664854 a49.97432073412038,49.97432073412038 0 0,0 0.6959630552729273,0.5056467575763243 l -17.231801777141968 23.293266613271854" fill="red" stroke="none" /><path d="M 113.06298171725822 83.55741782278167 l 22.826296667596996 -28.731821484727966 a57.69546818596849,57.69546818596849 0 0,0 0.7722857154907745,0.6244680063886678 l -23.317485781652262 28.33464738107517" fill="red" stroke="none" /><path d="M 114.94478906791727 85.2469230424477 l 21.37682934738567 -21.10260687101115 a51.03812327193056,51.03812327193056 0 0,0 0.6118152162414726,0.6305293604126541 l -21.73690882733025 20.73151331504838" fill="red" stroke="none" /><path d="M 115.4437574822437 85.77008943001954 l 26.74971741757757 -24.647245792484224 a57.37353580661886,57.37353580661886 0 0,0 0.6629549201818883,0.7320513811368691 l -27.170015978375496 24.18314162407781" fill="red" stroke="none" /><path d="M 115.9244219780498 86.31012108654704 l 27.349313332708977 -23.511609300918735 a57.06633765285493,57.06633765285493 0 0,0 0.633950995312931,0.750398020013306 l -27.749974941509027 23.037352331276324" fill="red" stroke="none" /><path d="M 116.15771136456269 86.58626213691792 l 36.586313299033634 -30.373064903620577 a68.55082956641864,68.55082956641864 0 0,0 0.7459032345399883,0.9143891689548052 l -37.103715025650025 29.73879156505767" fill="red" stroke="none" /><path d="M 117.2510076193507 88.02491185347247 l 39.20284139214287 -27.21333684524328 a68.72241062090416,68.72241062090416 0 0,0 0.6662000696515846,0.977566397442824 l -39.66546592746319 26.53449242453005" fill="red" stroke="none" /><path d="M 117.45458315368197 88.32363383020206 l 20.479245831197435 -13.69973554229092 a45.63903942411974,45.63903942411974 0 0,0 0.4311875705132223,0.656728251970465 l -20.712030037068583 13.345189226342782" fill="red" stroke="none" /><line stroke="#e1ed5e" stroke-width="0.3" x1="172.23445277983987" x2="176.4835382374775" y1="55.19839476539836" y2="52.563006222186495" /><path d="M 173.08426987136738 54.67131705675599 a86.0,86.0 0 0,1 12.851231095245387,41.99856678651699" fill="none" id="id3" stroke="none" /><text fill="#e1ed5e" style="font-size:6.75px; font-family:Arial;" text-anchor="middle"><textPath startOffset="22.20632615414155" xlink:href="#id3">March</textPath></text><path d="M 118.56541770881063 90.18545643968196 l 32.0367665571285 -16.936125318497954 a57.23791870734045,57.23791870734045 0 0,0 0.4529715311765757,0.8749968202905327 l -32.323547521465194 16.382155775947076" fill="red" stroke="none" /><path d="M 119.04729006885535 91.15688171328212 l 27.410994197171835 -12.726149660443268 a51.221143063381774,51.221143063381774 0 0,0 0.36439619505515086,0.8028987132579678 l -27.625992709190335 12.252428938343238" fill="red" stroke="none" /><path d="M 119.61058180528143 92.48833698450437 l 39.21332255390334 -15.020322582348259 a62.991603401088,62.991603401088 0 0,0 0.3791356968010924,1.0158951730177554 l -39.46606283920605 14.34310427230117" fill="red" stroke="none" /><path d="M 119.85752413597 93.16781622104841 l 34.11501502061865 -11.737618982436901 a57.077776389820635,57.077776389820635 0 0,0 0.31165201458793346,0.9317998558007721 l -34.312004328978354 11.148646023713814" fill="red" stroke="none" /><path d="M 120.28053869075195 94.5502522615342 l 35.239435945899004 -9.469474123907151 a57.48957092058587,57.48957092058587 0 0,0 0.24858399613293222,0.9578955408940887 l -35.39721627390224 8.861482157464211" fill="red" stroke="none" /><path d="M 120.6074358757038 95.95851677861258 l 35.560504096689776 -6.974044782558003 a57.23791870734045,57.23791870734045 0 0,0 0.18129232036786058,0.9684708246254168 l -35.6752821409675 6.360895880470024" fill="red" stroke="none" /><path d="M 120.78858239683441 97.02765380044208 l 35.91838759243061 -5.13560188071633 a57.28367365520325,57.28367365520325 0 0,0 0.13116324847654273,0.9773185509434729 l -36.00146683996499 4.516564987708193" fill="red" stroke="none" /><path d="M 120.87857604477298 97.74499172005257 l 36.98368584578337 -3.9944542973798782 a58.19877261245932,58.19877261245932 0 0,0 0.0990013066420684,0.9969296472223902 l -37.046964278107666 3.357249119453053" fill="red" stroke="none" /><path d="M 120.94382443527127 98.46500227214037 l 12.286564665535503 -0.900496893634946 a33.31951971205987,33.31951971205987 0 0,0 0.03699959560485541,0.5723673675984722 l -12.300244852144774 0.6888704617834386" fill="red" stroke="none" /><path d="M 120.96714384426684 98.82574320788733 l 36.21548414684408 -2.028234200849845 a57.27223491823755,57.27223491823755 0 0,0 0.0466533946597426,0.9847794251359042 l -36.245031149737315 1.4045436690909412" fill="red" stroke="none" /><line stroke="#e1ed5e" stroke-width="0.3" x1="184.98032266829074" x2="189.97916517819016" y1="98.17113171792111" y2="98.06355123074" /><path d="M 185.9800911702706 98.14961562048488 a86.0,86.0 0 0,1 -9.607161424134198,41.387399972396054" fill="none" id="id4" stroke="none" /><text fill="#e1ed5e" style="font-size:6.75px; font-family:Arial;" text-anchor="middle"><textPath startOffset="21.466115282336823" xlink:href="#id4">April</textPath></text><path d="M 120.99513854157772 99.54816195383933 l 36.481123657163124 -0.7851131633332677 a57.48957092058587,57.48957092058587 0 0,0 0.012776353251998156,0.9895426394025417 l -36.48923301753283 0.15703426587026326" fill="red" stroke="none" /><path d="M 120.99824983174949 100.27111621757518 l 40.22668508289084 0.5193817005058861 a61.230037908370065,61.230037908370065 0 0,0 -0.02267825698313903,1.053769489506775 l -40.21178476322269 -1.211741005802776" fill="red" stroke="none" /><path d="M 120.9764740272857 100.99374915477107 l 59.871832993224935 2.836395828689728 a80.9389817002727,80.9389817002727 0 0,0 -0.0779081988385714,1.3911032260303813 l -59.814138443498834 -3.8665707710555326" fill="red" stroke="none" /><path d="M 120.95626037817324 101.35467743843564 l 29.157452847969836 1.8848278663561298 a50.2183098872501,50.2183098872501 0 0,0 -0.06318764596580306,0.8621452263849291 l -29.120688643339697 -2.386446229237829" fill="red" stroke="none" /><path d="M 120.89721153311464 102.0752229133903 l 36.117459108444066 3.586688041919297 a57.29511239216895,57.29511239216895 0 0,0 -0.10590782849059811,0.9805749586557042 l -36.05036897845242 -4.207859322459793" fill="red" stroke="none" /><path d="M 120.81339534386255 102.79330883721812 l 39.38506136349119 5.285761315894994 a60.73817221884492,60.73817221884492 0 0,0 -0.14798696290925242,1.0350204739117792 l -39.288240349565335 -5.962927261787182" fill="red" stroke="none" /><path d="M 120.64145759157962 103.86396538481128 l 59.792604798047094 11.192841115135337 a81.83120318359738,81.83120318359738 0 0,0 -0.2710953471507104,1.3823093346140503 l -59.59107951792072 -12.220414176817332" fill="red" stroke="none" /><path d="M 120.49622156327973 104.57218783832717 l 39.15329817126499 8.734109024746976 a61.115650538713055,61.115650538713055 0 0,0 -0.23788374703907186,1.0247969562482349 l -38.99715385829536 -9.406774638343776" fill="red" stroke="none" /><path d="M 120.32669344350535 105.2749913415812 l 38.50836626173392 9.993327206594314 a60.78392716670773,60.78392716670773 0 0,0 -0.27153605404810277,1.010486671004513 l -38.330642131344035 -10.654704810774374" fill="red" stroke="none" /><path d="M 120.13307415673323 105.97154293290107 l 29.116113076713184 8.635944909518324 a51.36984664393589,51.36984664393589 0 0,0 -0.25874068930448124,0.8455795432831364 l -28.96314561490257 -9.135851425353518" fill="red" stroke="none" /><path d="M 119.67450827220406 107.3425965602758 l 44.56020196093925 16.630026078254488 a68.56226830338434,68.56226830338434 0 0,0 -0.42216635693678045,1.1021431420802612 l -44.26734132440897 -17.39459278716789" fill="red" stroke="none" /><path d="M 119.41010516605496 108.01547362559984 l 33.57895380039035 13.866551276237534 a57.329428603066056,57.329428603066056 0 0,0 -0.38451398893083016,0.908877486236361 l -33.33528883026721 -14.44250328814006" fill="red" stroke="none" /><line stroke="#e1ed5e" stroke-width="0.3" x1="174.80103733775053" x2="179.2010983576182" y1="140.37084112569926" y2="142.7455964860345" /><path d="M 175.68104954172406 140.8457921977663 a86.0,86.0 0 0,1 -30.038265399797805,32.042727171017184" fill="none" id="id5" stroke="none" /><text fill="#e1ed5e" style="font-size:6.75px; font-family:Arial;" text-anchor="middle"><textPath startOffset="22.206326154141568" xlink:href="#id5">May</textPath></text><path d="M 116.498646956653 112.99209946851258 l 28.5062629489338 22.447671295783323 a57.28367365520325,57.28367365520325 0 0,0 -0.6167053592922241,0.7694347585009377 l -28.11563967758672 -22.935033887862513" fill="red" stroke="none" /><path d="M 116.0416608686014 113.55231037782055 l 27.65551968902834 23.363926563192344 a57.203602496443345,57.203602496443345 0 0,0 -0.6419265432296464,0.7467055930826624 l -27.249250636227913 -23.836509255436532" fill="red" stroke="none" /><path d="M 115.80600337817218 113.82643327865902 l 27.309517541268544 23.889228233252666 a57.28367365520325,57.28367365520325 0 0,0 -0.6556011439362252,0.7365748351923577 l -26.89425754768398 -24.35577723818589" fill="red" stroke="none" /><path d="M 115.56566222782051 114.09645910891815 l 27.072309063604965 24.517022926080564 a57.52388713148297,57.52388713148297 0 0,0 -0.6709848942335913,0.7282215815644949 l -26.646277761375654 -24.979395762446394" fill="red" stroke="none" /><path d="M 115.32070863581623 114.36230785411682 l 26.37088560161198 24.72123100824635 a57.14640881161484,57.14640881161484 0 0,0 -0.6789359338436818,0.7118616122850071 l -25.941443116389337 -25.171499737113866" fill="red" stroke="none" /><path d="M 115.07121518719521 114.62390073753431 l 26.048164243133975 25.27505337527288 a57.29511239216895,57.29511239216895 0 0,0 -0.6928871871660983,0.7018910624443658 l -25.609236430912343 -25.71968493169791" fill="red" stroke="none" /><path d="M 114.81725581225074 114.88116024355365 l 25.455887709769154 25.565674842286544 a57.077776389820635,57.077776389820635 0 0,0 -0.7021926785044728,0.6872433278845046 l -25.012045078888885 -26.000068273093618" fill="red" stroke="none" /><path d="M 114.55890576462653 115.13401014063108 l 25.05169638687698 26.04128588291146 a57.13497007464914,57.13497007464914 0 0,0 -0.7146337734173281,0.6757308379571971 l -24.599726779068842 -26.46865135761458" fill="red" stroke="none" /><path d="M 113.75828350139079 115.86535959552629 l 23.64407871700035 27.265160738417713 a57.089215126786335,57.089215126786335 0 0,0 -0.7479625712618468,0.6374299299307902 l -23.17125066916146 -27.66811505857145" fill="red" stroke="none" /><path d="M 113.48314897796784 116.09983520530334 l 26.865431045259154 32.07922817250535 a62.842899820533894,62.842899820533894 0 0,0 -0.8353014547040228,0.687396230187904 l -26.309259462010438 -32.53691952155043" fill="red" stroke="none" /><path d="M 112.92097659922987 116.55440617244103 l 14.35985373978401 18.39790123909051 a44.33855542726064,44.33855542726064 0 0,0 -0.605688465341903,0.46441608734303913 l -14.041036545948613 -18.64235666826092" fill="red" stroke="none" /><path d="M 112.34349029814194 116.9893568818739 l 21.461478691387246 29.539191257402734 a57.51244839451727,57.51244839451727 0 0,0 -0.8059210414765583,0.57500326456272 l -20.9498303220618 -29.904238783809674" fill="red" stroke="none" /><path d="M 111.7513745106137 117.40417183066458 l 20.175934290615928 29.881221717589444 a57.05489891588923,57.05489891588923 0 0,0 -0.818670695437677,0.5425702961875176 l -19.658588896438285 -30.22409003486828" fill="red" stroke="none" /><path d="M 111.1453310114006 117.79835938074945 l 14.497264832674885 23.1511768709167 a48.31570387409375,48.31570387409375 0 0,0 -0.7086781791967622,0.43532801934682613 l -14.096607453545815 -23.397293357091904" fill="red" stroke="none" /><line stroke="#e1ed5e" stroke-width="0.3" x1="143.8653032363475" x2="146.44561519142675" y1="172.8068346515853" y2="177.08958963109032" /><path d="M 144.38136562736335 173.6633856474863 a86.0,86.0 0 0,1 -40.68145358897372,12.25698825130547" fill="none" id="id6" stroke="none" /><text fill="#e1ed5e" style="font-size:6.75px; font-family:Arial;" text-anchor="middle"><textPath startOffset="21.466115282336833" xlink:href="#id6">June</textPath></text><path d="M 110.5260780823613 118.17145234162733 l 15.325841324560441 26.457413012284913 a51.575743909318504,51.575743909318504 0 0,0 -0.7720427949928919,0.438386048076206 l -14.86814976264635 -26.71730222615575" fill="red" stroke="none" /><path d="M 109.57404056367764 118.69057910512821 l 18.174263666590686 35.48005781661197 a60.863998325467634,60.863998325467634 0 0,0 -0.936569677222756,0.4696154790270544 l -17.56084008168517 -35.787641136548324" fill="red" stroke="none" /><path d="M 108.92500713936063 119.00905698771935 l 15.337928698118553 32.6677117612926 a57.089215126786335,57.089215126786335 0 0,0 -0.8931254412222891,0.40999008502852025 l -14.773335261128844 -32.926888916655194" fill="red" stroke="none" /><path d="M 106.91757812671514 119.82793768551818 l 13.772102070807835 39.4751424062693 a62.80858360963679,62.80858360963679 0 0,0 -1.0238704381391177,0.3473524427420344 l -13.090561899731489 -39.70635783590946" fill="red" stroke="none" /><path d="M 106.2309692047433 120.05430185196036 l 12.415324772328852 39.95857825534879 a62.842899820533894,62.842899820533894 0 0,0 -1.0357857288872079,0.312073743433821 l -11.725664069001398 -40.166367367888334" fill="red" stroke="none" /><path d="M 105.18746579009965 120.34920634021253 l 8.991128399639152 35.27007877040614 a57.39806102486026,57.39806102486026 0 0,0 -0.9594952754707577,0.23582059430664115 l -8.382679839425183 -35.41962062302681" fill="red" stroke="none" /><path d="M 103.7750983002368 120.6578951692458 l 7.162102266960179 39.192080856013746 a60.84112085153623,60.84112085153623 0 0,0 -1.0318394175270447,0.1793985089286845 l -6.486413877961085 -39.30955794346343" fill="red" stroke="none" /><path d="M 101.98527174616119 120.90594882070398 l 3.767531455393245 39.6740748157751 a60.85255958850193,60.85255958850193 0 0,0 -1.0436378626557334,0.09004946618904228 l -3.0840492749959694 -39.733048534242805" fill="red" stroke="none" /><path d="M 101.26447882468166 120.96189622390904 l 2.868012636547749 47.54447609773839 a68.63090072517855,68.63090072517855 0 0,0 -1.179836858919973,0.060984089029331896 l -2.0491877092142965 -47.58679999352992" fill="red" stroke="none" /><path d="M 100.90346689309514 120.98055641714683 l 1.5698628223807891 36.45578577794439 a57.48957092058587,57.48957092058587 0 0,0 -0.9890386649792571,0.03406449139820129 l -0.9421038057268797 -36.47740706776869" fill="red" stroke="none" /><line stroke="#e1ed5e" stroke-width="0.3" x1="102.19456741930631" x2="102.32365962044197" y1="184.97166512339345" y2="189.96999836594603" /><path d="M 102.22038585953345 185.97133177190398 a86.0,86.0 0 0,1 -42.740103519485714,-10.115201625700543" fill="none" id="id7" stroke="none" /><text fill="#e1ed5e" style="font-size:6.75px; font-family:Arial;" text-anchor="middle"><textPath startOffset="22.20632615414155" xlink:href="#id7">July</textPath></text><path d="M 99.45781275523022 120.99299961872073 l -0.935606538101152 36.225838743163386 a57.23791870734045,57.23791870734045 0 0,0 -0.9847092924506347,-0.03391537905458546 l 1.5590361822264298 -36.204366565682705" fill="red" stroke="none" /><path d="M 98.73552117531835 120.96189622390904 l -2.17442744802621 36.04656845354469 a57.11209260071774,57.11209260071774 0 0,0 -0.9807974953171877,-0.06764153767233672 l 2.794587704122328 -36.003798571356064" fill="red" stroke="none" /><path d="M 97.65516085044442 120.86867818915974 l -4.032240404882831 35.88626853435786 a57.11209260071774,57.11209260071774 0 0,0 -0.975998278407012,-0.11817979939776763 l 4.649366106341232 -35.811543206234745" fill="red" stroke="none" /><path d="M 97.2962882734958 120.8252237178851 l -3.9159532710678926 30.162462269679505 a51.41560159179869,51.41560159179869 0 0,0 -0.8766884236643795,-0.12150102711676786 l 4.434570285919103 -30.09058667707013" fill="red" stroke="none" /><path d="M 96.22490169976321 120.6578951692458 l -6.510254314440379 35.62507263569897 a57.215041233409046,57.215041233409046 0 0,0 -0.967294884356002,-0.1853843667680509 l 7.122516813368076 -35.50773107058245" fill="red" stroke="none" /><path d="M 94.81253420990036 120.34920634021253 l -8.977000290903051 35.21465752783794 a57.34086734003176,57.34086734003176 0 0,0 -0.9543419596580779,-0.2520503854247931 l 9.581832693372618 -35.054915793109565" fill="red" stroke="none" /><path d="M 94.46302465271185 120.25689768951611 l -7.111728514627836 26.01809614106149 a47.97254176512272,47.97254176512272 0 0,0 -0.7946739079469459,-0.22458278416892355 l 7.558533590679395 -25.891824563554046" fill="red" stroke="none" /><path d="M 93.42475214034765 119.94407469862007 l -11.174433140126446 33.89434649741109 a56.68885933298681,56.68885933298681 0 0,0 -0.9241101121402578,-0.31350832376597854 l 11.756212985203929 -33.69697518674699" fill="red" stroke="none" /><path d="M 92.7421414339146 119.70592522655815 l -7.9265035151799275 21.521373578161853 a43.9346676162303,43.9346676162303 0 0,0 -0.7074104505736332,-0.2674821017008799 l 8.295784186513844 -21.381743226354338" fill="red" stroke="none" /><path d="M 92.40401165467489 119.57807347666478 l -9.710825678677306 25.02890341758287 a47.84671565850002,47.84671565850002 0 0,0 -0.7652715890622935,-0.304517358693533 l 10.140218343781457 -24.85803921448327" fill="red" stroke="none" /><path d="M 92.06813273071674 119.44442032107085 l -16.404089830537707 40.21348401590206 a64.430616618528,64.430616618528 0 0,0 -1.0233071202122,-0.42774245924136584 l 17.093868410247367 -39.92515651364072" fill="red" stroke="none" /><path d="M 91.7346041902142 119.30500536409082 l -18.44314275270031 43.07657829889207 a67.85873571210668,67.85873571210668 0 0,0 -1.06983925895918,-0.4689860914500148 l 19.181902686317237 -42.752727654147606" fill="red" stroke="none" /><path d="M 91.40352486487194 119.15986991738527 l -23.95574744720609 53.39269847784722 a79.5205783165258,79.5205783165258 0 0,0 -1.2440502367648623,-0.5710824468878065 l 24.87126567973837 -52.97242896062534" fill="red" stroke="none" /><path d="M 91.07499286063937 119.00905698771935 l -26.7750214180819 57.02717096315804 a84.0,84.0 0 0,0 -1.3035493279990318,-0.6257828940017505 l 27.752683414081172 -56.55783379265673" fill="red" stroke="none" /><line stroke="#e1ed5e" stroke-width="0.3" x1="58.666819895761336" x2="56.23545636021788" y1="174.27360380694188" y2="178.64263932499728" /><path d="M 58.180547188652646 175.14741091055294 a86.0,86.0 0 0,1 -31.652253787137756,-30.449443065178592" fill="none" id="id8" stroke="none" /><text fill="#e1ed5e" style="font-size:6.75px; font-family:Arial;" text-anchor="middle"><textPath startOffset="22.20632615414155" xlink:href="#id8">August</textPath></text><line stroke="#e1ed5e" stroke-width="0.3" x1="26.63291911575756" x2="22.317208475507996" y1="142.92168965132927" y2="145.44649492493687" /><path d="M 25.769776987707644 143.4266507060508 a86.0,86.0 0 0,1 -11.730757126820373,-40.83630448921669" fill="none" id="id9" stroke="none" /><text fill="#e1ed5e" style="font-size:6.75px; font-family:Arial;" text-anchor="middle"><textPath startOffset="21.46611528233685" xlink:href="#id9">September</textPath></text><line stroke="#e1ed5e" stroke-width="0.3" x1="15.007084014347285" x2="10.007500721073583" y1="101.09737516637583" y2="101.16192664675087" /><path d="M 14.007167355692545 101.11028546245083 a86.0,86.0 0 0,1 10.666146001902534,-42.60595125391555" fill="none" id="id10" stroke="none" /><text fill="#e1ed5e" style="font-size:6.75px; font-family:Arial;" text-anchor="middle"><textPath startOffset="22.20632615414155" xlink:href="#id10">October</textPath></text><line stroke="#e1ed5e" stroke-width="0.3" x1="26.266209847984243" x2="21.928928074336255" y1="57.711370442889674" y2="55.22380399835377" /><path d="M 25.398753493254645 57.213857153982495 a86.0,86.0 0 0,1 29.58750427330803,-30.492523968695096" fill="none" id="id11" stroke="none" /><text fill="#e1ed5e" style="font-size:6.75px; font-family:Arial;" text-anchor="middle"><textPath startOffset="21.46611528233685" xlink:href="#id11">November</textPath></text><line stroke="#e1ed5e" stroke-width="0.3" x1="56.762969772571076" x2="54.21961505331055" y1="26.818313649435495" y2="22.513508569990535" /><path d="M 56.25429882871897 25.957352633546506 a86.0,86.0 0 0,1 42.265352541879196,-11.944610805530505" fill="none" id="id12" stroke="none" /><text fill="#e1ed5e" style="font-size:6.75px; font-family:Arial;" text-anchor="middle"><textPath startOffset="22.20632615414155" xlink:href="#id12">December</textPath></text></svg>