<?xml version="1.0" encoding="utf-8" ?>
<svg baseProfile="full" height="200mm" version="1.1" viewBox="0,0,200,200" width="200mm" xmlns="http://www.w3.org/2000/svg" xmlns:ev="http://www.w3.org/2001/xml-events" xmlns:xlink="http://www.w3.org/1999/xlink"><defs /><rect fill="#1a1a1a" height="200" width="200" x="0" y="0" /><text alignment-baseline="middle" fill="#e1ed5e" style="dominant-baseline: central; font-size:9.0px; font-family:Arial;" text-anchor="middle" x="100.0" y="100.0">2025</text><line stroke="#e1ed5e" stroke-width="0.3" x1="100.0" x2="100.0" y1="15.0" y2="10.0" /><path d="M 100.0 14.0 a86.0,86.0 0 0,1 42.46469731375804,11.215312516191453" fill="none" id="id1" stroke="none" /><text fill="#e1ed5e" style="font-size:6.75px; font-family:Arial;" text-anchor="middle"><textPath startOffset="22.20632615414155" xlink:href="#id1">January</textPath></text><path d="M 103.59715602781102 79.31037775812273 l 4.062527097223212 -23.366278898968577 a44.716810831139526,44.716810831139526 0 0,0 0.7572150523938982,0.13837621082817542 l -4.464137270720011 23.292887206789665" fill="red" stroke="none" /><path d="M 104.307194497241 79.44645832069477 l 3.0979727250746216 -14.783245002508927 a36.10436254230914,36.10436254230914 0 0,0 0.6071675391245381,0.13270330705330116 l -3.3519829883526877 14.727728197359756" fill="red" stroke="none" /><path d="M 105.01212808612495 79.60689891045804 l 8.507799968681823 -34.616119506448904 a56.646295599849566,56.646295599849566 0 0,0 0.9448901827403753,0.24087354643805767 l -9.102399040107224 34.46454296384198" fill="red" stroke="none" /><path d="M 105.71112130821622 79.79150937346287 l 3.2282118564306037 -11.422851226658633 a32.87025197442648,32.87025197442648 0 0,0 0.5431570943343725,0.15856245018441373 l -3.4243591684884036 11.365590447555515" fill="red" stroke="none" /><path d="M 106.0581310904928 79.89281104454417 l 10.696850496375948 -35.503291517813125 a58.07972922151185,58.07972922151185 0 0,0 0.9547605750603152,0.2966487582075757 l -11.30639644414698 35.31390262472303" fill="red" stroke="none" /><path d="M 107.76421540070413 80.48803036053334 l 13.81440506232842 -34.71648302531658 a58.36404663407296,58.36404663407296 0 0,0 0.9302565640247524,0.3794750098169797 l -14.40994549594156 34.47354712931602" fill="red" stroke="none" /><path d="M 108.76106565485865 80.91482961587045 l 18.044368581735018 -39.30798631390957 a64.25178638585935,64.25178638585935 0 0,0 1.001170688970335,0.4700630627048726 l -18.718317482004952 38.991558268564695" fill="red" stroke="none" /><path d="M 109.41281617654863 81.2277094730956 l 19.328310012770018 -38.547087731063556 a64.1214742384355,64.1214742384355 0 0,0 0.9824005645983052,0.5032237258321955 l -19.988971064957077 38.208671479918856" fill="red" stroke="none" /><path d="M 110.05341064243156 81.56283822128135 l 29.34355772693167 -53.8137692984714 a82.29409552463332,82.29409552463332 0 0,0 1.23784392323031,0.6888588030924878 l -30.265525739234015 53.30069509781873" fill="red" stroke="none" /><path d="M 110.36928655335952 81.73862282372117 l 20.719074636329122 -36.4884155462841 a62.96051147047762,62.96051147047762 0 0,0 0.937821605410456,0.5432468060498402 l -21.344092974204905 36.12636458284421" fill="red" stroke="none" /><line stroke="#e1ed5e" stroke-width="0.3" x1="143.23703022742887" x2="145.7803849466894" y1="26.81831364943548" y2="22.513508569990506" /><path d="M 143.74570117128098 25.957352633546492 a86.0,86.0 0 0,1 28.547481713284135,27.462654790039103" fill="none" id="id2" stroke="none" /><text fill="#e1ed5e" style="font-size:6.75px; font-family:Arial;" text-anchor="middle"><textPath startOffset="19.985693538727396" xlink:href="#id2">February</textPath></text><path d="M 110.99172775467656 82.1063720568725 l 19.51972111981297 -31.77649911524935 a58.29296728093268,58.29296728093268 0 0,0 0.8504689869651466,0.5325636016154001 l -20.063809259150382 31.435791172311006" fill="red" stroke="none" /><path d="M 111.60114157652 82.49532879139004 l 15.529997533517482 -23.432823304643545 a49.11188416698007,49.11188416698007 0 0,0 0.7006519021560434,0.47308329197845805 l -15.931054130080067 23.162028100366417" fill="red" stroke="none" /><path d="M 112.19680574252982 82.90503203632743 l 17.428267551238076 -24.42735268069723 a51.00733358405415,51.00733358405415 0 0,0 0.7103492193791108,0.5160989176143307 l -17.846162086970974 24.123734528266223" fill="red" stroke="none" /><path d="M 113.06298171725822 83.55741782278167 l 23.640115841837737 -29.75618858096072 a59.003760812335464,59.003760812335464 0 0,0 0.7897979350600551,0.638628336720454 l -24.148817175462284 29.344854146976136" fill="red" stroke="none" /><path d="M 114.94478906791727 85.2469230424477 l 22.138971093842088 -21.854971844978753 a52.10906355772847,52.10906355772847 0 0,0 0.6246530229736316,0.6437598487252146 l -22.51188838051883 21.47064780070342" fill="red" stroke="none" /><path d="M 115.4437574822437 85.77008943001954 l 27.703417146314074 -25.52598672493789 a58.6703506734991,58.6703506734991 0 0,0 0.6779396999148483,0.7485979491848677 l -28.138700486844957 25.045335988483473" fill="red" stroke="none" /><path d="M 115.9244219780498 86.31012108654704 l 28.324390276489876 -24.349861722894243 a58.352200075216246,58.352200075216246 0 0,0 0.6482356646297234,0.7673065628677496 l -28.739336554606716 23.858696210397387" fill="red" stroke="none" /><path d="M 116.15771136456269 86.58626213691792 l 37.8907142586426 -31.455946763914348 a70.24614516735615,70.24614516735615 0 0,0 0.7643500045981125,0.9370027278754218 l -38.42656275531712 30.799059866430824" fill="red" stroke="none" /><path d="M 117.2510076193507 88.02491185347247 l 40.60052865058167 -28.183565859710146 a70.42384355020684,70.42384355020684 0 0,0 0.6826938847807087,1.001769035914925 l -41.07964700103111 27.480518800524816" fill="red" stroke="none" /><path d="M 117.45458315368197 88.32363383020206 l 21.209386299190083 -14.188168143895124 a46.51748777735991,46.51748777735991 0 0,0 0.43948695665356236,0.6693687864503574 l -21.45046989120157 13.820981293467092" fill="red" stroke="none" /><line stroke="#e1ed5e" stroke-width="0.3" x1="172.23445277983987" x2="176.4835382374775" y1="55.19839476539836" y2="52.563006222186495" /><path d="M 173.08426987136738 54.67131705675599 a86.0,86.0 0 0,1 12.851231095245387,41.99856678651699" fill="none" id="id3" stroke="none" /><text fill="#e1ed5e" style="font-size:6.75px; font-family:Arial;" text-anchor="middle"><textPath startOffset="22.20632615414155" xlink:href="#id3">March</textPath></text><path d="M 118.56541770881063 90.18545643968196 l 33.17896387825053 -17.539943963381482 a58.529898458066945,58.529898458066945 0 0,0 0.46319604770604655,0.8947473318272224 l -33.47596935911669 16.966223909293916" fill="red" stroke="none" /><path d="M 119.04729006885535 91.15688171328212 l 28.388270230490324 -13.17987129381834 a52.29860849943588,52.29860849943588 0 0,0 0.3720614731360347,0.8197881374380821 l -28.610934020589706 12.689261147538195" fill="red" stroke="none" /><path d="M 119.61058180528143 92.48833698450437 l 40.61138349408882 -15.555837681394022 a64.4887175629936,64.4887175629936 0 0,0 0.3881465711131925,1.040039836249334 l -40.87313465370364 14.854474708115355" fill="red" stroke="none" /><path d="M 119.85752413597 93.16781622104841 l 35.33130751683868 -12.156096825204942 a58.36404663407296,58.36404663407296 0 0,0 0.3186752158806391,0.9527983337360284 l -35.53532002649109 11.5461253885466" fill="red" stroke="none" /><path d="M 120.28053869075195 94.5502522615342 l 36.49581708734415 -9.807086471816037 a58.79052275291463,58.79052275291463 0 0,0 0.2542092912965276,0.9795720978617366 l -36.65922271051098 9.17741794840545" fill="red" stroke="none" /><path d="M 120.6074358757038 95.95851677861258 l 36.82833218553759 -7.222688329459596 a58.529898458066945,58.529898458066945 0 0,0 0.18538446788417934,0.9903312402876824 l -36.94720237733163 6.587679011709351" fill="red" stroke="none" /><path d="M 120.78858239683441 97.02765380044208 l 37.19897519523811 -5.318699968972 a58.577284693493795,58.577284693493795 0 0,0 0.13412524820911206,0.9993888893969103 l -37.28501644250506 4.677592737510425" fill="red" stroke="none" /><path d="M 120.87857604477298 97.74499172005257 l 38.302254210756914 -4.136867389839624 a59.52500940203084,59.52500940203084 0 0,0 0.10125735379204305,1.0196477341409078 l -38.36778869023119 3.4769441249942816" fill="red" stroke="none" /><path d="M 120.94382443527127 98.46500227214037 l 12.724613905671584 -0.9326020418793676 a33.75874388867996,33.75874388867996 0 0,0 0.03748733123415792,0.5799124219068826 l -12.738781827910156 0.7134305557194496" fill="red" stroke="none" /><path d="M 120.96714384426684 98.82574320788733 l 37.50666404484967 -2.100546232299326 a58.565438134637084,58.565438134637084 0 0,0 0.04770682517657274,1.0070156783892987 l -37.53726447825974 1.4546194472870275" fill="red" stroke="none" /><line stroke="#e1ed5e" stroke-width="0.3" x1="184.98032266829074" x2="189.97916517819016" y1="98.17113171792111" y2="98.06355123074" /><path d="M 185.9800911702706 98.14961562048488 a86.0,86.0 0 0,1 -9.607161424134198,41.387399972396054" fill="none" id="id4" stroke="none" /><text fill="#e1ed5e" style="font-size:6.75px; font-family:Arial;" text-anchor="middle"><textPath startOffset="21.466115282336823" xlink:href="#id4">April</textPath></text><path d="M 120.99513854157772 99.54816195383933 l 37.781774321718444 -0.8131045697174853 a58.79052275291463,58.79052275291463 0 0,0 0.01306547386826831,1.0119353497547634 l -37.790172802704426 0.16263296190225926" fill="red" stroke="none" /><path d="M 120.99824983174949 100.27111621757518 l 41.660875136289754 0.5378990619849152 a62.664347499059794,62.664347499059794 0 0,0 -0.023209493653933187,1.0784539701441647 l -41.645443579950815 -1.2549428479191946" fill="red" stroke="none" /><path d="M 120.9764740272857 100.99374915477107 l 62.00642566922364 2.937521006581634 a83.07596840917638,83.07596840917638 0 0,0 -0.07996516548103771,1.4278317472236488 l -61.946674152855074 -4.004424470140706" fill="red" stroke="none" /><path d="M 120.95626037817324 101.35467743843564 l 30.196994852756912 1.9520270743626282 a51.26002160998026,51.26002160998026 0 0,0 -0.06449838923219506,0.8800292768644742 l -30.15891990486038 -2.4715294877238727" fill="red" stroke="none" /><path d="M 120.89721153311464 102.0752229133903 l 37.4051441488752 3.7145631652053903 a58.589131252350505,58.589131252350505 0 0,0 -0.1082997729651924,1.002721393793785 l -37.33566207440896 -4.357880880883966" fill="red" stroke="none" /><path d="M 120.81339534386255 102.79330883721812 l 40.78924525643766 5.47421299388627 a62.154945468221136,62.154945468221136 0 0,0 -0.1514388937568061,1.0591632702196987 l -40.68897231166425 -6.1755217360863774" fill="red" stroke="none" /><path d="M 120.64145759157962 103.86396538481128 l 61.924372774738885 11.591896154433844 a84.0,84.0 0 0,0 -0.2782802680973435,1.4189450917282203 l -61.715662573665874 -12.656104973230008" fill="red" stroke="none" /><path d="M 120.49622156327973 104.57218783832717 l 40.5492190799673 9.045503619225297 a62.54588191049267,62.54588191049267 0 0,0 -0.2434507138446735,1.048779303545709 l -40.38750780019207 -9.74215158011957" fill="red" stroke="none" /><path d="M 120.32669344350535 105.2749913415812 l 39.88129360465115 10.349616332842855 a62.202331703647985,62.202331703647985 0 0,0 -0.2778723996736226,1.0340665702555027 l -39.697233128635744 -11.034573836273905" fill="red" stroke="none" /><path d="M 120.13307415673323 105.97154293290107 l 30.154181206916157 8.943839687957327 a52.452613764573144,52.452613764573144 0 0,0 -0.26419439277943574,0.863402561788459 l -29.995760041630586 -9.461569222297843" fill="red" stroke="none" /><path d="M 119.67450827220406 107.3425965602758 l 46.148893604263534 17.222931457856383 a70.25799172621286,70.25799172621286 0 0,0 -0.43260763021292364,1.1294020118286394 l -45.845591694457106 -18.014757036518166" fill="red" stroke="none" /><path d="M 119.41010516605496 108.01547362559984 l 34.776134265169546 14.360931309649345 a58.624670928920644,58.624670928920644 0 0,0 -0.39320130372677353,0.9294117322226658 l -34.52378198025046 -14.957417567538174" fill="red" stroke="none" /><line stroke="#e1ed5e" stroke-width="0.3" x1="174.80103733775053" x2="179.2010983576182" y1="140.37084112569926" y2="142.7455964860345" /><path d="M 175.68104954172406 140.8457921977663 a86.0,86.0 0 0,1 -30.038265399797805,32.042727171017184" fill="none" id="id5" stroke="none" /><text fill="#e1ed5e" style="font-size:6.75px; font-family:Arial;" text-anchor="middle"><textPath startOffset="22.206326154141568" xlink:href="#id5">May</textPath></text><path d="M 116.498646956653 112.99209946851258 l 29.52258827369499 23.2479914521184 a58.577284693493795,58.577284693493795 0 0,0 -0.6306321347458249,0.7868105522189235 l -29.11803822689431 -23.752729837915574" fill="red" stroke="none" /><path d="M 116.0416608686014 113.55231037782055 l 28.641513717068495 24.196913696390773 a58.4943587814968,58.4943587814968 0 0,0 -0.6564111330816198,0.763554443422393 l -28.2207600744161 -24.686345238974695" fill="red" stroke="none" /><path d="M 115.80600337817218 113.82643327865902 l 28.283175657519074 24.740943790846046 a58.577284693493795,58.577284693493795 0 0,0 -0.6704062851290993,0.753208568270776 l -27.853110522741638 -25.22412652885769" fill="red" stroke="none" /><path d="M 115.56566222782051 114.09645910891815 l 28.03751005646723 25.39112106136274 a58.82606242948477,58.82606242948477 0 0,0 -0.6861740616938191,0.7447064229455652 l -27.59628958677769 -25.869978739109637" fill="red" stroke="none" /><path d="M 115.32070863581623 114.36230785411682 l 27.311078952150798 25.60260971361931 a58.43512598721324,58.43512598721324 0 0,0 -0.6942467191978344,0.7279149095171229 l -26.866325681573997 -26.06893173971894" fill="red" stroke="none" /><path d="M 115.07121518719521 114.62390073753431 l 26.97685170494756 26.176177344977273 a58.589131252350505,58.589131252350505 0 0,0 -0.7085361500660057,0.7177433792419854 l -26.52227492982602 -26.636661218199922" fill="red" stroke="none" /><path d="M 114.81725581225074 114.88116024355365 l 26.36345891228215 26.477160252821484 a58.36404663407296,58.36404663407296 0 0,0 -0.7180168679740055,0.7027306278308361 l -25.903792091932353 -26.927040983574894" fill="red" stroke="none" /><path d="M 114.55890576462653 115.13401014063108 l 25.944857076225205 26.969728112591337 a58.42327942835652,58.42327942835652 0 0,0 -0.7307477115810457,0.6909675722723001 l -25.47677353025335 -27.41233032160956" fill="red" stroke="none" /><path d="M 113.75828350139079 115.86535959552629 l 24.48705403171565 28.237237414752972 a58.375893192929674,58.375893192929674 0 0,0 -0.7648201691917094,0.6517963406043958 l -23.997368385946896 -28.654558145580314" fill="red" stroke="none" /><path d="M 113.48314897796784 116.09983520530334 l 27.823256277589135 33.222939364986615 a64.33471229785633,64.33471229785633 0 0,0 -0.8551304749435674,0.7037141638922244 l -27.247255674100877 -33.696948647736015" fill="red" stroke="none" /><path d="M 112.92097659922987 116.55440617244103 l 14.871821339386713 19.05383614663132 a45.17063801088652,45.17063801088652 0 0,0 -0.6170551600449113,0.47313158414057865 l -14.541637450848308 -19.30700707259927" fill="red" stroke="none" /><path d="M 112.34349029814194 116.9893568818739 l 22.226638415759158 30.59234326830094 a58.814215870628054,58.814215870628054 0 0,0 -0.8241626887962981,0.5880181955795785 l -21.696748399113975 -30.97040572572474" fill="red" stroke="none" /><path d="M 111.7513745106137 117.40417183066458 l 20.895260882354872 30.946568038880084 a58.340353516359535,58.340353516359535 0 0,0 -0.8371154570920967,0.5547944784499552 l -20.35947072652281 -31.301660538421356" fill="red" stroke="none" /><path d="M 111.1453310114006 117.79835938074945 l 15.014131509152673 23.9765789025365 a49.28958254983077,49.28958254983077 0 0,0 -0.7229626977143518,0.444102737316319 l -14.599189611506013 -24.231470106681197" fill="red" stroke="none" /><line stroke="#e1ed5e" stroke-width="0.3" x1="143.8653032363475" x2="146.44561519142675" y1="172.8068346515853" y2="177.08958963109032" /><path d="M 144.38136562736335 173.6633856474863 a86.0,86.0 0 0,1 -40.68145358897372,12.25698825130547" fill="none" id="id6" stroke="none" /><text fill="#e1ed5e" style="font-size:6.75px; font-family:Arial;" text-anchor="middle"><textPath startOffset="21.466115282336833" xlink:href="#id6">June</textPath></text><path d="M 110.5260780823613 118.17145234162733 l 15.872248992563971 27.40069129889235 a52.66585182399398,52.66585182399398 0 0,0 -0.7883607362865679,0.4476518010148628 l -15.398239489356204 -27.669846265701842" fill="red" stroke="none" /><path d="M 109.57404056367764 118.69057910512821 l 18.82222529019362 36.74501777813378 a62.28525761564498,62.28525761564498 0 0,0 -0.958439886069917,0.48058165576110906 l -18.186931496440945 -37.06356727480419" fill="red" stroke="none" /><path d="M 108.92500713936063 119.00905698771935 l 15.88476731366084 33.83240398434818 a58.375893192929674,58.375893192929674 0 0,0 -0.9132547233114401,0.41923045115670904 l -15.30004459458198 -34.100821505838965" fill="red" stroke="none" /><path d="M 106.91757812671514 119.82793768551818 l 14.26311473475583 40.88253793187419 a64.2991726212862,64.2991726212862 0 0,0 -1.0481691873981072,0.3555958977694364 l -13.557275814420496 -41.121996816541746" fill="red" stroke="none" /><path d="M 106.2309692047433 120.05430185196036 l 12.857964658302562 41.38320957566997 a64.33471229785633,64.33471229785633 0 0,0 -1.0603739970702357,0.31948198693672786 l -12.14371568679208 -41.598406931712425" fill="red" stroke="none" /><path d="M 105.18746579009965 120.34920634021253 l 9.311686429539547 36.52755241137059 a58.69575028206093,58.69575028206093 0 0,0 -0.981188111240487,0.2411521655547685 l -8.681545033555848 -36.68242583523939" fill="red" stroke="none" /><path d="M 103.7750983002368 120.6578951692458 l 7.417450571488234 40.589384472254494 a62.26156449793155,62.26156449793155 0 0,0 -1.055929534937982,0.18358688462942752 l -6.717672065078202 -40.71104993540493" fill="red" stroke="none" /><path d="M 101.98527174616119 120.90594882070398 l 3.9018541351780307 41.088562819480636 a62.27341105678827,62.27341105678827 0 0,0 -1.0680058497961429,0.09215203865465928 l -3.194003967640346 -41.14963911041396" fill="red" stroke="none" /><path d="M 101.26447882468166 120.96189622390904 l 2.970265039098032 49.23956518034442 a70.32907107935314,70.32907107935314 0 0,0 -1.2090301808115698,0.06249305031312228 l -2.122246789872982 -49.283398037419744" fill="red" stroke="none" /><path d="M 100.90346689309514 120.98055641714683 l 1.6258326752389083 37.755533078618875 a58.79052275291463,58.79052275291463 0 0,0 -1.0114199707160167,0.03483534882142079 l -0.9756923528482392 -37.77792522586639" fill="red" stroke="none" /><line stroke="#e1ed5e" stroke-width="0.3" x1="102.19456741930631" x2="102.32365962044197" y1="184.97166512339345" y2="189.96999836594603" /><path d="M 102.22038585953345 185.97133177190398 a86.0,86.0 0 0,1 -42.740103519485714,-10.115201625700543" fill="none" id="id7" stroke="none" /><text fill="#e1ed5e" style="font-size:6.75px; font-family:Arial;" text-anchor="middle"><textPath startOffset="22.20632615414155" xlink:href="#id7">July</textPath></text><path d="M 99.45781275523022 120.99299961872073 l -0.9689634400699495 37.51738781051559 a58.529898458066945,58.529898458066945 0 0,0 -1.0069362443547276,-0.034680920219713786 l 1.6146200360993201 -37.49515009186978" fill="red" stroke="none" /><path d="M 98.73552117531835 120.96189622390904 l -2.2519516638886596 37.33172605051569 a58.3995863106431,58.3995863106431 0 0,0 -1.0029078847010913,-0.0691663995766564 l 2.894222309368681 -37.287431306422754" fill="red" stroke="none" /><path d="M 97.65516085044442 120.86867818915974 l -4.176000674208524 37.16571100592928 a58.3995863106431,58.3995863106431 0 0,0 -0.9980004777158713,-0.12084395932320792 l 4.815128574975785 -37.08832151788072" fill="red" stroke="none" /><path d="M 97.2962882734958 120.8252237178851 l -4.055567589756291 31.237835576827635 a52.5,52.5 0 0,0 -0.8951785220329224,-0.12406358626848774 l 4.592674702976044 -31.16339742506654" fill="red" stroke="none" /><path d="M 96.22490169976321 120.6578951692458 l -6.74236247755718 36.89520276748715 a58.50620534035352,58.50620534035352 0 0,0 -0.9891236973497116,-0.18956791073130805 l 7.376453789478587 -36.77367765840737" fill="red" stroke="none" /><path d="M 94.81253420990036 120.34920634021253 l -9.297054615539617 36.47015525170471 a58.63651748777736,58.63651748777736 0 0,0 -0.9759058696299729,-0.2577456100396984 l 9.923450927981078 -36.30471829236143" fill="red" stroke="none" /><path d="M 94.46302465271185 120.25689768951611 l -7.365280858728164 26.945711593764003 a48.93418578412937,48.93418578412937 0 0,0 -0.8106037165941377,-0.22908470721117774 l 7.828015743426916 -26.814938093214305" fill="red" stroke="none" /><path d="M 93.42475214034765 119.94407469862007 l -11.572831885360287 35.10277156432565 a57.961263632944714,57.961263632944714 0 0,0 -0.9448521361315155,-0.3205451444733641 l 12.175353754429029 -34.89836343295416" fill="red" stroke="none" /><path d="M 92.7421414339146 119.70592522655815 l -8.209104790335402 22.288668717139387 a44.752350507709664,44.752350507709664 0 0,0 -0.7205763046490623,-0.2724603011548563 l 8.591551315744749 -22.144060165877896" fill="red" stroke="none" /><path d="M 92.40401165467489 119.57807347666478 l -10.057042861871784 25.921251475967797 a48.80387363670553,48.80387363670553 0 0,0 -0.7805805981945612,-0.3106091293692033 l 10.501744536108204 -25.74429550219253" fill="red" stroke="none" /><path d="M 92.06813273071674 119.44442032107085 l -16.98893997221706 41.647203415581174 a65.97903549119735,65.97903549119735 0 0,0 -1.0478995910068662,-0.4380221140280448 l 17.70331102272139 -41.348596258533156" fill="red" stroke="none" /><path d="M 91.7346041902142 119.30500536409082 l -19.100690642486274 44.61237474852315 a69.52937629645191,69.52937629645191 0 0,0 -1.096178047414152,-0.4805322422830321 l 19.86578936455817 -44.276977952945664" fill="red" stroke="none" /><line stroke="#e1ed5e" stroke-width="0.3" x1="58.666819895761336" x2="56.23545636021788" y1="174.27360380694188" y2="178.64263932499728" /><path d="M 58.180547188652646 175.14741091055294 a86.0,86.0 0 0,1 -31.652253787137756,-30.449443065178592" fill="none" id="id8" stroke="none" /><text fill="#e1ed5e" style="font-size:6.75px; font-family:Arial;" text-anchor="middle"><textPath startOffset="22.20632615414155" xlink:href="#id8">August</textPath></text><line stroke="#e1ed5e" stroke-width="0.3" x1="26.63291911575756" x2="22.317208475507996" y1="142.92168965132927" y2="145.44649492493687" /><path d="M 25.769776987707644 143.4266507060508 a86.0,86.0 0 0,1 -11.730757126820373,-40.83630448921669" fill="none" id="id9" stroke="none" /><text fill="#e1ed5e" style="font-size:6.75px; font-family:Arial;" text-anchor="middle"><textPath startOffset="21.46611528233685" xlink:href="#id9">September</textPath></text><line stroke="#e1ed5e" stroke-width="0.3" x1="15.007084014347285" x2="10.007500721073583" y1="101.09737516637583" y2="101.16192664675087" /><path d="M 14.007167355692545 101.11028546245083 a86.0,86.0 0 0,1 10.666146001902534,-42.60595125391555" fill="none" id="id10" stroke="none" /><text fill="#e1ed5e" style="font-size:6.75px; font-family:Arial;" text-anchor="middle"><textPath startOffset="22.20632615414155" xlink:href="#id10">October</textPath></text><line stroke="#e1ed5e" stroke-width="0.3" x1="26.266209847984243" x2="21.928928074336255" y1="57.711370442889674" y2="55.22380399835377" /><path d="M 25.398753493254645 57.213857153982495 a86.0,86.0 0 0,1 29.58750427330803,-30.492523968695096" fill="none" id="id11" stroke="none" /><text fill="#e1ed5e" style="font-size:6.75px; font-family:Arial;" text-anchor="middle"><textPath startOffset="21.46611528233685" xlink:href="#id11">November</textPath></text><line stroke="#e1ed5e" stroke-width="0.3" x1="56.762969772571076" x2="54.21961505331055" y1="26.818313649435495" y2="22.513508569990535" /><path d="M 56.25429882871897 25.957352633546506 a86.0,86.0 0 0,1 42.265352541879196,-11.944610805530505" fill="none" id="id12" stroke="none" /><text fill="#e1ed5e" style="font-size:6.75px; font-family:Arial;" text-anchor="middle"><textPath startOffset="22.20632615414155" xlink:href="#id12">December</textPath></text></svg>