<?xml version="1.0" encoding="utf-8" ?>
<svg baseProfile="full" height="200mm" version="1.1" viewBox="0,0,200,200" width="200mm" xmlns="http://www.w3.org/2000/svg" xmlns:ev="http://www.w3.org/2001/xml-events" xmlns:xlink="http://www.w3.org/1999/xlink"><defs /><rect fill="#1a1a1a" height="200" width="200" x="0" y="0" /><rect fill="#1a1a1a" height="200" width="180" x="10" y="0" /><text alignment-baseline="middle" fill="#e1ed5e" style="dominant-baseline: central; font-size:9.0px; font-family:Arial;" text-anchor="middle" x="100.0" y="100.0">2025</text><line stroke="#e1ed5e" stroke-width="0.3" x1="100.0" x2="100.0" y1="15.0" y2="10.0" /><path d="M 100.0 14.0 a86.0,86.0 0 0,1 42.46469731375804,11.215312516191453" fill="none" id="id49" stroke="none" /><text fill="#e1ed5e" style="font-size:6.75px; font-family:Arial;" text-anchor="middle"><textPath startOffset="22.20632615414155" xlink:href="#id49">January</textPath></text><path d="M 101.08401301168833 79.027996857942 l 0.4803986314395368 -9.294096564670228 a30.306503844006293,30.306503844006293 0 0,0 0.5207493692336027,0.031413024057012566 l -0.6403100495127514 9.284450271232911" fill="red" stroke="none" /><path d="M 101.44485096284872 79.0497635885617 l 0.3234766669066237 -4.690388711037889 a25.701529901496393,25.701529901496393 0 0,0 0.4410992154712591,0.03423778858808099 l -0.40416607174022395 4.684125660261342" fill="red" stroke="none" /><path d="M 103.59715602781102 79.31037775812273 l 1.3970472005670422 -8.035341978588953 a29.155885089521924,29.155885089521924 0 0,0 0.493713094590342,0.09022291230170294 l -1.535155416260285 8.01010358493651" fill="red" stroke="none" /><path d="M 104.307194497241 79.44645832069477 l 1.065350216606999 -5.083754656102681 a26.19418256200822,26.19418256200822 0 0,0 0.44050791222018976,0.09627796772378867 l -1.1527008529807166 5.064663190283022" fill="red" stroke="none" /><path d="M 105.01212808612495 79.60689891045804 l 4.021832955129878 -16.363836799435337 a37.85082476075052,37.85082476075052 0 0,0 0.6313717842681748,0.1609507258891548 l -4.302913628083078 16.292183077377313" fill="red" stroke="none" /><path d="M 105.71112130821622 79.79150937346287 l 1.1101376628223165 -3.928161448967296 a25.082016413437046,25.082016413437046 0 0,0 0.4144621454611532,0.12099286556046095 l -1.1775900260068968 3.908470254488132" fill="red" stroke="none" /><path d="M 106.0581310904928 79.89281104454417 l 4.86223485310268 -16.13795962430816 a37.854526650206665,37.854526650206665 0 0,0 0.6222826813696799,0.19334625821843796 l -5.139302907183078 16.0518732312072" fill="red" stroke="none" /><path d="M 107.08798089147638 80.2323363322302 l 1.9860022389629788 -5.538759895708553 a26.884051841671297,26.884051841671297 0 0,0 0.4342640733114867,0.15994312310589381 l -2.081048638047042 5.503753504796335" fill="red" stroke="none" /><path d="M 107.76421540070413 80.48803036053334 l 6.36838814896392 -16.004166525783685 a38.224683271424155,38.224683271424155 0 0,0 0.6092580033724091,0.24853163713302928 l -6.642930021924717 15.892174002467076" fill="red" stroke="none" /><path d="M 108.76106565485865 80.91482961587045 l 6.205210207789963 -13.517475927067698 a35.87369453638589,35.87369453638589 0 0,0 0.5589835473089538,0.2624502706126133 l -6.436971966398515 13.408660673815083" fill="red" stroke="none" /><path d="M 109.41281617654863 81.2277094730956 l 6.6467400090669875 -13.25581336835959 a35.82888198094896,35.82888198094896 0 0,0 0.5489317627995495,0.28118416953126907 l -6.873932259455292 13.13943667351582" fill="red" stroke="none" /><path d="M 109.73455568895987 81.39251694778311 l 2.4262634983467906 -4.637772731312433 a26.234089268508438,26.234089268508438 0 0,0 0.39832711014678046,0.21277254729900108 l -2.505735655021882 4.595321457511678" fill="red" stroke="none" /><path d="M 110.05341064243156 81.56283822128135 l 10.090845967552418 -18.50581521087621 a42.07819653006315,42.07819653006315 0 0,0 0.6329280313876015,0.3522237642105604 l -10.407898088012056 18.329376049105473" fill="red" stroke="none" /><path d="M 110.36928655335952 81.73862282372117 l 7.125004837212739 -12.547864315023501 a35.42964285069264,35.42964285069264 0 0,0 0.5277384786325275,0.30570018998575527 l -7.339940048310595 12.423359967647697" fill="red" stroke="none" /><line stroke="#e1ed5e" stroke-width="0.3" x1="143.23703022742887" x2="145.7803849466894" y1="26.81831364943548" y2="22.513508569990506" /><path d="M 143.74570117128098 25.957352633546492 a86.0,86.0 0 0,1 28.547481713284135,27.462654790039103" fill="none" id="id50" stroke="none" /><text fill="#e1ed5e" style="font-size:6.75px; font-family:Arial;" text-anchor="middle"><textPath startOffset="19.985693538727396" xlink:href="#id50">February</textPath></text><path d="M 110.99172775467656 82.1063720568725 l 12.182876925220492 -19.832720737107028 a44.27572344764272,44.27572344764272 0 0,0 0.6459635085342874,0.4045022897833646 l -12.522459586127043 19.620074106000718" fill="red" stroke="none" /><path d="M 111.60114157652 82.49532879139004 l 5.340552582121421 -8.058225684577067 a30.667290368349413,30.667290368349413 0 0,0 0.4375131537918551,0.295410834456896 l -5.478470430319818 7.965102937821501" fill="red" stroke="none" /><path d="M 112.19680574252982 82.90503203632743 l 5.99334153606823 -8.400230660161641 a31.319109356522993,31.319109356522993 0 0,0 0.43616286756871564,0.3168908724254402 l -6.137049719990735 8.295820552919526" fill="red" stroke="none" /><path d="M 113.06298171725822 83.55741782278167 l 8.129510737416108 -10.232744043723505 a34.06897071288029,34.06897071288029 0 0,0 0.4560319943712635,0.3687461578821251 l -8.304446130351863 10.09129178857725" fill="red" stroke="none" /><path d="M 113.89432698308785 84.25364557470407 l 4.12783216117994 -4.67804653634469 a27.238839455145325,27.238839455145325 0 0,0 0.3489023106700439,0.31324793944721746 l -4.207745459445975 4.606299588128175" fill="red" stroke="none" /><path d="M 114.94478906791727 85.2469230424477 l 7.613287702432126 -7.515624266326344 a31.69797914339889,31.69797914339889 0 0,0 0.37997686279938153,0.3915995580239709 l -7.741528828934617 7.383460512752259" fill="red" stroke="none" /><path d="M 115.4437574822437 85.77008943001954 l 9.526824177210546 -8.77803579948075 a33.95431555121493,33.95431555121493 0 0,0 0.39234431414438764,0.43323639105324985 l -9.67651213197097 8.61274662115795" fill="red" stroke="none" /><path d="M 115.9244219780498 86.31012108654704 l 9.740368297010367 -8.373582585434479 a33.844907935695616,33.844907935695616 0 0,0 0.37598370518587754,0.44504611557472257 l -9.883062615683361 8.20467752023065" fill="red" stroke="none" /><path d="M 116.15771136456269 86.58626213691792 l 13.030095557689739 -10.817267507643141 a37.93507208648484,37.93507208648484 0 0,0 0.4127724369024722,0.5060102008801073 l -13.21436648666862 10.591373137154932" fill="red" stroke="none" /><path d="M 116.60985879189232 87.15038557335679 l 12.335527185920492 -9.542932909569616 a36.595922527094395,36.595922527094395 0 0,0 0.38116232125570976,0.5015649354274289 l -12.497965447400315 9.329183198261155" fill="red" stroke="none" /><path d="M 117.2510076193507 88.02491185347247 l 13.961963461513038 -9.691940716707437 a37.99618011662611,37.99618011662611 0 0,0 0.3683377461804385,0.5404901920291537 l -14.12672567336221 9.450172501407877" fill="red" stroke="none" /><path d="M 117.45458315368197 88.32363383020206 l 7.293616275268985 -4.879115907965621 a29.775113128286826,29.775113128286826 0 0,0 0.2813086965357394,0.4284524443042614 l -7.3765216071626485 4.752845399683685" fill="red" stroke="none" /><line stroke="#e1ed5e" stroke-width="0.3" x1="172.23445277983987" x2="176.4835382374775" y1="55.19839476539836" y2="52.563006222186495" /><path d="M 173.08426987136738 54.67131705675599 a86.0,86.0 0 0,1 12.851231095245387,41.99856678651699" fill="none" id="id51" stroke="none" /><text fill="#e1ed5e" style="font-size:6.75px; font-family:Arial;" text-anchor="middle"><textPath startOffset="22.20632615414155" xlink:href="#id51">March</textPath></text><path d="M 117.84615892207809 88.93136811851018 l 16.15274420265845 -10.018333930328813 a40.00731859090318,40.00731859090318 0 0,0 0.35794014838859795,0.5883594899258265 l -16.322800149333272 9.738806667195904" fill="red" stroke="none" /><path d="M 118.56541770881063 90.18545643968196 l 11.409789398206717 -6.031745518422208 a33.90601596583689,33.90601596583689 0 0,0 0.26832666726878945,0.5183217145004716 l -11.511925498635623 5.834451081661392" fill="red" stroke="none" /><path d="M 119.04729006885535 91.15688171328212 l 18.069762444246823 -8.389279846619663 a40.922257179757814,40.922257179757814 0 0,0 0.2911281146326598,0.6414622100991024 l -18.21149287584283 8.076995627678498" fill="red" stroke="none" /><path d="M 119.61058180528143 92.48833698450437 l 13.965696292918551 -5.349438653620572 a35.955171909907584,35.955171909907584 0 0,0 0.21640803566893207,0.579865944286597 l -14.05570891708911 5.108249572304642" fill="red" stroke="none" /><path d="M 119.85752413597 93.16781622104841 l 12.149950776330972 -4.18031452666059 a33.848981804371704,33.848981804371704 0 0,0 0.1848198027028273,0.552587685772943 l -12.220107872805569 3.970553737965333" fill="red" stroke="none" /><path d="M 120.28053869075195 94.5502522615342 l 12.550409603207521 -3.372522169891319 a33.99564107671076,33.99564107671076 0 0,0 0.1469966147707595,0.5664379204047344 l -12.606602549848583 3.1559878239377337" fill="red" stroke="none" /><path d="M 120.6074358757038 95.95851677861258 l 12.664756972704437 -2.483783189566099 a33.90601596583689,33.90601596583689 0 0,0 0.10739210033659019,0.5736928942174384 l -12.705634796950886 2.265412217886098" fill="red" stroke="none" /><path d="M 120.67395015179393 96.31383870115 l 4.635410668272632 -0.8264928223298575 a25.708515949733897,25.708515949733897 0 0,0 0.07392806768009932,0.43632764027591026 l -4.648950597472955 0.7465793937381093" fill="red" stroke="none" /><path d="M 120.78858239683441 97.02765380044208 l 12.792216006630833 -1.8290277761807845 a33.922311440541236,33.922311440541236 0 0,0 0.07767240263177899,0.5787496182817103 l -12.821804408320448 1.6085598158344099" fill="red" stroke="none" /><path d="M 120.87857604477298 97.74499172005257 l 13.171618487694507 -1.4226118048647174 a34.24822093462802,34.24822093462802 0 0,0 0.058259280574046744,0.5866630047631584 l -13.194154893950783 1.195673269397124" fill="red" stroke="none" /><path d="M 120.94382443527127 98.46500227214037 l 9.954228778383435 -0.7295572308026579 a30.98092802926729,30.98092802926729 0 0,0 0.034402711037011965,0.53219471274225 l -9.965312080424862 0.5581034538073727" fill="red" stroke="none" /><path d="M 120.96714384426684 98.82574320788733 l 12.898025970652814 -0.7223489624232247 a33.91823757186515,33.91823757186515 0 0,0 0.027629459996841167,0.5832142319106179 l -12.908549038883152 0.5002236238896068" fill="red" stroke="none" /><line stroke="#e1ed5e" stroke-width="0.3" x1="184.98032266829074" x2="189.97916517819016" y1="98.17113171792111" y2="98.06355123074" /><path d="M 185.9800911702706 98.14961562048488 a86.0,86.0 0 0,1 -9.607161424134198,41.387399972396054" fill="none" id="id52" stroke="none" /><text fill="#e1ed5e" style="font-size:6.75px; font-family:Arial;" text-anchor="middle"><textPath startOffset="21.466115282336823" xlink:href="#id52">April</textPath></text><path d="M 120.99513854157772 99.54816195383933 l 12.992632611531453 -0.279615479652681 a33.99564107671076,33.99564107671076 0 0,0 0.007555114996843141,0.5851519825343482 l -12.995520733646012 0.05592723905787012" fill="red" stroke="none" /><path d="M 120.99824983174949 100.27111621757518 l 14.326602035986083 0.18497609018960223 a35.327796133790514,35.327796133790514 0 0,0 -0.013084637324069457,0.6079916813544047 l -14.321295335977005 -0.43155758733412175" fill="red" stroke="none" /><path d="M 120.9764740272857 100.99374915477107 l 21.323157070771824 1.0101730771609592 a42.34707186268476,42.34707186268476 0 0,0 -0.040761373884423364,0.727821712648538 l -21.302609345999873 -1.3770665061449205" fill="red" stroke="none" /><path d="M 120.95626037817324 101.35467743843564 l 10.384331258594319 0.6712752664550529 a31.40600529365488,31.40600529365488 0 0,0 -0.0395168923078281,0.539176599223201 l -10.371237807622153 -0.8499250021750242" fill="red" stroke="none" /><path d="M 120.89721153311464 102.0752229133903 l 12.863114674536185 1.2773871895714064 a33.926385309217316,33.926385309217316 0 0,0 -0.06271162838534955,0.5806317935850706 l -12.839220744649783 -1.4986153050412683" fill="red" stroke="none" /><path d="M 120.81339534386255 102.79330883721812 l 14.02686050702243 1.8825065668223757 a35.152619780718865,35.152619780718865 0 0,0 -0.08564843573014629,0.5990249600133941 l -13.992378020275682 -2.123676998816179" fill="red" stroke="none" /><path d="M 120.64145759157962 103.86396538481128 l 21.294940208755893 3.986293674911057 a42.66483361941938,42.66483361941938 0 0,0 -0.1413426349754831,0.7207030506390035 l -21.223167640804746 -4.3522604526180055" fill="red" stroke="none" /><path d="M 120.49622156327973 104.57218783832717 l 13.944318805791704 3.110624300228125 a35.28705744702967,35.28705744702967 0 0,0 -0.1373497193188703,0.5916989960495657 l -13.88870852054228 -3.350191953626256" fill="red" stroke="none" /><path d="M 120.32669344350535 105.2749913415812 l 13.714628420190175 3.5590907281883455 a35.1689152554232,35.1689152554232 0 0,0 -0.15710779014686987,0.5846565326690009 l -13.651332553701529 -3.7946381940328946" fill="red" stroke="none" /><path d="M 120.13307415673323 105.97154293290107 l 10.36960823456605 3.075663472354845 a31.81612133500535,31.81612133500535 0 0,0 -0.16025208761619075,0.5237130944534469 l -10.315129374443726 -3.253703539360349" fill="red" stroke="none" /><path d="M 119.67450827220406 107.3425965602758 l 15.86996986756598 5.922729277351152 a37.939145955160924,37.939145955160924 0 0,0 -0.23360707615900844,0.6098743604257134 l -15.765668511813464 -6.195027204610009" fill="red" stroke="none" /><path d="M 119.41010516605496 108.01547362559984 l 11.959034329864881 4.938526784816882 a33.93860691524557,33.93860691524557 0 0,0 -0.22762949922439324,0.5380488954994169 l -11.87225384944818 -5.143650205982462" fill="red" stroke="none" /><line stroke="#e1ed5e" stroke-width="0.3" x1="174.80103733775053" x2="179.2010983576182" y1="140.37084112569926" y2="142.7455964860345" /><path d="M 175.68104954172406 140.8457921977663 a86.0,86.0 0 0,1 -30.038265399797805,32.042727171017184" fill="none" id="id53" stroke="none" /><text fill="#e1ed5e" style="font-size:6.75px; font-family:Arial;" text-anchor="middle"><textPath startOffset="22.206326154141568" xlink:href="#id53">May</textPath></text><path d="M 118.48025628344425 109.97397251340804 l 31.486581841024236 16.993611831286707 a56.779710439073774,56.779710439073774 0 0,0 -0.47160576024223105,0.8561014419926984 l -31.189399671330495 -17.53308379167721" fill="red" stroke="none" /><path d="M 118.30583269289576 110.29060199501025 l 9.19344727000853 5.168085407799372 a31.546496076362807,31.546496076362807 0 0,0 -0.27017020703431627,0.4710645286788527 l -9.103125066821834 -5.32556978233654" fill="red" stroke="none" /><path d="M 117.75023020441432 111.22182372390056 l 3.9237628093529078 2.480631184715836 a25.64213804821073,25.64213804821073 0 0,0 -0.23907647249780742,0.3710519945087387 l -3.88048147347805 -2.547804779146028" fill="red" stroke="none" /><path d="M 117.55443506779139 111.5257021239791 l 3.979128548555539 2.6125734144427026 a25.760147461138416,25.760147461138416 0 0,0 -0.24655760208812952,0.3685701617470047 l -3.9335678410566883 -2.680680490395514" fill="red" stroke="none" /><path d="M 116.498646956653 112.99209946851258 l 10.152412110543235 7.994664552314749 a33.922311440541236,33.922311440541236 0 0,0 -0.36520128563824183,0.4556447560984177 l -10.013292912850138 -8.168237141991417" fill="red" stroke="none" /><path d="M 116.0416608686014 113.55231037782055 l 9.849422687120745 8.32098586247232 a33.89379435980864,33.89379435980864 0 0,0 -0.3803488819026951,0.44243167763492314 l -9.70473129564727 -8.48929463926877" fill="red" stroke="none" /><path d="M 115.80600337817218 113.82643327865902 l 9.72619515633275 8.508070330414075 a33.922311440541236,33.922311440541236 0 0,0 -0.38823463591461976,0.4361857290971929 l -9.578301670769791 -8.674230229252135" fill="red" stroke="none" /><path d="M 115.56566222782051 114.09645910891815 l 9.641714134542227 8.731657352459667 a34.00786268273902,34.00786268273902 0 0,0 -0.3966832438345317,0.4305213152902228 l -9.489984482711971 -8.896329922551224" fill="red" stroke="none" /><path d="M 115.32070863581623 114.36230785411682 l 9.391904467701169 8.804385391563377 a33.873425016428214,33.873425016428214 0 0,0 -0.40243798209308246,0.4219546152987473 l -9.238959934229122 -8.964747123444631" fill="red" stroke="none" /><path d="M 115.07121518719521 114.62390073753431 l 9.27696831370538 9.001627412243613 a33.926385309217316,33.926385309217316 0 0,0 -0.4102820765358995,0.41561357741289917 l -9.120645612113943 -9.159981483637177" fill="red" stroke="none" /><path d="M 114.81725581225074 114.88116024355365 l 12.739858107070864 12.794803057575065 a39.05577386517763,39.05577386517763 0 0,0 -0.4804790970508977,0.47024992390902215 l -12.517729057644173 -13.012203084406659" fill="red" stroke="none" /><path d="M 114.55890576462653 115.13401014063108 l 8.92207955295293 9.274518608258234 a33.86935114775213,33.86935114775213 0 0,0 -0.42363165994995494,0.40057017623768565 l -8.761112058612166 -9.42672342124184" fill="red" stroke="none" /><path d="M 113.75828350139079 115.86535959552629 l 8.420761133759559 9.71039762639154 a33.85305567304779,33.85305567304779 0 0,0 -0.4435306828102234,0.37798647008354336 l -8.252364974372288 -9.85390848669803" fill="red" stroke="none" /><path d="M 113.48314897796784 116.09983520530334 l 9.568035206419596 11.424911963341168 a35.90221161711848,35.90221161711848 0 0,0 -0.47720855779274185,0.3927101548702205 l -9.369956520082162 -11.587917237068567" fill="red" stroke="none" /><path d="M 113.20401910651253 116.32954008644616 l 3.6983816174158193 4.573824862672309 a26.881997999186893,26.881997999186893 0 0,0 -0.3623213387836671,0.28784998446662813 l -3.619102785914801 -4.636808761144063" fill="red" stroke="none" /><path d="M 112.92097659922987 116.55440617244103 l 5.114214840246729 6.552352221086452 a29.311950015572545,29.311950015572545 0 0,0 -0.40041697006202154,0.3070226579880251 l -5.000669141691213 -6.639414220901849" fill="red" stroke="none" /><path d="M 112.34349029814194 116.9893568818739 l 7.643435288832021 10.520286141839751 a34.00378881406293,34.00378881406293 0 0,0 -0.4764945617893574,0.33996621812142197 l -7.461213399193778 -10.650296621805394" fill="red" stroke="none" /><path d="M 111.7513745106137 117.40417183066458 l 7.185592864294929 10.64209916911712 a33.840834067019536,33.840834067019536 0 0,0 -0.4855761676255022,0.3218134062430537 l -7.001341997929463 -10.764210596451491" fill="red" stroke="none" /><path d="M 111.1453310114006 117.79835938074945 l 5.16315335056944 8.245215756925939 a30.72839839849069,30.72839839849069 0 0,0 -0.4507136123572317,0.27686511299461114 l -5.020460538279899 -8.332869336748928" fill="red" stroke="none" /><line stroke="#e1ed5e" stroke-width="0.3" x1="143.8653032363475" x2="146.44561519142675" y1="172.8068346515853" y2="177.08958963109032" /><path d="M 144.38136562736335 173.6633856474863 a86.0,86.0 0 0,1 -40.68145358897372,12.25698825130547" fill="none" id="id54" stroke="none" /><text fill="#e1ed5e" style="font-size:6.75px; font-family:Arial;" text-anchor="middle"><textPath startOffset="21.466115282336833" xlink:href="#id54">June</textPath></text><path d="M 110.5260780823613 118.17145234162733 l 5.458248152220562 9.422720921390082 a31.88945097117488,31.88945097117488 0 0,0 -0.4773565826187995,0.27105552585248227 l -5.295242802680563 -9.515279613037194" fill="red" stroke="none" /><path d="M 109.57404056367764 118.69057910512821 l 6.472704432686864 12.636106293744056 a35.1974323361558,35.1974323361558 0 0,0 -0.5416148913823425,0.27157695027981293 l -6.254235633621761 -12.74565108493317" fill="red" stroke="none" /><path d="M 108.92500713936063 119.00905698771935 l 5.462553030692912 11.634498464537854 a33.85305567304779,33.85305567304779 0 0,0 -0.5296101061744535,0.24311802400933435 l -5.261474928751039 -11.726803558881262" fill="red" stroke="none" /><path d="M 106.91757812671514 119.82793768551818 l 4.90488900989165 14.058942575137394 a35.88999001109023,35.88999001109023 0 0,0 -0.5850585650179416,0.19848363048305803 l -4.662160711936481 -14.141289192518574" fill="red" stroke="none" /><path d="M 106.2309692047433 120.05430185196036 l 4.421677222325391 14.23111666816592 a35.90221161711848,35.90221161711848 0 0,0 -0.5917454244584208,0.17828804222758723 l -4.176056823426724 -14.305120079499233" fill="red" stroke="none" /><path d="M 105.18746579009965 120.34920634021253 l 3.2021609081298346 12.561322944713732 a33.96305012730208,33.96305012730208 0 0,0 -0.5677436755852886,0.13953758232386423 l -2.985463947801335 -12.614581785351625" fill="red" stroke="none" /><path d="M 103.7750983002368 120.6578951692458 l 2.550759246215235 13.958131131841878 a35.18928459880363,35.18928459880363 0 0,0 -0.5967952334774602,0.10376050110413265 l -2.310115041265725 -13.999970211467016" fill="red" stroke="none" /><path d="M 101.98527174616119 120.90594882070398 l 1.3417939785059605 14.129791700716016 a35.19335846747971,35.19335846747971 0 0,0 -0.6035756204676974,0.05207904424771259 l -1.0983740402967213 -14.150794997242391" fill="red" stroke="none" /><path d="M 101.26447882468166 120.96189622390904 l 1.0214332996450328 16.93280931943997 a37.963589167217435,37.963589167217435 0 0,0 -0.6526337454863937,0.03373370999336458 l -0.7298114857451595 -16.947882836195532" fill="red" stroke="none" /><path d="M 100.90346689309514 120.98055641714683 l 0.5591014984454992 12.983608608900996 a33.99564107671076,33.99564107671076 0 0,0 -0.5848539644185147,0.020143553073889434 l -0.3355271823523322 -12.991308960400978" fill="red" stroke="none" /><line stroke="#e1ed5e" stroke-width="0.3" x1="102.19456741930631" x2="102.32365962044197" y1="184.97166512339345" y2="189.96999836594603" /><path d="M 102.22038585953345 185.97133177190398 a86.0,86.0 0 0,1 -42.740103519485714,-10.115201625700543" fill="none" id="id55" stroke="none" /><text fill="#e1ed5e" style="font-size:6.75px; font-family:Arial;" text-anchor="middle"><textPath startOffset="22.20632615414155" xlink:href="#id55">July</textPath></text><path d="M 99.45781275523022 120.99299961872073 l -0.33321320178437613 12.901713726191316 a33.90601596583689,33.90601596583689 0 0,0 -0.5833120725834043,-0.020090447201475757 l 0.5552456260424236 -12.894066480563746" fill="red" stroke="none" /><path d="M 98.73552117531835 120.96189622390904 l -0.7744152082082927 12.837867200161375 a33.86120341039996,33.86120341039996 0 0,0 -0.5815052816490343,-0.040104008832736085 l 0.995283250636257 -12.822634846812353" fill="red" stroke="none" /><path d="M 97.65516085044442 120.86867818915974 l -1.4360692031954099 12.780776909379071 a33.86120341039996,33.86120341039996 0 0,0 -0.5786598726891103,-0.07006765194868349 l 1.6558564989359095 -12.75416372870504" fill="red" stroke="none" /><path d="M 97.2962882734958 120.8252237178851 l -1.394653921656821 10.742262069884925 a31.83241680970969,31.83241680970969 0 0,0 -0.5427751587133691,-0.07522369121915957 l 1.5793576715570212 -10.71666381317316" fill="red" stroke="none" /><path d="M 96.22490169976321 120.6578951692458 l -2.318605734572898 12.68775284622779 a33.897868228484725,33.897868228484725 0 0,0 -0.5730876675282515,-0.10983361544193096 l 2.5366610166728445 -12.64596203243739" fill="red" stroke="none" /><path d="M 94.81253420990036 120.34920634021253 l -3.197129228513029 12.54158485083455 a33.94268078392166,33.94268078392166 0 0,0 -0.5649186347894968,-0.14920014591347885 l 3.412538306114015 -12.48469335561749" fill="red" stroke="none" /><path d="M 94.46302465271185 120.25689768951611 l -2.5328187994387306 9.26625965771043 a30.606182338208143,30.606182338208143 0 0,0 -0.5069969951795078,-0.1432824150938323 l 2.6919469627228523 -9.221288449278076" fill="red" stroke="none" /><path d="M 93.42475214034765 119.94407469862007 l -3.9797377349498757 12.07136040510478 a33.71047026938482,33.71047026938482 0 0,0 -0.5495292519109627,-0.1864301584450466 l 4.186936719798064 -12.001067259761612" fill="red" stroke="none" /><path d="M 92.7421414339146 119.70592522655815 l -2.8229982451903983 7.664766656431467 a29.16810669555018,29.16810669555018 0 0,0 -0.4696478798955664,-0.17758064200488183 l 2.954516345846248 -7.615037764319951" fill="red" stroke="none" /><path d="M 92.40401165467489 119.57807347666478 l -3.4584787350130397 8.913961911650338 a30.56136978277121,30.56136978277121 0 0,0 -0.4888057141582889,-0.19450588146383122 l 3.6114055252131867 -8.85310918578044" fill="red" stroke="none" /><path d="M 92.06813273071674 119.44442032107085 l -5.842262823307713 14.3219005192489 a36.46767175045635,36.46767175045635 0 0,0 -0.5791909206883491,-0.2421018518215053 l 6.0879252034935245 -14.219213624407422" fill="red" stroke="none" /><path d="M 91.7346041902142 119.30500536409082 l -6.568464837864536 15.34158216339588 a37.6885851288385,37.6885851288385 0 0,0 -0.5941862541695266,-0.26047379230352574 l 6.831571766691805 -15.226243817797902" fill="red" stroke="none" /><path d="M 91.40352486487194 119.15986991738527 l -10.375103807694309 23.124087048479613 a46.34494389116092,46.34494389116092 0 0,0 -0.7250379667909328,-0.33282936968709154 l 10.771609770252661 -22.942070608458444" fill="red" stroke="none" /><path d="M 91.07499286063937 119.00905698771935 l -9.53583611404792 20.3100400130856 a43.43724349663119,43.43724349663119 0 0,0 -0.674078447263856,-0.3235986183664355 l 9.884027229312016 -20.142887118219605" fill="red" stroke="none" /><path d="M 90.7491055286396 118.85261126421891 l -8.137413140487816 16.583421971670557 a39.472340861663135,39.472340861663135 0 0,0 -0.6073967954314543,-0.3045613625799646 l 8.42166384360203 -16.44089276818129" fill="red" stroke="none" /><path d="M 90.42595943632237 118.69057910512821 l -5.930390256477326 11.577392792076669 a34.00790346120965,34.00790346120965 0 0,0 -0.5187162316488633,-0.2713678163555656 l 6.128797390652685 -11.473595556776386" fill="red" stroke="none" /><path d="M 90.10565033884886 118.52300852407294 l -6.2257390505091195 11.655078044595562 a34.213654715885674,34.213654715885674 0 0,0 -0.5170777871154772,-0.2819520374308376 l 6.425439649493238 -11.546185355404958" fill="red" stroke="none" /><line stroke="#e1ed5e" stroke-width="0.3" x1="58.666819895761336" x2="56.23545636021788" y1="174.27360380694188" y2="178.64263932499728" /><path d="M 58.180547188652646 175.14741091055294 a86.0,86.0 0 0,1 -31.652253787137756,-30.449443065178592" fill="none" id="id56" stroke="none" /><text fill="#e1ed5e" style="font-size:6.75px; font-family:Arial;" text-anchor="middle"><textPath startOffset="22.20632615414155" xlink:href="#id56">August</textPath></text><path d="M 89.7882731507175 118.34994917583269 l -11.308748207944626 20.32124026825625 a44.25597970567764,44.25597970567764 0 0,0 -0.6624724662661806,-0.3761691558152582 l 11.656869441132013 -20.12356794664636" fill="red" stroke="none" /><path d="M 89.1626897886671 117.98757091392108 l -13.419272236491418 22.273064649813488 a47.00319742362159,47.00319742362159 0 0,0 -0.6894267845792176,-0.4235022404043747 l 13.800678221002944 -22.038773942580736" fill="red" stroke="none" /><path d="M 88.8546689885994 117.79835938074946 l -9.144194680855529 14.602676493943973 a38.22946479575528,38.22946479575528 0 0,0 -0.5547244581558631,-0.35405139507441596 l 9.394200941058317 -14.443110670045753" fill="red" stroke="none" /><path d="M 88.54995079064634 117.60387380957326 l -6.996169051458981 10.756257451864508 a33.83134660771749,33.83134660771749 0 0,0 -0.48544003374301165,-0.3217231841288902 l 7.180283783941954 -10.6342362466443" fill="red" stroke="none" /><path d="M 87.95078237400918 117.19931262002967 l -13.018234428530613 18.582508063773105 a43.68885262802798,43.68885262802798 0 0,0 -0.6122112098126654,-0.4367964429855588 l 13.336172966192166 -18.355667358943325" fill="red" stroke="none" /><path d="M 87.65650970185807 116.9893568818739 l -12.268618988010507 16.886305364247015 a41.87262131902865,41.87262131902865 0 0,0 -0.5794672896800841,-0.428676047798967 l 12.557471248109156 -16.67261936770828" fill="red" stroke="none" /><path d="M 87.36589467227662 116.77436683061367 l -5.084925650662179 6.751282022592925 a29.45199845133378,29.45199845133378 0 0,0 -0.40233010686390386,-0.3084895697073691 l 5.20038448601957 -6.662753111058189" fill="red" stroke="none" /><path d="M 86.79598089348748 116.32954008644616 l -10.554541382183569 13.052904968110361 a37.78620480915045,37.78620480915045 0 0,0 -0.5022504043410584,-0.41331788973924427 l 10.777661915069315 -12.869291959513937" fill="red" stroke="none" /><path d="M 86.51685102203217 116.09983520530335 l -11.040691488875934 13.18336790715254 a38.19587328192078,38.19587328192078 0 0,0 -0.5004287329592577,-0.4264762227973929 l 11.265985698412248 -12.991367294132196" fill="red" stroke="none" /><path d="M 86.24171649860922 115.8653595955263 l -12.867149683681392 14.83774895904941 a40.639815048875434,40.639815048875434 0 0,0 -0.5245586974028392,-0.4628620610640611 l 13.120650733990818 -14.61406375621306" fill="red" stroke="none" /><path d="M 85.97065885151581 115.62618273729859 l -17.056584126006047 18.997991253201086 a46.53136764265139,46.53136764265139 0 0,0 -0.5913925232260514,-0.5402230481856073 l 17.381076198698953 -18.7015754384289" fill="red" stroke="none" /><path d="M 85.70375840098266 115.38237550388516 l -3.360351812137541 3.6156491229844336 a25.936079707812077,25.936079707812077 0 0,0 -0.32440374931551064,-0.30674399323891616 l 3.4220913958438683 -3.557270492999587" fill="red" stroke="none" /><path d="M 85.44109423537348 115.13401014063109 l -24.978636267643775 25.965339750473618 a57.029586982767015,57.029586982767015 0 0,0 -0.701599833951745,-0.6866631047124285 l 25.421886053971317 -25.53152654283862" fill="red" stroke="none" /><path d="M 85.18274418774928 114.88116024355367 l -9.70906886030163 9.75094250626282 a34.760337855391555,34.760337855391555 0 0,0 -0.4203673178387488,-0.4258298736068207 l 9.87547680319591 -9.582372138675336" fill="red" stroke="none" /><path d="M 84.67929136418377 114.36230785411682 l -15.249462854710293 14.295518917268407 a41.902343851137076,41.902343851137076 0 0,0 -0.4887680780825765,-0.5304612158908288 l 15.4932773407886 -14.030906446576234" fill="red" stroke="none" /><path d="M 84.43433777217949 114.09645910891817 l -18.664584298245813 16.902881836593593 a46.1808284495997,46.1808284495997 0 0,0 -0.5285311158937875,-0.5938103116265657 l 18.952774263787937 -16.579097355226164" fill="red" stroke="none" /><path d="M 84.19399662182784 113.82643327865904 l -6.243081511372615 5.4611876199792 a29.294614938516233,29.294614938516233 0 0,0 -0.32873787807148147,-0.38239642028057325 l 6.336161899014875 -5.352914100537096" fill="red" stroke="none" /><path d="M 83.95833913139862 113.55231037782056 l -19.307676240262225 16.311504352686065 a46.27551257732438,46.27551257732438 0 0,0 -0.5088190933848175,-0.6129053759368256 l 19.585591333540577 -15.976737719635478" fill="red" stroke="none" /><path d="M 83.50135304334701 112.99209946851258 l -29.919260960079516 23.56035712740623 a59.082182242726844,59.082182242726844 0 0,0 -0.6223131398081366,-0.8044236218574677 l 30.320380917105723 -23.04185551143551" fill="red" stroke="none" /><path d="M 83.28015986056508 112.70617746262583 l -20.245804031236204 15.385720003847291 a46.428585507416784,46.428585507416784 0 0,0 -0.4780789771077494,-0.6404649163856877 l 20.507644275039038 -15.034942207952296" fill="red" stroke="none" /><path d="M 82.85270091963577 112.12312394758628 l -21.666020522588145 15.317855658507883 a47.53399983530739,47.53399983530739 0 0,0 -0.4666007430955021,-0.672173171156935 l 21.92648217284578 -14.942641225163936" fill="red" stroke="none" /><path d="M 82.6465618267979 111.8261652097733 l -17.71205257424867 12.070556730983764 a42.43397177820402,42.43397177820402 0 0,0 -0.40614745488131976,-0.6071353382372519 l 17.917203134540717 -11.76388447854069" fill="red" stroke="none" /><path d="M 82.24976979558568 111.22182372390057 l -24.64276820152018 15.579336022224064 a50.154446239419855,50.154446239419855 0 0,0 -0.4550569279277141,-0.7336966610996861 l 24.907289769115852 -15.152843029759113" fill="red" stroke="none" /><line stroke="#e1ed5e" stroke-width="0.3" x1="26.63291911575756" x2="22.317208475507996" y1="142.92168965132927" y2="145.44649492493687" /><path d="M 25.769776987707644 143.4266507060508 a86.0,86.0 0 0,1 -11.730757126820373,-40.83630448921669" fill="none" id="id57" stroke="none" /><text fill="#e1ed5e" style="font-size:6.75px; font-family:Arial;" text-anchor="middle"><textPath startOffset="21.46611528233685" xlink:href="#id57">September</textPath></text><path d="M 81.87401531095188 110.60418214915194 l -21.469850345009654 12.56043231191049 a45.874061463685344,45.874061463685344 0 0,0 -0.3928742086965222,-0.6850092983279976 l 21.682876549858552 -12.189003167724186" fill="red" stroke="none" /><path d="M 81.69416730710424 110.29060199501025 l -18.54055923983116 10.422553243156024 a42.26927250829494,42.26927250829494 0 0,0 -0.35108372765567164,-0.6373189448572666 l 18.71721937693835 -10.101863779900935" fill="red" stroke="none" /><path d="M 81.35079622478065 109.6543875284942 l -24.587092072948213 12.728335103851785 a48.68637952350539,48.68637952350539 0 0,0 -0.37887585262009127,-0.7475580011809024 l 24.80254659535457 -12.303222890968199" fill="red" stroke="none" /><path d="M 81.02952815118164 109.00673069616217 l -25.16220811931005 11.946420418927376 a48.854150108471046,48.854150108471046 0 0,0 -0.3541353199631727,-0.7627759738435984 l 25.36411805611305 -11.51152437780495" fill="red" stroke="none" /><path d="M 80.87730276802145 108.67885076344099 l -5.948936055370735 2.699929178373235 a27.532951688105545,27.532951688105545 0 0,0 -0.19215235874070594,-0.43325284221908167 l 5.994529498842721 -2.597127999661457" fill="red" stroke="none" /><path d="M 80.73074385275274 108.34839909993369 l -23.27505664854275 10.08391089364175 a46.36559719194052,46.36559719194052 0 0,0 -0.3109785176627413,-0.7350613541856482 l 23.4451861473978 -9.681775013789943" fill="red" stroke="none" /><path d="M 80.58989483394504 108.01547362559985 l -19.544772317386805 8.071084916239469 a42.14569782872246,42.14569782872246 0 0,0 -0.2711320760456425,-0.6729275773655594 l 19.680807007689832 -7.733457971031105" fill="red" stroke="none" /><path d="M 80.45479744820244 107.68017299344265 l -12.255941881254996 4.815900658801843 a34.16818174814383,34.16818174814383 0 0,0 -0.210387683615412,-0.5492558534445139 l 12.337023844463918 -4.604221238524172" fill="red" stroke="none" /><path d="M 80.32549172779594 107.34259656027581 l -27.55651400239981 10.284189171480936 a50.41302451090779,50.41302451090779 0 0,0 -0.2964183550688607,-0.8156160065316922 l 27.729456618473893 -9.808325367943127" fill="red" stroke="none" /><path d="M 80.0844068197444 106.66101706037122 l -21.193834438630066 7.088540697364567 a43.34784167274897,43.34784167274897 0 0,0 -0.23058522936032427,-0.7096683643180529 l 21.312711919006638 -6.72267343306871" fill="red" stroke="none" /><path d="M 79.86692584326677 105.97154293290107 l -20.25195869636925 6.006804519232505 a42.124003682344835,42.124003682344835 0 0,0 -0.2002040824445181,-0.696936675297504 l 20.352355415699872 -5.657310368430405" fill="red" stroke="none" /><path d="M 79.76711848015287 105.62410040840567 l -6.4778559341966115 1.8006388348278901 a27.723460248837394,27.723460248837394 0 0,0 -0.12384719697170343,-0.46088149221984115 l 6.50789120751009 -1.68886640943251" fill="red" stroke="none" /><path d="M 79.67330655649465 105.27499134158121 l -28.618926935271155 7.42691339388187 a50.566907540130245,50.566907540130245 0 0,0 -0.21139058824339663,-0.8444003200995138 l 28.74252883780961 -6.933185234384964" fill="red" stroke="none" /><path d="M 79.58551787078972 104.9243191809786 l -16.705337176000047 4.029610536276395 a38.1844712236926,38.1844712236926 0 0,0 -0.14862747943169688,-0.6402832914492192 l 16.772225221362298 -3.7414585874786015" fill="red" stroke="none" /><path d="M 79.4281124754447 104.21870165774334 l -20.81895511476231 4.269368104909984 a42.25220920482646,42.25220920482646 0 0,0 -0.13997566791933044,-0.7137329150697709 l 20.889360715657308 -3.9103714627722583" fill="red" stroke="none" /><path d="M 79.23777060512086 103.15116336523772 l -25.04855130404512 3.801714918006474 a46.33540918850875,46.33540918850875 0 0,0 -0.11289500869829752,-0.7895874278928003 l 25.110280363760015 -3.3699820181332734" fill="red" stroke="none" /><path d="M 79.18660465613746 102.79330883721812 l -20.481588233937696 2.7487779129219017 a41.6652180389935,41.6652180389935 0 0,0 -0.0892796156502717,-0.7116463797300459 l 20.525869358834818 -2.395813778904447" fill="red" stroke="none" /><path d="M 79.10278846688536 102.07522291339032 l -29.43842322373272 2.9234182900988364 a50.58322390136833,50.58322390136833 0 0,0 -0.07858562387567782,-0.8671858110336954 l 29.48438344388547 -2.4162510905165746" fill="red" stroke="none" /><path d="M 79.07016306316243 101.71520430193888 l -20.900100044566745 1.712767357699748 a41.970163420786704,41.970163420786704 0 0,0 -0.05280934052368648,-0.7205414942292675 l 20.92648594375477 -1.3527527269737198" fill="red" stroke="none" /><path d="M 79.0095281055655 100.63252640178507 l -45.065479933237135 1.35800214546134 a66.08593629326197,66.08593629326197 0 0,0 -0.024476774756742016,-1.1373395433061724 l 45.08217877067889 -0.5820727863650388" fill="red" stroke="none" /><line stroke="#e1ed5e" stroke-width="0.3" x1="15.007084014347285" x2="10.007500721073583" y1="101.09737516637583" y2="101.16192664675087" /><path d="M 14.007167355692545 101.11028546245083 a86.0,86.0 0 0,1 10.666146001902534,-42.60595125391555" fill="none" id="id58" stroke="none" /><text fill="#e1ed5e" style="font-size:6.75px; font-family:Arial;" text-anchor="middle"><textPath startOffset="22.20632615414155" xlink:href="#id58">October</textPath></text><path d="M 79.00175016825051 100.2711162175752 l -7.939304343848331 0.10250731280604128 a28.93996607130205,28.93996607130205 0 0,0 -0.002143903983753116,-0.49816778266109085 l 7.939892545121587 0.03416994805872497" fill="red" stroke="none" /><path d="M 79.00486145842228 99.54816195383935 l -12.904316947803725 -0.27771483123041213 a33.907304963347684,33.907304963347684 0 0,0 0.01758062364888344,-0.583415309696294 l 12.897624629699196 0.49980028835170054" fill="red" stroke="none" /><path d="M 79.01574976396665 99.18683210126434 l -25.33372079920181 -0.9817157285928737 a46.35273506554425,46.35273506554425 0 0,0 0.037758478356192254,-0.7970218004673436 l 25.31306871261212 1.4176486356832265" fill="red" stroke="none" /><path d="M 79.03285615573316 98.82574320788736 l -24.442736048682104 -1.368905991019358 a45.481038563708694,45.481038563708694 0 0,0 0.05050433046719903,-0.7812796385817682 l 24.41555112721049 1.789444693854138" fill="red" stroke="none" /><path d="M 79.05617556472873 98.46500227214037 l -12.779609961174394 -0.9366327680009962 a33.8138874547048,33.8138874547048 0 0,0 0.04754154672236149,-0.5801272883348875 l 12.761593930632534 1.156473973543662" fill="red" stroke="none" /><path d="M 79.08570108090925 98.10471618934814 l -20.81218965075654 -1.8860305220792837 a41.897472315791504,41.897472315791504 0 0,0 0.0712713398937773,-0.717692666363044 l 20.776641185180537 2.243998719146758" fill="red" stroke="none" /><path d="M 79.12142395522702 97.74499172005258 l -25.0171139075755 -2.7019945651942083 a46.16260644080709,46.16260644080709 0 0,0 0.09212659716040371,-0.7892844237055644 l 24.966896957411507 3.1322227272246344" fill="red" stroke="none" /><path d="M 79.21141760316559 97.0276538004421 l -24.977828004266538 -3.5713234661444706 a46.231849775839976,46.231849775839976 0 0,0 0.11941930408280169,-0.7868240069352699 l 24.912652806744433 4.000746585471832" fill="red" stroke="none" /><path d="M 79.32604984820605 96.31383870115002 l -28.945757071070368 -5.161022866838743 a50.40226197845078,50.40226197845078 0 0,0 0.15964142708581713,-0.8528108869722956 l 28.852629920074687 5.658511831273612" fill="red" stroke="none" /><path d="M 79.3925641242962 95.95851677861259 l -12.923006739523991 -2.534430543551499 a34.16918529636018,34.16918529636018 0 0,0 0.11816144258250912,-0.5761971582145079 l 12.877466001026487 2.756503357929409" fill="red" stroke="none" /><path d="M 79.46518482838121 95.60439243477599 l -20.280638583393575 -4.341199452720041 a41.74006542994812,41.74006542994812 0 0,0 0.15643702077329172,-0.7012764899094649 l 20.202907175618247 4.689654112179465" fill="red" stroke="none" /><path d="M 79.62865764111835 94.90015583598534 l -24.86988072600257 -6.2260264368365155 a46.637362822992955,46.637362822992955 0 0,0 0.20165921982014848,-0.7770752359399888 l 24.759025174312114 6.653198098325368" fill="red" stroke="none" /><path d="M 79.71946130924805 94.55025226153421 l -24.8502238466613 -6.677704831897129 a46.73179680961118,46.73179680961118 0 0,0 0.2154407698273856,-0.7750550761766808 l 24.731596306267555 7.104471211492753" fill="red" stroke="none" /><path d="M 79.81627453868168 94.20196356495316 l -15.71443133445239 -4.514173838115894 a37.34995772489792,37.34995772489792 0 0,0 0.18282644748793106,-0.616399893033748 l 15.634398989852754 4.784003117896181" fill="red" stroke="none" /><path d="M 80.02781315780177 93.51064311812611 l -20.140166080007738 -6.543936644796394 a42.17662382301304,42.17662382301304 0 0,0 0.23028980129126714,-0.6885371940217155 l 20.024538984944698 6.889646941740431" fill="red" stroke="none" /><path d="M 80.14247586403 93.16781622104843 l -7.827806495140051 -2.693236689260363 a29.278168782389912,29.278168782389912 0 0,0 0.16806633553559588,-0.47514616261527526 l 7.780287078794645 2.827580478302249" fill="red" stroke="none" /><path d="M 80.2630227832202 92.82701384747504 l -12.515755854470163 -4.548586262549528 a34.31667306787091,34.31667306787091 0 0,0 0.20654619112707892,-0.5534411039150574 l 12.435605074841455 4.7633505034939265" fill="red" stroke="none" /><path d="M 80.38941819471856 92.48833698450439 l -4.677025108035147 -1.7914938412031378 a26.008394357901537,26.008394357901537 0 0,0 0.16373702339691504,-0.4166928648942564 l 4.645494534756541 1.8717357109931576" fill="red" stroke="none" /><path d="M 80.52162464483688 92.15188598940014 l -19.416305074539537 -7.823105013179813 a41.93308087202715,41.93308087202715 0 0,0 0.27551694106604147,-0.667186126599148 l 19.278766446587294 8.15616571023227" fill="red" stroke="none" /><path d="M 80.803312248108 91.48605970444005 l -3.80853761255438 -1.689127950913644 a25.166306755484904,25.166306755484904 0 0,0 0.17903751999328552,-0.3944854429826067 l 3.7788977755977426 1.7544354027383218" fill="red" stroke="none" /><path d="M 80.95270993114464 91.15688171328213 l -22.928930705536686 -10.645254295179818 a46.2795827162623,46.2795827162623 0 0,0 0.341679528218065,-0.7196642255707997 l 22.742292983476872 11.03836093639115" fill="red" stroke="none" /><path d="M 81.10775173730289 90.83032412892265 l -19.01811675505523 -9.230768296989616 a42.13991126427973,42.13991126427973 0 0,0 0.3223502285542015,-0.649838390687695 l 18.85640651354762 9.556766276176273" fill="red" stroke="none" /><path d="M 81.6062741919709 89.86733742301443 l -15.126422016336257 -8.332783248389848 a38.26974000038648,38.26974000038648 0 0,0 0.32281866718066077,-0.5742583878395315 l 14.980745707863164 8.591925146164165" fill="red" stroke="none" /><line stroke="#e1ed5e" stroke-width="0.3" x1="26.266209847984243" x2="21.928928074336255" y1="57.711370442889674" y2="55.22380399835377" /><path d="M 25.398753493254645 57.213857153982495 a86.0,86.0 0 0,1 29.58750427330803,-30.492523968695096" fill="none" id="id59" stroke="none" /><text fill="#e1ed5e" style="font-size:6.75px; font-family:Arial;" text-anchor="middle"><textPath startOffset="21.46611528233685" xlink:href="#id59">November</textPath></text><path d="M 81.96595687620814 89.24020034530311 l -35.58835444950456 -21.23337297623672 a62.441369431662736,62.441369431662736 0 0,0 0.5586546118849224,-0.9182812935990531 l 35.21758403933342 21.842822043042847" fill="red" stroke="none" /><path d="M 82.54541684631803 88.32363383020206 l -17.135219707645795 -11.46272574628658 a41.615766683872664,41.615766683872664 0 0,0 0.40342628282259096,-0.5919782898535055 l 16.935368959154463 11.755982059410501" fill="red" stroke="none" /><path d="M 82.7489923806493 88.02491185347247 l -3.9203639642055106 -2.72138909643575 a25.772338234664485,25.772338234664485 0 0,0 0.2561124641771654,-0.3622529176837539 l 3.8729388802244666 2.78846851445129" fill="red" stroke="none" /><path d="M 82.95767976084542 87.72973835380427 l -3.3418959971990057 -2.406124148858277 a25.11797307856835,25.11797307856835 0 0,0 0.25564999736981375,-0.3487063091071833 l 3.2999833873155584 2.4632929016369607" fill="red" stroke="none" /><path d="M 83.17141714833178 87.43820079747576 l -15.598449133293263 -11.643558320408076 a40.46494453433355,40.46494453433355 0 0,0 0.42145985462646146,-0.5545917657195732 l 15.395713338442693 11.910334862008677" fill="red" stroke="none" /><path d="M 83.84228863543731 86.58626213691792 l -3.690102177752843 -3.063432820623641 a25.795985271946776,25.795985271946776 0 0,0 0.2865680751708401,-0.33920621277843993 l 3.636823489094879 3.126497983031197" fill="red" stroke="none" /><path d="M 84.31358615837235 86.03803664274999 l -15.879795150744604 -14.134085728821193 a42.25888692804209,42.25888692804209 0 0,0 0.4883041739798524,-0.5391976650218986 l 15.634147336148706 14.405336181112647" fill="red" stroke="none" /><path d="M 84.80347519578584 85.50635884689758 l -2.9788307204823385 -2.841051100481598 a25.11643095616057,25.11643095616057 0 0,0 0.301081106661851,-0.3102905461914902 l 2.9294853501173694 2.891905842223212" fill="red" stroke="none" /><path d="M 85.05521093208273 85.24692304244772 l -18.069675554971592 -17.83787732627053 a46.391003173742746,46.391003173742746 0 0,0 0.5658911527351164,-0.5634610362856557 l 17.759948602069162 18.146274213206297" fill="red" stroke="none" /><path d="M 85.31137513191541 84.99185889309783 l -3.497496832970233 -3.5735765915169435 a26.00029336660107,26.00029336660107 0 0,0 0.32254819490439174,-0.31029110794342163 l 3.4354653944534137 3.633250786222679" fill="red" stroke="none" /><path d="M 85.57189188830299 84.74124197986013 l -28.636290367782003 -30.284928691531242 a62.6798996145511,62.6798996145511 0 0,0 0.7903401553553794,-0.7345350400210712 l 28.11074232863177 30.77336831762696" fill="red" stroke="none" /><path d="M 86.10567301691215 84.25364557470407 l -29.15500285136299 -33.0411835511625 a65.06511093512185,65.06511093512185 0 0,0 0.8461754899103527,-0.7337950464985141 l 28.58193356280586 33.53814359108069" fill="red" stroke="none" /><path d="M 86.37877921826538 84.01681056812374 l -2.6530745993652602 -3.113127272367292 a25.090277037531095,25.090277037531095 0 0,0 0.3311229131695068,-0.2773059171942654 l 2.599094149236643 3.1583343469553697" fill="red" stroke="none" /><path d="M 87.22198572758235 83.33499621200491 l -12.78352472158683 -16.672190480255725 a42.009056135803704,42.009056135803704 0 0,0 0.5776322160091918,-0.4350606095264098 l 12.494646351819249 16.88976767928799" fill="red" stroke="none" /><path d="M 87.80319425747018 82.90503203632743 l -17.306068524142777 -24.256079275390615 a50.79693590918971,50.79693590918971 0 0,0 0.7161614727274116,-0.5017168785102151 l 16.885975911831704 24.55038099666477" fill="red" stroke="none" /><path d="M 88.39885842347998 82.49532879139004 l -13.84967913956144 -20.897433074469006 a46.070227788568545,46.070227788568545 0 0,0 0.6647999118840624,-0.432404355302007 l 13.48791220189309 21.13273635393055" fill="red" stroke="none" /><path d="M 89.00827224532344 82.1063720568725 l -13.875079428615605 -22.5874871101459 a47.50872315109498,47.50872315109498 0 0,0 0.7005001368163232,-0.4220434944823124 l 13.484217225581633 22.822977214086833" fill="red" stroke="none" /><line stroke="#e1ed5e" stroke-width="0.3" x1="56.762969772571076" x2="54.21961505331055" y1="26.818313649435495" y2="22.513508569990535" /><path d="M 56.25429882871897 25.957352633546506 a86.0,86.0 0 0,1 42.265352541879196,-11.944610805530505" fill="none" id="id60" stroke="none" /><text fill="#e1ed5e" style="font-size:6.75px; font-family:Arial;" text-anchor="middle"><textPath startOffset="22.20632615414155" xlink:href="#id60">December</textPath></text><path d="M 89.63071344664047 81.73862282372117 l -14.789016722142431 -26.044975325890576 a50.95088905748972,50.95088905748972 0 0,0 0.7663884996963671,-0.4264943703298082 l 14.33850413337402 26.295685093780566" fill="red" stroke="none" /><path d="M 90.26544431104013 81.39251694778311 l -13.89711905344171 -26.56417154763713 a50.97974529574637,50.97974529574637 0 0,0 0.7810570663953549,-0.40008776582874533 l 13.43780149945759 26.79945183877838" fill="red" stroke="none" /><path d="M 90.91171255644093 81.06846463323043 l -13.177995543908954 -27.450682018145464 a51.4499509000691,51.4499509000691 0 0,0 0.80169261724133,-0.3764054333191844 l 12.703524715368015 27.673452434104654" fill="red" stroke="none" /><path d="M 91.23893434514133 80.91482961587045 l -2.9830486028152783 -6.498295195093772 a28.15027407931591,28.15027407931591 0 0,0 0.4421173219723641,-0.19836515495839482 l 2.8707491623761396 6.548680680568696" fill="red" stroke="none" /><path d="M 91.90106846888425 80.62456947434976 l -11.581340056280412 -27.706549782805432 a51.029657646504745,51.029657646504745 0 0,0 0.8133547401746561,-0.33178782063853396 l 11.102701446517376 27.901798489627545" fill="red" stroke="none" /><path d="M 92.23578459929587 80.48803036053334 l -3.3231222948686936 -8.35121876188962 a29.988103058798924,29.988103058798924 0 0,0 0.4812616943114256,-0.18672206054381096 l 3.1788774355575917 8.407183526323983" fill="red" stroke="none" /><path d="M 92.57280143429618 80.3572730644239 l -13.246591582326413 -35.03328731242584 a58.454017254013465,58.454017254013465 0 0,0 0.944220751531264,-0.34776447139568056 l 12.64158850502258 35.256115051627845" fill="red" stroke="none" /><path d="M 93.25333710446033 80.11325718540243 l -8.15067243553022 -24.025259450650744 a46.37019024016956,46.37019024016956 0 0,0 0.7580801354922663,-0.24992710184169592 l 7.735909477795544 24.162000276751673" fill="red" stroke="none" /><path d="M 93.94186890950719 79.89281104454417 l -5.884639604181895 -19.531363499501115 a41.39860640879054,41.39860640879054 0 0,0 0.6840819712603896,-0.19970228617369268 l 5.547567415198084 19.629764114593506" fill="red" stroke="none" /><path d="M 94.63758080256005 79.69619591428918 l -8.329105260842253 -31.53660972759081 a53.61796663736974,53.61796663736974 0 0,0 0.8943760533264224,-0.2279963701064272 l 7.7850203188308305 31.6753090938661" fill="red" stroke="none" /><path d="M 95.33964822691252 79.52364482259891 l -4.532282729431534 -19.913653614769483 a41.422908388095095,41.422908388095095 0 0,0 0.6966095944751395,-0.15225187605582755 l 4.188830410802874 19.98871898892118" fill="red" stroke="none" /><path d="M 96.04723909329186 79.375362276772 l -9.41033459486081 -49.10105783124576 a70.99468249058668,70.99468249058668 0 0,0 1.2021931175906486,-0.21969310801467107 l 8.563746356167268 49.25576642061117" fill="red" stroke="none" /><path d="M 96.75951476605007 79.25152402106235 l -3.949892622945307 -25.290734655398303 a46.59732234321712,46.59732234321712 0 0,0 0.793554661852364,-0.1169493290865174 l 3.513968980664294 25.35497846864579" fill="red" stroke="none" /><path d="M 97.11714578562143 79.19881850522333 l -1.1909592946028997 -8.593344858149997 a29.675480383961112,29.675480383961112 0 0,0 0.5065820305763828,-0.06576888657044375 l 1.0428625355186592 8.612572067884578" fill="red" stroke="none" /><path d="M 97.47563105711357 79.15227682838746 l -6.952991581517091 -57.42189314858102 a78.8413165885745,78.8413165885745 0 0,0 1.348686955130837,-0.15154069386764268 l 5.963537922876537 57.53306979591926" fill="red" stroke="none" /><path d="M 98.19473922651362 79.07773832637324 l -5.415782320459142 -62.766785020880285 a84.0,84.0 0 0,0 1.4416392425506632,-0.11189895124615123 l 4.334552888546145 62.8507092343149" fill="red" stroke="none" /><path d="M 98.91598698831166 79.02799685794201 l -0.3462399679733187 -6.698577985639708 a27.707520342505052,27.707520342505052 0 0,0 0.4765154754026188,-0.020519758747768565 l 0.23088366018137582 6.703545470911669" fill="red" stroke="none" /><path d="M 99.27714615592234 79.0124445844662 l -0.8751094428484952 -25.408190157547885 a46.42325596022421,46.42325596022421 0 0,0 0.7988632481693148,-0.020632280824057818 l 0.4376195594843014 25.419489230514305" fill="red" stroke="none" /></svg>