<?xml version="1.0" encoding="utf-8" ?>
<svg baseProfile="full" height="200mm" version="1.1" viewBox="0,0,200,200" width="200mm" xmlns="http://www.w3.org/2000/svg" xmlns:ev="http://www.w3.org/2001/xml-events" xmlns:xlink="http://www.w3.org/1999/xlink"><defs /><rect fill="#1a1a1a" height="200" width="200" x="0" y="0" /><text alignment-baseline="middle" fill="#e1ed5e" style="dominant-baseline: central; font-size:9.0px; font-family:Arial;" text-anchor="middle" x="100.0" y="100.0">2025</text><line stroke="#e1ed5e" stroke-width="0.3" x1="100.0" x2="100.0" y1="15.0" y2="10.0" /><path d="M 100.0 14.0 a86.0,86.0 0 0,1 42.46469731375804,11.215312516191453" fill="none" id="id1" stroke="none" /><text fill="#e1ed5e" style="font-size:6.75px; font-family:Arial;" text-anchor="middle"><textPath startOffset="22.20632615414155" xlink:href="#id1">January</textPath></text><path d="M 103.59715602781102 79.31037775812273 l 2.9767730533287944 -17.121389646990256 a38.37823815163924,38.37823815163924 0 0,0 0.6498804157237,0.11876149204242847 l -3.2710485901553956 17.06761267359709" fill="red" stroke="none" /><path d="M 104.307194497241 79.44645832069477 l 2.270006207282416 -10.832263837527394 a32.067559262407606,32.067559262407606 0 0,0 0.5392805653408177,0.11786584400326709 l -2.4561294967767617 10.791584495428257" fill="red" stroke="none" /><path d="M 105.01212808612495 79.60689891045804 l 6.233998957740887 -25.36458940250231 a47.119439859281954,47.119439859281954 0 0,0 0.7859771882308096,0.2003630857921477 l -6.669685034656722 25.253523320541294" fill="red" stroke="none" /><path d="M 105.71112130821622 79.79150937346287 l 2.3654375305527098 -8.369971426638068 a29.697799514456804,29.697799514456804 0 0,0 0.4907346163621413,0.14325889134532335 l -2.5091623646382786 8.328014206374043" fill="red" stroke="none" /><path d="M 106.0581310904928 79.89281104454417 l 7.838002196923962 -26.014655155639467 a48.16977293438103,48.16977293438103 0 0,0 0.79185286715008,0.24603254036577715 l -8.28464043678476 25.87588248039117" fill="red" stroke="none" /><path d="M 107.76421540070413 80.48803036053334 l 10.122356787580756 -25.43812969192136 a48.378103461673405,48.378103461673405 0 0,0 0.7710919803497123,0.31454777975123815 l -10.558732637518855 25.260121025986543" fill="red" stroke="none" /><path d="M 108.76106565485865 80.91482961587045 l 13.22181707911701 -28.80250436233188 a52.69228146435307,52.69228146435307 0 0,0 0.8210505995938405,0.3854942655958922 l -13.715645890010448 28.57064511409599" fill="red" stroke="none" /><path d="M 109.41281617654863 81.2277094730956 l 14.162611358758811 -28.244964106346828 a52.59679663934407,52.59679663934407 0 0,0 0.8058317954826638,0.4127783443229645 l -14.64670364183023 27.99699323671136" fill="red" stroke="none" /><path d="M 110.05341064243156 81.56283822128135 l 21.501176445083246 -39.43146088926641 a65.91258950878193,65.91258950878193 0 0,0 0.9914380596527389,0.5517342067895376 l -22.17673859380802 39.05551128491669" fill="red" stroke="none" /><path d="M 110.36928655335952 81.73862282372117 l 15.181679184241979 -26.736494196206976 a51.74611365290019,51.74611365290019 0 0,0 0.7707787348975079,0.4464847935775006 l -15.639654651604815 26.471205245239428" fill="red" stroke="none" /><line stroke="#e1ed5e" stroke-width="0.3" x1="143.23703022742887" x2="145.7803849466894" y1="26.81831364943548" y2="22.513508569990506" /><path d="M 143.74570117128098 25.957352633546492 a86.0,86.0 0 0,1 28.547481713284135,27.462654790039103" fill="none" id="id2" stroke="none" /><text fill="#e1ed5e" style="font-size:6.75px; font-family:Arial;" text-anchor="middle"><textPath startOffset="19.985693538727396" xlink:href="#id2">February</textPath></text><path d="M 110.99172775467656 82.1063720568725 l 14.302865789539776 -23.28388809026159 a48.32602082985031,48.32602082985031 0 0,0 0.7050555821107238,0.44150574083581184 l -14.701540524022763 23.034238008102836" fill="red" stroke="none" /><path d="M 111.60114157652 82.49532879139004 l 11.379438726116009 -17.170149344814398 a41.59868088603392,41.59868088603392 0 0,0 0.5934652148731466,0.40071036225398404 l -11.673308635395696 16.971727070261746" fill="red" stroke="none" /><path d="M 112.19680574252982 82.90503203632743 l 12.770375672864004 -17.898880052704094 a42.98755106798311,42.98755106798311 0 0,0 0.5986624118243978,0.4349537021086818 l -13.07658340104219 17.676407115778737" fill="red" stroke="none" /><path d="M 113.06298171725822 83.55741782278167 l 17.322040722793787 -21.80352726708398 a48.84684714808125,48.84684714808125 0 0,0 0.6538420344840675,0.5286947868871384 l -17.694786155842348 21.502126382932712" fill="red" stroke="none" /><path d="M 114.94478906791727 85.2469230424477 l 16.222093047851804 -16.01399565158832 a43.79483186124108,43.79483186124108 0 0,0 0.5249868687899077,0.5410451159365982 l -16.49534418034482 15.732386340101607" fill="red" stroke="none" /><path d="M 115.4437574822437 85.77008943001954 l 20.299381068163633 -18.7038923369546 a48.60254445341786,48.60254445341786 0 0,0 0.5616055473268413,0.6201388722810074 l -20.61833025610651 18.351700677404043" fill="red" stroke="none" /><path d="M 115.9244219780498 86.31012108654704 l 20.754392453075262 -17.84209938649703 a48.36942302303622,48.36942302303622 0 0,0 0.5373368106202966,0.636037299019776 l -21.058439877182675 17.482203137848146" fill="red" stroke="none" /><path d="M 116.15771136456269 86.58626213691792 l 27.76401350125226 -23.049006801152792 a57.08458341476739,57.08458341476739 0 0,0 0.6211387328316367,0.7614426421811048 l -28.156650726160308 22.567679989363587" fill="red" stroke="none" /><path d="M 117.2510076193507 88.02491185347247 l 29.74960086310896 -20.651204875715553 a57.21478999432512,57.21478999432512 0 0,0 0.5546443545117117,0.8138721507273035 l -30.100669683289404 20.136054701717843" fill="red" stroke="none" /><path d="M 117.45458315368197 88.32363383020206 l 15.540949783750094 -10.396227667186059 a39.69766482449097,39.69766482449097 0 0,0 0.37505477474344573,0.5712341529633368 l -15.717601193851463 10.12717545024505" fill="red" stroke="none" /><line stroke="#e1ed5e" stroke-width="0.3" x1="172.23445277983987" x2="176.4835382374775" y1="55.19839476539836" y2="52.563006222186495" /><path d="M 173.08426987136738 54.67131705675599 a86.0,86.0 0 0,1 12.851231095245387,41.99856678651699" fill="none" id="id3" stroke="none" /><text fill="#e1ed5e" style="font-size:6.75px; font-family:Arial;" text-anchor="middle"><textPath startOffset="22.20632615414155" xlink:href="#id3">March</textPath></text><path d="M 118.56541770881063 90.18545643968196 l 24.31152906713005 -12.852205363203336 a48.499629602593956,48.499629602593956 0 0,0 0.3838181397704519,0.7414144791763015 l -24.529156640060616 12.431818161766689" fill="red" stroke="none" /><path d="M 119.04729006885535 91.15688171328212 l 20.801199802581042 -9.65740899072322 a43.933718879436,43.933718879436 0 0,0 0.31255218132244755,0.6886673011823945 l -20.964354300866837 9.297919680698763" fill="red" stroke="none" /><path d="M 119.61058180528143 92.48833698450437 l 29.757554632985908 -11.398372816659183 a52.86589023709672,52.86589023709672 0 0,0 0.3181907595593215,0.8525930411262626 l -29.949349981046854 10.884456638503588" fill="red" stroke="none" /><path d="M 119.85752413597 93.16781622104841 l 25.888635727964918 -8.907249255681105 a48.378103461673405,48.378103461673405 0 0,0 0.2641506792907034,0.7897769093461311 l -26.03812370102739 8.46029924341266" fill="red" stroke="none" /><path d="M 120.28053869075195 94.5502522615342 l 26.74191759584306 -7.186037173984991 a48.690599252611975,48.690599252611975 0 0,0 0.2105373816938222,0.8112864152694002 l -26.861651309407186 6.7246543331667405" fill="red" stroke="none" /><path d="M 120.6074358757038 95.95851677861258 l 26.985564459098132 -5.292347220631074 a48.499629602593956,48.499629602593956 0 0,0 0.1536151311264998,0.820618172987966 l -27.072665314134493 4.827050970180545" fill="red" stroke="none" /><path d="M 120.78858239683441 97.02765380044208 l 27.25714913958811 -3.8972202196997774 a48.53435135714269,48.53435135714269 0 0,0 0.11112979982781707,0.828046089097771 l -27.32019493847376 3.427455788537342" fill="red" stroke="none" /><path d="M 120.87857604477298 97.74499172005257 l 28.06556497660352 -3.031245103493917 a49.22878644811728,49.22878644811728 0 0,0 0.08374255957630942,0.8432761466244616 l -28.113584661862056 2.547693426165021" fill="red" stroke="none" /><path d="M 120.94382443527127 98.46500227214037 l 9.32382403413538 -0.6833541195684435 a30.348832412245486,30.348832412245486 0 0,0 0.03370080169331445,0.5213364858676786 l -9.334205426833112 0.5227585694477297" fill="red" stroke="none" /><path d="M 120.96714384426684 98.82574320788733 l 27.48260483610752 -1.5391526682625358 a48.52567091850551,48.52567091850551 0 0,0 0.039528530355446775,0.8343848005876018 l -27.505026974696463 1.0658567610519343" fill="red" stroke="none" /><line stroke="#e1ed5e" stroke-width="0.3" x1="184.98032266829074" x2="189.97916517819016" y1="98.17113171792111" y2="98.06355123074" /><path d="M 185.9800911702706 98.14961562048488 a86.0,86.0 0 0,1 -9.607161424134198,41.387399972396054" fill="none" id="id4" stroke="none" /><text fill="#e1ed5e" style="font-size:6.75px; font-family:Arial;" text-anchor="middle"><textPath startOffset="21.466115282336823" xlink:href="#id4">April</textPath></text><path d="M 120.99513854157772 99.54816195383933 l 27.68418893370936 -0.5957936315865824 a48.690599252611975,48.690599252611975 0 0,0 0.010820889530766886,0.8380898191965506 l -27.690342830357842 0.1191675543295691" fill="red" stroke="none" /><path d="M 120.99824983174949 100.27111621757518 l 30.526558350483054 0.39413975459313816 a51.52910268697063,51.52910268697063 0 0,0 -0.01908524431414626,0.886816309250864 l -30.5152510434839 -0.919545879634117" fill="red" stroke="none" /><path d="M 120.9764740272857 100.99374915477107 l 45.434541763805555 2.152436935609942 a66.48549845883596,66.48549845883596 0 0,0 -0.0639959303292677,1.1426903260634058 l -45.390759482588756 -2.934198978008771" fill="red" stroke="none" /><path d="M 120.95626037817324 101.35467743843564 l 22.12652332353321 1.4303268520479846 a43.17270550227348,43.17270550227348 0 0,0 -0.05432245005434044,0.741186671603966 l -22.098624314814533 -1.810986660148721" fill="red" stroke="none" /><path d="M 120.89721153311464 102.0752229133903 l 27.40821722379593 2.7218062231828557 a48.54303179577987,48.54303179577987 0 0,0 -0.08972994154635404,0.8307878178222288 l -27.357304980748523 -3.1931903628898755" fill="red" stroke="none" /><path d="M 120.81339534386255 102.79330883721812 l 29.88788092711438 4.011170716749474 a51.155843825571786,51.155843825571786 0 0,0 -0.12463987120866263,0.871730968935423 l -29.814407004889116 -4.525047157665306" fill="red" stroke="none" /><path d="M 120.64145759157962 103.86396538481128 l 45.37441838754136 8.493837280024527 a67.1625726725362,67.1625726725362 0 0,0 -0.22250022296929395,1.1345238433516087 l -45.2214882315964 -9.273624850444081" fill="red" stroke="none" /><path d="M 120.49622156327973 104.57218783832717 l 29.71200432688225 6.627995526701222 a51.44229830059881,51.44229830059881 0 0,0 -0.20023163572964905,0.8625926461745475 l -29.59351212522205 -7.138456830224334" fill="red" stroke="none" /><path d="M 120.32669344350535 105.2749913415812 l 29.22258911586447 7.5835700967893 a51.19056558012051,51.19056558012051 0 0,0 -0.228680258582072,0.8510043133281796 l -29.08772078094062 -8.085465343293027" fill="red" stroke="none" /><path d="M 120.13307415673323 105.97154293290107 l 22.095152084842734 6.553502374076882 a44.046564581719366,44.046564581719366 0 0,0 -0.22185463313454862,0.7250337775068698 l -21.979070679202053 -6.932863124135809" fill="red" stroke="none" /><path d="M 119.67450827220406 107.3425965602758 l 33.81510563117391 12.619917858054048 a57.09326385340457,57.09326385340457 0 0,0 -0.35154693394868947,0.9177781128326911 l -33.592864417631716 -13.200119537719882" fill="red" stroke="none" /><path d="M 119.41010516605496 108.01547362559984 l 25.481838496599458 10.522818019476007 a48.569073111691424,48.569073111691424 0 0,0 -0.32575744248479754,0.769994366841174 l -25.29693007292235 -10.959886911983347" fill="red" stroke="none" /><line stroke="#e1ed5e" stroke-width="0.3" x1="174.80103733775053" x2="179.2010983576182" y1="140.37084112569926" y2="142.7455964860345" /><path d="M 175.68104954172406 140.8457921977663 a86.0,86.0 0 0,1 -30.038265399797805,32.042727171017184" fill="none" id="id5" stroke="none" /><text fill="#e1ed5e" style="font-size:6.75px; font-family:Arial;" text-anchor="middle"><textPath startOffset="22.206326154141568" xlink:href="#id5">May</textPath></text><path d="M 116.498646956653 112.99209946851258 l 21.632359153425554 17.034715792046285 a48.53435135714269,48.53435135714269 0 0,0 -0.522511785327912,0.6519137920563631 l -21.335929456042788 -17.4045574176809" fill="red" stroke="none" /><path d="M 116.0416608686014 113.55231037782055 l 20.986761244692335 17.730028364455965 a48.473588286682414,48.473588286682414 0 0,0 -0.5439601984637558,0.6327486016759601 l -20.6784585366578 -18.08865406529345" fill="red" stroke="none" /><path d="M 115.80600337817218 113.82643327865902 l 20.72419288413224 18.128660567175615 a48.53435135714269,48.53435135714269 0 0,0 -0.5554667541308289,0.6240727867286171 l -20.40906728035307 -18.4827075236451" fill="red" stroke="none" /><path d="M 115.56566222782051 114.09645910891815 l 20.544184056168774 18.60507097194161 a48.716640568523516,48.716640568523516 0 0,0 -0.5682531475067223,0.6167265602588745 l -20.22088450066633 -18.955948787001823" fill="red" stroke="none" /><path d="M 115.32070863581623 114.36230785411682 l 20.011899474508493 18.760037008119564 a48.4301860934965,48.4301860934965 0 0,0 -0.5753816259916646,0.6032853345068341 l -19.686011297137863 -19.101729459208904" fill="red" stroke="none" /><path d="M 115.07121518719521 114.62390073753431 l 19.766998052474186 19.180312523439824 a48.54303179577987,48.54303179577987 0 0,0 -0.5870456196555008,0.5946741133553913 l -19.43391180776315 -19.51772713077588" fill="red" stroke="none" /><path d="M 114.81725581225074 114.88116024355365 l 19.317541078375346 19.400854513226328 a48.378103461673405,48.378103461673405 0 0,0 -0.5951659682520037,0.5824951657659659 l -18.98072515774755 -19.730499781914865" fill="red" stroke="none" /><path d="M 114.55890576462653 115.13401014063108 l 19.010815083489064 19.76177831676254 a48.42150565485932,48.42150565485932 0 0,0 -0.6056473514464006,0.5726773733942168 l -18.667831897651855 -20.08609032690268" fill="red" stroke="none" /><path d="M 113.75828350139079 115.86535959552629 l 17.94262557579991 20.690532130637973 a48.38678390031059,48.38678390031059 0 0,0 -0.6339464156372074,0.5402628885798012 l -17.583813683585657 -20.99631940944072" fill="red" stroke="none" /><path d="M 113.48314897796784 116.09983520530334 l 20.387191903187425 24.343751632245375 a52.753044534813355,52.753044534813355 0 0,0 -0.7011881209466018,0.5770300868948227 l -19.96513365369613 -24.691076837997375" fill="red" stroke="none" /><path d="M 112.92097659922987 116.55440617244103 l 10.89716719607006 13.961493584277227 a38.710775138398645,38.710775138398645 0 0,0 -0.5288099659502319,0.40546893227689484 l -10.655228501626333 -14.147001858381493" fill="red" stroke="none" /><path d="M 112.34349029814194 116.9893568818739 l 16.28633033545503 22.41621062454152 a48.70796012988634,48.70796012988634 0 0,0 -0.6825438848786497,0.4869769391967916 l -15.898059122727497 -22.693231825582533" fill="red" stroke="none" /><path d="M 111.7513745106137 117.40417183066458 l 15.310777761798565 22.67576501683155 a48.36074258439904,48.36074258439904 0 0,0 -0.6939197775430042,0.45989219026656364 l -14.918183285515598 -22.935955228189435" fill="red" stroke="none" /><path d="M 111.1453310114006 117.79835938074945 l 11.001443442956756 17.56858041312919 a41.728887465591654,41.728887465591654 0 0,0 -0.612065014432676,0.37598032261479386 l -10.69739922859177 -17.75534920257236" fill="red" stroke="none" /><line stroke="#e1ed5e" stroke-width="0.3" x1="143.8653032363475" x2="146.44561519142675" y1="172.8068346515853" y2="177.08958963109032" /><path d="M 144.38136562736335 173.6633856474863 a86.0,86.0 0 0,1 -40.68145358897372,12.25698825130547" fill="none" id="id6" stroke="none" /><text fill="#e1ed5e" style="font-size:6.75px; font-family:Arial;" text-anchor="middle"><textPath startOffset="21.466115282336833" xlink:href="#id6">June</textPath></text><path d="M 110.5260780823613 118.17145234162733 l 11.630219803108316 20.077561958140457 a44.20281247718866,44.20281247718866 0 0,0 -0.6616766003692982,0.37571724238818444 l -11.282894435817818 -20.27478236632327" fill="red" stroke="none" /><path d="M 109.57404056367764 118.69057910512821 l 13.791783219323994 26.92451672280532 a51.25132865058079,51.25132865058079 0 0,0 -0.7886507895000839,0.395445877977169 l -13.32627852214115 -27.15793044169179" fill="red" stroke="none" /><path d="M 108.92500713936063 119.00905698771935 l 11.6393924683047 24.790330279588513 a48.38678390031059,48.38678390031059 0 0,0 -0.7569812901494191,0.3474929827198992 l -11.210943182387863 -24.987010332642487" fill="red" stroke="none" /><path d="M 106.91757812671514 119.82793768551818 l 10.451143975871235 29.95624013202952 a52.72700321890181,52.72700321890181 0 0,0 -0.8595261473022071,0.2915979363645861 l -9.9339480956318 -30.13170105529223" fill="red" stroke="none" /><path d="M 106.2309692047433 120.05430185196036 l 9.421535364441178 30.3231018961851 a52.753044534813355,52.753044534813355 0 0,0 -0.8694832803793868,0.2619681798982015 l -8.898177109621546 -30.480785445189028" fill="red" stroke="none" /><path d="M 105.18746579009965 120.34920634021253 l 6.823038119166482 26.765171313329677 a48.621155743514514,48.621155743514514 0 0,0 -0.812776048369025,0.1997605779460956 l -6.361308786054247 -26.878653149589802" fill="red" stroke="none" /><path d="M 103.7750983002368 120.6578951692458 l 5.435057159543981 29.741435086253347 a51.23396777330643,51.23396777330643 0 0,0 -0.8689062056205206,0.15107048154914735 l -4.922301982451411 -29.8305841463235" fill="red" stroke="none" /><path d="M 101.98527174616119 120.90594882070398 l 2.859041667822091 30.10720265340228 a51.24264821194361,51.24264821194361 0 0,0 -0.8788252822620343,0.07582874325750281 l -2.3403720678185147 -30.151955648938443" fill="red" stroke="none" /><path d="M 101.26447882468166 120.96189622390904 l 2.1764297733977216 36.0797620000275 a57.14534648522767,57.14534648522767 0 0,0 -0.9823881864672864,0.05077824800263215 l -1.5550535185169556 -36.11188005479233" fill="red" stroke="none" /><path d="M 100.90346689309514 120.98055641714683 l 1.191311413080953 27.66496094495378 a48.690599252611975,48.690599252611975 0 0,0 -0.8376629797492425,0.028850806726406577 l -0.7149280816570582 -27.68136855010628" fill="red" stroke="none" /><line stroke="#e1ed5e" stroke-width="0.3" x1="102.19456741930631" x2="102.32365962044197" y1="184.97166512339345" y2="189.96999836594603" /><path d="M 102.22038585953345 185.97133177190398 a86.0,86.0 0 0,1 -42.740103519485714,-10.115201625700543" fill="none" id="id7" stroke="none" /><text fill="#e1ed5e" style="font-size:6.75px; font-family:Arial;" text-anchor="middle"><textPath startOffset="22.20632615414155" xlink:href="#id7">July</textPath></text><path d="M 99.45781275523022 120.99299961872073 l -0.7099975431628525 27.49046256010554 a48.499629602593956,48.499629602593956 0 0,0 -0.8343775774635818,-0.028737650828803123 l 1.1830954723010774 -27.474168110850645" fill="red" stroke="none" /><path d="M 98.73552117531835 120.96189622390904 l -1.6500933704650642 27.35442090155783 a48.40414477758495,48.40414477758495 0 0,0 -0.8312541494973908,-0.05732815299485466 l 2.120710280741385 -27.321964404046692" fill="red" stroke="none" /><path d="M 97.65516085044442 120.86867818915974 l -3.0599195968843036 27.232775162502996 a48.40414477758495,48.40414477758495 0 0,0 -0.8271866748250261,-0.10016078661007778 l 3.528233694760719 -27.17606884716757" fill="red" stroke="none" /><path d="M 97.2962882734958 120.8252237178851 l -2.9716735490556707 22.88918817377845 a44.0812863362681,44.0812863362681 0 0,0 -0.7516308714630578,-0.10416918990867632 l 3.3652330117055596 -22.83464441837717" fill="red" stroke="none" /><path d="M 96.22490169976321 120.6578951692458 l -4.940393616743089 27.034563159080708 a48.4822687253196,48.4822687253196 0 0,0 -0.819655976977444,-0.15708901878538992 l 5.405017208292228 -26.94551694194685" fill="red" stroke="none" /><path d="M 94.81253420990036 120.34920634021253 l -6.8123168147680255 26.723114161674545 a48.5777535503286,48.5777535503286 0 0,0 -0.8084947205994264,-0.21353080400447522 l 7.271301978178941 -26.601892008366487" fill="red" stroke="none" /><path d="M 94.46302465271185 120.25689768951611 l -5.396830363407598 19.74418047079892 a41.46847430647618,41.46847430647618 0 0,0 -0.6869328436894143,-0.19413408321334272 l 5.735894375201626 -19.648357594247056" fill="red" stroke="none" /><path d="M 93.42475214034765 119.94407469862007 l -8.479868141825213 25.721178465803497 a48.082968548009205,48.082968548009205 0 0,0 -0.7838216887719507,-0.2659148737255849 l 8.92135956353439 -25.57140060517979" fill="red" stroke="none" /><path d="M 92.7421414339146 119.70592522655815 l -6.015133277147986 16.331782371889386 a38.404279467550786,38.404279467550786 0 0,0 -0.6183633589630164,-0.23381211111048877 l 6.2953668568712855 -16.22582201067226" fill="red" stroke="none" /><path d="M 92.40401165467489 119.57807347666478 l -7.369190031459803 18.993518333689675 a41.37298948146718,41.37298948146718 0 0,0 -0.6617292946650819,-0.2633157428834621 l 7.695040402166743 -18.863855746400144" fill="red" stroke="none" /><path d="M 92.06813273071674 119.44442032107085 l -12.448463112648017 30.516540544121646 a53.95790467623782,53.95790467623782 0 0,0 -0.8569762473924121,-0.3582161409128611 l 12.971910819537891 -30.29773936018881" fill="red" stroke="none" /><path d="M 91.7346041902142 119.30500536409082 l -13.9958257123715 32.68923795909711 a56.55937873075899,56.55937873075899 0 0,0 -0.8916971881884224,-0.39089384273699834 l 14.556443575217667 -32.443479563065665" fill="red" stroke="none" /><path d="M 91.40352486487194 119.15986991738527 l -18.17913956294654 40.51776382307415 a65.40912406782535,65.40912406782535 0 0,0 -1.0232852678619135,-0.46974007750241653 l 18.873892826575872 -40.19883667523766" fill="red" stroke="none" /><path d="M 91.07499286063937 119.00905698771935 l -20.31858334760337 43.27583191064953 a68.80839316283593,68.80839316283593 0 0,0 -1.0677992222393804,-0.5126085167267824 l 21.06049523784299 -42.91966911742319" fill="red" stroke="none" /><path d="M 90.7491055286396 118.85261126421891 l -17.33887885146321 35.335301224763896 a60.360135066720986,60.360135066720986 0 0,0 -0.9288162751691269,-0.46572776227937845 l 17.9445490343151 -35.03160562157522" fill="red" stroke="none" /><path d="M 90.42595943632237 118.69057910512821 l -12.636241570105904 24.668651765859213 a48.7167274576798,48.7167274576798 0 0,0 -0.7430671906586718,-0.38873763462834643 l 13.058999663291072 -24.44748471228615" fill="red" stroke="none" /><path d="M 90.10565033884886 118.52300852407294 l -13.26555912720072 24.834180436791325 a49.15513411305951,49.15513411305951 0 0,0 -0.7428913450963187,-0.40508359391749427 l 13.691073284165679 -24.602156191114066" fill="red" stroke="none" /><line stroke="#e1ed5e" stroke-width="0.3" x1="58.666819895761336" x2="56.23545636021788" y1="174.27360380694188" y2="178.64263932499728" /><path d="M 58.180547188652646 175.14741091055294 a86.0,86.0 0 0,1 -31.652253787137756,-30.449443065178592" fill="none" id="id8" stroke="none" /><text fill="#e1ed5e" style="font-size:6.75px; font-family:Arial;" text-anchor="middle"><textPath startOffset="22.20632615414155" xlink:href="#id8">August</textPath></text><path d="M 89.7882731507175 118.34994917583269 l -24.09623448558235 43.299696972451926 a70.5529239731656,70.5529239731656 0 0,0 -1.0561142213466155,-0.5996892177686665 l 24.837997473850173 -42.878504588888624" fill="red" stroke="none" /><path d="M 89.1626897886671 117.98757091392108 l -28.593255813158844 47.4585673538474 a76.40658709283953,76.40658709283953 0 0,0 -1.1207056231799126,-0.6884289280117725 l 29.405940636271065 -46.95934995900725" fill="red" stroke="none" /><path d="M 88.8546689885994 117.79835938074946 l -19.484089234289957 31.114806912756276 a57.71186378417581,57.71186378417581 0 0,0 -0.8374216729917845,-0.5344821329384877 l 20.016792709328666 -30.774810350993985" fill="red" stroke="none" /><path d="M 88.54995079064634 117.60387380957326 l -14.907160975279128 22.91900898150131 a48.34052708045371,48.34052708045371 0 0,0 -0.6936297088374642,-0.4596999485454913 l 15.299465382856553 -22.659011011864504" fill="red" stroke="none" /><path d="M 87.95078237400918 117.19931262002967 l -27.738740275230555 39.59487499423989 a69.34451197257223,69.34451197257223 0 0,0 -0.9717235636754136,-0.6932989618216084 l 28.416191166754853 -39.111531770574054" fill="red" stroke="none" /><path d="M 87.65650970185807 116.9893568818739 l -26.14148927126036 35.98067320715393 a65.47455796024762,65.47455796024762 0 0,0 -0.9060900284975614,-0.670303741529274 l 26.75696427017649 -35.52535951688489" fill="red" stroke="none" /><path d="M 87.36589467227662 116.77436683061367 l -10.834758946532222 14.385365356389263 a39.00918481959315,39.00918481959315 0 0,0 -0.5328864023632982,-0.40859456989026677 l 11.080774077389007 -14.196731444671629" fill="red" stroke="none" /><path d="M 86.79598089348748 116.32954008644616 l -22.489200339097604 27.812614893012583 a56.767382893903395,56.767382893903395 0 0,0 -0.7545462995252232,-0.6209402352587139 l 22.964616767167517 -27.42137953889669" fill="red" stroke="none" /><path d="M 86.51685102203217 116.09983520530335 l -23.525069804987783 28.090600176001743 a57.64028831187791,57.64028831187791 0 0,0 -0.7551825359356945,-0.6435829404596407 l 24.005117817500537 -27.681492845319152" fill="red" stroke="none" /><path d="M 86.24171649860922 115.8653595955263 l -20.06958023993592 23.143229124887938 a51.63326795061682,51.63326795061682 0 0,0 -0.6664567677351376,-0.5880706099265763 l 20.464979360577644 -22.79433537318907" fill="red" stroke="none" /><path d="M 85.97065885151581 115.62618273729859 l -25.665775347761933 28.587094107545717 a59.41814641176041,59.41814641176041 0 0,0 -0.7551776212925356,-0.6898368519621464 l 26.154052518521326 -28.141064488996996" fill="red" stroke="none" /><path d="M 85.44109423537348 115.13401014063109 l -37.15401771830235 38.62167184845429 a74.59155314955531,74.59155314955531 0 0,0 -0.9176538718357662,-0.8981174541290826 l 37.81332154251391 -37.97640429140264" fill="red" stroke="none" /><path d="M 85.18274418774928 114.88116024355367 l -20.687700848281143 20.776923560936318 a50.31998497688843,50.31998497688843 0 0,0 -0.6085348539021687,-0.6164425941930806 l 21.042276327238845 -20.41774047276257" fill="red" stroke="none" /><path d="M 84.67929136418377 114.36230785411682 l -32.49295377079251 30.46032766752929 a65.53788955893745,65.53788955893745 0 0,0 -0.7644638790400446,-0.829674557248172 l 33.01246405782828 -29.896501855479773" fill="red" stroke="none" /><path d="M 84.43433777217949 114.09645910891817 l -32.79362816366398 29.69832132268258 a65.24265292138298,65.24265292138298 0 0,0 -0.7466902026247327,-0.8389143582573845 l 33.299977215937055 -29.129432794684334" fill="red" stroke="none" /><path d="M 83.95833913139862 113.55231037782056 l -41.14003473259963 34.7559098909637 a74.85606493374996,74.85606493374996 0 0,0 -0.8230745154967642,-0.9914462760992324 l 41.73220524798993 -34.04260235775071" fill="red" stroke="none" /><path d="M 83.50135304334701 112.99209946851258 l -29.617755051438795 23.3229319151633 a58.698415980069655,58.698415980069655 0 0,0 -0.6182709264233047,-0.7991985161617247 l 30.014832795080167 -22.80965540488832" fill="red" stroke="none" /><path d="M 83.28015986056508 112.70617746262583 l -35.54792977201043 27.014510925066187 a65.64794633122901,65.64794633122901 0 0,0 -0.6759823218444762,-0.9055887875629153 l 36.00767336054999 -26.398609257993964" fill="red" stroke="none" /><path d="M 82.85270091963577 112.12312394758628 l -46.16510167897796 32.63868245863042 a77.53759992841651,77.53759992841651 0 0,0 -0.7611205004794844,-1.0964508479900452 l 46.72008308661958 -31.83919034845336" fill="red" stroke="none" /><path d="M 82.6465618267979 111.8261652097733 l -37.74014278169419 25.71946602869605 a66.67066137011719,66.67066137011719 0 0,0 -0.6381236140764921,-0.9539082212954374 l 38.177269501181414 -25.066020893194793" fill="red" stroke="none" /><path d="M 82.24976979558568 111.22182372390057 l -52.507838183233034 33.195834500715335 a83.12114373444413,83.12114373444413 0 0,0 -0.7541674796501877,-1.2159581093493534 l 53.07147030255118 -32.28708006000072" fill="red" stroke="none" /><line stroke="#e1ed5e" stroke-width="0.3" x1="26.63291911575756" x2="22.317208475507996" y1="142.92168965132927" y2="145.44649492493687" /><path d="M 25.769776987707644 143.4266507060508 a86.0,86.0 0 0,1 -11.730757126820373,-40.83630448921669" fill="none" id="id9" stroke="none" /><text fill="#e1ed5e" style="font-size:6.75px; font-family:Arial;" text-anchor="middle"><textPath startOffset="21.46611528233685" xlink:href="#id9">September</textPath></text><path d="M 81.87401531095188 110.60418214915194 l -45.74711000464845 26.763273588093178 a74.0006687403898,74.0006687403898 0 0,0 -0.6337558360165849,-1.1050067195333237 l 46.201017836817414 -25.97184702270155" fill="red" stroke="none" /><path d="M 81.69416730710424 110.29060199501025 l -39.50549209530953 22.20796522015765 a66.31972666413927,66.31972666413927 0 0,0 -0.5508440404263413,-0.9999419368411677 l 39.88191254518738 -21.52465276491866" fill="red" stroke="none" /><path d="M 81.35079622478065 109.6543875284942 l -52.38920568521904 27.121034232419763 a79.99304509994607,79.99304509994607 0 0,0 -0.6225033256228737,-1.2282581183597516 l 52.84828768062818 -26.215221902357325" fill="red" stroke="none" /><path d="M 81.02952815118164 109.00673069616217 l -43.92490506216961 20.854504511130244 a69.6241467084551,69.6241467084551 0 0,0 -0.5046934480902237,-1.0870647875493966 l 44.27737312709966 -20.095319656302017" fill="red" stroke="none" /><path d="M 80.73074385275274 108.34839909993369 l -49.59357237032622 21.486399463223396 a75.04801367621192,75.04801367621192 0 0,0 -0.5033542423695622,-1.1897807405221645 l 49.95607759388809 -20.629544197035074" fill="red" stroke="none" /><path d="M 80.58989483394504 108.01547362559985 l -41.64522969891713 17.197549288269148 a66.05641861264625,66.05641861264625 0 0,0 -0.4249547364803876,-1.054702805660027 l 41.9350870496549 -16.478147114766315" fill="red" stroke="none" /><path d="M 80.45479744820244 107.68017299344265 l -26.11447739237133 10.261531108477216 a49.058242107568304,49.058242107568304 0 0,0 -0.3020719684569127,-0.7886145899099187 l 26.287243640421753 -9.81049295173414" fill="red" stroke="none" /><path d="M 80.32549172779594 107.34259656027581 l -50.36155059311487 18.795110049972088 a74.75445972134247,74.75445972134247 0 0,0 -0.43954105510704516,-1.2094282082830279 l 50.677615909227136 -17.925434044682945" fill="red" stroke="none" /><path d="M 80.0844068197444 106.66101706037122 l -45.158986201768066 15.103982833775941 a68.61789928392975,68.61789928392975 0 0,0 -0.36500719376197666,-1.1233766311917783 l 45.412285646546295 -14.32440730260636" fill="red" stroke="none" /><path d="M 79.86692584326677 105.97154293290107 l -43.152074532636185 12.799062066197434 a66.01019358150509,66.01019358150509 0 0,0 -0.3137287314289448,-1.0921308714470688 l 43.36599590095123 -12.054373719245769" fill="red" stroke="none" /><path d="M 79.67330655649465 105.27499134158121 l -60.98008033051604 15.824974024743632 a84.0,84.0 0 0,0 -0.3511547428197659,-1.4026886424104326 l 61.24344638763086 -14.772957542935808" fill="red" stroke="none" /><path d="M 79.58551787078972 104.9243191809786 l -35.59507333188511 8.586135139119612 a57.61599325608283,57.61599325608283 0 0,0 -0.2242618420048172,-0.9661141458790448 l 35.737595739820485 -7.972152335891993" fill="red" stroke="none" /><path d="M 79.4281124754447 104.21870165774334 l -44.36020812964085 9.097001106533174 a66.2833688503552,66.2833688503552 0 0,0 -0.21958754350084925,-1.1196721534930962 l 44.510225606117366 -8.332065225972123" fill="red" stroke="none" /><path d="M 79.23777060512086 103.15116336523772 l -53.372464807589104 8.100544147517999 a74.98369026959185,74.98369026959185 0 0,0 -0.18269579385338464,-1.2777739566948867 l 53.503994652459085 -7.1806247188427115" fill="red" stroke="none" /><path d="M 79.18660465613746 102.79330883721812 l -43.641360091065884 5.856987521574161 a65.03263123441471,65.03263123441471 0 0,0 -0.1393509645359498,-1.1107642959885087 l 43.73571256484868 -5.104905471298244" fill="red" stroke="none" /><path d="M 79.10278846688536 102.07522291339032 l -53.227734814320286 5.285844704184667 a74.48954951857756,74.48954951857756 0 0,0 -0.11572626791344673,-1.2770297231105292 l 53.310835678510806 -4.368833592525572" fill="red" stroke="none" /><path d="M 79.07016306316243 101.71520430193888 l -44.53310854442862 3.6494971071502462 a65.68239682207032,65.68239682207032 0 0,0 -0.08264547424827721,-1.1276318339826736 l 44.58933057734123 -2.882392136670812" fill="red" stroke="none" /><path d="M 79.0095281055655 100.63252640178507 l -54.16830980093216 1.6323066132804502 a75.1928981654379,75.1928981654379 0 0,0 -0.027849792783971136,-1.2940704370116665 l 54.188381656401134 -0.6996463604786549" fill="red" stroke="none" /><line stroke="#e1ed5e" stroke-width="0.3" x1="15.007084014347285" x2="10.007500721073583" y1="101.09737516637583" y2="101.16192664675087" /><path d="M 14.007167355692545 101.11028546245083 a86.0,86.0 0 0,1 10.666146001902534,-42.60595125391555" fill="none" id="id10" stroke="none" /><text fill="#e1ed5e" style="font-size:6.75px; font-family:Arial;" text-anchor="middle"><textPath startOffset="22.20632615414155" xlink:href="#id10">October</textPath></text><path d="M 79.01574976396665 99.18683210126434 l -53.98009271627341 -2.0918011400890184 a75.02060756477246,75.02060756477246 0 0,0 0.06111104302685433,-1.2899575317158667 l 53.93608806501306 3.0206697784278944" fill="red" stroke="none" /><path d="M 79.03285615573316 98.82574320788736 l -52.08161756439779 -2.916810874359019 a73.1632310521594,73.1632310521594 0 0,0 0.08124396706399634,-1.2568082110490042 l 52.02369300632938 3.812878149661035" fill="red" stroke="none" /><path d="M 79.08570108090925 98.10471618934814 l -44.345792545874296 -4.018679421570359 a65.52750948363352,65.52750948363352 0 0,0 0.11146814217335281,-1.1224689796790706 l 44.270047278018716 4.78142393195386" fill="red" stroke="none" /><path d="M 79.12142395522702 97.74499172005258 l -43.849369064664224 -4.735988225405981 a65.10438472352058,65.10438472352058 0 0,0 0.12992865627053743,-1.1131493808327275 l 43.761350055390096 5.4900813445635706" fill="red" stroke="none" /><path d="M 79.21141760316559 97.0276538004421 l -53.22177039086651 -7.609635132173532 a74.76302995909852,74.76302995909852 0 0,0 0.1931168459000943,-1.2723987270304011 l 53.08289765152711 8.524632971596025" fill="red" stroke="none" /><path d="M 79.32604984820605 96.31383870115002 l -53.09662987407254 -9.467118799461003 a74.93401934166747,74.93401934166747 0 0,0 0.23734200243025902,-1.2678904674256213 l 52.92580214773242 10.379687344349197" fill="red" stroke="none" /><path d="M 79.3925641242962 95.95851677861259 l -27.535832872781558 -5.400264604170403 a49.06038042851189,49.06038042851189 0 0,0 0.16965711282841686,-0.8273083346486012 l 27.43879646403815 5.873448594982407" fill="red" stroke="none" /><path d="M 79.62865764111835 94.90015583598534 l -52.99176058948978 -13.266171478648072 a75.6270811601233,75.6270811601233 0 0,0 0.32701030377529366,-1.2601040963444439 l 52.75555395384418 14.176372000541381" fill="red" stroke="none" /><path d="M 79.71946130924805 94.55025226153421 l -44.396490238331126 -11.93014031636615 a66.97147586765533,66.97147586765533 0 0,0 0.30874880279451183,-1.110733716097877 l 44.18455466497026 12.69258533588297" fill="red" stroke="none" /><path d="M 79.81627453868168 94.20196356495316 l -33.483690261715466 -9.618623503837986 a55.83784481926349,55.83784481926349 0 0,0 0.27332386501961486,-0.9215121962744631 l 33.31316049958415 10.193565086858987" fill="red" stroke="none" /><path d="M 80.02781315780177 93.51064311812611 l -42.91387123656214 -13.943562006361816 a66.12231450107022,66.12231450107022 0 0,0 0.3610363582269852,-1.0794527575236308 l 42.66749758456338 14.680187866807769" fill="red" stroke="none" /><path d="M 80.2630227832202 92.82701384747504 l -26.668078755325485 -9.691948140050833 a49.37464155279635,49.37464155279635 0 0,0 0.2971775303166825,-0.7962880338762759 l 26.497296636507173 10.14955931095645" fill="red" stroke="none" /><path d="M 80.52162464483688 92.15188598940014 l -41.37149676663827 -16.66916349507945 a65.60338279029574,65.60338279029574 0 0,0 0.43104019485542483,-1.043798021643972 l 41.078434884896645 17.37883608717673" fill="red" stroke="none" /><path d="M 80.95270993114464 91.15688171328213 l -48.85606086765096 -22.682487834957875 a74.86473742520822,74.86473742520822 0 0,0 0.5527221003793954,-1.164173705108659 l 48.45838057342981 23.520103955707064" fill="red" stroke="none" /><path d="M 81.10775173730289 90.83032412892265 l -40.523052806326774 -19.668556879715663 a66.0440888294453,66.0440888294453 0 0,0 0.5052057892412262,-1.0184640430351763 l 40.17848700413214 20.3631805112498" fill="red" stroke="none" /><line stroke="#e1ed5e" stroke-width="0.3" x1="26.266209847984243" x2="21.928928074336255" y1="57.711370442889674" y2="55.22380399835377" /><path d="M 25.398753493254645 57.213857153982495 a86.0,86.0 0 0,1 29.58750427330803,-30.492523968695096" fill="none" id="id11" stroke="none" /><text fill="#e1ed5e" style="font-size:6.75px; font-family:Arial;" text-anchor="middle"><textPath startOffset="21.46611528233685" xlink:href="#id11">November</textPath></text><line stroke="#e1ed5e" stroke-width="0.3" x1="56.762969772571076" x2="54.21961505331055" y1="26.818313649435495" y2="22.513508569990535" /><path d="M 56.25429882871897 25.957352633546506 a86.0,86.0 0 0,1 42.265352541879196,-11.944610805530505" fill="none" id="id12" stroke="none" /><text fill="#e1ed5e" style="font-size:6.75px; font-family:Arial;" text-anchor="middle"><textPath startOffset="22.20632615414155" xlink:href="#id12">December</textPath></text></svg>