<?xml version="1.0" encoding="utf-8" ?>
<svg baseProfile="full" height="200mm" version="1.1" viewBox="0,0,200,200" width="200mm" xmlns="http://www.w3.org/2000/svg" xmlns:ev="http://www.w3.org/2001/xml-events" xmlns:xlink="http://www.w3.org/1999/xlink"><defs /><rect fill="#1a1a1a" height="200" width="200" x="0" y="0" /><rect fill="#1a1a1a" height="200" width="180" x="10" y="0" /><text alignment-baseline="middle" fill="#e1ed5e" style="dominant-baseline: central; font-size:9.0px; font-family:Arial;" text-anchor="middle" x="100.0" y="100.0">2026</text><line stroke="#e1ed5e" stroke-width="0.3" x1="100.0" x2="100.0" y1="15.0" y2="10.0" /><path d="M 100.0 14.0 a86.0,86.0 0 0,1 42.46469731375804,11.215312516191453" fill="none" id="id61" stroke="none" /><text fill="#e1ed5e" style="font-size:6.75px; font-family:Arial;" text-anchor="middle"><textPath startOffset="22.20632615414155" xlink:href="#id61">January</textPath></text><path d="M 100.36148047927253 79.00311137660856 l 0.5589430492574045 -32.4666631395839 a53.471474138873475,53.471474138873475 0 0,0 0.9201507871740627,0.023764780123454624 l -1.117720471626335 32.45223156731809" fill="red" stroke="none" /><path d="M 100.72285384407766 79.0124445844662 l 0.26755822169832455 -7.76836569492182 a28.772971952351078,28.772971952351078 0 0,0 0.4948391714283917,0.02130881564355417 l -0.40123822551604776 7.76260915275407" fill="red" stroke="none" /><path d="M 101.08401301168833 79.027996857942 l 3.0295544876195026 -58.611682284547776 a79.68992673890662,79.68992673890662 0 0,0 1.3692928520280234,0.08259948421090872 l -4.038009388487138 58.55084953095656" fill="red" stroke="none" /><path d="M 101.80526077348638 79.07773832637324 l 2.7859271470343905 -32.287798876472884 a53.407766759777616,53.407766759777616 0 0,0 0.9152434892889928,0.08691339750836975 l -3.3412957634136276 32.23505993444934" fill="red" stroke="none" /><path d="M 102.52436894288641 79.15227682838746 l 3.2410987116164165 -26.766899070778845 a47.96241099612019,47.96241099612019 0 0,0 0.8187532346363054,0.10629766823096583 l -3.701366674760568 26.70714307938374" fill="red" stroke="none" /><path d="M 102.88285421437855 79.19881850522331 l 1.1400677875586425 -8.22613812626244 a29.30476387578704,29.30476387578704 0 0,0 0.49906155158072457,0.07354869983877899 l -1.2814983195680227 8.205294942262691" fill="red" stroke="none" /><path d="M 103.95276090670814 79.375362276772 l 6.057325474327048 -31.60579312238692 a53.18100916374519,53.18100916374519 0 0,0 0.8975779060032342,0.18004568396971496 l -6.600469789797408 31.496843482339997" fill="red" stroke="none" /><path d="M 104.66035177308747 79.52364482259891 l 9.514783022206698 -41.80544432797974 a63.87454106366022,63.87454106366022 0 0,0 1.0699785977302516,0.2532293644607458 l -10.232985306899474 41.635469051378124" fill="red" stroke="none" /><path d="M 105.36241919743992 79.69619591428918 l 11.330453021953765 -42.900655448557295 a65.37167343698601,65.37167343698601 0 0,0 1.0854876434502523,0.2967047774882396 l -12.067238554627728 42.69926413024277" fill="red" stroke="none" /><path d="M 106.40334571778207 80.00007090966166 l 18.833878661787466 -58.824910341129495 a82.76637484982308,82.76637484982308 0 0,0 1.3531008679365437,0.4460960821816901 l -19.843662351966426 58.492000534688565" fill="red" stroke="none" /><path d="M 107.08798089147638 80.2323363322302 l 19.57843466017018 -54.60227918631382 a79.00624100976302,79.00624100976302 0 0,0 1.276205396418243,0.47003721784122515 l -20.515422382361 54.25717870066627" fill="red" stroke="none" /><path d="M 107.76421540070413 80.48803036053334 l 22.947159303355736 -57.66767825612826 a83.06555595131582,83.06555595131582 0 0,0 1.3239705456435105,0.5400808284886177 l -23.936413718587634 57.26413654145606" fill="red" stroke="none" /><path d="M 109.41281617654863 81.2277094730956 l 4.72958880447655 -9.432375332223147 a31.551716195357116,31.551716195357116 0 0,0 0.48340160878248395,0.24761707943873737 l -4.89125090084779 9.349565727471909" fill="red" stroke="none" /><path d="M 109.73455568895987 81.39251694778311 l 29.203667066879603 -55.82244915665069 a84.0,84.0 0 0,0 1.2754198138867554,0.6812850939929835 l -30.16023192729467 55.311485336155954" fill="red" stroke="none" /><line stroke="#e1ed5e" stroke-width="0.3" x1="143.23703022742887" x2="145.7803849466894" y1="26.81831364943548" y2="22.513508569990506" /><path d="M 143.74570117128098 25.957352633546492 a86.0,86.0 0 0,1 28.547481713284135,27.462654790039103" fill="none" id="id62" stroke="none" /><text fill="#e1ed5e" style="font-size:6.75px; font-family:Arial;" text-anchor="middle"><textPath startOffset="19.985693538727396" xlink:href="#id62">February</textPath></text><path d="M 110.68208982089419 81.91981866633111 l 3.4813498713867657 -5.892427232497151 a27.84401166110043,27.84401166110043 0 0,0 0.4105505828073878,0.2473521324596266 l -3.5822625204117906 5.831628490578909" fill="red" stroke="none" /><path d="M 110.99172775467656 82.1063720568725 l 19.762994157020806 -32.172527593532905 a58.75774714951985,58.75774714951985 0 0,0 0.8572499226841012,0.5368098229405251 l -20.31386323207717 31.82757342926943" fill="red" stroke="none" /><path d="M 111.90073688211348 82.69761687909136 l 24.765911961355283 -36.00695497588073 a64.70184437655581,64.70184437655581 0 0,0 0.9122000634001354,0.6390544392774616 l -25.382043164339066 35.575315693839336" fill="red" stroke="none" /><path d="M 112.48926042617603 83.11751280151076 l 18.735036905499513 -25.325280274995617 a52.501927383217534,52.501927383217534 0 0,0 0.7219111174762923,0.5437284868961187 l -19.16819417673419 24.99903519859365" fill="red" stroke="none" /><path d="M 112.77801427241765 83.33499621200491 l 14.663850974930355 -19.12449985059953 a45.099274261905634,45.099274261905634 0 0,0 0.6119916643133009,0.4776692012474592 l -14.990875194403086 18.869252260128846" fill="red" stroke="none" /><path d="M 113.34407831869373 83.78471172551755 l 6.722338324321771 -8.168766040197331 a31.579157393957537,31.579157393957537 0 0,0 0.4167583552817663,0.34902313721980743 l -6.861954216562655 8.051841745583705" fill="red" stroke="none" /><path d="M 113.89432698308785 84.25364557470407 l 4.037838752610725 -4.5760575656665 a27.102822677776125,27.102822677776125 0 0,0 0.34716007168838114,0.3116837400872809 l -4.116009811895096 4.505874816809921" fill="red" stroke="none" /><path d="M 114.42810811169701 84.74124197986012 l 18.045106925441544 -19.08399340310163 a47.26451385729888,47.26451385729888 0 0,0 0.586342754397115,0.5640612651712691 l -18.37093292345108 18.77054905116806" fill="red" stroke="none" /><path d="M 114.94478906791727 85.2469230424477 l 22.527473083561922 -22.238490121914705 a52.654975697875756,52.654975697875756 0 0,0 0.6311970989047454,0.6505040942127418 l -22.906934446169775 21.84742183215185" fill="red" stroke="none" /><path d="M 116.38621287248628 86.86637796730983 l 7.738390383234058 -6.202354090337149 a30.917251735498667,30.917251735498667 0 0,0 0.32926272332826,0.41813022147382123 l -7.844007187156281 6.06823147491029" fill="red" stroke="none" /><path d="M 117.04232023915458 87.72973835380427 l 12.948331682945273 -9.32264007493771 a36.955278478873346,36.955278478873346 0 0,0 0.367242869055906,0.5194389942772483 l -13.106887171805063 9.098374580328667" fill="red" stroke="none" /><path d="M 117.45458315368197 88.32363383020206 l 17.77840893749712 -11.892991705552994 a42.389602054672025,42.389602054672025 0 0,0 0.40048760349931184,0.6099700960046077 l -17.980493176354354 11.585203545570712" fill="red" stroke="none" /><path d="M 117.65298651832404 88.62581576622439 l 5.641486847193038 -3.6349266276156156 a27.711115066455132,27.711115066455132 0 0,0 0.25490584324247867,0.4031998282389365 l -5.703220286681472 3.537279151662473" fill="red" stroke="none" /><line stroke="#e1ed5e" stroke-width="0.3" x1="172.23445277983987" x2="176.4835382374775" y1="55.19839476539836" y2="52.563006222186495" /><path d="M 173.08426987136738 54.67131705675599 a86.0,86.0 0 0,1 12.851231095245387,41.99856678651699" fill="none" id="id63" stroke="none" /><text fill="#e1ed5e" style="font-size:6.75px; font-family:Arial;" text-anchor="middle"><textPath startOffset="22.20632615414155" xlink:href="#id63">March</textPath></text><path d="M 118.03404312379186 89.2402003453031 l 24.667863610446357 -14.717790599470579 a49.72484734917573,49.72484734917573 0 0,0 0.43222808676342006,0.7388179090715554 l -24.9175513716801 14.290993278045129" fill="red" stroke="none" /><path d="M 118.21658344932153 89.55222093294921 l 13.85189843231683 -7.9444960073159905 a36.96840965749192,36.96840965749192 0 0,0 0.3118414897331294,0.5547312140267391 l -13.986597563342391 7.7048812833544575" fill="red" stroke="none" /><path d="M 118.3937258080291 89.86733742301442 l 23.452619759403127 -12.919485973018308 a47.77570711271997,47.77570711271997 0 0,0 0.390604855493562,0.7237314746330922 l -23.671532714115155 12.513873515052758" fill="red" stroke="none" /><path d="M 118.56541770881063 90.18545643968196 l 24.090343416909047 -12.735276337793845 a48.249438697789444,48.249438697789444 0 0,0 0.38183816985199265,0.7375898075056057 l -24.305991019921155 12.318713808027896" fill="red" stroke="none" /><path d="M 119.04729006885535 91.15688171328212 l 33.35577394107135 -15.486142828696993 a57.77537593171085,57.77537593171085 0 0,0 0.41102415717948615,0.9056372470283435 l -33.61740041521418 14.909683572826587" fill="red" stroke="none" /><path d="M 119.196687751892 91.48605970444005 l 24.523018721360135 -10.876226146876876 a47.82667967539382,47.82667967539382 0 0,0 0.3272922946063016,0.755435740948127 l -24.706601725809115 10.452491261342146" fill="red" stroke="none" /><path d="M 119.47837535516314 92.15188598940014 l 24.548946873622075 -9.891119274137802 a47.46667778734496,47.46667778734496 0 0,0 0.29882861757971524,0.7604862369449229 l -24.71556904108349 9.467084032297095" fill="red" stroke="none" /><path d="M 119.7369772167798 92.82701384747503 l 30.13410603512788 -10.95160231146873 a53.06246933292721,53.06246933292721 0 0,0 0.3045960572718255,0.861134071253646 l -30.318155173209515 10.431270613788469" fill="red" stroke="none" /><path d="M 120.08093135843002 93.85539295169968 l 25.075879976779685 -7.6730220375445635 a47.22355856474298,47.22355856474298 0 0,0 0.2311573018026544,0.7793475072282922 l -25.204243175694042 7.240245143569741" fill="red" stroke="none" /><path d="M 120.37134235888165 94.90015583598534 l 8.005978416737893 -2.004248987942954 a29.253042130932286,29.253042130932286 0 0,0 0.11808087929959055,0.48952147731900963 l -8.039292096298302 1.866142278964538" fill="red" stroke="none" /><path d="M 120.67395015179393 96.31383870115 l 6.701581322384968 -1.1948906488742725 a27.80727227921039,27.80727227921039 0 0,0 0.07996330519722955,0.47194795373722026 l -6.7211564891024205 1.0793569068212143" fill="red" stroke="none" /><path d="M 120.73433829027371 96.67025291283417 l 26.431496822179135 -4.244659189069402 a47.77015420000821,47.77015420000821 0 0,0 0.12339282546887244,0.8130045482023828 l -26.50064554108731 3.7890555284749374" fill="red" stroke="none" /><path d="M 120.83666639777658 97.38593545837742 l 6.808169800540251 -0.8541191248729206 a27.8615374015203,27.8615374015203 0 0,0 0.05560319987023907,0.4763742601862941 l -6.82186335341408 0.7368011263617739" fill="red" stroke="none" /><path d="M 120.87857604477298 97.74499172005257 l 32.30286052272304 -3.4888977959281813 a53.49072491928937,53.49072491928937 0 0,0 0.09099249730753585,0.9162820301822107 l -32.358130145712806 2.9323402350415355" fill="red" stroke="none" /><path d="M 120.91429891909075 98.10471618934814 l 5.6826258735564945 -0.5149677195400467 a26.705911721274873,26.705911721274873 0 0,0 0.03754789660198315,0.45817944387872656 l -5.690648253977972 0.4170743584535514" fill="red" stroke="none" /><path d="M 120.94382443527127 98.46500227214037 l 26.492659350525443 -1.9416784185571365 a47.56371801055104,47.56371801055104 0 0,0 0.05281703779231848,0.8170561972729021 l -26.52215697932218 1.4853631570311991" fill="red" stroke="none" /><path d="M 120.98425023603335 99.18683210126433 l 32.794903017316734 -1.2708465671095845 a53.81951728640055,53.81951728640055 0 0,0 0.027904921355429595,0.9260284879406107 l -32.81191963312781 0.7061479317439747" fill="red" stroke="none" /><line stroke="#e1ed5e" stroke-width="0.3" x1="184.98032266829074" x2="189.97916517819016" y1="98.17113171792111" y2="98.06355123074" /><path d="M 185.9800911702706 98.14961562048488 a86.0,86.0 0 0,1 -9.607161424134198,41.387399972396054" fill="none" id="id64" stroke="none" /><text fill="#e1ed5e" style="font-size:6.75px; font-family:Arial;" text-anchor="middle"><textPath startOffset="21.466115282336823" xlink:href="#id64">April</textPath></text><path d="M 120.99513854157772 99.54816195383933 l 33.81307033111563 -0.7276937755304009 a54.820899802458214,54.820899802458214 0 0,0 0.01218327377040483,0.9436079799566184 l -33.82058661200376 0.1455495375133198" fill="red" stroke="none" /><path d="M 120.99824983174949 100.27111621757518 l 5.46283215344621 0.07053265879573754 a26.46328747117361,26.46328747117361 0 0,0 -0.009801418623781711,0.4554334095121905 l -5.460808672137421 -0.1645558840980429" fill="red" stroke="none" /><path d="M 120.9904718944345 100.63252640178507 l 45.77655725557207 1.3794297332902017 a66.79733639156052,66.79733639156052 0 0,0 -0.044524773366788305,1.1489865592138573 l -45.746030349354086 -2.167193539518065" fill="red" stroke="none" /><path d="M 120.9764740272857 100.99374915477107 l 13.15683498610526 0.6232979684716002 a34.17159091412667,34.17159091412667 0 0,0 -0.03289202611204992,0.5873092218439896 l -13.14415660910568 -0.8496789066510131" fill="red" stroke="none" /><path d="M 120.95626037817324 101.35467743843564 l 46.02077216294492 2.9749249447893606 a67.11682609309553,67.11682609309553 0 0,0 -0.08445035794794095,1.152258038077879 l -45.962745246332645 -3.7666561193640096" fill="red" stroke="none" /><path d="M 120.92983693683757 101.71520430193887 l 27.2442343846501 2.232670429330321 a48.33556519356709,48.33556519356709 0 0,0 -0.0750936823150415,0.8286525268908604 l -27.20176610605798 -2.7013043447697513" fill="red" stroke="none" /><path d="M 120.8583938346157 102.4346265915055 l 39.18589122678577 4.573842720058736 a60.45192148001565,60.45192148001565 0 0,0 -0.12953548712994037,1.0325252835282897 l -39.10135423040898 -5.247685757874421" fill="red" stroke="none" /><path d="M 120.76222939487914 103.15116336523771 l 41.7446183556226 6.335741194079655 a63.22268084969192,63.22268084969192 0 0,0 -0.17256253099430988,1.0745470452253667 l -41.629374070267 -7.053367468998227" fill="red" stroke="none" /><path d="M 120.70491114924044 103.5080841355445 l 6.675440471390219 1.1310363346483046 a27.770579641165824,27.770579641165824 0 0,0 -0.08391152745404132,0.47062040836003555 l -6.654982501596989 -1.2457754937415586" fill="red" stroke="none" /><path d="M 120.64145759157962 103.86396538481128 l 26.66594374780616 4.991715489940978 a48.12913156541652,48.12913156541652 0 0,0 -0.15944509089662415,0.8130070833796372 l -26.576068723933872 -5.449986300388559" fill="red" stroke="none" /><path d="M 120.5718875245553 104.21870165774334 l 11.929232359047024 2.4463419931032817 a33.177486350776796,33.177486350776796 0 0,0 -0.1195431617827712,0.5584658538813464 l -11.88535515853981 -2.6513216664007975" fill="red" stroke="none" /><path d="M 120.41448212921028 104.9243191809786 l 41.221905023517806 9.943422336113866 a63.404210893757366,63.404210893757366 0 0,0 -0.26505582583436876,1.058766267877003 l -41.044637883388376 -10.651516443388266" fill="red" stroke="none" /><path d="M 120.32669344350535 105.2749913415812 l 5.729879738094889 1.486964227150749 a26.91967772989851,26.91967772989851 0 0,0 -0.12025651200481899,0.44751921769046876 l -5.703435149748293 -1.585374378016766" fill="red" stroke="none" /><path d="M 120.23288151984713 105.62410040840565 l 51.749350633184875 14.384680884199716 a74.71139855837467,74.71139855837467 0 0,0 -0.3550832230791928,1.2360912820811918 l -51.49407477321958 -15.273329641785491" fill="red" stroke="none" /><path d="M 120.13307415673323 105.97154293290107 l 9.960817616012477 2.9544146898660832 a31.389728280333465,31.389728280333465 0 0,0 -0.1581044223983996,0.5166944002586276 l -9.908486421107945 -3.125436062676768" fill="red" stroke="none" /><path d="M 120.02730092923936 106.31721596034902 l 25.942661383086516 8.183099416252128 a48.20266155532863,48.20266155532863 0 0,0 -0.2564100389224501,0.7891489555580964 l -25.79795909314782 -8.628447271788021" fill="red" stroke="none" /><path d="M 119.9155931802556 106.66101706037122 l 33.13482628925065 11.082353470844636 a55.93902219111974,55.93902219111974 0 0,0 -0.3132829484640841,0.9105468927341954 l -32.93915250984333 -11.651073066668133" fill="red" stroke="none" /><path d="M 119.67450827220406 107.3425965602758 l 30.103759688404615 11.23483033381482 a53.13188074182432,53.13188074182432 0 0,0 -0.3271550531368323,0.8540986089653252 l -29.905910355674276 -11.75135250961329" fill="red" stroke="none" /><path d="M 119.26925614724726 108.34839909993367 l 38.402945153939626 16.63806377931988 a62.852256364755426,62.852256364755426 0 0,0 -0.4386456435719288,0.9890301271867376 l -38.11085842563643 -17.296642242999305" fill="red" stroke="none" /><path d="M 118.97047184881838 109.00673069616215 l 24.27973835021768 11.52744467488362 a47.877270603384076,47.877270603384076 0 0,0 -0.3598700593771547,0.7414389123075982 l -24.07771503422581 -11.943672543156493" fill="red" stroke="none" /><path d="M 118.64920377521936 109.65438752849418 l 5.003354616044825 2.5901547855872895 a26.634044659673705,26.634044659673705 0 0,0 -0.21427404957514543,0.40532575051224023 l -4.958028058244786 -2.675895551185664" fill="red" stroke="none" /><line stroke="#e1ed5e" stroke-width="0.3" x1="174.80103733775053" x2="179.2010983576182" y1="140.37084112569926" y2="142.7455964860345" /><path d="M 175.68104954172406 140.8457921977663 a86.0,86.0 0 0,1 -30.038265399797805,32.042727171017184" fill="none" id="id65" stroke="none" /><text fill="#e1ed5e" style="font-size:6.75px; font-family:Arial;" text-anchor="middle"><textPath startOffset="22.206326154141568" xlink:href="#id65">May</textPath></text><path d="M 118.30583269289576 110.29060199501025 l 15.785297590744316 8.873686196322806 a39.10850426565287,39.10850426565287 0 0,0 -0.3349326869354199,0.5839833712321032 l -15.630212907656515 -9.144089413413225" fill="red" stroke="none" /><path d="M 116.498646956653 112.99209946851258 l 20.851753097796223 16.420016202006874 a47.54077126470937,47.54077126470937 0 0,0 -0.5118150871451475,0.6385680163808304 l -20.56602009859622 -16.776512051965955" fill="red" stroke="none" /><path d="M 116.27256486870786 113.27417163493432 l 4.301710323684094 3.5090744219528665 a26.55142459263333,26.55142459263333 0 0,0 -0.29194429271257055,0.3516657075254073 l -4.24067003107798 -3.5826013865920445" fill="red" stroke="none" /><path d="M 116.0416608686014 113.55231037782055 l 42.67030864583508 36.048715368222005 a76.85933332604242,76.85933332604242 0 0,0 -0.8624989336989602,1.0032811146593235 l -42.04346720256534 -36.77787358204286" fill="red" stroke="none" /><path d="M 115.80600337817218 113.82643327865902 l 8.82889020144319 7.723145337513982 a32.73014390762123,32.73014390762123 0 0,0 -0.37459049704443426,0.42085639443601636 l -8.694640854750418 -7.873975901690865" fill="red" stroke="none" /><path d="M 115.56566222782051 114.09645910891815 l 25.80640362008925 23.37060306555049 a55.81602440616208,55.81602440616208 0 0,0 -0.651063603318469,0.7066009547788695 l -25.40029360877506 -23.811355275130698" fill="red" stroke="none" /><path d="M 115.07121518719521 114.62390073753431 l 23.480076372423817 22.783186485969946 a53.71677815600642,53.71677815600642 0 0,0 -0.6496133049776119,0.6580548482554492 l -23.08442244239067 -23.18398182820606" fill="red" stroke="none" /><path d="M 114.81725581225074 114.88116024355365 l 18.92809862771368 19.00973246017066 a47.82615973015375,47.82615973015375 0 0,0 -0.5883757449508615,0.5758495031132385 l -18.598072930387026 -19.33273206620647" fill="red" stroke="none" /><path d="M 114.0293411484842 115.62618273729858 l 18.176913873921688 20.24583868820715 a48.20834765598367,48.20834765598367 0 0,0 -0.6222495850424834,0.5490629110813057 l -17.825721935972616 -20.555724741060747" fill="red" stroke="none" /><path d="M 113.48314897796784 116.09983520530334 l 31.37241776502532 37.460889650791735 a69.86253012127055,69.86253012127055 0 0,0 -0.9286056691568044,0.7641792465639642 l -30.722941967323827 -37.99536401621288" fill="red" stroke="none" /><path d="M 112.92097659922987 116.55440617244103 l 17.027624526664177 21.815859691520423 a48.67438763732923,48.67438763732923 0 0,0 -0.6649182605391051,0.5098309686122187 l -16.64957753763158 -22.105730001960016" fill="red" stroke="none" /><path d="M 112.63410532772338 116.77436683061366 l 24.74069298327134 32.84834572609712 a62.1231772390424,62.1231772390424 0 0,0 -0.8597109043341467,0.6359935742414352 l -24.17159710851863 -33.269349249078324" fill="red" stroke="none" /><path d="M 112.04921762599082 117.19931262002967 l 3.1380298718020456 4.479291390645527 a26.46912084695823,26.46912084695823 0 0,0 -0.3754116863976869,0.25821158109084735 l -3.0604613007814754 -4.532643761101468" fill="red" stroke="none" /><path d="M 111.7513745106137 117.40417183066458 l 5.884700912283277 8.715435437526368 a31.51610763033158,31.51610763033158 0 0,0 -0.45221907744063705,0.2997061457750579 l -5.7338071361026755 -8.815439604392743" fill="red" stroke="none" /><path d="M 111.45004920935366 117.60387380957326 l 14.99688894483024 23.056961214219818 a48.50509295489852,48.50509295489852 0 0,0 -0.7038278341315622,0.44921622420417545 l -14.597779308651747 -23.311691867247802" fill="red" stroke="none" /><path d="M 111.1453310114006 117.79835938074945 l 19.095800661522144 30.494735642150598 a56.980251594301556,56.980251594301556 0 0,0 -0.8357667944826241,0.5133962268886928 l -18.568054667107212 -30.81892033586767" fill="red" stroke="none" /><line stroke="#e1ed5e" stroke-width="0.3" x1="143.8653032363475" x2="146.44561519142675" y1="172.8068346515853" y2="177.08958963109032" /><path d="M 144.38136562736335 173.6633856474863 a86.0,86.0 0 0,1 -40.68145358897372,12.25698825130547" fill="none" id="id66" stroke="none" /><text fill="#e1ed5e" style="font-size:6.75px; font-family:Arial;" text-anchor="middle"><textPath startOffset="21.466115282336833" xlink:href="#id66">June</textPath></text><path d="M 110.5260780823613 118.17145234162733 l 27.736000347498965 47.88140507018493 a76.33457026824726,76.33457026824726 0 0,0 -1.1426602995411381,0.6488323396814103 l -26.907691281036627 -48.35174057566097" fill="red" stroke="none" /><path d="M 110.21172684928248 118.3499491758327 l 13.454335119461764 24.176749856376286 a48.66829172761797,48.66829172761797 0 0,0 -0.735533599031795,0.40107156411175804 l -13.03617870856132 -24.404762072247813" fill="red" stroke="none" /><path d="M 109.2508944713604 118.85261126421891 l 12.072901175078915 24.603643830305604 a48.40609845475559,48.40609845475559 0 0,0 -0.7511873465684932,0.3606155759327508 l -11.647601160510188 -24.807813682737915" fill="red" stroke="none" /><path d="M 108.59647513512805 119.15986991738527 l 21.736038879111433 48.44540010837832 a74.09813723488901,74.09813723488901 0 0,0 -1.1682076802306773,0.5121079165540203 l -20.898910524223 -48.8123725782268" fill="red" stroke="none" /><path d="M 107.93186726928326 119.44442032107085 l 10.175637196019522 24.9448660645585 a47.94048877291907,47.94048877291907 0 0,0 -0.766771418241669,0.3051141716769552 l -9.744744701735986 -25.116327080641526" fill="red" stroke="none" /><path d="M 107.2578585660854 119.70592522655815 l 11.354825316695988 30.829663683034024 a53.854226832809005,53.854226832809005 0 0,0 -0.8726447604101988,0.3128993638696565 l -10.822460995656055 -31.020550587943642" fill="red" stroke="none" /><path d="M 106.57524785965236 119.94407469862006 l 8.623733294110819 26.15755096535879 a48.54244448906629,48.54244448906629 0 0,0 -0.7958155949854018,0.25479502248614244 l -8.172196354034478 -26.30211883450464" fill="red" stroke="none" /><path d="M 105.88484417918355 120.15858648285463 l 13.390009943734336 45.86759907965832 a68.78209928022812,68.78209928022812 0 0,0 -1.1393880253298092,0.3220024369975718 l -12.59849075029992 -46.091290309994406" fill="red" stroke="none" /><path d="M 104.83641907484287 120.43548508189849 l 3.46706436052617 14.649504296692163 a36.05418584377225,36.05418584377225 0 0,0 -0.6051606685702301,0.13773259793260098 l -3.214383542563078 -14.707013628202448" fill="red" stroke="none" /><path d="M 104.48393922423573 120.51570834832081 l 5.8272339752903335 26.661787043926637 a48.29116238232575,48.29116238232575 0 0,0 -0.8136107423032033,0.17050004163870905 l -5.367431771557753 -26.758143066291886" fill="red" stroke="none" /><path d="M 104.13013068566511 120.58985236759428 l 3.245740140033436 16.180919053921215 a37.50324121153705,37.50324121153705 0 0,0 -0.634041199458322,0.12151550490696054 l -2.96673132600341 -16.234391757176645" fill="red" stroke="none" /><path d="M 103.7750983002368 120.6578951692458 l 5.89148607589199 32.2390814933782 a53.77297642447372,53.77297642447372 0 0,0 -0.9119667076469298,0.15855710177903978 l -5.33567039677301 -32.33571717367825" fill="red" stroke="none" /><path d="M 103.41894727170886 120.7198165907248 l 4.451068064100089 26.97476930519909 a48.33953521879921,48.33953521879921 0 0,0 -0.8221499214280044,0.12840290935994353 l -3.9860822790635675 -27.047390521906138" fill="red" stroke="none" /><path d="M 102.70371172650421 120.8252237178851 l 3.4912799836007262 26.891434470444146 a48.1171215987627,48.1171215987627 0 0,0 -0.8222816868332409,0.09956686087296335 l -3.027870873716105 -26.947546860042458" fill="red" stroke="none" /><path d="M 102.34483914955558 120.86867818915974 l 0.6653079782745313 5.921130282187199 a26.958390598524907,26.958390598524907 0 0,0 -0.46158850034302545,0.047845535382065166 l -0.5632868813259031 -5.931705186025022" fill="red" stroke="none" /><path d="M 101.62511606390274 120.93702456842531 l 2.153103578151296 27.7393002970256 a48.82273595437394,48.82273595437394 0 0,0 -0.838442700276413,0.05782391754426506 l -1.6752981170959524 -27.772252559086148" fill="red" stroke="none" /><path d="M 100.90346689309514 120.98055641714683 l 0.9142115680256494 21.230072210460648 a42.24974703031745,42.24974703031745 0 0,0 -0.7268558928070472,0.02503438660689455 l -0.5486353235439498 -21.242663395493636" fill="red" stroke="none" /><line stroke="#e1ed5e" stroke-width="0.3" x1="102.19456741930631" x2="102.32365962044197" y1="184.97166512339345" y2="189.96999836594603" /><path d="M 102.22038585953345 185.97133177190398 a86.0,86.0 0 0,1 -42.740103519485714,-10.115201625700543" fill="none" id="id67" stroke="none" /><text fill="#e1ed5e" style="font-size:6.75px; font-family:Arial;" text-anchor="middle"><textPath startOffset="22.20632615414155" xlink:href="#id67">July</textPath></text><path d="M 100.54218724476979 120.99299961872073 l 0.16066456149017705 6.220786473015018 a27.2228608729559,27.2228608729559 0 0,0 -0.46854472742523506,0.008066422395630646 l -0.05356014417227405 -6.222630372689808" fill="red" stroke="none" /><path d="M 100.18074693466247 120.99922214144158 l 0.09948567537913686 11.558269583266723 a32.558697727645374,32.558697727645374 0 0,0 -0.5604652200831767,0.0 l 0.09948567537912889 -11.558269583266723" fill="red" stroke="none" /><path d="M 99.81925306533755 120.99922214144158 l -0.050720457775258604 5.892714927239898 a26.892933206693662,26.892933206693662 0 0,0 -0.46286619609157736,-0.007968661328985379 l 0.15214634375950392 -5.890968788631754" fill="red" stroke="none" /><path d="M 99.45781275523022 120.99299961872073 l -0.151041973906042 5.848208586992378 a26.850158746124144,26.850158746124144 0 0,0 -0.46192456710855895,-0.01590961607473351 l 0.251686892689244 -5.844742172491551" fill="red" stroke="none" /><path d="M 98.37488393609728 120.93702456842531 l -1.667175473115463 21.478892871607265 a42.5434981618153,42.5434981618153 0 0,0 -0.7296325050538123,-0.06295576266951043 l 2.036652295910817 -21.447012856659093" fill="red" stroke="none" /><path d="M 97.65516085044442 120.86867818915974 l -2.297754318572024 20.449631029539812 a41.57831587260809,41.57831587260809 0 0,0 -0.7105389220183898,-0.08603636822545861 l 2.6494206636418034 -20.407049132589005" fill="red" stroke="none" /><path d="M 96.58105272829116 120.7198165907248 l -4.568971104029193 27.68929607869897 a49.06372416988358,49.06372416988358 0 0,0 -0.8320998012626514,-0.14467121636440272 l 5.0449198767638945 -27.60654628381356" fill="red" stroke="none" /><path d="M 95.86986931433489 120.58985236759428 l -6.102625948439427 30.423290906782345 a52.02931957141941,52.02931957141941 0 0,0 -0.8765913104946336,-0.1836982320518223 l 6.625408720363447 -30.313736694003982" fill="red" stroke="none" /><path d="M 95.51606077576429 120.51570834832081 l -8.423217968938499 38.539390157441886 a60.449146944639715,60.449146944639715 0 0,0 -1.0146241087797858,-0.23092514382578072 l 9.085362227111148 -38.388688280038416" fill="red" stroke="none" /><line stroke="#e1ed5e" stroke-width="0.3" x1="58.666819895761336" x2="56.23545636021788" y1="174.27360380694188" y2="178.64263932499728" /><path d="M 58.180547188652646 175.14741091055294 a86.0,86.0 0 0,1 -31.652253787137756,-30.449443065178592" fill="none" id="id68" stroke="none" /><text fill="#e1ed5e" style="font-size:6.75px; font-family:Arial;" text-anchor="middle"><textPath startOffset="22.20632615414155" xlink:href="#id68">August</textPath></text><line stroke="#e1ed5e" stroke-width="0.3" x1="26.63291911575756" x2="22.317208475507996" y1="142.92168965132927" y2="145.44649492493687" /><path d="M 25.769776987707644 143.4266507060508 a86.0,86.0 0 0,1 -11.730757126820373,-40.83630448921669" fill="none" id="id69" stroke="none" /><text fill="#e1ed5e" style="font-size:6.75px; font-family:Arial;" text-anchor="middle"><textPath startOffset="21.46611528233685" xlink:href="#id69">September</textPath></text><line stroke="#e1ed5e" stroke-width="0.3" x1="15.007084014347285" x2="10.007500721073583" y1="101.09737516637583" y2="101.16192664675087" /><path d="M 14.007167355692545 101.11028546245083 a86.0,86.0 0 0,1 10.666146001902534,-42.60595125391555" fill="none" id="id70" stroke="none" /><text fill="#e1ed5e" style="font-size:6.75px; font-family:Arial;" text-anchor="middle"><textPath startOffset="22.20632615414155" xlink:href="#id70">October</textPath></text><line stroke="#e1ed5e" stroke-width="0.3" x1="26.266209847984243" x2="21.928928074336255" y1="57.711370442889674" y2="55.22380399835377" /><path d="M 25.398753493254645 57.213857153982495 a86.0,86.0 0 0,1 29.58750427330803,-30.492523968695096" fill="none" id="id71" stroke="none" /><text fill="#e1ed5e" style="font-size:6.75px; font-family:Arial;" text-anchor="middle"><textPath startOffset="21.46611528233685" xlink:href="#id71">November</textPath></text><line stroke="#e1ed5e" stroke-width="0.3" x1="56.762969772571076" x2="54.21961505331055" y1="26.818313649435495" y2="22.513508569990535" /><path d="M 56.25429882871897 25.957352633546506 a86.0,86.0 0 0,1 42.265352541879196,-11.944610805530505" fill="none" id="id72" stroke="none" /><text fill="#e1ed5e" style="font-size:6.75px; font-family:Arial;" text-anchor="middle"><textPath startOffset="22.20632615414155" xlink:href="#id72">December</textPath></text></svg>