<?xml version="1.0" encoding="utf-8" ?>
<svg baseProfile="full" height="200mm" version="1.1" viewBox="0,0,200,200" width="200mm" xmlns="http://www.w3.org/2000/svg" xmlns:ev="http://www.w3.org/2001/xml-events" xmlns:xlink="http://www.w3.org/1999/xlink"><defs /><rect fill="#1a1a1a" height="200" width="200" x="0" y="0" /><rect fill="#1a1a1a" height="200" width="180" x="10" y="0" /><text alignment-baseline="middle" fill="#e1ed5e" style="dominant-baseline: central; font-size:9.0px; font-family:Arial;" text-anchor="middle" x="100.0" y="100.0">2026</text><line stroke="#e1ed5e" stroke-width="0.3" x1="100.0" x2="100.0" y1="15.0" y2="10.0" /><path d="M 100.0 14.0 a86.0,86.0 0 0,1 42.46469731375804,11.215312516191453" fill="none" id="id61" stroke="none" /><text fill="#e1ed5e" style="font-size:6.75px; font-family:Arial;" text-anchor="middle"><textPath startOffset="22.20632615414155" xlink:href="#id61">January</textPath></text><path d="M 100.36148047927253 79.00311137660856 l 0.5589430492574045 -32.4666631395839 a53.471474138873475,53.471474138873475 0 0,0 0.9201507871740627,0.023764780123454624 l -1.117720471626335 32.45223156731809" fill="red" stroke="none" /><path d="M 100.72285384407766 79.0124445844662 l 0.26755822169832455 -7.76836569492182 a28.772971952351078,28.772971952351078 0 0,0 0.4948391714283917,0.02130881564355417 l -0.40123822551604776 7.76260915275407" fill="red" stroke="none" /><path d="M 101.08401301168833 79.027996857942 l 3.0295544876195026 -58.611682284547776 a79.68992673890662,79.68992673890662 0 0,0 1.3692928520280234,0.08259948421090872 l -4.038009388487138 58.55084953095656" fill="red" stroke="none" /><path d="M 101.80526077348638 79.07773832637324 l 2.7859271470343905 -32.287798876472884 a53.407766759777616,53.407766759777616 0 0,0 0.9152434892889928,0.08691339750836975 l -3.3412957634136276 32.23505993444934" fill="red" stroke="none" /><path d="M 102.52436894288641 79.15227682838746 l 3.2410987116164165 -26.766899070778845 a47.96241099612019,47.96241099612019 0 0,0 0.8187532346363054,0.10629766823096583 l -3.701366674760568 26.70714307938374" fill="red" stroke="none" /><path d="M 102.88285421437855 79.19881850522331 l 1.1400677875586425 -8.22613812626244 a29.30476387578704,29.30476387578704 0 0,0 0.49906155158072457,0.07354869983877899 l -1.2814983195680227 8.205294942262691" fill="red" stroke="none" /><path d="M 103.95276090670814 79.375362276772 l 6.057325474327048 -31.60579312238692 a53.18100916374519,53.18100916374519 0 0,0 0.8975779060032342,0.18004568396971496 l -6.600469789797408 31.496843482339997" fill="red" stroke="none" /><path d="M 104.66035177308747 79.52364482259891 l 9.514783022206698 -41.80544432797974 a63.87454106366022,63.87454106366022 0 0,0 1.0699785977302516,0.2532293644607458 l -10.232985306899474 41.635469051378124" fill="red" stroke="none" /><path d="M 105.36241919743992 79.69619591428918 l 11.330453021953765 -42.900655448557295 a65.37167343698601,65.37167343698601 0 0,0 1.0854876434502523,0.2967047774882396 l -12.067238554627728 42.69926413024277" fill="red" stroke="none" /><path d="M 106.40334571778207 80.00007090966166 l 18.833878661787466 -58.824910341129495 a82.76637484982308,82.76637484982308 0 0,0 1.3531008679365437,0.4460960821816901 l -19.843662351966426 58.492000534688565" fill="red" stroke="none" /><path d="M 107.08798089147638 80.2323363322302 l 19.57843466017018 -54.60227918631382 a79.00624100976302,79.00624100976302 0 0,0 1.276205396418243,0.47003721784122515 l -20.515422382361 54.25717870066627" fill="red" stroke="none" /><path d="M 107.76421540070413 80.48803036053334 l 22.947159303355736 -57.66767825612826 a83.06555595131582,83.06555595131582 0 0,0 1.3239705456435105,0.5400808284886177 l -23.936413718587634 57.26413654145606" fill="red" stroke="none" /><path d="M 109.41281617654863 81.2277094730956 l 4.72958880447655 -9.432375332223147 a31.551716195357116,31.551716195357116 0 0,0 0.48340160878248395,0.24761707943873737 l -4.89125090084779 9.349565727471909" fill="red" stroke="none" /><path d="M 109.73455568895987 81.39251694778311 l 29.203667066879603 -55.82244915665069 a84.0,84.0 0 0,0 1.2754198138867554,0.6812850939929835 l -30.16023192729467 55.311485336155954" fill="red" stroke="none" /><line stroke="#e1ed5e" stroke-width="0.3" x1="143.23703022742887" x2="145.7803849466894" y1="26.81831364943548" y2="22.513508569990506" /><path d="M 143.74570117128098 25.957352633546492 a86.0,86.0 0 0,1 28.547481713284135,27.462654790039103" fill="none" id="id62" stroke="none" /><text fill="#e1ed5e" style="font-size:6.75px; font-family:Arial;" text-anchor="middle"><textPath startOffset="19.985693538727396" xlink:href="#id62">February</textPath></text><path d="M 110.68208982089419 81.91981866633111 l 3.4813498713867657 -5.892427232497151 a27.84401166110043,27.84401166110043 0 0,0 0.4105505828073878,0.2473521324596266 l -3.5822625204117906 5.831628490578909" fill="red" stroke="none" /><path d="M 110.99172775467656 82.1063720568725 l 19.762994157020806 -32.172527593532905 a58.75774714951985,58.75774714951985 0 0,0 0.8572499226841012,0.5368098229405251 l -20.31386323207717 31.82757342926943" fill="red" stroke="none" /><path d="M 111.90073688211348 82.69761687909136 l 24.765911961355283 -36.00695497588073 a64.70184437655581,64.70184437655581 0 0,0 0.9122000634001354,0.6390544392774616 l -25.382043164339066 35.575315693839336" fill="red" stroke="none" /><path d="M 112.48926042617603 83.11751280151076 l 18.735036905499513 -25.325280274995617 a52.501927383217534,52.501927383217534 0 0,0 0.7219111174762923,0.5437284868961187 l -19.16819417673419 24.99903519859365" fill="red" stroke="none" /><path d="M 112.77801427241765 83.33499621200491 l 14.663850974930355 -19.12449985059953 a45.099274261905634,45.099274261905634 0 0,0 0.6119916643133009,0.4776692012474592 l -14.990875194403086 18.869252260128846" fill="red" stroke="none" /><path d="M 113.34407831869373 83.78471172551755 l 6.722338324321771 -8.168766040197331 a31.579157393957537,31.579157393957537 0 0,0 0.4167583552817663,0.34902313721980743 l -6.861954216562655 8.051841745583705" fill="red" stroke="none" /><path d="M 113.89432698308785 84.25364557470407 l 4.037838752610725 -4.5760575656665 a27.102822677776125,27.102822677776125 0 0,0 0.34716007168838114,0.3116837400872809 l -4.116009811895096 4.505874816809921" fill="red" stroke="none" /><path d="M 114.42810811169701 84.74124197986012 l 18.045106925441544 -19.08399340310163 a47.26451385729888,47.26451385729888 0 0,0 0.586342754397115,0.5640612651712691 l -18.37093292345108 18.77054905116806" fill="red" stroke="none" /><path d="M 114.94478906791727 85.2469230424477 l 22.527473083561922 -22.238490121914705 a52.654975697875756,52.654975697875756 0 0,0 0.6311970989047454,0.6505040942127418 l -22.906934446169775 21.84742183215185" fill="red" stroke="none" /><path d="M 116.38621287248628 86.86637796730983 l 7.738390383234058 -6.202354090337149 a30.917251735498667,30.917251735498667 0 0,0 0.32926272332826,0.41813022147382123 l -7.844007187156281 6.06823147491029" fill="red" stroke="none" /><path d="M 117.04232023915458 87.72973835380427 l 12.948331682945273 -9.32264007493771 a36.955278478873346,36.955278478873346 0 0,0 0.367242869055906,0.5194389942772483 l -13.106887171805063 9.098374580328667" fill="red" stroke="none" /><path d="M 117.45458315368197 88.32363383020206 l 17.77840893749712 -11.892991705552994 a42.389602054672025,42.389602054672025 0 0,0 0.40048760349931184,0.6099700960046077 l -17.980493176354354 11.585203545570712" fill="red" stroke="none" /><path d="M 117.65298651832404 88.62581576622439 l 5.641486847193038 -3.6349266276156156 a27.711115066455132,27.711115066455132 0 0,0 0.25490584324247867,0.4031998282389365 l -5.703220286681472 3.537279151662473" fill="red" stroke="none" /><line stroke="#e1ed5e" stroke-width="0.3" x1="172.23445277983987" x2="176.4835382374775" y1="55.19839476539836" y2="52.563006222186495" /><path d="M 173.08426987136738 54.67131705675599 a86.0,86.0 0 0,1 12.851231095245387,41.99856678651699" fill="none" id="id63" stroke="none" /><text fill="#e1ed5e" style="font-size:6.75px; font-family:Arial;" text-anchor="middle"><textPath startOffset="22.20632615414155" xlink:href="#id63">March</textPath></text><path d="M 118.03404312379186 89.2402003453031 l 24.667863610446357 -14.717790599470579 a49.72484734917573,49.72484734917573 0 0,0 0.43222808676342006,0.7388179090715554 l -24.9175513716801 14.290993278045129" fill="red" stroke="none" /><path d="M 118.21658344932153 89.55222093294921 l 13.85189843231683 -7.9444960073159905 a36.96840965749192,36.96840965749192 0 0,0 0.3118414897331294,0.5547312140267391 l -13.986597563342391 7.7048812833544575" fill="red" stroke="none" /><path d="M 118.3937258080291 89.86733742301442 l 23.452619759403127 -12.919485973018308 a47.77570711271997,47.77570711271997 0 0,0 0.390604855493562,0.7237314746330922 l -23.671532714115155 12.513873515052758" fill="red" stroke="none" /><path d="M 118.56541770881063 90.18545643968196 l 24.090343416909047 -12.735276337793845 a48.249438697789444,48.249438697789444 0 0,0 0.38183816985199265,0.7375898075056057 l -24.305991019921155 12.318713808027896" fill="red" stroke="none" /><path d="M 119.04729006885535 91.15688171328212 l 33.35577394107135 -15.486142828696993 a57.77537593171085,57.77537593171085 0 0,0 0.41102415717948615,0.9056372470283435 l -33.61740041521418 14.909683572826587" fill="red" stroke="none" /><path d="M 119.196687751892 91.48605970444005 l 24.523018721360135 -10.876226146876876 a47.82667967539382,47.82667967539382 0 0,0 0.3272922946063016,0.755435740948127 l -24.706601725809115 10.452491261342146" fill="red" stroke="none" /><path d="M 119.47837535516314 92.15188598940014 l 24.548946873622075 -9.891119274137802 a47.46667778734496,47.46667778734496 0 0,0 0.29882861757971524,0.7604862369449229 l -24.71556904108349 9.467084032297095" fill="red" stroke="none" /><path d="M 119.7369772167798 92.82701384747503 l 30.13410603512788 -10.95160231146873 a53.06246933292721,53.06246933292721 0 0,0 0.3045960572718255,0.861134071253646 l -30.318155173209515 10.431270613788469" fill="red" stroke="none" /><path d="M 120.08093135843002 93.85539295169968 l 25.075879976779685 -7.6730220375445635 a47.22355856474298,47.22355856474298 0 0,0 0.2311573018026544,0.7793475072282922 l -25.204243175694042 7.240245143569741" fill="red" stroke="none" /><line stroke="#e1ed5e" stroke-width="0.3" x1="184.98032266829074" x2="189.97916517819016" y1="98.17113171792111" y2="98.06355123074" /><path d="M 185.9800911702706 98.14961562048488 a86.0,86.0 0 0,1 -9.607161424134198,41.387399972396054" fill="none" id="id64" stroke="none" /><text fill="#e1ed5e" style="font-size:6.75px; font-family:Arial;" text-anchor="middle"><textPath startOffset="21.466115282336823" xlink:href="#id64">April</textPath></text><line stroke="#e1ed5e" stroke-width="0.3" x1="174.80103733775053" x2="179.2010983576182" y1="140.37084112569926" y2="142.7455964860345" /><path d="M 175.68104954172406 140.8457921977663 a86.0,86.0 0 0,1 -30.038265399797805,32.042727171017184" fill="none" id="id65" stroke="none" /><text fill="#e1ed5e" style="font-size:6.75px; font-family:Arial;" text-anchor="middle"><textPath startOffset="22.206326154141568" xlink:href="#id65">May</textPath></text><line stroke="#e1ed5e" stroke-width="0.3" x1="143.8653032363475" x2="146.44561519142675" y1="172.8068346515853" y2="177.08958963109032" /><path d="M 144.38136562736335 173.6633856474863 a86.0,86.0 0 0,1 -40.68145358897372,12.25698825130547" fill="none" id="id66" stroke="none" /><text fill="#e1ed5e" style="font-size:6.75px; font-family:Arial;" text-anchor="middle"><textPath startOffset="21.466115282336833" xlink:href="#id66">June</textPath></text><line stroke="#e1ed5e" stroke-width="0.3" x1="102.19456741930631" x2="102.32365962044197" y1="184.97166512339345" y2="189.96999836594603" /><path d="M 102.22038585953345 185.97133177190398 a86.0,86.0 0 0,1 -42.740103519485714,-10.115201625700543" fill="none" id="id67" stroke="none" /><text fill="#e1ed5e" style="font-size:6.75px; font-family:Arial;" text-anchor="middle"><textPath startOffset="22.20632615414155" xlink:href="#id67">July</textPath></text><line stroke="#e1ed5e" stroke-width="0.3" x1="58.666819895761336" x2="56.23545636021788" y1="174.27360380694188" y2="178.64263932499728" /><path d="M 58.180547188652646 175.14741091055294 a86.0,86.0 0 0,1 -31.652253787137756,-30.449443065178592" fill="none" id="id68" stroke="none" /><text fill="#e1ed5e" style="font-size:6.75px; font-family:Arial;" text-anchor="middle"><textPath startOffset="22.20632615414155" xlink:href="#id68">August</textPath></text><line stroke="#e1ed5e" stroke-width="0.3" x1="26.63291911575756" x2="22.317208475507996" y1="142.92168965132927" y2="145.44649492493687" /><path d="M 25.769776987707644 143.4266507060508 a86.0,86.0 0 0,1 -11.730757126820373,-40.83630448921669" fill="none" id="id69" stroke="none" /><text fill="#e1ed5e" style="font-size:6.75px; font-family:Arial;" text-anchor="middle"><textPath startOffset="21.46611528233685" xlink:href="#id69">September</textPath></text><line stroke="#e1ed5e" stroke-width="0.3" x1="15.007084014347285" x2="10.007500721073583" y1="101.09737516637583" y2="101.16192664675087" /><path d="M 14.007167355692545 101.11028546245083 a86.0,86.0 0 0,1 10.666146001902534,-42.60595125391555" fill="none" id="id70" stroke="none" /><text fill="#e1ed5e" style="font-size:6.75px; font-family:Arial;" text-anchor="middle"><textPath startOffset="22.20632615414155" xlink:href="#id70">October</textPath></text><line stroke="#e1ed5e" stroke-width="0.3" x1="26.266209847984243" x2="21.928928074336255" y1="57.711370442889674" y2="55.22380399835377" /><path d="M 25.398753493254645 57.213857153982495 a86.0,86.0 0 0,1 29.58750427330803,-30.492523968695096" fill="none" id="id71" stroke="none" /><text fill="#e1ed5e" style="font-size:6.75px; font-family:Arial;" text-anchor="middle"><textPath startOffset="21.46611528233685" xlink:href="#id71">November</textPath></text><line stroke="#e1ed5e" stroke-width="0.3" x1="56.762969772571076" x2="54.21961505331055" y1="26.818313649435495" y2="22.513508569990535" /><path d="M 56.25429882871897 25.957352633546506 a86.0,86.0 0 0,1 42.265352541879196,-11.944610805530505" fill="none" id="id72" stroke="none" /><text fill="#e1ed5e" style="font-size:6.75px; font-family:Arial;" text-anchor="middle"><textPath startOffset="22.20632615414155" xlink:href="#id72">December</textPath></text></svg>