<?xml version="1.0" encoding="utf-8" ?>
<svg baseProfile="full" height="200mm" version="1.1" viewBox="0,0,200,200" width="200mm" xmlns="http://www.w3.org/2000/svg" xmlns:ev="http://www.w3.org/2001/xml-events" xmlns:xlink="http://www.w3.org/1999/xlink"><defs /><rect fill="#1a1a1a" height="200" width="200" x="0" y="0" /><text alignment-baseline="middle" fill="#e1ed5e" style="dominant-baseline: central; font-size:9.0px; font-family:Arial;" text-anchor="middle" x="100.0" y="100.0">2025</text><line stroke="#e1ed5e" stroke-width="0.3" x1="100.0" x2="100.0" y1="15.0" y2="10.0" /><path d="M 100.0 14.0 a86.0,86.0 0 0,1 42.46469731375804,11.215312516191453" fill="none" id="id1" stroke="none" /><text fill="#e1ed5e" style="font-size:6.75px; font-family:Arial;" text-anchor="middle"><textPath startOffset="22.20632615414155" xlink:href="#id1">January</textPath></text><path d="M 103.59715602781102 79.31037775812273 l 3.784573892375569 -21.76758627491903 a43.09413523500963,43.09413523500963 0 0,0 0.7297373686390863,0.13335483975491805 l -4.158706382117556 21.699215953813372" fill="red" stroke="none" /><path d="M 104.307194497241 79.44645832069477 l 2.88601316717933 -13.771793207072577 a35.0709402720466,35.0709402720466 0 0,0 0.589788463230967,0.12890491419466357 l -3.122644354563825 13.720074794782043" fill="red" stroke="none" /><path d="M 105.01212808612495 79.60689891045804 l 7.925706554679948 -32.24772635461417 a54.20741904202996,54.20741904202996 0 0,0 0.904208431321391,0.23050286218437788 l -8.479623874686364 32.10652049626093" fill="red" stroke="none" /><path d="M 105.71112130821622 79.79150937346287 l 3.0073414942278864 -10.641313520948863 a32.05810364909074,32.05810364909074 0 0,0 0.529736931784323,0.15464473673096674 l -3.1900686437356365 10.587970455299194" fill="red" stroke="none" /><path d="M 106.0581310904928 79.89281104454417 l 9.964984885122295 -33.0741991268328 a55.54277886392615,55.54277886392615 0 0,0 0.9130561763867269,0.2836909985330813 l -10.53282643421974 32.8977679934172" fill="red" stroke="none" /><path d="M 107.76421540070413 80.48803036053334 l 12.869240127241044 -32.34122312255282 a55.807643621988205,55.807643621988205 0 0,0 0.8895104057401048,0.3628536287775663 l -13.424034402569536 32.11490860759167" fill="red" stroke="none" /><path d="M 108.76106565485865 80.91482961587045 l 16.809794643711687 -36.61858129319565 a61.2925513201899,61.2925513201899 0 0,0 0.9550599179525584,0.44841343743408985 l -17.43763277296384 36.323802873121565" fill="red" stroke="none" /><path d="M 109.41281617654863 81.2277094730956 l 18.005890350385418 -35.90974247379359 a61.17115497274479,61.17115497274479 0 0,0 0.9371989321220752,0.48006969403694016 l -18.62134977009625 35.59448025444415" fill="red" stroke="none" /><path d="M 110.05341064243156 81.56283822128135 l 27.33590689368374 -50.13189609898786 a78.10042742554438,78.10042742554438 0 0,0 1.1747639836622497,0.6537548850180638 l -28.194794966418026 49.65392581640962" fill="red" stroke="none" /><path d="M 110.36928655335952 81.73862282372117 l 19.301500535572604 -33.991922157271524 a60.08962387732474,60.08962387732474 0 0,0 0.8950586044646003,0.5184757157412788 l -19.883755872502533 33.654642284140195" fill="red" stroke="none" /><line stroke="#e1ed5e" stroke-width="0.3" x1="143.23703022742887" x2="145.7803849466894" y1="26.81831364943548" y2="22.513508569990506" /><path d="M 143.74570117128098 25.957352633546492 a86.0,86.0 0 0,1 28.547481713284135,27.462654790039103" fill="none" id="id2" stroke="none" /><text fill="#e1ed5e" style="font-size:6.75px; font-family:Arial;" text-anchor="middle"><textPath startOffset="19.985693538727396" xlink:href="#id2">February</textPath></text><path d="M 110.99172775467656 82.1063720568725 l 18.184205340313884 -29.602389366182354 a55.74142743247269,55.74142743247269 0 0,0 0.8132431326067124,0.509252775031255 l -18.69106762529286 29.284992249828154" fill="red" stroke="none" /><path d="M 111.60114157652 82.49532879139004 l 14.467453830444674 -21.829577792605953 a47.188502953385544,47.188502953385544 0 0,0 0.6732120934674926,0.4545558106632819 l -14.841070618318708 21.577310069644003" fill="red" stroke="none" /><path d="M 112.19680574252982 82.90503203632743 l 16.235846502743435 -22.75606266808802 a48.95426800713257,48.95426800713257 0 0,0 0.6817573791979904,0.4953257297688144 l -16.625149198295215 22.47321770350253" fill="red" stroke="none" /><path d="M 113.06298171725822 83.55741782278167 l 22.022687624386688 -27.720306042286193 a56.40358932762783,56.40358932762783 0 0,0 0.754993203274301,0.610485330789896 l -22.49658422622548 27.337114614232167" fill="red" stroke="none" /><path d="M 114.94478906791727 85.2469230424477 l 20.624249389765634 -20.35968102702484 a49.98061894462303,49.98061894462303 0 0,0 0.5991384719332864,0.6174648610857844 l -20.97165212540203 20.00165197038894" fill="red" stroke="none" /><path d="M 115.4437574822437 85.77008943001954 l 25.807982753688766 -23.77952949590318 a56.09299070841963,56.09299070841963 0 0,0 0.6481581386792212,0.7157124054302916 l -26.213484532984022 23.33176430320334" fill="red" stroke="none" /><path d="M 115.9244219780498 86.31012108654704 l 26.38646965115129 -22.68387354816884 a55.79660759040229,55.79660759040229 0 0,0 0.6198455406792861,0.7337016108164882 l -26.773025805317694 22.226312987723247" fill="red" stroke="none" /><path d="M 116.15771136456269 86.58626213691792 l 35.29827728281181 -29.303768820160332 a66.87678330266486,66.87678330266486 0 0,0 0.7276878966541982,0.892059318512622 l -35.79746367154242 28.69182533203961" fill="red" stroke="none" /><path d="M 117.2510076193507 88.02491185347247 l 37.82268944191493 -26.25528027114251 a67.04232377645364,67.04232377645364 0 0,0 0.6499131850286348,0.9536674039546505 l -38.269027092612305 25.60033484391745" fill="red" stroke="none" /><path d="M 117.45458315368197 88.32363383020206 l 19.758265665744702 -13.217430789501005 a44.77161203606931,44.77161203606931 0 0,0 0.4229923080193227,0.6442463049476141 l -19.98285460912195 12.875366420575718" fill="red" stroke="none" /><line stroke="#e1ed5e" stroke-width="0.3" x1="172.23445277983987" x2="176.4835382374775" y1="55.19839476539836" y2="52.563006222186495" /><path d="M 173.08426987136738 54.67131705675599 a86.0,86.0 0 0,1 12.851231095245387,41.99856678651699" fill="none" id="id3" stroke="none" /><text fill="#e1ed5e" style="font-size:6.75px; font-family:Arial;" text-anchor="middle"><textPath startOffset="22.20632615414155" xlink:href="#id3">March</textPath></text><path d="M 118.56541770881063 90.18545643968196 l 30.908899181380587 -16.339882149442502 a55.96214806419107,55.96214806419107 0 0,0 0.4428752908745434,0.855494097595751 l -31.185583905415246 15.805415329586404" fill="red" stroke="none" /><path d="M 119.04729006885535 91.15688171328212 l 26.44597901573411 -12.278120393965825 a50.15719544999773,50.15719544999773 0 0,0 0.3568270851355341,0.7862211828736324 l -26.65340841783299 11.82107720225013" fill="red" stroke="none" /><path d="M 119.61058180528143 92.48833698450437 l 37.83280161011956 -14.491526026565047 a61.51327195190827,61.51327195190827 0 0,0 0.37023787242727996,0.9920534274158951 l -38.07664407104847 13.83814946211982" fill="red" stroke="none" /><path d="M 119.85752413597 93.16781622104841 l 32.913982063803466 -11.324391339889301 a55.807643621988205,55.807643621988205 0 0,0 0.30471692599608496,0.9110648236258824 l -33.104036283571325 10.756153413341105" fill="red" stroke="none" /><path d="M 120.28053869075195 94.5502522615342 l 33.998817293818014 -9.136097442125028 a56.20494075908128,56.20494075908128 0 0,0 0.24302927561604354,0.9364909368294119 l -34.151042901304365 8.549510079746765" fill="red" stroke="none" /><path d="M 120.6074358757038 95.95851677861258 l 34.30858210998472 -6.728520704051962 a55.96214806419107,55.96214806419107 0 0,0 0.177251512711378,0.94688466854729 l -34.41931934660595 6.136957958042109" fill="red" stroke="none" /><path d="M 120.78858239683441 97.02765380044208 l 34.65386617193298 -4.95480093110237 a56.006292190534744,56.006292190534744 0 0,0 0.12823840983127496,0.9555251057540776 l -34.73402058082209 4.357557483283628" fill="red" stroke="none" /><path d="M 120.87857604477298 97.74499172005257 l 35.681660167692975 -3.8538279118207415 a56.88917471740826,56.88917471740826 0 0,0 0.09677356373674806,0.9744965801848744 l -35.74271085711195 3.2390558009314323" fill="red" stroke="none" /><path d="M 120.94382443527127 98.46500227214037 l 11.854011167305167 -0.8687945348315977 a32.88580601803466,32.88580601803466 0 0,0 0.036517979080190666,0.564916973130428 l -11.867209737389773 0.6646184974481346" fill="red" stroke="none" /><path d="M 120.96714384426684 98.82574320788733 l 34.940503321506924 -1.9568293922080169 a55.99525615894883,55.99525615894883 0 0,0 0.04561318042479515,0.9628221467045947 l -34.969010110165215 1.3550961388804224" fill="red" stroke="none" /><line stroke="#e1ed5e" stroke-width="0.3" x1="184.98032266829074" x2="189.97916517819016" y1="98.17113171792111" y2="98.06355123074" /><path d="M 185.9800911702706 98.14961562048488 a86.0,86.0 0 0,1 -9.607161424134198,41.387399972396054" fill="none" id="id4" stroke="none" /><text fill="#e1ed5e" style="font-size:6.75px; font-family:Arial;" text-anchor="middle"><textPath startOffset="21.466115282336823" xlink:href="#id4">April</textPath></text><path d="M 120.99513854157772 99.54816195383933 l 35.1967908849975 -0.7574729356088251 a56.20494075908128,56.20494075908128 0 0,0 0.012490859927231021,0.9674308667746446 l -35.20461475204244 0.15150581077371778" fill="red" stroke="none" /><path d="M 120.99824983174949 100.27111621757518 l 38.810488299780005 0.5010966568353126 a59.81372308767676,59.81372308767676 0 0,0 -0.022153685178679626,1.0293946990188725 l -38.796112551916316 -1.1690811716442997" fill="red" stroke="none" /><path d="M 120.9764740272857 100.99374915477107 l 57.76402080066582 2.7365393617712597 a78.82880551021503,78.82880551021503 0 0,0 -0.07587703878755636,1.3548354988633637 l -57.708357410990736 -3.7304465769700466" fill="red" stroke="none" /><path d="M 120.95626037817324 101.35467743843564 l 28.130952880549874 1.8184717359528693 a49.18966742305018,49.18966742305018 0 0,0 -0.06189334721303365,0.8444855482285372 l -28.095482974672503 -2.3024304206781765" fill="red" stroke="none" /><path d="M 120.89721153311464 102.0752229133903 l 34.84592929438862 3.460417232964458 a56.01732822212066,56.01732822212066 0 0,0 -0.10354589322109034,0.9587063714865258 l -34.781201099666475 -4.0597199263357755" fill="red" stroke="none" /><path d="M 120.81339534386255 102.79330883721812 l 37.99849428517825 5.099673942390635 a59.339173729482255,59.339173729482255 0 0,0 -0.14457833979808185,1.0111805718112554 l -37.90508189436357 -5.752999986182299" fill="red" stroke="none" /><path d="M 120.64145759157962 103.86396538481128 l 57.68758186627123 10.798792598622923 a79.6896159739167,79.6896159739167 0 0,0 -0.2640005678309034,1.3461332077130461 l -57.49315136546466 -11.790189533403913" fill="red" stroke="none" /><path d="M 120.49622156327973 104.57218783832717 l 37.77489041024597 8.426621169888987 a59.703362771817574,59.703362771817574 0 0,0 -0.23238662309577474,1.0011154901736108 l -37.62424322121964 -9.075605317411163" fill="red" stroke="none" /><path d="M 120.32669344350535 105.2749913415812 l 37.15266359047612 9.641508064316243 a59.38331785582593,59.38331785582593 0 0,0 -0.2652792038696533,0.9872026038851044 l -36.9811963102647 -10.279601601376894" fill="red" stroke="none" /><path d="M 120.13307415673323 105.97154293290107 l 28.09106849272707 8.331912962198263 a50.30066386061468,50.30066386061468 0 0,0 -0.2533554076962546,0.8279801313971431 l -27.943486312524684 -8.814220066147463" fill="red" stroke="none" /><path d="M 119.67450827220406 107.3425965602758 l 42.9914419564344 16.044559257248892 a66.88781933425078,66.88781933425078 0 0,0 -0.41185607930641255,1.0752262606269265 l -42.70889159753448 -16.782209084708963" fill="red" stroke="none" /><path d="M 119.41010516605496 108.01547362559984 l 32.39679309651058 13.378373707795504 a56.05043631687842,56.05043631687842 0 0,0 -0.37593566471310946,0.8886008617816783 l -32.161706450605166 -13.934049095243346" fill="red" stroke="none" /><line stroke="#e1ed5e" stroke-width="0.3" x1="174.80103733775053" x2="179.2010983576182" y1="140.37084112569926" y2="142.7455964860345" /><path d="M 175.68104954172406 140.8457921977663 a86.0,86.0 0 0,1 -30.038265399797805,32.042727171017184" fill="none" id="id5" stroke="none" /><text fill="#e1ed5e" style="font-size:6.75px; font-family:Arial;" text-anchor="middle"><textPath startOffset="22.206326154141568" xlink:href="#id5">May</textPath></text><path d="M 116.498646956653 112.99209946851258 l 27.50268838633675 21.657391912535346 a56.006292190534744,56.006292190534744 0 0,0 -0.6029533084048583,0.7522769605444598 l -27.125817165877038 -22.127596706658057" fill="red" stroke="none" /><path d="M 116.0416608686014 113.55231037782055 l 26.681895888355836 22.54139004119333 a55.92903996943331,55.92903996943331 0 0,0 -0.6276236762529649,0.7300681275015193 l -26.289929702532092 -22.99733526785638" fill="red" stroke="none" /><path d="M 115.80600337817218 113.82643327865902 l 26.348074886708307 23.048198252651005 a56.006292190534744,56.006292190534744 0 0,0 -0.6409817472383051,0.7201497880230843 l -25.947434289821665 -23.498322210414955" fill="red" stroke="none" /><path d="M 115.56566222782051 114.09645910891815 l 26.119217429823635 23.65389117839059 a56.23804885383904,56.23804885383904 0 0,0 -0.6559862892409497,0.7119435581054447 l -25.708184732586965 -24.09998599129737" fill="red" stroke="none" /><path d="M 115.32070863581623 114.36230785411682 l 25.44248786563571 23.85091003210138 a55.87385981150372,55.87385981150372 0 0,0 -0.6638172367685878,0.6960097188455254 l -25.028164077488157 -24.28532686752941" fill="red" stroke="none" /><path d="M 115.07121518719521 114.62390073753431 l 25.131128043629715 24.385234857807216 a56.01732822212066,56.01732822212066 0 0,0 -0.6774345553023176,0.6862376279497968 l -24.707652863271864 -24.81421297973768" fill="red" stroke="none" /><path d="M 114.81725581225074 114.88116024355365 l 24.559702846126527 24.665624878062605 a55.807643621988205,55.807643621988205 0 0,0 -0.6865670184540645,0.6719503307596905 l -24.13148587529667 -25.084725311744865" fill="red" stroke="none" /><path d="M 114.55890576462653 115.13401014063108 l 24.169741242885912 25.12449183887192 a55.8628237799178,55.8628237799178 0 0,0 -0.6987219998440695,0.6606852628808505 l -23.733683408651036 -25.536811738498688" fill="red" stroke="none" /><path d="M 113.75828350139079 115.86535959552629 l 22.811679324665718 26.305279683113717 a55.81867965357412,55.81867965357412 0 0,0 -0.7313164678373613,0.6232437594629421 l -22.355497380251308 -26.694047832799605" fill="red" stroke="none" /><path d="M 113.48314897796784 116.09983520530334 l 25.91962263612022 30.94986591834579 a61.36980354129133,61.36980354129133 0 0,0 -0.8157212082722957,0.6712830203909828 l -25.383031299303234 -31.39144405759395" fill="red" stroke="none" /><path d="M 112.92097659922987 116.55440617244103 l 13.854309257798505 17.750195655170238 a43.516912106404504,43.516912106404504 0 0,0 -0.5944643765714827,0.45580993469357917 l -13.546716152733527 -17.98604493169119" fill="red" stroke="none" /><path d="M 112.34349029814194 116.9893568818739 l 20.705918619238243 28.499252034266952 a56.22701282225312,56.22701282225312 0 0,0 -0.7879082528704503,0.562151618161462 l -20.21228303851891 -28.851447914272633" fill="red" stroke="none" /><path d="M 111.7513745106137 117.40417183066458 l 19.465632331114463 28.82924117321518 a55.785571558816365,55.785571558816365 0 0,0 -0.8004573407582681,0.5304994778498806 l -18.96650029161623 -29.16003867215638" fill="red" stroke="none" /><path d="M 111.1453310114006 117.79835938074945 l 13.986882737365917 22.336130288225082 a47.35404342717433,47.35404342717433 0 0,0 -0.6945728734704016,0.42666338851101043 l -13.600330663963206 -22.573582143564472" fill="red" stroke="none" /><line stroke="#e1ed5e" stroke-width="0.3" x1="143.8653032363475" x2="146.44561519142675" y1="172.8068346515853" y2="177.08958963109032" /><path d="M 144.38136562736335 173.6633856474863 a86.0,86.0 0 0,1 -40.68145358897372,12.25698825130547" fill="none" id="id6" stroke="none" /><text fill="#e1ed5e" style="font-size:6.75px; font-family:Arial;" text-anchor="middle"><textPath startOffset="21.466115282336833" xlink:href="#id6">June</textPath></text><path d="M 110.5260780823613 118.17145234162733 l 14.786288857396281 25.525969043679886 a50.499312429161215,50.499312429161215 0 0,0 -0.7559295777018307,0.4292365427692023 l -14.34471051277325 -25.776708752243717" fill="red" stroke="none" /><path d="M 109.57404056367764 118.69057910512821 l 17.534431334222326 34.230967973863706 a59.46057007692736,59.46057007692736 0 0,0 -0.914973850824498,0.45878688334896595 l -16.942603575715065 -34.52772269812197" fill="red" stroke="none" /><path d="M 108.92500713936063 119.00905698771935 l 14.797950690059984 31.517631703425458 a55.81867965357412,55.81867965357412 0 0,0 -0.8732487000097653,0.4008656480304433 l -14.2532339942828 -31.767684421789976" fill="red" stroke="none" /><path d="M 106.91757812671514 119.82793768551818 l 13.287249624995752 38.08540398826633 a61.336695446533575,61.336695446533575 0 0,0 -0.999876539664753,0.33921240965237653 l -12.629703352393772 -38.30847938481683" fill="red" stroke="none" /><path d="M 106.2309692047433 120.05430185196036 l 11.978238222253502 38.55182028197117 a61.36980354129133,61.36980354129133 0 0,0 -1.011505943777455,0.3047584433503668 l -11.312857304035802 -38.75229409442726" fill="red" stroke="none" /><path d="M 105.18746579009965 120.34920634021253 l 8.674592073320753 34.02838132524531 a56.11665250639393,56.11665250639393 0 0,0 -0.9380745968369637,0.23055591266097647 l -8.08756419174058 -34.17265849622032" fill="red" stroke="none" /><path d="M 103.7750983002368 120.6578951692458 l 6.909957548351642 37.812307734829744 a59.43849801375552,59.43849801375552 0 0,0 -1.0080515334169307,0.17526268036133774 l -6.258057043462661 -37.92564899371209" fill="red" stroke="none" /><path d="M 101.98527174616119 120.90594882070398 l 3.634893980632341 38.27733290151541 a59.449534045341444,59.449534045341444 0 0,0 -1.0195755949546377,0.08797327248304959 l -2.9754740679361618 -38.33423042627712" fill="red" stroke="none" /><path d="M 101.26447882468166 120.96189622390904 l 2.767043087070066 45.870653510429435 a66.9540355237663,66.9540355237663 0 0,0 -1.151009794854637,0.05949405909161324 l -1.9770452238019496 -45.911487376283254" fill="red" stroke="none" /><path d="M 100.90346689309514 120.98055641714683 l 1.514595164247891 35.17234503610556 a56.20494075908128,56.20494075908128 0 0,0 -0.9669381538851375,0.033303305110224085 l -0.9089366586881013 -35.193205139641876" fill="red" stroke="none" /><line stroke="#e1ed5e" stroke-width="0.3" x1="102.19456741930631" x2="102.32365962044197" y1="184.97166512339345" y2="189.96999836594603" /><path d="M 102.22038585953345 185.97133177190398 a86.0,86.0 0 0,1 -42.740103519485714,-10.115201625700543" fill="none" id="id7" stroke="none" /><text fill="#e1ed5e" style="font-size:6.75px; font-family:Arial;" text-anchor="middle"><textPath startOffset="22.20632615414155" xlink:href="#id7">July</textPath></text><path d="M 99.45781275523022 120.99299961872073 l -0.9026681300074696 34.95049338005814 a55.96214806419107,55.96214806419107 0 0,0 -0.962761198674405,-0.033159442327214995 l 1.5041496803565175 -34.92977713930484" fill="red" stroke="none" /><path d="M 98.73552117531835 120.96189622390904 l -2.0978758467531455 34.77753437378139 a55.84075171674596,55.84075171674596 0 0,0 -0.9589645016741184,-0.06613580660240778 l 2.696203109206194 -34.736270222662704" fill="red" stroke="none" /><path d="M 97.65516085044442 120.86867818915974 l -3.890283744065325 34.6228778783422 a55.84075171674596,55.84075171674596 0 0,0 -0.954272117492199,-0.11554906387763232 l 4.485683284608913 -34.55078328573922" fill="red" stroke="none" /><path d="M 97.2962882734958 120.8252237178851 l -3.77809054601682 29.100580537466136 a50.34480798695835,50.34480798695835 0 0,0 -0.8584303010627932,-0.11897061769258015 l 4.278449438266445 -29.031235354280952" fill="red" stroke="none" /><path d="M 96.22490169976321 120.6578951692458 l -6.281058167694864 34.37087748735888 a55.94007600101923,55.94007600101923 0 0,0 -0.9457399344610729,-0.18125330931947473 l 6.871765716727632 -34.25766697969094" fill="red" stroke="none" /><path d="M 94.81253420990036 120.34920634021253 l -8.66096135038968 33.97491121002652 a56.06147234846434,56.06147234846434 0 0,0 -0.9330485893260815,-0.2464266127876815 l 9.244500382527251 -33.820793247935256" fill="red" stroke="none" /><path d="M 94.46302465271185 120.25689768951611 l -6.861357224425324 25.102118501300385 a47.02296247959676,47.02296247959676 0 0,0 -0.7789439538113282,-0.22013734200793297 l 7.292432346341265 -24.98029236595393" fill="red" stroke="none" /><path d="M 93.42475214034765 119.94407469862007 l -10.781032683849105 32.70108226556184 a55.43241854806696,55.43241854806696 0 0,0 -0.9036283164521544,-0.3065597866278848 l 11.342330733238486 -32.510659492035835" fill="red" stroke="none" /><path d="M 92.7421414339146 119.70592522655815 l -7.647447740228967 20.763704882202564 a43.127243329767396,43.127243329767396 0 0,0 -0.6944097745862766,-0.26256635846608534 l 8.003727735575525 -20.628990273629846" fill="red" stroke="none" /><path d="M 92.40401165467489 119.57807347666478 l -9.368952117404367 24.147750709331294 a46.90156613215166,46.90156613215166 0 0,0 -0.7501546459247014,-0.2985020150409345 l 9.783227839370928 -23.982901849884293" fill="red" stroke="none" /><path d="M 92.06813273071674 119.44442032107085 l -15.826577186878449 38.797751981715095 a62.901624124691146,62.901624124691146 0 0,0 -0.9990231852165454,-0.41759177244369683 l 16.492071831592458 -38.51957516625143" fill="red" stroke="none" /><path d="M 91.7346041902142 119.30500536409082 l -17.79384442292228 41.56004986786162 a66.20905489353109,66.20905489353109 0 0,0 -1.0438309155094625,-0.4575847979964176 l 18.506596013089485 -41.247600516570756" fill="red" stroke="none" /><path d="M 91.40352486487194 119.15986991738527 l -23.112375630665884 51.51298684687086 a77.46033759356109,77.46033759356109 0 0,0 -1.2118190456259492,-0.5562866878760279 l 23.99566267205925 -51.10751308866076" fill="red" stroke="none" /><path d="M 91.07499286063937 119.00905698771935 l -25.832395916580197 55.01950625249351 a81.78205941771898,81.78205941771898 0 0,0 -1.2691303404326721,-0.6092596883314678 l 26.77563892501311 -54.56669228766248" fill="red" stroke="none" /><path d="M 90.7491055286396 118.85261126421891 l -22.044095081729623 44.9241699312363 a71.04121473328692,71.04121473328692 0 0,0 -1.0931757587872177,-0.548141019412399 l 22.814124748199603 -44.5380610709146" fill="red" stroke="none" /><path d="M 90.42595943632237 118.69057910512821 l -16.06531270178476 31.36293353931517 a56.23815932192865,56.23815932192865 0 0,0 -0.8577901931418149,-0.44875528738357984 l 16.602793797453067 -31.08174883298687" fill="red" stroke="none" /><path d="M 90.10565033884886 118.52300852407294 l -16.86540688227032 31.57338138845461 a56.79553549823418,56.79553549823418 0 0,0 -0.8583622549925892,-0.4680475407752138 l 17.406391949131553 -31.278393195919634" fill="red" stroke="none" /><line stroke="#e1ed5e" stroke-width="0.3" x1="58.666819895761336" x2="56.23545636021788" y1="174.27360380694188" y2="178.64263932499728" /><path d="M 58.180547188652646 175.14741091055294 a86.0,86.0 0 0,1 -31.652253787137756,-30.449443065178592" fill="none" id="id8" stroke="none" /><text fill="#e1ed5e" style="font-size:6.75px; font-family:Arial;" text-anchor="middle"><textPath startOffset="22.20632615414155" xlink:href="#id8">August</textPath></text><path d="M 89.7882731507175 118.34994917583269 l -30.635180547847483 55.04984752749809 a84.0,84.0 0 0,0 -1.257404932315171,-0.7139873368214675 l 31.57823424708386 -54.51435702488198" fill="red" stroke="none" /><line stroke="#e1ed5e" stroke-width="0.3" x1="26.63291911575756" x2="22.317208475507996" y1="142.92168965132927" y2="145.44649492493687" /><path d="M 25.769776987707644 143.4266507060508 a86.0,86.0 0 0,1 -11.730757126820373,-40.83630448921669" fill="none" id="id9" stroke="none" /><text fill="#e1ed5e" style="font-size:6.75px; font-family:Arial;" text-anchor="middle"><textPath startOffset="21.46611528233685" xlink:href="#id9">September</textPath></text><line stroke="#e1ed5e" stroke-width="0.3" x1="15.007084014347285" x2="10.007500721073583" y1="101.09737516637583" y2="101.16192664675087" /><path d="M 14.007167355692545 101.11028546245083 a86.0,86.0 0 0,1 10.666146001902534,-42.60595125391555" fill="none" id="id10" stroke="none" /><text fill="#e1ed5e" style="font-size:6.75px; font-family:Arial;" text-anchor="middle"><textPath startOffset="22.20632615414155" xlink:href="#id10">October</textPath></text><line stroke="#e1ed5e" stroke-width="0.3" x1="26.266209847984243" x2="21.928928074336255" y1="57.711370442889674" y2="55.22380399835377" /><path d="M 25.398753493254645 57.213857153982495 a86.0,86.0 0 0,1 29.58750427330803,-30.492523968695096" fill="none" id="id11" stroke="none" /><text fill="#e1ed5e" style="font-size:6.75px; font-family:Arial;" text-anchor="middle"><textPath startOffset="21.46611528233685" xlink:href="#id11">November</textPath></text><line stroke="#e1ed5e" stroke-width="0.3" x1="56.762969772571076" x2="54.21961505331055" y1="26.818313649435495" y2="22.513508569990535" /><path d="M 56.25429882871897 25.957352633546506 a86.0,86.0 0 0,1 42.265352541879196,-11.944610805530505" fill="none" id="id12" stroke="none" /><text fill="#e1ed5e" style="font-size:6.75px; font-family:Arial;" text-anchor="middle"><textPath startOffset="22.20632615414155" xlink:href="#id12">December</textPath></text></svg>