<?xml version="1.0" encoding="utf-8" ?>
<svg baseProfile="full" height="200mm" version="1.1" viewBox="0,0,200,200" width="200mm" xmlns="http://www.w3.org/2000/svg" xmlns:ev="http://www.w3.org/2001/xml-events" xmlns:xlink="http://www.w3.org/1999/xlink"><defs /><rect fill="#1a1a1a" height="200" width="200" x="0" y="0" /><text alignment-baseline="middle" fill="#e1ed5e" style="dominant-baseline: central; font-size:9.0px; font-family:Arial;" text-anchor="middle" x="100.0" y="100.0">2025</text><line stroke="#e1ed5e" stroke-width="0.3" x1="100.0" x2="100.0" y1="15.0" y2="10.0" /><path d="M 100.0 14.0 a86.0,86.0 0 0,1 42.46469731375804,11.215312516191453" fill="none" id="id1" stroke="none" /><text fill="#e1ed5e" style="font-size:6.75px; font-family:Arial;" text-anchor="middle"><textPath startOffset="22.20632615414155" xlink:href="#id1">January</textPath></text><path d="M 103.59715602781102 79.31037775812273 l 3.0188868247725313 -17.363613786175538 a38.62409604423019,38.62409604423019 0 0,0 0.6540436664913525,0.11952229950938777 l -3.3173256123667847 17.30907600531541" fill="red" stroke="none" /><path d="M 104.307194497241 79.44645832069477 l 2.3021210245280406 -10.985512834108352 a32.22413709110564,32.22413709110564 0 0,0 0.5419137367427679,0.11844135328293115 l -2.4908774854243365 10.944257982729551" fill="red" stroke="none" /><path d="M 105.01212808612495 79.60689891045804 l 6.322194195531424 -25.72343386317313 a47.48896353500932,47.48896353500932 0 0,0 0.7921410386607017,0.201934388510582 l -6.76404412287715 25.610796478493683" fill="red" stroke="none" /><path d="M 105.71112130821622 79.79150937346287 l 2.3989024584264467 -8.488385245003515 a29.820851266892433,29.820851266892433 0 0,0 0.4927679574012574,0.14385247935252388 l -2.544660633551131 8.445834436732287" fill="red" stroke="none" /><path d="M 106.0581310904928 79.89281104454417 l 7.948890003009023 -26.382696394183696 a48.55415615306718,48.55415615306718 0 0,0 0.7981716628441273,0.24799582094623904 l -8.401847038563869 26.241960438354937" fill="red" stroke="none" /><path d="M 107.76421540070413 80.48803036053334 l 10.265562404061134 -25.798014560740537 a48.76543402772329,48.76543402772329 0 0,0 0.7772655893143959,0.3170661498580221 l -10.708111862963918 25.617487524698937" fill="red" stroke="none" /><path d="M 108.76106565485865 80.91482961587045 l 13.408872179578283 -29.209986580153647 a53.14064668206016,53.14064668206016 0 0,0 0.8280370219047528,0.3887744845485611 l -13.909687412782635 28.974847112965083" fill="red" stroke="none" /><path d="M 109.41281617654863 81.2277094730956 l 14.362976306681952 -28.64455854687062 a53.04381098950944,53.04381098950944 0 0,0 0.8126804706761417,0.41628650176105153 l -14.85391726494685 28.39307951979707" fill="red" stroke="none" /><path d="M 110.05341064243156 81.56283822128135 l 21.805363433596558 -39.989315822052156 a66.54798847794555,66.54798847794555 0 0,0 1.0009955467092744,0.5570529379888279 l -22.490483069377866 39.608047486503146" fill="red" stroke="none" /><path d="M 110.36928655335952 81.73862282372117 l 15.396461351321303 -27.114747622186737 a52.18109300133034,52.18109300133034 0 0,0 0.77725792354032,0.4502379578421067 l -15.860916007326951 26.84570550695458" fill="red" stroke="none" /><line stroke="#e1ed5e" stroke-width="0.3" x1="143.23703022742887" x2="145.7803849466894" y1="26.81831364943548" y2="22.513508569990506" /><path d="M 143.74570117128098 25.957352633546492 a86.0,86.0 0 0,1 28.547481713284135,27.462654790039103" fill="none" id="id2" stroke="none" /><text fill="#e1ed5e" style="font-size:6.75px; font-family:Arial;" text-anchor="middle"><textPath startOffset="19.985693538727396" xlink:href="#id2">February</textPath></text><path d="M 110.99172775467656 82.1063720568725 l 14.505214981117394 -23.61329591671927 a48.71261455905926,48.71261455905926 0 0,0 0.7106958161318003,0.4450376548623739 l -14.909529949621458 23.36011392053395" fill="red" stroke="none" /><path d="M 111.60114157652 82.49532879139004 l 11.540428856396096 -17.413063309771765 a41.8900998566225,41.8900998566225 0 0,0 0.5976227270421569,0.4035175330292342 l -11.838456277844795 17.21183386444386" fill="red" stroke="none" /><path d="M 112.19680574252982 82.90503203632743 l 12.951044025036918 -18.152103704670274 a43.29861902099654,43.29861902099654 0 0,0 0.6029944727668272,0.4381011286172677 l -13.261583814157532 17.92648334123633" fill="red" stroke="none" /><path d="M 113.06298171725822 83.55741782278167 l 17.567103564626176 -22.111991751121966 a49.24080924569952,49.24080924569952 0 0,0 0.6591154348047771,0.5329588432060749 l -17.945122397995444 21.806326810651765" fill="red" stroke="none" /><path d="M 114.94478906791727 85.2469230424477 l 16.451594426262997 -16.240552980847202 a44.11732078528895,44.11732078528895 0 0,0 0.5288526776824212,0.5450291718145287 l -16.72871136764853 15.95495961348256" fill="red" stroke="none" /><path d="M 115.4437574822437 85.77008943001954 l 20.58656570718002 -18.968504866319545 a48.99305028894902,48.99305028894902 0 0,0 0.56611786753485,0.6251214889565098 l -20.91002721533091 18.611330590093488" fill="red" stroke="none" /><path d="M 115.9244219780498 86.31012108654704 l 21.04801434650278 -18.094519736378626 a48.75663078294595,48.75663078294595 0 0,0 0.5416383087518379,0.6411289160451681 l -21.356363268741735 17.729531870704353" fill="red" stroke="none" /><path d="M 116.15771136456269 86.58626213691792 l 28.15680371333949 -23.375091654461784 a57.59508853939306,57.59508853939306 0 0,0 0.6266935514401932,0.7682521929860495 l -28.55499575685609 22.886955291867633" fill="red" stroke="none" /><path d="M 117.2510076193507 88.02491185347247 l 30.170482088800764 -20.943366927236784 a57.727137211053126,57.727137211053126 0 0,0 0.5596110858644993,0.8211602161250603 l -30.526517640333996 20.420928687841318" fill="red" stroke="none" /><path d="M 117.45458315368197 88.32363383020206 l 15.760814716509934 -10.54330786040513 a39.962189250385535,39.962189250385535 0 0,0 0.37755394313046925,0.5750405578748612 l -15.939965294998327 10.270449238552596" fill="red" stroke="none" /><line stroke="#e1ed5e" stroke-width="0.3" x1="172.23445277983987" x2="176.4835382374775" y1="55.19839476539836" y2="52.563006222186495" /><path d="M 173.08426987136738 54.67131705675599 a86.0,86.0 0 0,1 12.851231095245387,41.99856678651699" fill="none" id="id3" stroke="none" /><text fill="#e1ed5e" style="font-size:6.75px; font-family:Arial;" text-anchor="middle"><textPath startOffset="22.20632615414155" xlink:href="#id3">March</textPath></text><path d="M 118.56541770881063 90.18545643968196 l 24.65547540104219 -13.034031397475129 a48.88867945460602,48.88867945460602 0 0,0 0.38689701669592136,0.7473618894094657 l -24.876181850898224 12.607696785805318" fill="red" stroke="none" /><path d="M 119.04729006885535 91.15688171328212 l 21.095483901015 -9.794036777822807 a44.25817270172635,44.25817270172635 0 0,0 0.31486040271780774,0.6937531610607303 l -21.260946620696156 9.429461607920013" fill="red" stroke="none" /><path d="M 119.61058180528143 92.48833698450437 l 30.17854838430218 -11.559630816188067 a53.31671157760691,53.31671157760691 0 0,0 0.32090417617103745,0.8598636486197969 l -30.37305714897484 11.038444030538937" fill="red" stroke="none" /><path d="M 119.85752413597 93.16781622104841 l 26.254894111961796 -9.033264189512446 a48.76543402772329,48.76543402772329 0 0,0 0.2662655540958554,0.7961001158271894 l -26.406496959829422 8.579990970762942" fill="red" stroke="none" /><path d="M 120.28053869075195 94.5502522615342 l 27.12024774914083 -7.2877013323570825 a49.082350839707445,49.082350839707445 0 0,0 0.21223130936543644,0.8178138095847152 l -27.241675390376567 6.819791097223517" fill="red" stroke="none" /><path d="M 120.6074358757038 95.95851677861258 l 27.367341596135784 -5.367220480116313 a48.88867945460602,48.88867945460602 0 0,0 0.1548473868060026,0.8272009321012914 l -27.455674706851646 4.8953414705524585" fill="red" stroke="none" /><path d="M 120.78858239683441 97.02765380044208 l 27.642768509458712 -3.952355978677039 a48.923892433715366,48.923892433715366 0 0,0 0.11202173761319478,0.8346920616095983 l -27.70670624612974 3.4759455750027763" fill="red" stroke="none" /><path d="M 120.87857604477298 97.74499172005257 l 28.46262137549234 -3.07412951597398 a49.62815201590239,49.62815201590239 0 0,0 0.08442191605177765,0.8501171736209577 l -28.511320417226344 2.583736811648587" fill="red" stroke="none" /><path d="M 120.94382443527127 98.46500227214037 l 9.455732442106255 -0.6930218432044324 a30.481094625192767,30.481094625192767 0 0,0 0.033847672009427725,0.5236085046516104 l -9.466260705120098 0.5301542742997868" fill="red" stroke="none" /><path d="M 120.96714384426684 98.82574320788733 l 27.871413830952477 -1.5609277658353047 a48.915089188938026,48.915089188938026 0 0,0 0.03984574661711596,0.841080734508138 l -27.89415318580309 1.080935924704167" fill="red" stroke="none" /><line stroke="#e1ed5e" stroke-width="0.3" x1="184.98032266829074" x2="189.97916517819016" y1="98.17113171792111" y2="98.06355123074" /><path d="M 185.9800911702706 98.14961562048488 a86.0,86.0 0 0,1 -9.607161424134198,41.387399972396054" fill="none" id="id4" stroke="none" /><text fill="#e1ed5e" style="font-size:6.75px; font-family:Arial;" text-anchor="middle"><textPath startOffset="21.466115282336823" xlink:href="#id4">April</textPath></text><path d="M 120.99513854157772 99.54816195383933 l 28.075849831088043 -0.6042225969053232 a49.082350839707445,49.082350839707445 0 0,0 0.010907951524509655,0.8448328665576116 l -28.082090789730266 0.12085347228724895" fill="red" stroke="none" /><path d="M 120.99824983174949 100.27111621757518 l 30.958431549515982 0.3997158301771549 a51.961011881896894,51.961011881896894 0 0,0 -0.01924521396385604,0.894249470284209 l -30.946964272867117 -0.9325551162514787" fill="red" stroke="none" /><path d="M 120.9764740272857 100.99374915477107 l 46.077325030521884 2.1828884465344873 a67.12900263324985,67.12900263324985 0 0,0 -0.06461533830945877,1.1537502716444628 l -46.032923341324896 -2.9757104345143737" fill="red" stroke="none" /><path d="M 120.95626037817324 101.35467743843564 l 22.439557380681023 1.4505623409676487 a43.48639291985066,43.48639291985066 0 0,0 -0.05471715010558263,0.746572040212515 l -22.411263671911104 -1.8366075176769339" fill="red" stroke="none" /><path d="M 120.89721153311464 102.0752229133903 l 27.795973823027595 2.7603128621317277 a48.932695678492706,48.932695678492706 0 0,0 -0.09045022036135768,0.8374567050924977 l -27.744341301165186 -3.2383658891090166" fill="red" stroke="none" /><path d="M 120.81339534386255 102.79330883721812 l 30.310718464189826 4.067918585586198 a51.58247235647137,51.58247235647137 0 0,0 -0.12567934042994217,0.8790010142480307 l -30.23620507274328 -4.5890650718146375" fill="red" stroke="none" /><path d="M 120.64145759157962 103.86396538481128 l 46.0163510613233 8.614003485335754 a67.8156557258822,67.8156557258822 0 0,0 -0.22466379591185293,1.1455558551734681 l -45.861257332435784 -9.404823067577167" fill="red" stroke="none" /><path d="M 120.49622156327973 104.57218783832717 l 30.13235365716068 6.721764814363063 a51.87297943412352,51.87297943412352 0 0,0 -0.20190799916387278,0.8698143759746759 l -30.012185092066254 -7.239447847686304" fill="red" stroke="none" /><path d="M 120.32669344350535 105.2749913415812 l 29.63601446505041 7.690858335449819 a51.617685335580724,51.617685335580724 0 0,0 -0.23058830267217448,0.858104855197275 l -29.499238086036456 -8.199854123822641" fill="red" stroke="none" /><path d="M 120.13307415673323 105.97154293290107 l 22.40774231871196 6.646217772998284 a44.372614883831744,44.372614883831744 0 0,0 -0.2234968899335856,0.7304007677464652 l -22.290018656272245 -7.030945513296806" fill="red" stroke="none" /><path d="M 119.67450827220406 107.3425965602758 l 34.29350341440585 12.79845761462652 a57.6038917841704,57.6038917841704 0 0,0 -0.35469108216046813,0.9259864916680863 l -34.068118052651876 -13.38686767312775" fill="red" stroke="none" /><path d="M 119.41010516605496 108.01547362559984 l 25.842341733892585 10.671689144374387 a48.95910541282472,48.95910541282472 0 0,0 -0.32837342662374663,0.7761777805964273 l -25.654817326076532 -11.114941450636977" fill="red" stroke="none" /><line stroke="#e1ed5e" stroke-width="0.3" x1="174.80103733775053" x2="179.2010983576182" y1="140.37084112569926" y2="142.7455964860345" /><path d="M 175.68104954172406 140.8457921977663 a86.0,86.0 0 0,1 -30.038265399797805,32.042727171017184" fill="none" id="id5" stroke="none" /><text fill="#e1ed5e" style="font-size:6.75px; font-family:Arial;" text-anchor="middle"><textPath startOffset="22.206326154141568" xlink:href="#id5">May</textPath></text><path d="M 116.498646956653 112.99209946851258 l 21.938402043782084 17.27571371651789 a48.923892433715366,48.923892433715366 0 0,0 -0.5267055119913383,0.65714611088394 l -21.637778619735894 -17.65078766098008" fill="red" stroke="none" /><path d="M 116.0416608686014 113.55231037782055 l 21.28367056581605 17.98086319427165 a48.862269720274,48.862269720274 0 0,0 -0.5483218980454998,0.637822243679683 l -20.97100615819977 -18.34456253711286" fill="red" stroke="none" /><path d="M 115.80600337817218 113.82643327865902 l 21.0173875304296 18.385135029296052 a48.923892433715366,48.923892433715366 0 0,0 -0.5599249803428623,0.6290816511391681 l -20.6978037004384 -18.744190850176086" fill="red" stroke="none" /><path d="M 115.56566222782051 114.09645910891815 l 20.834832035151265 18.868285430205628 a49.108760574039465,49.108760574039465 0 0,0 -0.5728270143566209,0.6216905893747654 l -20.506958612798925 -19.22412727438173" fill="red" stroke="none" /><path d="M 115.32070863581623 114.36230785411682 l 20.295016979782208 19.025443841856013 a48.818253496387314,48.818253496387314 0 0,0 -0.5799921152604569,0.6081194140726696 l -19.964518313142786 -19.37197037251119" fill="red" stroke="none" /><path d="M 115.07121518719521 114.62390073753431 l 20.046650825190525 19.451665187334815 a48.932695678492706,48.932695678492706 0 0,0 -0.5917579432789383,0.5994476723068333 l -19.70885225685605 -19.79385335362231" fill="red" stroke="none" /><path d="M 114.81725581225074 114.88116024355365 l 19.59083517747368 19.67532728563655 a48.76543402772329,48.76543402772329 0 0,0 -0.5999310573084464,0.5871588083259971 l -19.249254167789438 -20.00963619688512" fill="red" stroke="none" /><path d="M 114.55890576462653 115.13401014063108 l 19.279769789488533 20.04135724348766 a48.809450251609974,48.809450251609974 0 0,0 -0.610499691627739,0.5772655639034755 l -18.931934263469987 -20.370257444137057" fill="red" stroke="none" /><path d="M 113.75828350139079 115.86535959552629 l 18.19646811571231 20.98325056284246 a48.77423727250063,48.77423727250063 0 0,0 -0.6390226917755942,0.5445890012323933 l -17.83257994735967 -21.2933639542978" fill="red" stroke="none" /><path d="M 113.48314897796784 116.09983520530334 l 20.6756188422953 24.688153833540838 a53.20226939550152,53.20226939550152 0 0,0 -0.7071591722617644,0.5819438556200978 l -20.247589541488843 -25.040392808018115" fill="red" stroke="none" /><path d="M 112.92097659922987 116.55440617244103 l 11.05133441018344 14.15901322695336 a38.96133758400929,38.96133758400929 0 0,0 -0.5322327834437608,0.40809340277450734 l -10.805972898246186 -14.34714597155524" fill="red" stroke="none" /><path d="M 112.34349029814194 116.9893568818739 l 16.51674050818807 22.733343020583916 a49.099957329262125,49.099957329262125 0 0,0 -0.6880369355137005,0.49089608497536025 l -16.122976244825487 -23.014283367403497" fill="red" stroke="none" /><path d="M 111.7513745106137 117.40417183066458 l 15.527386345568559 22.9965694477111 a48.747827538168615,48.747827538168615 0 0,0 -0.6994739913671871,0.4635732203272093 l -15.129237655461408 -23.260440689129627" fill="red" stroke="none" /><path d="M 111.1453310114006 117.79835938074945 l 11.157085900882725 17.81713116485078 a42.02214852828257,42.02214852828257 0 0,0 -0.6163664671545216,0.3786226262000933 l -10.848740233795896 -18.006542257879254" fill="red" stroke="none" /><line stroke="#e1ed5e" stroke-width="0.3" x1="143.8653032363475" x2="146.44561519142675" y1="172.8068346515853" y2="177.08958963109032" /><path d="M 144.38136562736335 173.6633856474863 a86.0,86.0 0 0,1 -40.68145358897372,12.25698825130547" fill="none" id="id6" stroke="none" /><text fill="#e1ed5e" style="font-size:6.75px; font-family:Arial;" text-anchor="middle"><textPath startOffset="21.466115282336833" xlink:href="#id6">June</textPath></text><path d="M 110.5260780823613 118.17145234162733 l 11.79475784811675 20.361608420636824 a44.53107328982382,44.53107328982382 0 0,0 -0.6665903713799322,0.3785074098095682 l -11.44251870981562 -20.561618996241023" fill="red" stroke="none" /><path d="M 109.57404056367764 118.69057910512821 l 13.986901891757103 27.305430189563992 a51.67930804902208,51.67930804902208 0 0,0 -0.7952364976047785,0.3987480887379205 l -13.514811486469565 -27.542146119211218" fill="red" stroke="none" /><path d="M 108.92500713936063 119.00905698771935 l 11.804060283207818 25.14105043349539 a48.77423727250063,48.77423727250063 0 0,0 -0.7630427583833364,0.35027550548984787 l -11.36954952905706 -25.340513009319313" fill="red" stroke="none" /><path d="M 106.91757812671514 119.82793768551818 l 10.599001095255339 30.38004477807844 a53.175859661169504,53.175859661169504 0 0,0 -0.8668431542428903,0.2940802623891816 l -10.074488208075222 -30.557988027365745" fill="red" stroke="none" /><path d="M 106.2309692047433 120.05430185196036 l 9.554826139343703 30.75209670359678 a53.20226939550152,53.20226939550152 0 0,0 -0.8768874692549947,0.2641990012689347 l -9.024063695648463 -30.91201107397144" fill="red" stroke="none" /><path d="M 105.18746579009965 120.34920634021253 l 6.919566763693533 27.143830447616565 a49.011924881488746,49.011924881488746 0 0,0 -0.8193083446694812,0.20136605744676836 l -6.45130513428084 -27.25891776337736" fill="red" stroke="none" /><path d="M 103.7750983002368 120.6578951692458 l 5.511949401881608 30.162200786960874 a51.66170155946741,51.66170155946741 0 0,0 -0.8761603879003962,0.1523317141231321 l -4.991940042509162 -30.25261107960501" fill="red" stroke="none" /><path d="M 101.98527174616119 120.90594882070398 l 2.8994898394461033 30.53314303536649 a51.67050480424475,51.67050480424475 0 0,0 -0.8861631385910341,0.0764618843776581 l -2.373482383113527 -30.57852917202281" fill="red" stroke="none" /><path d="M 101.26447882468166 120.96189622390904 l 2.2072207219847217 36.59019891389113 a57.65671125283443,57.65671125283443 0 0,0 -0.9911790808720011,0.05123263683018185 l -1.5770535726992412 -36.62277135748351" fill="red" stroke="none" /><path d="M 100.90346689309514 120.98055641714683 l 1.208165441140869 28.05634981517108 a49.082350839707445,49.082350839707445 0 0,0 -0.8444025928738496,0.029082932629507844 l -0.7250424965923672 -28.072989546226683" fill="red" stroke="none" /><line stroke="#e1ed5e" stroke-width="0.3" x1="102.19456741930631" x2="102.32365962044197" y1="184.97166512339345" y2="189.96999836594603" /><path d="M 102.22038585953345 185.97133177190398 a86.0,86.0 0 0,1 -42.740103519485714,-10.115201625700543" fill="none" id="id7" stroke="none" /><text fill="#e1ed5e" style="font-size:6.75px; font-family:Arial;" text-anchor="middle"><textPath startOffset="22.20632615414155" xlink:href="#id7">July</textPath></text><path d="M 99.45781275523022 120.99299961872073 l -0.7200422035124007 27.879382721769954 a48.88867945460602,48.88867945460602 0 0,0 -0.8410707104976747,-0.028968175863607146 l 1.1998332656847184 -27.862857747480252" fill="red" stroke="none" /><path d="M 98.73552117531835 120.96189622390904 l -1.6734379969514135 27.741416419585562 a48.7918437620553,48.7918437620553 0 0,0 -0.8379121824215908,-0.05778732992690859 l 2.1507129401519345 -27.708500745142366" fill="red" stroke="none" /><path d="M 97.65516085044442 120.86867818915974 l -3.103209680552352 27.618049702558984 a48.7918437620553,48.7918437620553 0 0,0 -0.8338121288077515,-0.10096303681883388 l 3.5781492324114925 -27.560541137014802" fill="red" stroke="none" /><path d="M 97.2962882734958 120.8252237178851 l -3.0137151754774023 23.21301199978535 a44.4078278629411,44.4078278629411 0 0,0 -0.7571987373912389,-0.10494084539181231 l 3.4128425040554724 -23.157696588900933" fill="red" stroke="none" /><path d="M 96.22490169976321 120.6578951692458 l -5.010287627435287 27.417033503163402 a48.87107296505134,48.87107296505134 0 0,0 -0.826229219677282,-0.15834879639326332 l 5.481484461684264 -27.326727508421673" fill="red" stroke="none" /><path d="M 94.81253420990036 120.34920634021253 l -6.908693780092486 27.10117829417908 a48.96790865760205,48.96790865760205 0 0,0 -0.8149881938745683,-0.2152457893147004 l 7.374172416778544 -26.9782411555608" fill="red" stroke="none" /><path d="M 94.46302465271185 120.25689768951611 l -5.473181793756313 20.02351043273918 a41.75805118496243,41.75805118496243 0 0,0 -0.6917297375209821,-0.19548973332502118 l 5.8170426993819095 -19.926331906075635" fill="red" stroke="none" /><path d="M 93.42475214034765 119.94407469862007 l -8.599836719341894 26.08506775523424 a48.4661237052938,48.4661237052938 0 0,0 -0.7900676700728895,-0.2680338497028046 l 9.04757412235201 -25.933170918633312" fill="red" stroke="none" /><path d="M 92.7421414339146 119.70592522655815 l -6.100232121937026 16.562835575394253 a38.650505778562206,38.650505778562206 0 0,0 -0.6223279517337451,-0.23531118085966013 l 6.384430294431054 -16.455376144427962" fill="red" stroke="none" /><path d="M 92.40401165467489 119.57807347666478 l -7.47344533717191 19.26222833464958 a41.66121549241171,41.66121549241171 0 0,0 -0.6663392490656913,-0.2651501388780806 l 7.803905662279459 -19.130731351365437" fill="red" stroke="none" /><path d="M 92.06813273071674 119.44442032107085 l -12.624577220428453 30.948272016660848 a54.42417524504971,54.42417524504971 0 0,0 -0.8643817017874178,-0.3613116214505736 l 13.155430381713332 -30.7263753521903" fill="red" stroke="none" /><path d="M 91.7346041902142 119.30500536409082 l -14.193831067384398 33.151707576839684 a57.062453544229854,57.062453544229854 0 0,0 -0.8996285057998802,-0.3943706992979223 l 14.762380247842021 -32.90247232424731" fill="red" stroke="none" /><path d="M 91.40352486487194 119.15986991738527 l -18.436328174534374 41.09098718088038 a66.03740028085997,66.03740028085997 0 0,0 -1.0331142604085763,-0.4742520858989482 l 19.14091043071037 -40.76754802464736" fill="red" stroke="none" /><path d="M 91.07499286063937 119.00905698771935 l -20.606039650059675 43.888074920604424 a69.48476039227603,69.48476039227603 0 0,0 -1.0782953894705376,-0.5176473148487702 l 21.358447707530456 -43.52687332925609" fill="red" stroke="none" /><path d="M 90.7491055286396 118.85261126421891 l -17.58417991001203 35.8352059111528 a60.91698092043524,60.91698092043524 0 0,0 -0.9373849685810707,-0.4700242830392844 l 18.19841878627586 -35.52721378720421" fill="red" stroke="none" /><path d="M 90.42595943632237 118.69057910512821 l -12.815012265707365 25.01765047811602 a49.10884869245642,49.10884869245642 0 0,0 -0.7490481429830287,-0.39186658620718606 l 13.24375131121689 -24.79335447296412" fill="red" stroke="none" /><path d="M 90.10565033884886 118.52300852407294 l -13.453233066445627 25.185520958951052 a49.5534576875353,49.5534576875353 0 0,0 -0.7489112887169643,-0.40836614716451813 l 13.884767167031232 -24.950214160026768" fill="red" stroke="none" /><line stroke="#e1ed5e" stroke-width="0.3" x1="58.666819895761336" x2="56.23545636021788" y1="174.27360380694188" y2="178.64263932499728" /><path d="M 58.180547188652646 175.14741091055294 a86.0,86.0 0 0,1 -31.652253787137756,-30.449443065178592" fill="none" id="id8" stroke="none" /><text fill="#e1ed5e" style="font-size:6.75px; font-family:Arial;" text-anchor="middle"><textPath startOffset="22.20632615414155" xlink:href="#id8">August</textPath></text><path d="M 89.7882731507175 118.34994917583269 l -24.437134948466387 43.912277612363916 a71.25397187879655,71.25397187879655 0 0,0 -1.0666082819933962,-0.6056480192820677 l 25.18939199738099 -43.48512642728721" fill="red" stroke="none" /><path d="M 89.1626897886671 117.98757091392108 l -28.997777695940975 48.129985437383226 a77.19044945100487,77.19044945100487 0 0,0 -1.1322030474992,-0.6954915850872004 l 29.821959943372484 -47.623705385467645" fill="red" stroke="none" /><path d="M 88.8546689885994 117.79835938074946 l -19.759739566412076 31.555002333557496 a58.2312433314179,58.2312433314179 0 0,0 -0.8449580729769889,-0.5392922199814693 l 20.299979441435987 -31.21019568475222" fill="red" stroke="none" /><path d="M 88.54995079064634 117.60387380957326 l -15.118059407554927 23.243254696129952 a48.72732603623233,48.72732603623233 0 0,0 -0.6991798189268481,-0.46337825887448186 l 15.515913925221737 -22.979578416164152" fill="red" stroke="none" /><path d="M 87.95078237400918 117.19931262002967 l -28.131172935416682 40.15504182119568 a70.02846392030138,70.02846392030138 0 0,0 -0.9813077716411857,-0.7001370397286826 l 28.818208034906757 -39.66486051962278" fill="red" stroke="none" /><path d="M 87.65650970185807 116.9893568818739 l -26.51132489011536 36.48970826649222 a66.10375989652039,66.10375989652039 0 0,0 -0.9147974351319712,-0.6767452727927177 l 27.1355072956659 -36.02795304495974" fill="red" stroke="none" /><path d="M 87.36589467227662 116.77436683061367 l -10.988043242562782 14.588881707115485 a39.26396900360484,39.26396900360484 0 0,0 -0.5363668910693545,-0.4112632602144186 l 11.237538862125623 -14.3975791050737" fill="red" stroke="none" /><path d="M 86.79598089348748 116.32954008644616 l -22.807365354053665 28.206092691243523 a57.27340043751494,57.27340043751494 0 0,0 -0.7612722334253386,-0.6264752209592601 l 23.289507716023692 -27.80932235142708" fill="red" stroke="none" /><path d="M 86.51685102203217 116.09983520530335 l -23.857889739600306 28.48801075932002 a58.15865524813914,58.15865524813914 0 0,0 -0.7619739949817157,-0.6493707691962175 l 24.344729211159077 -28.07311559990085" fill="red" stroke="none" /><path d="M 86.24171649860922 115.8653595955263 l -20.353513781410044 23.470646984555017 a52.06665081922495,52.06665081922495 0 0,0 -0.6720506601473049,-0.5930065695895955 l 20.754506794463936 -23.11681727319313" fill="red" stroke="none" /><path d="M 85.97065885151581 115.62618273729859 l -26.028880823912772 28.991528817857105 a59.96166552063827,59.96166552063827 0 0,0 -0.7620855020083868,-0.6961470372118055 l 26.524065875388015 -28.539189014058724" fill="red" stroke="none" /><path d="M 85.44109423537348 115.13401014063109 l -37.67965261971191 39.16807032487894 a75.34973739142467,75.34973739142467 0 0,0 -0.92698134493076,-0.9072463497253872 l 38.34828391701846 -38.51367387223098" fill="red" stroke="none" /><path d="M 85.18274418774928 114.88116024355367 l -20.98037922503769 21.070864212263697 a50.73478822991763,50.73478822991763 0 0,0 -0.61355119556237,-0.6215241218106762 l 21.339971045655595 -20.706599596472355" fill="red" stroke="none" /><path d="M 84.67929136418377 114.36230785411682 l -32.952646466245 30.891263870763577 a66.1679874763363,66.1679874763363 0 0,0 -0.7718136289534379,-0.8376512591859229 l 33.479506503194166 -30.319461356776312" fill="red" stroke="none" /><path d="M 84.43433777217949 114.09645910891817 l -33.25757463743061 30.118477073235173 a65.86857399088208,65.86857399088208 0 0,0 -0.7538537545234354,-0.8469626847558693 l 33.77108724160239 -29.541540218738437" fill="red" stroke="none" /><path d="M 83.95833913139862 113.55231037782056 l -41.722061641899494 35.24761766285123 a75.61799134494973,75.61799134494973 0 0,0 -0.8314522229316589,-1.0015377643936576 l 42.32260986472469 -34.524218641343815" fill="red" stroke="none" /><path d="M 83.50135304334701 112.99209946851258 l -30.036770994060973 23.652892112489944 a59.23175273296729,59.23175273296729 0 0,0 -0.6238885670836861,-0.8064600739808493 l 30.439466378362727 -23.132354044395843" fill="red" stroke="none" /><path d="M 83.28015986056508 112.70617746262583 l -36.05084261181941 27.39669758101241 a66.27960127218023,66.27960127218023 0 0,0 -0.6824865249071944,-0.9143022304670999 l 36.51709040342169 -26.772082471036004" fill="red" stroke="none" /><path d="M 82.85270091963577 112.12312394758628 l -46.81822051133613 33.10043684455862 a78.33746324305523,78.33746324305523 0 0,0 -0.7689720765782422,-1.1077616289585226 l 47.38105349507651 -32.28963395341309" fill="red" stroke="none" /><path d="M 82.6465618267979 111.8261652097733 l -38.274069862761024 26.08333109149492 a67.31678512902269,67.31678512902269 0 0,0 -0.6443078459365089,-0.963152808838565 l 38.71738081410827 -25.420641368450532" fill="red" stroke="none" /><path d="M 82.24976979558568 111.22182372390057 l -53.25069061324296 33.6654711717017 a84.0,84.0 0 0,0 -0.7621414413281764,-1.2288146745389432 l 53.82229669423909 -32.743860165797486" fill="red" stroke="none" /><line stroke="#e1ed5e" stroke-width="0.3" x1="26.63291911575756" x2="22.317208475507996" y1="142.92168965132927" y2="145.44649492493687" /><path d="M 25.769776987707644 143.4266507060508 a86.0,86.0 0 0,1 -11.730757126820373,-40.83630448921669" fill="none" id="id9" stroke="none" /><text fill="#e1ed5e" style="font-size:6.75px; font-family:Arial;" text-anchor="middle"><textPath startOffset="21.46611528233685" xlink:href="#id9">September</textPath></text><path d="M 81.87401531095188 110.60418214915194 l -46.39431531739234 27.141905874392183 a74.75049346995793,74.75049346995793 0 0,0 -0.6401774779617474,-1.1162033935465252 l 46.85464479150646 -26.33928263498735" fill="red" stroke="none" /><path d="M 81.69416730710424 110.29060199501025 l -40.06439438146591 22.52215147310908 a66.960885589067,66.960885589067 0 0,0 -0.5561694328929175,-1.0096090710328096 l 40.446140223810346 -21.829171883678445" fill="red" stroke="none" /><path d="M 81.35079622478065 109.6543875284942 l -53.13037976695799 27.50472792237192 a80.82764672176972,80.82764672176972 0 0,0 -0.6289981688246337,-1.2410730601627584 l 53.59595660556889 -26.586100650506477" fill="red" stroke="none" /><line stroke="#e1ed5e" stroke-width="0.3" x1="15.007084014347285" x2="10.007500721073583" y1="101.09737516637583" y2="101.16192664675087" /><path d="M 14.007167355692545 101.11028546245083 a86.0,86.0 0 0,1 10.666146001902534,-42.60595125391555" fill="none" id="id10" stroke="none" /><text fill="#e1ed5e" style="font-size:6.75px; font-family:Arial;" text-anchor="middle"><textPath startOffset="22.20632615414155" xlink:href="#id10">October</textPath></text><line stroke="#e1ed5e" stroke-width="0.3" x1="26.266209847984243" x2="21.928928074336255" y1="57.711370442889674" y2="55.22380399835377" /><path d="M 25.398753493254645 57.213857153982495 a86.0,86.0 0 0,1 29.58750427330803,-30.492523968695096" fill="none" id="id11" stroke="none" /><text fill="#e1ed5e" style="font-size:6.75px; font-family:Arial;" text-anchor="middle"><textPath startOffset="21.46611528233685" xlink:href="#id11">November</textPath></text><line stroke="#e1ed5e" stroke-width="0.3" x1="56.762969772571076" x2="54.21961505331055" y1="26.818313649435495" y2="22.513508569990535" /><path d="M 56.25429882871897 25.957352633546506 a86.0,86.0 0 0,1 42.265352541879196,-11.944610805530505" fill="none" id="id12" stroke="none" /><text fill="#e1ed5e" style="font-size:6.75px; font-family:Arial;" text-anchor="middle"><textPath startOffset="22.20632615414155" xlink:href="#id12">December</textPath></text></svg>