<?xml version="1.0" encoding="utf-8" ?>
<svg baseProfile="full" height="200mm" version="1.1" viewBox="0,0,200,200" width="200mm" xmlns="http://www.w3.org/2000/svg" xmlns:ev="http://www.w3.org/2001/xml-events" xmlns:xlink="http://www.w3.org/1999/xlink"><defs /><rect fill="#1a1a1a" height="200" width="200" x="0" y="0" /><rect fill="#1a1a1a" height="200" width="180" x="10" y="0" /><text alignment-baseline="middle" fill="#e1ed5e" style="dominant-baseline: central; font-size:9.0px; font-family:Arial;" text-anchor="middle" x="100.0" y="100.0">2024</text><line stroke="#e1ed5e" stroke-width="0.3" x1="100.0" x2="100.0" y1="15.0" y2="10.0" /><path d="M 100.0 14.0 a86.0,86.0 0 0,1 42.35913384403234,11.155469271406648" fill="none" id="id37" stroke="none" /><text fill="#e1ed5e" style="font-size:6.75px; font-family:Arial;" text-anchor="middle"><textPath startOffset="22.145653131862478" xlink:href="#id37">January</textPath></text><line stroke="#e1ed5e" stroke-width="0.3" x1="143.13028292997686" x2="145.6673583964461" y1="26.7553504044142" y2="22.446841604673864" /><path d="M 143.63769802327073 25.89364864446614 a86.0,86.0 0 0,1 29.32050498858742,28.57503671076993" fill="none" id="id38" stroke="none" /><text fill="#e1ed5e" style="font-size:6.75px; font-family:Arial;" text-anchor="middle"><textPath startOffset="20.669276256404974" xlink:href="#id38">February</textPath></text><line stroke="#e1ed5e" stroke-width="0.3" x1="172.87174338648825" x2="177.1583165268699" y1="56.24261187166439" y2="53.66864786411523" /><path d="M 173.72905801456457 55.72781907015455 a86.0,86.0 0 0,1 12.242430191666344,42.057860355516425" fill="none" id="id39" stroke="none" /><text fill="#e1ed5e" style="font-size:6.75px; font-family:Arial;" text-anchor="middle"><textPath startOffset="22.145653131862474" xlink:href="#id39">March</textPath></text><line stroke="#e1ed5e" stroke-width="0.3" x1="184.99686870605535" x2="189.99668451229388" y1="99.2704041080226" y2="99.22748670261217" /><path d="M 185.99683186730306 99.26182062694052 a86.0,86.0 0 0,1 -10.086455211305974,41.156179273409016" fill="none" id="id40" stroke="none" /><text fill="#e1ed5e" style="font-size:6.75px; font-family:Arial;" text-anchor="middle"><textPath startOffset="21.40746469413373" xlink:href="#id40">April</textPath></text><path d="M 119.71291397450082 107.23885506374661 l 13.30220391843387 4.884753533572061 a35.170724969857474,35.170724969857474 0 0,0 -0.21298271638891206,0.5649619590904886 l -13.216390518230517 -5.112383772856708" fill="red" stroke="none" /><path d="M 118.8641267826498 109.22738970284198 l 48.646894499032655 23.795633826447364 a75.15489390260477,75.15489390260477 0 0,0 -0.5768320153230898,1.1540504350944563 l -48.231242570497834 -24.627216117705565" fill="red" stroke="none" /><line stroke="#e1ed5e" stroke-width="0.3" x1="174.33088141563837" x2="178.70328620479359" y1="141.23008692659167" y2="143.65538615756765" /><path d="M 175.20536237346943 141.71514677278685 a86.0,86.0 0 0,1 -30.301960400862466,31.631185727798858" fill="none" id="id41" stroke="none" /><text fill="#e1ed5e" style="font-size:6.75px; font-family:Arial;" text-anchor="middle"><textPath startOffset="22.145653131862474" xlink:href="#id41">May</textPath></text><path d="M 116.79662413953412 112.60449989151573 l 13.950243113170837 10.468522504633308 a38.441308619096915,38.441308619096915 0 0,0 -0.40060973234296643,0.5244109993821179 l -13.768481403473565 -10.706454417256301" fill="red" stroke="none" /><path d="M 112.45986205192187 116.90419585922612 l 9.197125279959655 12.477666801318826 a36.500944558961784,36.500944558961784 0 0,0 -0.5075699500239922,0.36744150113898105 l -8.981574319561695 -12.633709073830884" fill="red" stroke="none" /><line stroke="#e1ed5e" stroke-width="0.3" x1="143.1302829299769" x2="145.66735839644613" y1="173.24464959558577" y2="177.55315839532614" /><path d="M 143.63769802327073 174.10635135553383 a86.0,86.0 0 0,1 -40.68552437913181,11.842963189579606" fill="none" id="id42" stroke="none" /><text fill="#e1ed5e" style="font-size:6.75px; font-family:Arial;" text-anchor="middle"><textPath startOffset="21.407464694133747" xlink:href="#id42">June</textPath></text><path d="M 104.9986988182912 120.39639698878246 l 9.073149052984755 37.021544355884004 a59.11714548903636,59.11714548903636 0 0,0 -0.9877288340373527,0.23310131538663695 l -8.436288065207524 -37.17184181491687" fill="red" stroke="none" /><path d="M 104.64783097203109 120.47920084513623 l 13.943492916093243 61.4376025354087 a84.0,84.0 0 0,0 -1.4089503335234566,0.30707416746512495 l -12.88678016595065 -61.66790816100754" fill="red" stroke="none" /><line stroke="#e1ed5e" stroke-width="0.3" x1="101.45913802915013" x2="101.54496967792366" y1="184.9874750549273" y2="189.98673829345242" /><path d="M 101.47630435890484 185.9873277026323 a86.0,86.0 0 0,1 -42.54439059252881,-10.42667462771756" fill="none" id="id43" stroke="none" /><text fill="#e1ed5e" style="font-size:6.75px; font-family:Arial;" text-anchor="middle"><textPath startOffset="22.145653131862474" xlink:href="#id43">July</textPath></text><path d="M 93.27111125876986 119.89276391827306 l -12.992796246711826 38.41089343480692 a61.54885311286451,61.54885311286451 0 0,0 -0.9979537724847218,-0.34714012553777446 l 13.65025579124157 -38.18219487670056" fill="red" stroke="none" /><path d="M 91.59046798132341 119.24265499422711 l -5.93817569642467 13.587708087397983 a35.82861226379425,35.82861226379425 0 0,0 -0.5614626709665195,-0.25113511120646115 l 6.170551770246825 -13.483769225281668" fill="red" stroke="none" /><path d="M 90.93487009805054 118.94263497670748 l -18.53137863230074 38.723454031402206 a63.92921949134193,63.92921949134193 0 0,0 -0.9858486907117441,-0.4822279961350053 l 19.193387572274553 -38.39963228516998" fill="red" stroke="none" /><line stroke="#e1ed5e" stroke-width="0.3" x1="58.13341422392154" x2="55.67067388415222" y1="173.97424548756322" y2="178.32567169271397" /><path d="M 57.64086615596768 174.84453072859336 a86.0,86.0 0 0,1 -31.369924170532247,-30.572349798747897" fill="none" id="id44" stroke="none" /><text fill="#e1ed5e" style="font-size:6.75px; font-family:Arial;" text-anchor="middle"><textPath startOffset="22.145653131862474" xlink:href="#id44">August</textPath></text><path d="M 86.68645165197938 116.24036423190432 l -13.389507430608939 16.333021961888015 a42.119813342968925,42.119813342968925 0 0,0 -0.5552307320782938,-0.46319322416499586 l 13.667912496849125 -16.10076655381115" fill="red" stroke="none" /><line stroke="#e1ed5e" stroke-width="0.3" x1="26.387840678322732" x2="22.057713659400548" y1="142.50000000000003" y2="145.00000000000006" /><path d="M 25.521815274538298 143.00000000000003 a86.0,86.0 0 0,1 -11.493303480769221,-40.785679425670985" fill="none" id="id45" stroke="none" /><text fill="#e1ed5e" style="font-size:6.75px; font-family:Arial;" text-anchor="middle"><textPath startOffset="21.40746469413373" xlink:href="#id45">September</textPath></text><path d="M 79.2786578344484 103.40968896794605 l -14.712904725412324 2.421002873649725 a35.91076189781329,35.91076189781329 0 0,0 -0.0948702612508875,-0.6091351325641373 l 14.75229647880148 -2.1680795591541377" fill="red" stroke="none" /><path d="M 79.00696218219943 100.54070618675478 l -61.7915346461308 1.591530742821052 a82.81202734120058,82.81202734120058 0 0,0 -0.024404185507340893,-1.4214214595233763 l 61.80975026323681 -0.530562367328623" fill="red" stroke="none" /><line stroke="#e1ed5e" stroke-width="0.3" x1="15.003131293944662" x2="10.003315487706104" y1="100.72959589197737" y2="100.7725132973878" /><path d="M 14.003168132696942 100.73817937305945 a86.0,86.0 0 0,1 10.791469493833604,-42.45332614584628" fill="none" id="id46" stroke="none" /><text fill="#e1ed5e" style="font-size:6.75px; font-family:Arial;" text-anchor="middle"><textPath startOffset="22.145653131862435" xlink:href="#id46">October</textPath></text><path d="M 79.00077361379809 100.18025310272382 l -14.96747076412694 0.12847773511002836 a35.968022167387836,35.968022167387836 0 0,0 0.0,-0.6174616756676863 l 14.96747076412694 0.12847773511002286" fill="red" stroke="none" /><path d="M 79.00696218219943 99.45929381324524 l -32.93792225921338 -0.84836403854342 a53.94884587198584,53.94884587198584 0 0,0 0.031792088277356974,-0.9255919619843491 l 32.91850548393918 1.4136622650919077" fill="red" stroke="none" /><path d="M 79.34024301695615 96.23510406497455 l -21.92778889425156 -3.9959735896128974 a43.28891497403465,43.28891497403465 0 0,0 0.13950101806548956,-0.7299282740379338 l 21.855961583903913 4.371804428684146" fill="red" stroke="none" /><line stroke="#e1ed5e" stroke-width="0.3" x1="26.387840678322718" x2="22.05771365940052" y1="57.49999999999999" y2="54.99999999999999" /><path d="M 25.521815274538284 56.99999999999999 a86.0,86.0 0 0,1 29.574782752854787,-30.34633250058573" fill="none" id="id47" stroke="none" /><text fill="#e1ed5e" style="font-size:6.75px; font-family:Arial;" text-anchor="middle"><textPath startOffset="21.40746469413373" xlink:href="#id47">November</textPath></text><path d="M 81.99639281039701 89.18935116829357 l -12.962794479019669 -7.78378563331423 a36.120230140136485,36.120230140136485 0 0,0 0.32376116398178834,-0.5288395297681697 l 12.827265350582488 8.005162279206942" fill="red" stroke="none" /><line stroke="#e1ed5e" stroke-width="0.3" x1="56.869717070023135" x2="54.33264160355391" y1="26.7553504044142" y2="22.446841604673864" /><path d="M 56.362301976729285 25.89364864446614 a86.0,86.0 0 0,1 42.16139366436587,-11.88097634709845" fill="none" id="id48" stroke="none" /><text fill="#e1ed5e" style="font-size:6.75px; font-family:Arial;" text-anchor="middle"><textPath startOffset="22.145653131862474" xlink:href="#id48">December</textPath></text><path d="M 90.28995756902619 81.37971332152246 l -6.424787868760364 -12.320377878382235 a34.894949090396146,34.894949090396146 0 0,0 0.5335151548865045,-0.2724166395310345 l 6.212345492160278 12.428852469586102" fill="red" stroke="none" /><path d="M 90.61103034731259 81.2157712731953 l -14.012853454523711 -28.035093747440886 a52.34208900768671,52.34208900768671 0 0,0 0.8071642408263188,-0.39482447770407053 l 13.529528964435338 28.27151197524217" fill="red" stroke="none" /><path d="M 90.93487009805054 81.0573650232925 l -5.924428284368723 -12.37977653385246 a34.724347617455344,34.724347617455344 0 0,0 0.5398995905022703,-0.2527002694835222 l 5.711039979994931 12.479653034906526" fill="red" stroke="none" /><path d="M 93.61358852112211 79.99465700312896 l -7.580034837222688 -23.744351166285185 a45.92491003878205,45.92491003878205 0 0,0 0.7530796645896642,-0.23330600512429853 l 7.171314539761408 23.870973759216128" fill="red" stroke="none" /></svg>