<?xml version="1.0" encoding="utf-8" ?>
<svg baseProfile="full" height="200mm" version="1.1" viewBox="0,0,200,200" width="200mm" xmlns="http://www.w3.org/2000/svg" xmlns:ev="http://www.w3.org/2001/xml-events" xmlns:xlink="http://www.w3.org/1999/xlink"><defs /><rect fill="#1a1a1a" height="200" width="200" x="0" y="0" /><text alignment-baseline="middle" fill="#e1ed5e" style="dominant-baseline: central; font-size:9.0px; font-family:Arial;" text-anchor="middle" x="100.0" y="100.0">2025</text><line stroke="#e1ed5e" stroke-width="0.3" x1="100.0" x2="100.0" y1="15.0" y2="10.0" /><path d="M 100.0 14.0 a86.0,86.0 0 0,1 42.46469731375804,11.215312516191453" fill="none" id="id1" stroke="none" /><text fill="#e1ed5e" style="font-size:6.75px; font-family:Arial;" text-anchor="middle"><textPath startOffset="22.20632615414155" xlink:href="#id1">January</textPath></text><path d="M 103.59715602781102 79.31037775812273 l 3.3847365845775106 -19.467857602436318 a40.759906917182455,40.759906917182455 0 0,0 0.6902105601496048,0.1261315681524669 l -3.7193422658300164 19.406710552933113" fill="red" stroke="none" /><path d="M 104.307194497241 79.44645832069477 l 2.581108105777447 -12.316813894722273 a33.58435630340041,33.58435630340041 0 0,0 0.5647885611031516,0.12344090389339896 l -2.7927393910341265 12.270559492733003" fill="red" stroke="none" /><path d="M 105.01212808612495 79.60689891045804 l 7.088361780515297 -28.8407789795838 a50.69908087602498,50.69908087602498 0 0,0 0.8456874944147897,0.21558457234387055 l -7.583758163615111 28.71449141107106" fill="red" stroke="none" /><path d="M 105.71112130821622 79.79150937346287 l 2.6896181888106154 -9.517066968854047 a30.889823541966443,30.889823541966443 0 0,0 0.5104319496123586,0.14900908305750352 l -2.853040356146401 9.46935955687784" fill="red" stroke="none" /><path d="M 106.0581310904928 79.89281104454417 l 8.912191930876482 -29.579935541943758 a51.893360964426115,51.893360964426115 0 0,0 0.853064155434406,0.2650511855970008 l -9.420041459021606 29.422144221464237" fill="red" stroke="none" /><path d="M 107.76421540070413 80.48803036053334 l 11.50961485046968 -28.924397886224575 a52.1302429654313,52.1302429654313 0 0,0 0.8308968191812547,0.33894367512069945 l -12.005795539239323 28.721993324920298" fill="red" stroke="none" /><path d="M 108.76106565485865 80.91482961587045 l 15.033852826715997 -32.74985647079159 a57.035674402913656,57.035674402913656 0 0,0 0.8887293046597686,0.4172703250967038 l -15.595360342675363 32.486221163054886" fill="red" stroke="none" /><path d="M 109.41281617654863 81.2277094730956 l 16.103581946073596 -32.11590592501618 a56.92710348578628,56.92710348578628 0 0,0 0.8721761199286349,0.44676248413173264 l -16.654018553590987 31.833950915571947" fill="red" stroke="none" /><path d="M 110.05341064243156 81.56283822128135 l 24.447889449868363 -44.835500007630436 a72.06781138336764,72.06781138336764 0 0,0 1.0840231223479053,0.6032576939396772 l -25.216036661288303 44.408026916130574" fill="red" stroke="none" /><path d="M 110.36928655335952 81.73862282372117 l 17.262311916173786 -30.40070184324208 a55.95983531501511,55.95983531501511 0 0,0 0.8335437779637543,0.4828423577246775 l -17.783052426602868 30.099055328127353" fill="red" stroke="none" /><line stroke="#e1ed5e" stroke-width="0.3" x1="143.23703022742887" x2="145.7803849466894" y1="26.81831364943548" y2="22.513508569990506" /><path d="M 143.74570117128098 25.957352633546492 a86.0,86.0 0 0,1 28.547481713284135,27.462654790039103" fill="none" id="id2" stroke="none" /><text fill="#e1ed5e" style="font-size:6.75px; font-family:Arial;" text-anchor="middle"><textPath startOffset="19.985693538727396" xlink:href="#id2">February</textPath></text><path d="M 110.99172775467656 82.1063720568725 l 16.26305809508085 -26.474919800213673 a52.07102246518001,52.07102246518001 0 0,0 0.7596935237964177,0.475720014906899 l -16.716370771249533 26.19105544398383" fill="red" stroke="none" /><path d="M 111.60114157652 82.49532879139004 l 12.93897851069693 -19.523299764173768 a44.421707849387595,44.421707849387595 0 0,0 0.6337397684819331,0.4279039206323701 l -13.273122973585405 19.297683931242727" fill="red" stroke="none" /><path d="M 112.19680574252982 82.90503203632743 l 14.520541863413316 -20.351902228355932 a46.00092118942216,46.00092118942216 0 0,0 0.6406278501850836,0.46544337778410744 l -14.868715029952188 20.09893961575515" fill="red" stroke="none" /><path d="M 113.06298171725822 83.55741782278167 l 19.69600769142197 -24.79167712540466 a52.66322746769296,52.66322746769296 0 0,0 0.7049263934187443,0.5700014524666105 l -20.119837483405206 24.44896957567392" fill="red" stroke="none" /><path d="M 114.94478906791727 85.2469230424477 l 18.445313375866473 -18.20869645624585 a46.91883894331725,46.91883894331725 0 0,0 0.562435641313867,0.5796393678625779 l -18.756013280883447 17.888492892833156" fill="red" stroke="none" /><path d="M 115.4437574822437 85.77008943001954 l 23.081389314801925 -21.267240576534675 a52.385443352638106,52.385443352638106 0 0,0 0.605317188984098,0.6684063587613481 l -23.444050144402055 20.866781430503778" fill="red" stroke="none" /><path d="M 115.9244219780498 86.31012108654704 l 23.598759518481874 -20.28733983318348 a52.12037288205609,52.12037288205609 0 0,0 0.5790061816417884,0.6853606911130284 l -23.944476313610778 19.878120192441347" fill="red" stroke="none" /><path d="M 116.15771136456269 86.58626213691792 l 31.569041559048525 -26.20784828416704 a62.02993659077296,62.02993659077296 0 0,0 0.6749492403522078,0.8274079617752961 l -32.01548929147714 25.66055615278364" fill="red" stroke="none" /><path d="M 117.2510076193507 88.02491185347247 l 33.826751523882976 -23.481430195115156 a62.1779878414012,62.1779878414012 0 0,0 0.6027579570693452,0.8844729255739048 l -34.225933946621055 22.895679246270845" fill="red" stroke="none" /><path d="M 117.45458315368197 88.32363383020206 l 17.67082016323628 -11.821019438271188 a42.26015959021529,42.26015959021529 0 0,0 0.3992646596671319,0.608107468646844 l -17.871681458261335 11.51509390564667" fill="red" stroke="none" /><line stroke="#e1ed5e" stroke-width="0.3" x1="172.23445277983987" x2="176.4835382374775" y1="55.19839476539836" y2="52.563006222186495" /><path d="M 173.08426987136738 54.67131705675599 a86.0,86.0 0 0,1 12.851231095245387,41.99856678651699" fill="none" id="id3" stroke="none" /><text fill="#e1ed5e" style="font-size:6.75px; font-family:Arial;" text-anchor="middle"><textPath startOffset="22.20632615414155" xlink:href="#id3">March</textPath></text><path d="M 118.56541770881063 90.18545643968196 l 27.643397862835208 -14.61358622441573 a52.26842413268432,52.26842413268432 0 0,0 0.41364376354467913,0.7990280910027308 l -27.890851059540005 14.135585411152654" fill="red" stroke="none" /><path d="M 119.04729006885535 91.15688171328212 l 23.65198176467297 -10.980946460320627 a47.0767602773207,47.0767602773207 0 0,0 0.33491232906207885,0.7379349227767716 l -23.837496410698396 10.572189528701792" fill="red" stroke="none" /><path d="M 119.61058180528143 92.48833698450437 l 33.835795349329366 -12.960507497895174 a57.23307607041798,57.23307607041798 0 0,0 0.34447610482086977,0.9230246981757474 l -34.053876042651865 12.376159662690092" fill="red" stroke="none" /><path d="M 119.85752413597 93.16781622104841 l 29.436645287841056 -10.127978143963873 a52.1302429654313,52.1302429654313 0 0,0 0.28463784451197616,0.8510309257021277 l -29.606620426124802 9.619774115339432" fill="red" stroke="none" /><path d="M 120.28053869075195 94.5502522615342 l 30.406868513939564 -8.17087580584009 a52.48556596693908,52.48556596693908 0 0,0 0.2269467577933939,0.8745184351868376 l -30.54301160360326 7.6462609451044035" fill="red" stroke="none" /><path d="M 120.6074358757038 95.95851677861258 l 30.683906916600062 -6.017657690069975 a52.26842413268432,52.26842413268432 0 0,0 0.1655522092170447,0.8843865214679797 l -30.782944849726967 5.488593091139433" fill="red" stroke="none" /><path d="M 120.78858239683441 97.02765380044208 l 30.99271198416719 -4.431330040770845 a52.30790446618519,52.30790446618519 0 0,0 0.11977015845879349,0.8924267969175228 l -31.06439814168382 3.897184901788658" fill="red" stroke="none" /><path d="M 120.87857604477298 97.74499172005257 l 31.91192033834053 -3.4466739703734 a53.09751113620247,53.09751113620247 0 0,0 0.09032360556690591,0.9095463816374185 l -31.966521069589664 2.896852058031546" fill="red" stroke="none" /><path d="M 120.94382443527127 98.46500227214037 l 10.601644045793279 -0.7770070634503252 a31.630079795107644,31.630079795107644 0 0,0 0.035123560347861356,0.5433459325256331 l -10.613448197145555 0.5944020666716568" fill="red" stroke="none" /><path d="M 120.96714384426684 98.82574320788733 l 31.249066140342208 -1.7500918787519257 a52.29803438280997,52.29803438280997 0 0,0 0.0426014602271628,0.8992494933848173 l -31.274561208802865 1.2119312787441088" fill="red" stroke="none" /><line stroke="#e1ed5e" stroke-width="0.3" x1="184.98032266829074" x2="189.97916517819016" y1="98.17113171792111" y2="98.06355123074" /><path d="M 185.9800911702706 98.14961562048488 a86.0,86.0 0 0,1 -9.607161424134198,41.387399972396054" fill="none" id="id4" stroke="none" /><text fill="#e1ed5e" style="font-size:6.75px; font-family:Arial;" text-anchor="middle"><textPath startOffset="21.466115282336823" xlink:href="#id4">April</textPath></text><path d="M 120.99513854157772 99.54816195383933 l 31.478277120755717 -0.6774465051792645 a52.48556596693908,52.48556596693908 0 0,0 0.011664274418589313,0.9034109082011537 l -31.48527440229202 0.13549933891764815" fill="red" stroke="none" /><path d="M 120.99824983174949 100.27111621757518 l 34.710190195580076 0.4481561821839178 a55.71308323063471,55.71308323063471 0 0,0 -0.020634898523468528,0.9588226511087787 l -34.6973332343716 -1.0455686490828113" fill="red" stroke="none" /><path d="M 120.9764740272857 100.99374915477107 l 51.66129663109442 2.447426092428478 a72.71923688613191,72.71923688613191 0 0,0 -0.06999624467347175,1.2498299694623507 l -51.611514035533425 -3.3363277782262517" fill="red" stroke="none" /><path d="M 120.95626037817324 101.35467743843564 l 25.158939442468245 1.62635160198612 a46.21145083891578,46.21145083891578 0 0,0 -0.05814597906085403,0.7933556870899048 l -25.127216904743054 -2.0591804255727952" fill="red" stroke="none" /><path d="M 120.89721153311464 102.0752229133903 l 31.164483786121814 3.0948268257923495 a52.317774549560404,52.317774549560404 0 0,0 -0.09670740945717986,0.8953905049482981 l -31.10659407516358 -3.630813652625439" fill="red" stroke="none" /><path d="M 120.81339534386255 102.79330883721812 l 33.98398272128094 4.56089733034423 a55.28866964550043,55.28866964550043 0 0,0 -0.13470939287817413,0.942157180039125 l -33.90043927738616 -5.145199982363764" fill="red" stroke="none" /><path d="M 120.64145759157962 103.86396538481128 l 51.59293341106251 9.657908503638916 a73.48910338939875,73.48910338939875 0 0,0 -0.24345913563613428,1.2413928874987508 l -51.41904434245071 -10.544565118205613" fill="red" stroke="none" /><path d="M 120.49622156327973 104.57218783832717 l 33.7840024229807 7.536355153630114 a55.614382396882554,55.614382396882554 0 0,0 -0.2164708639639526,0.9325508163878377 l -33.64927099308619 -8.116774627366517" fill="red" stroke="none" /><path d="M 120.32669344350535 105.2749913415812 l 33.22751338599208 8.622890186272993 a55.32814997900129,55.32814997900129 0 0,0 -0.24716381818956043,0.9197885146805929 l -33.07416149146074 -9.193569634129135" fill="red" stroke="none" /><path d="M 120.13307415673323 105.97154293290107 l 25.12326880940455 7.45165279491111 a47.205071361198506,47.205071361198506 0 0,0 -0.23776346437868048,0.7770247584915082 l -24.99127857251974 -7.883004525954676" fill="red" stroke="none" /><path d="M 119.67450827220406 107.3425965602758 l 38.44942932858018 14.34946396761828 a62.039806674148174,62.039806674148174 0 0,0 -0.38200485218477603,0.9972941262581075 l -38.196730196801894 -15.009181660709531" fill="red" stroke="none" /><path d="M 119.41010516605496 108.01547362559984 l 28.97409693536662 11.964958861591082 a52.347384799686054,52.347384799686054 0 0,0 -0.35109894219925825,0.8298941864081592 l -28.763847011975052 -12.461927573665404" fill="red" stroke="none" /><line stroke="#e1ed5e" stroke-width="0.3" x1="174.80103733775053" x2="179.2010983576182" y1="140.37084112569926" y2="142.7455964860345" /><path d="M 175.68104954172406 140.8457921977663 a86.0,86.0 0 0,1 -30.038265399797805,32.042727171017184" fill="none" id="id5" stroke="none" /><text fill="#e1ed5e" style="font-size:6.75px; font-family:Arial;" text-anchor="middle"><textPath startOffset="22.206326154141568" xlink:href="#id5">May</textPath></text><path d="M 116.498646956653 112.99209946851258 l 24.59705060667663 19.369305189303194 a52.30790446618519,52.30790446618519 0 0,0 -0.5631371551309704,0.7026001873218464 l -24.259995539490806 -19.78983321020329" fill="red" stroke="none" /><path d="M 116.0416608686014 113.55231037782055 l 23.862974201969696 20.15990959863832 a52.238813882558674,52.238813882558674 0 0,0 -0.5862127515506163,0.6818978665641917 l -23.5124189408483 -20.567684564364036" fill="red" stroke="none" /><path d="M 115.80600337817218 113.82643327865902 l 23.564421131238806 20.61317391411145 a52.30790446618519,52.30790446618519 0 0,0 -0.5986543777089415,0.6725945396474807 l -23.206107903881527 -21.015742623499797" fill="red" stroke="none" /><path d="M 115.56566222782051 114.09645910891815 l 23.35974228786056 21.154875850200135 a52.51517621706472,52.51517621706472 0 0,0 -0.6125610023384589,0.6648139857711163 l -22.99213487752638 -21.553841090772586" fill="red" stroke="none" /><path d="M 115.32070863581623 114.36230785411682 l 22.754508679293252 21.33107981423156 a52.18946346568259,52.18946346568259 0 0,0 -0.6200442486540328,0.6501139158095147 l -22.383957879260254 -21.719600846623585" fill="red" stroke="none" /><path d="M 115.07121518719521 114.62390073753431 l 22.4760437819281 21.80895363491666 a52.317774549560404,52.317774549560404 0 0,0 -0.6326947296710366,0.6409164207928982 l -22.09730842720153 -22.192610549690222" fill="red" stroke="none" /><path d="M 114.81725581225074 114.88116024355365 l 21.964989215062598 22.05972066615914 a52.1302429654313,52.1302429654313 0 0,0 -0.6413262263228854,0.6276726937347914 l -21.582013036363918 -22.434543462816507" fill="red" stroke="none" /><path d="M 114.55890576462653 115.13401014063108 l 21.61622675392315 22.470108687075886 a52.17959338230738,52.17959338230738 0 0,0 -0.6526528265519382,0.6171239840403279 l -21.226238092980406 -22.838867307862134" fill="red" stroke="none" /><path d="M 113.75828350139079 115.86535959552629 l 20.401643028135176 23.526147207840747 a52.14011304880651,52.14011304880651 0 0,0 -0.6831211978524886,0.5821707048077807 l -19.993656353705642 -23.873842302871473" fill="red" stroke="none" /><path d="M 113.48314897796784 116.09983520530334 l 23.181234529906575 27.680036495690608 a57.10476498654017,57.10476498654017 0 0,0 -0.7590307481037419,0.6246306311391414 l -22.70133365325814 -28.074962245686926" fill="red" stroke="none" /><path d="M 112.92097659922987 116.55440617244103 l 12.390612188440251 15.874901197860227 a41.138017738748474,41.138017738748474 0 0,0 -0.5619674026653326,0.4308926408443992 l -12.115516057281424 -16.085833180532" fill="red" stroke="none" /><path d="M 112.34349029814194 116.9893568818739 l 18.518354314342293 25.48832807514008 a52.50530613368951,52.50530613368951 0 0,0 -0.735756035146341,0.5249423955425725 l -18.07687095134707 -25.80331473252687" fill="red" stroke="none" /><path d="M 111.7513745106137 117.40417183066458 l 17.40910331432356 25.78345411650539 a52.11050279868087,52.11050279868087 0 0,0 -0.7477244264106884,0.49555097765823614 l -16.962704189172907 -26.079303115254945" fill="red" stroke="none" /><path d="M 111.1453310114006 117.79835938074945 l 12.509179382316573 19.976335379989127 a44.56975910001584,44.56975910001584 0 0,0 -0.6537339455624354,0.401576783447802 l -12.163466236821828 -20.188700630265306" fill="red" stroke="none" /><line stroke="#e1ed5e" stroke-width="0.3" x1="143.8653032363475" x2="146.44561519142675" y1="172.8068346515853" y2="177.08958963109032" /><path d="M 144.38136562736335 173.6633856474863 a86.0,86.0 0 0,1 -40.68145358897372,12.25698825130547" fill="none" id="id6" stroke="none" /><text fill="#e1ed5e" style="font-size:6.75px; font-family:Arial;" text-anchor="middle"><textPath startOffset="21.466115282336833" xlink:href="#id6">June</textPath></text><path d="M 110.5260780823613 118.17145234162733 l 13.224128863380482 22.829170135373957 a47.3827328619524,47.3827328619524 0 0,0 -0.7092771667522932,0.40274608627892033 l -12.82920292970699 -23.053419387447505" fill="red" stroke="none" /><path d="M 109.57404056367764 118.69057910512821 l 15.68193221072268 30.614492653996177 a55.3972405626278,55.3972405626278 0 0,0 -0.8524477053795833,0.4274349760013986 l -15.152630597660336 -30.879895470906877" fill="red" stroke="none" /><path d="M 108.92500713936063 119.00905698771935 l 13.234558632433103 28.1878182642279 a52.14011304880651,52.14011304880651 0 0,0 -0.8156998019446537,0.3744477715239556 l -12.747390834721031 -28.41145310608593" fill="red" stroke="none" /><path d="M 106.91757812671514 119.82793768551818 l 11.883461967737386 34.06171048138349 a57.07515473641452,57.07515473641452 0 0,0 -0.9304072839793275,0.31564466635307753 l -11.29538495082083 -34.26121813463469" fill="red" stroke="none" /><path d="M 106.2309692047433 120.05430185196036 l 10.71274660836315 34.4788502540079 a57.10476498654017,57.10476498654017 0 0,0 -0.9412089638357128,0.28357853994883936 l -10.11766267008719 -34.65814416306247" fill="red" stroke="none" /><path d="M 105.18746579009965 120.34920634021253 l 7.758128122694642 30.433309128287497 a52.40660529993735,52.40660529993735 0 0,0 -0.876055554681049,0.21531314101485158 l -7.233119283270383 -30.562343527616378" fill="red" stroke="none" /><path d="M 103.7750983002368 120.6578951692458 l 6.179925871946044 33.81746663613052 a55.37750039587737,55.37750039587737 0 0,0 -0.9391787487285089,0.16328826392696522 l -5.596898151745486 -33.918833478578485" fill="red" stroke="none" /><path d="M 101.98527174616119 120.90594882070398 l 3.2508702398684552 34.23336225323054 a55.38737047925258,55.38737047925258 0 0,0 -0.9499083906408193,0.08196209295054566 l -2.661117531486094 -34.28424859845975" fill="red" stroke="none" /><path d="M 101.26447882468166 120.96189622390904 l 2.4747071227163984 41.02445440635138 a62.099027174399474,62.099027174399474 0 0,0 -1.0675471309463702,0.05517999271207476 l -1.7681719233565487 -41.06097420582566" fill="red" stroke="none" /><path d="M 100.90346689309514 120.98055641714683 l 1.3545793553091716 31.45641395691255 a52.48556596693908,52.48556596693908 0 0,0 -0.9029508006996471,0.031099451287960704 l -0.8129082029348722 -31.4750702066266" fill="red" stroke="none" /><line stroke="#e1ed5e" stroke-width="0.3" x1="102.19456741930631" x2="102.32365962044197" y1="184.97166512339345" y2="189.96999836594603" /><path d="M 102.22038585953345 185.97133177190398 a86.0,86.0 0 0,1 -42.740103519485714,-10.115201625700543" fill="none" id="id7" stroke="none" /><text fill="#e1ed5e" style="font-size:6.75px; font-family:Arial;" text-anchor="middle"><textPath startOffset="22.20632615414155" xlink:href="#id7">July</textPath></text><path d="M 99.45781275523022 120.99299961872073 l -0.8073019394663342 31.25800075692573 a52.26842413268432,52.26842413268432 0 0,0 -0.8992151375798473,-0.030970787496829293 l 1.3452374287208244 -31.239473171002803" fill="red" stroke="none" /><path d="M 98.73552117531835 120.96189622390904 l -1.8762368843457204 31.103314736035376 a52.15985321555695,52.15985321555695 0 0,0 -0.8957516886587955,-0.06177628091706991 l 2.411351333783446 -31.06641011060202" fill="red" stroke="none" /><path d="M 97.65516085044442 120.86867818915974 l -3.4792782721068267 30.96499757985297 a52.15985321555695,52.15985321555695 0 0,0 -0.8913686160346761,-0.10793232586883111 l 4.011774311192892 -30.90051972525879" fill="red" stroke="none" /><path d="M 97.2962882734958 120.8252237178851 l -3.3789381987525817 26.026126686557845 a47.244551694699375,47.244551694699375 0 0,0 -0.8055677706698854,-0.11164435266459742 l 3.826434560609298 -25.96410776840064" fill="red" stroke="none" /><path d="M 96.22490169976321 120.6578951692458 l -5.617469224973041 30.739620835483553 a52.24868396593389,52.24868396593389 0 0,0 -0.8833321382816732,-0.16929270664988635 l 6.145768977826409 -30.638370930485202" fill="red" stroke="none" /><path d="M 94.81253420990036 120.34920634021253 l -7.74593747511025 30.385488089430993 a52.35725488306127,52.35725488306127 0 0,0 -0.8713981414183208,-0.23014416916304037 l 8.267826059340061 -30.24765257096437" fill="red" stroke="none" /><path d="M 94.46302465271185 120.25689768951611 l -6.136460134694323 22.45009907533333 a44.27365659875936,44.27365659875936 0 0,0 -0.7334012002260891,-0.2072665049304747 l 6.521992503025026 -22.341143777064335" fill="red" stroke="none" /><path d="M 93.42475214034765 119.94407469862007 l -9.642024910139787 29.24623818879898 a51.794660130673954,51.794660130673954 0 0,0 -0.8443276111885352,-0.28644176772396884 l 10.144022254265547 -29.075933434176886" fill="red" stroke="none" /><path d="M 92.7421414339146 119.70592522655815 l -6.839500794830533 18.570035503269636 a40.789517167308105,40.789517167308105 0 0,0 -0.656769068336978,-0.24833386414980319 l 7.158140083927794 -18.4495533890132" fill="red" stroke="none" /><path d="M 92.40401165467489 119.57807347666478 l -8.37912956457782 21.596559503248866 a44.16508568163198,44.16508568163198 0 0,0 -0.7063867359650328,-0.28108586040126476 l 8.749637376584712 -21.449126798441533" fill="red" stroke="none" /><path d="M 92.06813273071674 119.44442032107085 l -14.154511534571274 34.69879945967874 a58.47474990877608,58.47474990877608 0 0,0 -0.9287141901583328,-0.3882026068071355 l 14.74969718422707 -34.45001180985163" fill="red" stroke="none" /><path d="M 91.7346041902142 119.30500536409082 l -15.913938507021955 37.16926270828307 a61.43275317218256,61.43275317218256 0 0,0 -0.9685292606744562,-0.4245747654283987 l 16.551388442354153 -36.88982338956022" fill="red" stroke="none" /><path d="M 91.40352486487194 119.15986991738527 l -20.67057100172198 46.07067958501923 a71.49534654760512,71.49534654760512 0 0,0 -1.11850045212322,-0.5134486985869025 l 21.460539449612618 -45.70804381609825" fill="red" stroke="none" /><path d="M 91.07499286063937 119.00905698771935 l -23.10322324589529 49.20673792454659 a75.36048179996833,75.36048179996833 0 0,0 -1.169477445333714,-0.561420242787505 l 23.946813359229246 -48.80176340525952" fill="red" stroke="none" /><path d="M 90.7491055286396 118.85261126421891 l -19.715153467435858 40.17796608605438 a65.75439905815611,65.75439905815611 0 0,0 -1.0118227194434057,-0.5073489166240185 l 20.403830094562025 -39.832649328521065" fill="red" stroke="none" /><path d="M 90.42595943632237 118.69057910512821 l -14.368024826772873 28.049463841637294 a52.515275014286004,52.515275014286004 0 0,0 -0.8010057306380393,-0.419048340401043 l 14.848721459937407 -27.797986082291537" fill="red" stroke="none" /><path d="M 90.10565033884886 118.52300852407294 l -15.083589675236484 28.237678038105482 a53.013764828189224,53.013764828189224 0 0,0 -0.8012076006394219,-0.4368822661394037 l 15.567420087744546 -27.973855120206313" fill="red" stroke="none" /><line stroke="#e1ed5e" stroke-width="0.3" x1="58.666819895761336" x2="56.23545636021788" y1="174.27360380694188" y2="178.64263932499728" /><path d="M 58.180547188652646 175.14741091055294 a86.0,86.0 0 0,1 -31.652253787137756,-30.449443065178592" fill="none" id="id8" stroke="none" /><text fill="#e1ed5e" style="font-size:6.75px; font-family:Arial;" text-anchor="middle"><textPath startOffset="22.20632615414155" xlink:href="#id8">August</textPath></text><path d="M 89.7882731507175 118.34994917583269 l -27.398597391462054 49.233873667288364 a77.34409867329445,77.34409867329445 0 0,0 -1.157772037586568,-0.6574131789357418 l 28.24201819596983 -48.754957322557985" fill="red" stroke="none" /><path d="M 89.1626897886671 117.98757091392108 l -32.511930633998716 53.962712741763234 a84.0,84.0 0 0,0 -1.2320832002707651,-0.7568461326864875 l 33.435993034201786 -53.395078142248366" fill="red" stroke="none" /><path d="M 88.8546689885994 117.79835938074946 l -22.154362615828816 35.37905758784728 a62.743185057178465,62.743185057178465 0 0,0 -0.910428108783801,-0.5810782944409099 l 22.76007252665954 -34.992464864582566" fill="red" stroke="none" /><path d="M 88.54995079064634 117.60387380957326 l -16.950171283225565 26.060034403764682 a52.08751678175797,52.08751678175797 0 0,0 -0.7473946041024055,-0.4953323894169632 l 17.396240586067933 -25.7644039932564" fill="red" stroke="none" /><path d="M 87.95078237400918 117.19931262002967 l -31.54030466470236 45.02130983915964 a75.97007511342747,75.97007511342747 0 0,0 -1.0645674765309083,-0.7595406284852272 l 32.310599469082156 -44.47172494883019" fill="red" stroke="none" /><path d="M 87.65650970185807 116.9893568818739 l -29.72415213609578 40.911785601456856 a71.56974808429779,71.56974808429779 0 0,0 -0.9904402122216239,-0.732703990920246 l 30.423977318735968 -40.39407166179684" fill="red" stroke="none" /><path d="M 87.36589467227662 116.77436683061367 l -12.319650955720832 16.356864138445488 a41.477324144388525,41.477324144388525 0 0,0 -0.5666025102851685,-0.43444664371615954 l 12.599382194499487 -16.142378152901962" fill="red" stroke="none" /><path d="M 86.79598089348748 116.32954008644616 l -25.571320951227687 31.62430371904711 a61.669264081185844,61.669264081185844 0 0,0 -0.8197016074154784,-0.6745586179016156 l 26.111892687187854 -31.179449982288315" fill="red" stroke="none" /><path d="M 86.51685102203217 116.09983520530335 l -26.74915520840241 31.940386584771577 a62.66180024372276,62.66180024372276 0 0,0 -0.8209725974704924,-0.6996506581845 l 27.294993282449962 -31.475211536364124" fill="red" stroke="none" /><path d="M 86.24171649860922 115.8653595955263 l -22.82009453131188 26.314983675584802 a55.8315242311373,55.8315242311373 0 0,0 -0.7206457900824244,-0.6358861216984641 l 23.269682674300892 -25.918274412114048" fill="red" stroke="none" /><path d="M 85.97065885151581 115.62618273729859 l -29.183242133279986 32.504924473287595 a64.68331187563254,64.68331187563254 0 0,0 -0.8220954800753465,-0.750964729353126 l 29.738437162822187 -31.99776697734789" fill="red" stroke="none" /><path d="M 85.44109423537348 115.13401014063109 l -42.245935710332695 43.914730253563484 a81.93621761551013,81.93621761551013 0 0,0 -1.00801074871973,-0.9865506757616986 l 42.99559641142822 -43.18102947487922" fill="red" stroke="none" /><path d="M 85.18274418774928 114.88116024355367 l -23.52292790129546 23.624378490335666 a54.33825724455583,54.33825724455583 0 0,0 -0.6571290402570971,-0.6656682484136192 l 23.926097566608092 -23.215969747941383" fill="red" stroke="none" /><line stroke="#e1ed5e" stroke-width="0.3" x1="26.63291911575756" x2="22.317208475507996" y1="142.92168965132927" y2="145.44649492493687" /><path d="M 25.769776987707644 143.4266507060508 a86.0,86.0 0 0,1 -11.730757126820373,-40.83630448921669" fill="none" id="id9" stroke="none" /><text fill="#e1ed5e" style="font-size:6.75px; font-family:Arial;" text-anchor="middle"><textPath startOffset="21.46611528233685" xlink:href="#id9">September</textPath></text><line stroke="#e1ed5e" stroke-width="0.3" x1="15.007084014347285" x2="10.007500721073583" y1="101.09737516637583" y2="101.16192664675087" /><path d="M 14.007167355692545 101.11028546245083 a86.0,86.0 0 0,1 10.666146001902534,-42.60595125391555" fill="none" id="id10" stroke="none" /><text fill="#e1ed5e" style="font-size:6.75px; font-family:Arial;" text-anchor="middle"><textPath startOffset="22.20632615414155" xlink:href="#id10">October</textPath></text><line stroke="#e1ed5e" stroke-width="0.3" x1="26.266209847984243" x2="21.928928074336255" y1="57.711370442889674" y2="55.22380399835377" /><path d="M 25.398753493254645 57.213857153982495 a86.0,86.0 0 0,1 29.58750427330803,-30.492523968695096" fill="none" id="id11" stroke="none" /><text fill="#e1ed5e" style="font-size:6.75px; font-family:Arial;" text-anchor="middle"><textPath startOffset="21.46611528233685" xlink:href="#id11">November</textPath></text><line stroke="#e1ed5e" stroke-width="0.3" x1="56.762969772571076" x2="54.21961505331055" y1="26.818313649435495" y2="22.513508569990535" /><path d="M 56.25429882871897 25.957352633546506 a86.0,86.0 0 0,1 42.265352541879196,-11.944610805530505" fill="none" id="id12" stroke="none" /><text fill="#e1ed5e" style="font-size:6.75px; font-family:Arial;" text-anchor="middle"><textPath startOffset="22.20632615414155" xlink:href="#id12">December</textPath></text></svg>