<?xml version="1.0" encoding="utf-8" ?>
<svg baseProfile="full" height="200mm" version="1.1" viewBox="0,0,200,200" width="200mm" xmlns="http://www.w3.org/2000/svg" xmlns:ev="http://www.w3.org/2001/xml-events" xmlns:xlink="http://www.w3.org/1999/xlink"><defs /><rect fill="#1a1a1a" height="200" width="200" x="0" y="0" /><text alignment-baseline="middle" fill="#e1ed5e" style="dominant-baseline: central; font-size:9.0px; font-family:Arial;" text-anchor="middle" x="100.0" y="100.0">2025</text><line stroke="#e1ed5e" stroke-width="0.3" x1="100.0" x2="100.0" y1="15.0" y2="10.0" /><path d="M 100.0 14.0 a86.0,86.0 0 0,1 42.46469731375804,11.215312516191453" fill="none" id="id1" stroke="none" /><text fill="#e1ed5e" style="font-size:6.75px; font-family:Arial;" text-anchor="middle"><textPath startOffset="22.20632615414155" xlink:href="#id1">January</textPath></text><path d="M 103.59715602781102 79.31037775812273 l 1.9521380916487092 -11.228036640036665 a32.39647532875282,32.39647532875282 0 0,0 0.5485878421892384,0.10025092167484174 l -2.1451210549408484 11.192770237011086" fill="red" stroke="none" /><path d="M 104.307194497241 79.44645832069477 l 1.4886474400726044 -7.103690633177201 a28.25799502705287,28.25799502705287 0 0,0 0.4752150735541498,0.10386360890297605 l -1.6107052377802822 7.077013526178354" fill="red" stroke="none" /><path d="M 105.01212808612495 79.60689891045804 l 4.088194367083368 -16.633844859715882 a38.12886826384477,38.12886826384477 0 0,0 0.6360096970154507,0.16213303311587046 l -4.373912952783844 16.561008830431145" fill="red" stroke="none" /><path d="M 105.71112130821622 79.79150937346287 l 1.551230350477566 -5.488943817762624 a26.703930209495667,26.703930209495667 0 0,0 0.44126309561551846,0.1288167978409632 l -1.6454836638165116 5.461428691002957" fill="red" stroke="none" /><path d="M 106.0581310904928 79.89281104454417 l 5.140083700344991 -17.060151499839574 a38.817666223274884,38.817666223274884 0 0,0 0.6381155322622657,0.1982656020611334 l -5.432984605317975 16.96914576289592" fill="red" stroke="none" /><path d="M 107.76421540070413 80.48803036053334 l 6.63814066718934 -16.682071848362284 a38.95428730613706,38.95428730613706 0 0,0 0.6208870623834474,0.2532754222919143 l -6.924311599161175 16.565335539886792" fill="red" stroke="none" /><path d="M 108.76106565485865 80.91482961587045 l 8.670735826532926 -18.888395216326817 a41.78348223040786,41.78348223040786 0 0,0 0.6510697996935964,0.3056860008490401 l -8.99458383752612 18.736344232837773" fill="red" stroke="none" /><path d="M 109.41281617654863 81.2277094730956 l 9.287699335941284 -18.522765874809195 a41.720864234096034,41.720864234096034 0 0,0 0.6392024055263708,0.3274242988667325 l -9.60516222905641 18.36014905062996" fill="red" stroke="none" /><path d="M 110.05341064243156 81.56283822128135 l 14.100257158257367 -25.858758942074783 a50.45322844703651,50.45322844703651 0 0,0 0.7589028330935415,0.4223286049698921 l -14.543284080422943 25.61221493954471" fill="red" stroke="none" /><path d="M 110.36928655335952 81.73862282372117 l 9.955993856369938 -17.533526346321484 a41.16299481240883,41.16299481240883 0 0,0 0.6131390132778202,0.35516969187540187 l -10.256329602113086 17.359552497056033" fill="red" stroke="none" /><line stroke="#e1ed5e" stroke-width="0.3" x1="143.23703022742887" x2="145.7803849466894" y1="26.81831364943548" y2="22.513508569990506" /><path d="M 143.74570117128098 25.957352633546492 a86.0,86.0 0 0,1 28.547481713284135,27.462654790039103" fill="none" id="id2" stroke="none" /><text fill="#e1ed5e" style="font-size:6.75px; font-family:Arial;" text-anchor="middle"><textPath startOffset="19.985693538727396" xlink:href="#id2">February</textPath></text><path d="M 110.99172775467656 82.1063720568725 l 9.379676793391008 -15.269341682550126 a38.92013203542152,38.92013203542152 0 0,0 0.5678277639426608,0.355573693688275 l -9.641123709705932 15.105623647538907" fill="red" stroke="none" /><path d="M 111.60114157652 82.49532879139004 l 7.462522470093013 -11.260012763763445 a34.50840956799722,34.50840956799722 0 0,0 0.4923122623842068,0.3324114371964016 l -7.655239426883762 11.129889414268373" fill="red" stroke="none" /><path d="M 112.19680574252982 82.90503203632743 l 8.374685052924754 -11.737907096969261 a35.41921678707837,35.41921678707837 0 0,0 0.4932626590695991,0.35837629929107084 l -8.575493028348141 11.592011562861515" fill="red" stroke="none" /><path d="M 113.06298171725822 83.55741782278167 l 11.35962161517219 -14.298535813060735 a39.261684742576946,39.261684742576946 0 0,0 0.5255393403700358,0.42494959776789 l -11.604064354106717 14.100880118028714" fill="red" stroke="none" /><path d="M 114.94478906791727 85.2469230424477 l 10.63828689579427 -10.501818697936665 a35.948623483169285,35.948623483169285 0 0,0 0.4309311048283488,0.44411238343914644 l -10.817482264325728 10.317142118947404" fill="red" stroke="none" /><path d="M 115.4437574822437 85.77008943001954 l 13.31213173128584 -12.265826127468817 a39.10147347097479,39.10147347097479 0 0,0 0.4518200570959717,0.4989109919143508 l -13.521295428997847 12.034862348284918" fill="red" stroke="none" /><path d="M 115.9244219780498 86.31012108654704 l 13.610523661307694 -11.700670902141425 a38.9485947610178,38.9485947610178 0 0,0 0.43268065606365347,0.5121574222751302 l -13.809914930858465 11.464654530237189" fill="red" stroke="none" /><path d="M 116.15771136456269 86.58626213691792 l 18.207363262790565 -15.115308874784652 a44.66391006075199,44.66391006075199 0 0,0 0.4859890856497849,0.5957651550103162 l -18.46485084051676 14.799659550166234" fill="red" stroke="none" /><path d="M 117.2510076193507 88.02491185347247 l 19.50949165952615 -13.54285427679631 a44.74929823754084,44.74929823754084 0 0,0 0.43380296665031354,0.636552325084777 l -19.7397190918452 13.205023928441125" fill="red" stroke="none" /><path d="M 117.45458315368197 88.32363383020206 l 10.191599933805023 -6.81774245969851 a33.26174218687991,33.26174218687991 0 0,0 0.3142495982730584,0.4786236975955641 l -10.307446167436007 6.6413006981252725" fill="red" stroke="none" /><line stroke="#e1ed5e" stroke-width="0.3" x1="172.23445277983987" x2="176.4835382374775" y1="55.19839476539836" y2="52.563006222186495" /><path d="M 173.08426987136738 54.67131705675599 a86.0,86.0 0 0,1 12.851231095245387,41.99856678651699" fill="none" id="id3" stroke="none" /><text fill="#e1ed5e" style="font-size:6.75px; font-family:Arial;" text-anchor="middle"><textPath startOffset="22.20632615414155" xlink:href="#id3">March</textPath></text><path d="M 118.56541770881063 90.18545643968196 l 15.943258390187834 -8.428348148054088 a39.033982937806655,39.033982937806655 0 0,0 0.308908559545354,0.5967130134219152 l -16.085976382893303 8.152662412371827" fill="red" stroke="none" /><path d="M 119.04729006885535 91.15688171328212 l 13.641219454471088 -6.3332325372737035 a36.0397042050774,36.0397042050774 0 0,0 0.25639277645547065,0.564927496769221 l -13.748214547889907 6.09748303166242" fill="red" stroke="none" /><path d="M 119.61058180528143 92.48833698450437 l 19.51470766251692 -7.474939257909179 a41.89733313279301,41.89733313279301 0 0,0 0.2521728886668506,0.6756979691548244 l -19.640485139685396 7.137918151725022" fill="red" stroke="none" /><path d="M 119.85752413597 93.16781622104841 l 16.97750921551221 -5.841285261696473 a38.95428730613706,38.95428730613706 0 0,0 0.21269542865303145,0.6359322592874124 l -17.07554193793701 5.548179899486747" fill="red" stroke="none" /><path d="M 120.28053869075195 94.5502522615342 l 17.537082957734633 -4.7125315380199 a39.15921893043031,39.15921893043031 0 0,0 0.1693238438084264,0.6524738417367947 l -17.615603133413362 4.409961270734255" fill="red" stroke="none" /><path d="M 120.6074358757038 95.95851677861258 l 17.696864141637477 -3.470668545615847 a39.033982937806655,39.033982937806655 0 0,0 0.12363414847729112,0.6604585648454754 l -17.753984014024628 3.1655319033078086" fill="red" stroke="none" /><path d="M 120.78858239683441 97.02765380044208 l 17.874966667558912 -2.555758167023143 a39.05675311828369,39.05675311828369 0 0,0 0.08942880732082914,0.6663484886090366 l -17.91631147393758 2.247691336349442" fill="red" stroke="none" /><path d="M 120.87857604477298 97.74499172005257 l 18.405117714030226 -1.9878603190918203 a39.51215672782426,39.51215672782426 0 0,0 0.0672137051815309,0.6768328385542749 l -18.436608544893986 1.6707519498331105" fill="red" stroke="none" /><path d="M 120.94382443527127 98.46500227214037 l 6.11447084839457 -0.4481368189633635 a27.130871093439954,27.130871093439954 0 0,0 0.03012742283020985,0.4660578964703717 l -6.121278862229195 0.3428198582399566" fill="red" stroke="none" /><path d="M 120.96714384426684 98.82574320788733 l 18.022818265672033 -1.0093609753750254 a39.051060573164435,39.051060573164435 0 0,0 0.0318106067172386,0.6714716308362929 l -18.03752248062277 0.6989782379157329" fill="red" stroke="none" /><line stroke="#e1ed5e" stroke-width="0.3" x1="184.98032266829074" x2="189.97916517819016" y1="98.17113171792111" y2="98.06355123074" /><path d="M 185.9800911702706 98.14961562048488 a86.0,86.0 0 0,1 -9.607161424134198,41.387399972396054" fill="none" id="id4" stroke="none" /><text fill="#e1ed5e" style="font-size:6.75px; font-family:Arial;" text-anchor="middle"><textPath startOffset="21.466115282336823" xlink:href="#id4">April</textPath></text><path d="M 120.99513854157772 99.54816195383933 l 18.15501510720119 -0.39071552387283026 a39.15921893043031,39.15921893043031 0 0,0 0.00870265695353032,0.6740303717153765 l -18.159050771272437 0.0781488940969911" fill="red" stroke="none" /><path d="M 120.99824983174949 100.27111621757518 l 20.01901263392443 0.258472921714316 a41.0206811844274,41.0206811844274 0 0,0 -0.015193156517655737,0.7059662830132799 l -20.011597414721766 -0.6030290205177108" fill="red" stroke="none" /><path d="M 120.9764740272857 100.99374915477107 l 29.795519532315637 1.4115466838081725 a50.82893642490748,50.82893642490748 0 0,0 -0.04892563265015051,0.8736000373494163 l -29.766807548777955 -1.924218437493012" fill="red" stroke="none" /><path d="M 120.95626037817324 101.35467743843564 l 14.510353406794245 0.937994090032651 a35.54063921920221,35.54063921920221 0 0,0 -0.044719333116215676,0.6101597706951833 l -14.492057515013691 -1.1876269972246045" fill="red" stroke="none" /><path d="M 120.89721153311464 102.0752229133903 l 17.974035611120026 1.7849333863124306 a39.06244566340294,39.06244566340294 0 0,0 -0.07220543992350088,0.6685326975048808 l -17.940647869695475 -2.0940624057021027" fill="red" stroke="none" /><path d="M 120.81339534386255 102.79330883721812 l 19.600174346927776 2.6304857669670705 a40.77590174429935,40.77590174429935 0 0,0 -0.09934941468575699,0.6948495749180689 l -19.551990881225418 -2.9674808138655484" fill="red" stroke="none" /><path d="M 120.64145759157962 103.86396538481128 l 29.756091221557238 5.570173809541771 a51.27295494420954,51.27295494420954 0 0,0 -0.16986013866687671,0.8661131875772418 l -29.655801149914694 -6.0815507241869575" fill="red" stroke="none" /><path d="M 120.49622156327973 104.57218783832717 l 19.484836225884628 4.34657338908717 a40.963755733234834,40.963755733234834 0 0,0 -0.15944543861874702,0.6868867764947335 l -19.40713022133533 -4.681328822930468" fill="red" stroke="none" /><path d="M 120.32669344350535 105.2749913415812 l 19.163882609688823 4.973229665619156 a40.79867192477637,40.79867192477637 0 0,0 -0.18225723314114275,0.6782469658731256 l -19.075437300205902 -5.30236756466783" fill="red" stroke="none" /><path d="M 120.13307415673323 105.97154293290107 l 14.489780461214332 4.297721522250242 a36.11370729162774,36.11370729162774 0 0,0 -0.18189825604782264,0.5944540253269434 l -14.413655432660375 -4.546502520129243" fill="red" stroke="none" /><path d="M 119.67450827220406 107.3425965602758 l 22.175609155666503 8.276016317950718 a44.66960260587124,44.66960260587124 0 0,0 -0.27504929262971184,0.7180669104129007 l -22.029865583443282 -8.656506795196764" fill="red" stroke="none" /><path d="M 119.41010516605496 108.01547362559984 l 16.710735646718405 6.90075915069687 a39.07952329876072,39.07952329876072 0 0,0 -0.2621101196239405,0.6195508967133394 l -16.589474545902153 -7.187384573076373" fill="red" stroke="none" /><line stroke="#e1ed5e" stroke-width="0.3" x1="174.80103733775053" x2="179.2010983576182" y1="140.37084112569926" y2="142.7455964860345" /><path d="M 175.68104954172406 140.8457921977663 a86.0,86.0 0 0,1 -30.038265399797805,32.042727171017184" fill="none" id="id5" stroke="none" /><text fill="#e1ed5e" style="font-size:6.75px; font-family:Arial;" text-anchor="middle"><textPath startOffset="22.206326154141568" xlink:href="#id5">May</textPath></text><path d="M 116.498646956653 112.99209946851258 l 14.186285470571702 11.171196790053154 a39.05675311828369,39.05675311828369 0 0,0 -0.42047772825427,0.5246106174035099 l -13.991889830262577 -11.413735241034914" fill="red" stroke="none" /><path d="M 116.0416608686014 113.55231037782055 l 13.762908798266258 11.627175843170868 a39.01690530244889,39.01690530244889 0 0,0 -0.4378393327566515,0.509306060154631 l -13.560726955938827 -11.862359002487027" fill="red" stroke="none" /><path d="M 115.80600337817218 113.82643327865902 l 13.590719085067283 11.888594867579414 a39.05675311828369,39.05675311828369 0 0,0 -0.44699737968805486,0.5022062946662169 l -13.38406285573089 -12.120775331986497" fill="red" stroke="none" /><path d="M 115.56566222782051 114.09645910891815 l 13.472671090273879 12.20102006148578 a39.17629656578809,39.17629656578809 0 0,0 -0.45697021739117405,0.4959509182640734 l -13.260654464886983 -12.431122234551188" fill="red" stroke="none" /><path d="M 115.32070863581623 114.36230785411682 l 13.123604168193818 12.302645243088554 a38.988442576852606,38.988442576852606 0 0,0 -0.46320766642200806,0.4856713863636295 l -12.909889950392847 -12.52672374603469" fill="red" stroke="none" /><path d="M 115.07121518719521 114.62390073753431 l 12.963000257150785 12.578257736129132 a39.06244566340294,39.06244566340294 0 0,0 -0.4723940135466626,0.4785326416797223 l -12.744565618548588 -12.799530871789518" fill="red" stroke="none" /><path d="M 114.81725581225074 114.88116024355365 l 12.668250854365667 12.722886974353658 a38.95428730613706,38.95428730613706 0 0,0 -0.47923057050988116,0.4690279779086341 l -12.447370331479991 -12.939065055184864" fill="red" stroke="none" /><path d="M 114.55890576462653 115.13401014063108 l 12.467103004801931 12.959577206508872 a38.982750031733346,38.982750031733346 0 0,0 -0.48758911953509315,0.4610459462987807 l -12.24217805087603 -13.172257789553575" fill="red" stroke="none" /><path d="M 113.75828350139079 115.86535959552629 l 11.76659497489766 13.568644698504201 a38.95997985125632,38.95997985125632 0 0,0 -0.5104397851877738,0.43500785869166814 l -11.53128971313284 -13.769176947418817" fill="red" stroke="none" /><path d="M 113.48314897796784 116.09983520530334 l 13.369717201470651 15.964389627149924 a41.82333004624266,41.82333004624266 0 0,0 -0.5559114637924129,0.4574772884413891 l -13.092935609133548 -16.19216203444849" fill="red" stroke="none" /><path d="M 112.92097659922987 116.55440617244103 l 7.146253608660127 9.155808304465415 a32.61454976946613,32.61454976946613 0 0,0 -0.44553225533233237,0.3416151349188439 l -6.987592624834301 -9.27746278121163" fill="red" stroke="none" /><path d="M 112.34349029814194 116.9893568818739 l 10.680413068595458 14.700327450778833 a39.17060402066883,39.17060402066883 0 0,0 -0.5488970626159735,0.3916234800555865 l -10.425788678130601 -14.88199519267864" fill="red" stroke="none" /><path d="M 111.7513745106137 117.40417183066458 l 10.040655416492585 14.870540633633833 a38.94290221589854,38.94290221589854 0 0,0 -0.5587848448640832,0.3703321255696295 l -9.78319587288854 -15.041170780294781" fill="red" stroke="none" /><path d="M 111.1453310114006 117.79835938074945 l 7.214636931793898 11.52129988623448 a34.59379774478608,34.59379774478608 0 0,0 -0.5074099647013763,0.31169264331047475 l -7.015247767160212 -11.643780996373334" fill="red" stroke="none" /><line stroke="#e1ed5e" stroke-width="0.3" x1="143.8653032363475" x2="146.44561519142675" y1="172.8068346515853" y2="177.08958963109032" /><path d="M 144.38136562736335 173.6633856474863 a86.0,86.0 0 0,1 -40.68145358897372,12.25698825130547" fill="none" id="id6" stroke="none" /><text fill="#e1ed5e" style="font-size:6.75px; font-family:Arial;" text-anchor="middle"><textPath startOffset="21.466115282336833" xlink:href="#id6">June</textPath></text><path d="M 110.5260780823613 118.17145234162733 l 7.626982200240702 13.166664970342259 a36.216173103774366,36.216173103774366 0 0,0 -0.5421237463127037,0.3078320117170214 l -7.399209687006799 -13.29600014785391" fill="red" stroke="none" /><path d="M 109.57404056367764 118.69057910512821 l 9.044513939044329 17.656829644787656 a40.838519740611176,40.838519740611176 0 0,0 -0.6284194319142355,0.31510254893520556 l -8.739240599447333 -17.809900034632165" fill="red" stroke="none" /><path d="M 108.92500713936063 119.00905698771935 l 7.632997542630271 16.257251451943937 a38.95997985125632,38.95997985125632 0 0,0 -0.6095047745425807,0.27979374767111426 l -7.352024772320271 -16.386232269949126" fill="red" stroke="none" /><path d="M 106.91757812671514 119.82793768551818 l 6.8537560274500695 19.64500363200896 a41.806252410884895,41.806252410884895 0 0,0 -0.6815021691767583,0.2312025373325388 l -6.514584125336084 -19.760069156239624" fill="red" stroke="none" /><path d="M 106.2309692047433 120.05430185196036 l 6.178548964683048 19.88558791954028 a41.82333004624266,41.82333004624266 0 0,0 -0.6893381514880845,0.20769193031627775 l -5.835335838754718 -19.988995218962284" fill="red" stroke="none" /><path d="M 105.18746579009965 120.34920634021253 l 4.474480376762827 17.552332513836102 a39.113678569476264,39.113678569476264 0 0,0 -0.6538442087345,0.16069899855637643 l -4.171682883285116 -17.62675277070651" fill="red" stroke="none" /><path d="M 103.7750983002368 120.6578951692458 l 3.564256300818486 19.50413662447236 a40.82713465037266,40.82713465037266 0 0,0 -0.692410761789492,0.12038448630787422 l -3.227996567556944 -19.56259968930124" fill="red" stroke="none" /><path d="M 101.98527174616119 120.90594882070398 l 1.874931022747971 19.74400334851524 a40.832827195491916,40.832827195491916 0 0,0 -0.7002940351016249,0.06042431603219232 l -1.5347926699048042 -19.773351916826098" fill="red" stroke="none" /><path d="M 101.26447882468166 120.96189622390904 l 1.4272809476345312 23.660748225032304 a44.70375787658678,44.70375787658678 0 0,0 -0.768504284771558,0.03972289335394516 l -1.0197885944494935 -23.68181092514845" fill="red" stroke="none" /><path d="M 100.90346689309514 120.98055641714683 l 0.7812501480052557 18.14240558386733 a39.15921893043031,39.15921893043031 0 0,0 -0.6736870878038649,0.023203145458479454 l -0.4688427085267386 -18.153165527751902" fill="red" stroke="none" /><line stroke="#e1ed5e" stroke-width="0.3" x1="102.19456741930631" x2="102.32365962044197" y1="184.97166512339345" y2="189.96999836594603" /><path d="M 102.22038585953345 185.97133177190398 a86.0,86.0 0 0,1 -42.740103519485714,-10.115201625700543" fill="none" id="id7" stroke="none" /><text fill="#e1ed5e" style="font-size:6.75px; font-family:Arial;" text-anchor="middle"><textPath startOffset="22.20632615414155" xlink:href="#id7">July</textPath></text><path d="M 99.45781275523022 120.99299961872073 l -0.46560931053688653 18.027971282732924 a39.033982937806655,39.033982937806655 0 0,0 -0.671532553738513,-0.023128938948930672 l 0.7758622159500426 -18.017285545357897" fill="red" stroke="none" /><path d="M 98.73552117531835 120.96189622390904 l -1.0821147818641121 17.938756519314836 a38.971364941494826,38.971364941494826 0 0,0 -0.6692631171989281,-0.04615630297880867 l 1.3907406598419703 -17.917471871819743" fill="red" stroke="none" /><path d="M 97.65516085044442 120.86867818915974 l -2.0066647659889405 17.8589824563811 a38.971364941494826,38.971364941494826 0 0,0 -0.6659882935123329,-0.08064190754210208 l 2.3137804825526627 -17.82179502011365" fill="red" stroke="none" /><path d="M 97.2962882734958 120.8252237178851 l -1.9487938875855348 15.010501412252841 a36.13647747210477,36.13647747210477 0 0,0 -0.6161637808562809,-0.08539468552951875 l 2.2068862596286465 -14.974732161230717" fill="red" stroke="none" /><path d="M 96.22490169976321 120.6578951692458 l -3.239860880962184 17.728997000597044 a39.02259784756815,39.02259784756815 0 0,0 -0.6597279047348361,-0.12643842310807496 l 3.5445564002687147 -17.670601379140503" fill="red" stroke="none" /><path d="M 94.81253420990036 120.34920634021253 l -4.467449452223589 17.5247518530664 a39.08521584387997,39.08521584387997 0 0,0 -0.6505074515338978,-0.17180493032032537 l 4.768447346568975 -17.445255573442495" fill="red" stroke="none" /><path d="M 94.46302465271185 120.25689768951611 l -3.5391875490115345 12.948036714566387 a34.423021391208366,34.423021391208366 0 0,0 -0.5702236305556925,-0.16115089380493264 l 3.761542347671841 -12.885197027422933" fill="red" stroke="none" /><path d="M 93.42475214034765 119.94407469862007 l -5.5610129879749755 16.867692412439844 a38.760740772082315,38.760740772082315 0 0,0 -0.6318559400027571,-0.21435984089932286 l 5.8505386609149586 -16.769469584642398" fill="red" stroke="none" /><path d="M 92.7421414339146 119.70592522655815 l -3.944664435716165 10.710220060958308 a32.41355296411059,32.41355296411059 0 0,0 -0.5219041670537901,-0.19733949841537454 l 4.128438823530238 -10.6407323124363" fill="red" stroke="none" /><path d="M 92.40401165467489 119.57807347666478 l -4.832641356022676 12.45575996872219 a34.36040339489654,34.36040339489654 0 0,0 -0.5495683485259778,-0.21868458767659169 l 5.046330780590512 -12.37072853663953" fill="red" stroke="none" /><path d="M 92.06813273071674 119.44442032107085 l -8.163578005219167 20.01244305638442 a42.61346531522253,42.61346531522253 0 0,0 -0.6768003282067468,-0.282902592080553 l 8.506849792923376 -19.868955421283896" fill="red" stroke="none" /><path d="M 91.7346041902142 119.30500536409082 l -9.178322971797964 21.437276360575122 a44.31948606496951,44.31948606496951 0 0,0 -0.698726930757412,-0.3063013527523643 l 9.545970577213119 -21.276110454528304" fill="red" stroke="none" /><path d="M 91.40352486487194 119.15986991738527 l -11.921698489759276 26.57114557624713 a50.12306083011959,50.12306083011959 0 0,0 -0.7841442682281305,-0.3599621736958923 l 12.377310753754827 -26.361996332217164" fill="red" stroke="none" /><path d="M 91.07499286063937 119.00905698771935 l -13.32472439470668 28.379859131718142 a52.3522676138594,52.3522676138594 0 0,0 -0.8124257531818082,-0.3900137325589887 l 13.81126281588873 -28.14629112265959" fill="red" stroke="none" /><path d="M 90.7491055286396 118.85261126421891 l -11.370663892087086 23.17253827046246 a46.811984178727144,46.811984178727144 0 0,0 -0.7203385600462913,-0.36119270799041664 l 11.767856359816138 -22.97337772156274" fill="red" stroke="none" /><path d="M 90.42595943632237 118.69057910512821 l -8.286721245576256 16.177455895705428 a39.17635354683054,39.17635354683054 0 0,0 -0.5975496403280102,-0.31260972987950475 l 8.563961788430762 -16.032416746881207" fill="red" stroke="none" /><path d="M 90.10565033884886 118.52300852407294 l -8.699421425583028 16.286007947876556 a39.46385626076501,39.46385626076501 0 0,0 -0.5964251301362736,-0.32521853540639417 l 8.978469367587941 -16.133848760710396" fill="red" stroke="none" /><line stroke="#e1ed5e" stroke-width="0.3" x1="58.666819895761336" x2="56.23545636021788" y1="174.27360380694188" y2="178.64263932499728" /><path d="M 58.180547188652646 175.14741091055294 a86.0,86.0 0 0,1 -31.652253787137756,-30.449443065178592" fill="none" id="id8" stroke="none" /><text fill="#e1ed5e" style="font-size:6.75px; font-family:Arial;" text-anchor="middle"><textPath startOffset="22.20632615414155" xlink:href="#id8">August</textPath></text><path d="M 89.7882731507175 118.34994917583269 l -15.802070349972666 28.395509601327138 a53.49631352729948,53.49631352729948 0 0,0 -0.8007920058322043,-0.454710600299081 l 16.288511122726078 -28.119295835233423" fill="red" stroke="none" /><path d="M 89.1626897886671 117.98757091392108 l -18.751172103867464 31.1228553358879 a57.335087443509245,57.335087443509245 0 0,0 -0.8409714050619409,-0.516593323795971 l 19.284122708861712 -30.795473545263548" fill="red" stroke="none" /><path d="M 88.8546689885994 117.79835938074946 l -12.777471474624635 20.404780176561584 a45.07527427338361,45.07527427338361 0 0,0 -0.6540598261345774,-0.4174519268086998 l 13.126813102806135 -20.18181382092908" fill="red" stroke="none" /><path d="M 88.54995079064634 117.60387380957326 l -9.775967551721592 15.030057600661099 a38.92964508994821,38.92964508994821 0 0,0 -0.55859462069881,-0.37020605536549034 l 10.033236871160366 -14.85955352420429" fill="red" stroke="none" /><path d="M 87.95078237400918 117.19931262002967 l -18.190789333125124 25.965924282971248 a52.70384898448664,52.70384898448664 0 0,0 -0.7385382130149338,-0.5269274055804136 l 18.635054873988945 -25.648952615546616" fill="red" stroke="none" /><path d="M 87.65650970185807 116.9893568818739 l -17.143328048400193 23.5957667825244 a50.16597172443165,50.16597172443165 0 0,0 -0.6942373979370081,-0.5135802301216654 l 17.546950416755763 -23.29717660366297" fill="red" stroke="none" /><path d="M 87.36589467227662 116.77436683061367 l -7.105326900787756 9.433779186857418 a32.810243863419686,32.810243863419686 0 0,0 -0.4482055416922847,-0.3436648969048759 l 7.266661170973528 -9.310074948125175" fill="red" stroke="none" /><path d="M 86.79598089348748 116.32954008644616 l -14.748193377919014 18.23923557097891 a44.4558931214771,44.4558931214771 0 0,0 -0.5909032253537598,-0.48627312597937017 l 15.059966731817461 -17.98266732614236" fill="red" stroke="none" /><path d="M 86.51685102203217 116.09983520530335 l -15.427506246623848 18.421535548208965 a45.02833579221716,45.02833579221716 0 0,0 -0.5899452242247588,-0.502764118672658 l 15.742316947425664 -18.153247039313356" fill="red" stroke="none" /><path d="M 86.24171649860922 115.8653595955263 l -13.161430639116894 15.177098935347495 a41.08899172585849,41.08899172585849 0 0,0 -0.5303564485072327,-0.4679779023207264 l 13.420729440530714 -14.948297891254478" fill="red" stroke="none" /><path d="M 85.97065885151581 115.62618273729859 l -16.83135959996558 18.747131318755052 a46.19423740989197,46.19423740989197 0 0,0 -0.5871077512731069,-0.536309010597555 l 17.15156690070554 -18.45462954157092" fill="red" stroke="none" /><path d="M 85.44109423537348 115.13401014063109 l -29.13659482460721 30.287545552389023 a63.02709332753537,63.02709332753537 0 0,0 -0.7753834553706678,-0.758875907664615 l 29.65362823235367 -29.78151954180184" fill="red" stroke="none" /><path d="M 85.18274418774928 114.88116024355367 l -13.566787971760858 13.62529933722072 a40.22775384436733,40.22775384436733 0 0,0 -0.4864864391302569,-0.4928081943937789 l 13.799315035946648 -13.389750648846277" fill="red" stroke="none" /><path d="M 84.67929136418377 114.36230785411682 l -21.308555146726018 19.97557921232537 a50.20750395547263,50.20750395547263 0 0,0 -0.5856432590219841,-0.63560009171995 l 21.64924481374373 -19.605827865804077" fill="red" stroke="none" /><path d="M 84.43433777217949 114.09645910891817 l -21.505734416019447 19.47586304814221 a50.01389071190478,50.01389071190478 0 0,0 -0.5723998108219754,-0.6430972554272272 l 21.837793076489763 -19.102791622974117" fill="red" stroke="none" /><path d="M 83.95833913139862 113.55231037782056 l -26.979224635028974 22.792579209956415 a56.31827046939716,56.31827046939716 0 0,0 -0.619243520498168,-0.7459187118993008 l 27.36756415542068 -22.324799240943353" fill="red" stroke="none" /><path d="M 83.50135304334701 112.99209946851258 l -41.807126466767144 32.921629693391104 a74.21343368997186,74.21343368997186 0 0,0 -0.7816907430028907,-1.0104406583038033 l 42.3676240269881 -32.19711104097404" fill="red" stroke="none" /><path d="M 83.28015986056508 112.70617746262583 l -23.311977951961758 17.71584694543962 a50.27967808953837,50.27967808953837 0 0,0 -0.517733995288603,-0.6935892935693957 l 23.613473213945447 -17.311944772360913" fill="red" stroke="none" /><path d="M 82.85270091963577 112.12312394758628 l -30.2746134414213 21.404122567378476 a58.076794385529716,58.076794385529716 0 0,0 -0.570090367122113,-0.8212576931881571 l 30.63856471570555 -20.879823612003303" fill="red" stroke="none" /><path d="M 82.6465618267979 111.8261652097733 l -24.749609388602845 16.866569413256805 a50.95036441615741,50.95036441615741 0 0,0 -0.4876602393256793,-0.7289858911817427 l 25.036272733339256 -16.43804660786924" fill="red" stroke="none" /><path d="M 82.24976979558568 111.22182372390057 l -34.434116807457535 21.769497322090654 a61.73842674878525,61.73842674878525 0 0,0 -0.5601596850911099,-0.9031557710935111 l 34.8037411322166 -21.173545219631876" fill="red" stroke="none" /><line stroke="#e1ed5e" stroke-width="0.3" x1="26.63291911575756" x2="22.317208475507996" y1="142.92168965132927" y2="145.44649492493687" /><path d="M 25.769776987707644 143.4266507060508 a86.0,86.0 0 0,1 -11.730757126820373,-40.83630448921669" fill="none" id="id9" stroke="none" /><text fill="#e1ed5e" style="font-size:6.75px; font-family:Arial;" text-anchor="middle"><textPath startOffset="21.46611528233685" xlink:href="#id9">September</textPath></text><path d="M 81.87401531095188 110.60418214915194 l -30.000498668533865 17.55108800454524 a55.75731017360224,55.75731017360224 0 0,0 -0.4775162349826244,-0.8325898056554467 l 30.298166899668864 -17.032078353031487" fill="red" stroke="none" /><path d="M 81.69416730710424 110.29060199501025 l -25.90730786894909 14.563762190671431 a50.720224934595336,50.720224934595336 0 0,0 -0.4212763688818494,-0.764738977513655 l 26.154160647282456 -14.115652694759953" fill="red" stroke="none" /><path d="M 81.35079622478065 109.6543875284942 l -34.356318797958096 17.785703868425667 a59.68705084963521,59.68705084963521 0 0,0 -0.46448272601819646,-0.9164684839215501 l 34.65738019376256 -17.19168117280143" fill="red" stroke="none" /><path d="M 81.02952815118164 109.00673069616217 l -28.805514833597012 13.6761761509202 a52.887230656480284,52.887230656480284 0 0,0 -0.3833704262363417,-0.8257457918788528 l 29.03665987667318 -13.178310291762521" fill="red" stroke="none" /><path d="M 80.73074385275274 108.34839909993369 l -32.52297034091613 14.090566560871732 a56.444148541084566,56.444148541084566 0 0,0 -0.37857633044987904,-0.8948426155433509 l 32.76069765255832 -13.528649419662221" fill="red" stroke="none" /><path d="M 80.58989483394504 108.01547362559985 l -27.31052645743521 11.277981373519312 a50.54755013945686,50.54755013945686 0 0,0 -0.3251829466444874,-0.807077405512256 l 27.500612018337083 -10.806204600164252" fill="red" stroke="none" /><path d="M 80.45479744820244 107.68017299344265 l -17.12561392751774 6.7294097993448805 a39.40031544952174,39.40031544952174 0 0,0 -0.24260410349730488,-0.6333627597665702 l 17.238912310608555 -6.433623472745152" fill="red" stroke="none" /><path d="M 80.32549172779594 107.34259656027581 l -33.02660280311742 12.325645794277275 a56.25163878404617,56.25163878404617 0 0,0 -0.3307482223108229,-0.9100770570902776 l 33.23387528643347 -11.755320940180882" fill="red" stroke="none" /><path d="M 80.0844068197444 106.66101706037122 l -29.614812941862752 9.905041364322475 a52.22734362718771,52.22734362718771 0 0,0 -0.2778189996187607,-0.8550389614411615 l 29.780924192497764 -9.39380350290351" fill="red" stroke="none" /><path d="M 79.86692584326677 105.97154293290107 l -28.298700277007242 8.393497303685887 a50.517236224871596,50.517236224871596 0 0,0 -0.24009486378124842,-0.8358017183095268 l 28.438987777674594 -7.905138109871764" fill="red" stroke="none" /><path d="M 79.67330655649465 105.27499134158121 l -39.99012874423854 10.377860199489398 a62.314771926042624,62.314771926042624 0 0,0 -0.260501520351927,-1.0405740813697197 l 40.162841578885526 -9.687958278722284" fill="red" stroke="none" /><path d="M 79.58551787078972 104.9243191809786 l -23.342894228533257 5.630701825379476 a45.01240333683455,45.01240333683455 0 0,0 -0.1752042083265927,-0.7547751439508128 l 23.436359002790407 -5.228058024080089" fill="red" stroke="none" /><path d="M 79.4281124754447 104.21870165774334 l -29.090982245522127 5.965722633767866 a50.69638184278236,50.69638184278236 0 0,0 -0.16795003250921786,-0.8563735974308772 l 29.189362211007012 -5.464085309269033" fill="red" stroke="none" /><path d="M 79.23777060512086 103.15116336523772 l -35.00113032787747 5.3122560941515165 a56.4019658922907,56.4019658922907 0 0,0 -0.13742190997183182,-0.9611285182744396 l 35.0873862888659 -4.708982103896676" fill="red" stroke="none" /><path d="M 79.18660465613746 102.79330883721812 l -28.61956886832834 3.8409540258335566 a49.87616058338705,49.87616058338705 0 0,0 -0.10687390241972668,-0.8518901564557666 l 28.681444279994917 -3.3477461150903816" fill="red" stroke="none" /><path d="M 79.10278846688536 102.07522291339032 l -34.906217841167 3.4664042601566627 a56.077913314076106,56.077913314076106 0 0,0 -0.08712212199099548,-0.9613853564013121 l 34.96071455943507 -2.8650375152067844" fill="red" stroke="none" /><path d="M 79.07016306316243 101.71520430193888 l -29.204368613821714 2.393303819470869 a50.30227037798042,50.30227037798042 0 0,0 -0.06329329001825273,-0.8635866555459613 l 29.241238462504302 -1.890244027428147" fill="red" stroke="none" /><path d="M 79.0095281055655 100.63252640178507 l -62.97141568330351 1.8975792053552267 a84.0,84.0 0 0,0 -0.03111174925997018,-1.4456407368394846 l 62.994749495248485 -0.8133486527256131" fill="red" stroke="none" /><line stroke="#e1ed5e" stroke-width="0.3" x1="15.007084014347285" x2="10.007500721073583" y1="101.09737516637583" y2="101.16192664675087" /><path d="M 14.007167355692545 101.11028546245083 a86.0,86.0 0 0,1 10.666146001902534,-42.60595125391555" fill="none" id="id10" stroke="none" /><text fill="#e1ed5e" style="font-size:6.75px; font-family:Arial;" text-anchor="middle"><textPath startOffset="22.20632615414155" xlink:href="#id10">October</textPath></text><path d="M 79.01574976396665 99.18683210126434 l -35.399606652690004 -1.3717823336097414 a56.42617588642582,56.42617588642582 0 0,0 0.045964203361842995,-0.9702316861107118 l 35.37074884109466 1.9809251263434624" fill="red" stroke="none" /><path d="M 79.03285615573316 98.82574320788736 l -34.15460557480111 -1.9128154924689496 a55.208126886435394,55.208126886435394 0 0,0 0.06130575670214477,-0.9483729216119602 l 34.11661922709455 2.5004474783339217" fill="red" stroke="none" /><path d="M 79.08570108090925 98.10471618934814 l -29.081528649403133 -2.635409900731115 a50.200696805571724,50.200696805571724 0 0,0 0.08539586584047539,-0.859924715078671 l 29.031855657880428 3.135610146514216" fill="red" stroke="none" /><path d="M 79.12142395522702 97.74499172005258 l -28.755979079483676 -3.1058138631281187 a49.923215806201455,49.923215806201455 0 0,0 0.09963163577921683,-0.853583011341708 l 28.69825709070087 3.6003406127946884" fill="red" stroke="none" /><path d="M 79.21141760316559 97.0276538004421 l -34.90230643172791 -4.990322855970646 a56.25725906052622,56.25725906052622 0 0,0 0.14531546453771263,-0.957447348696195 l 34.81123507375089 5.590369317058933" fill="red" stroke="none" /><path d="M 79.32604984820605 96.31383870115002 l -40.44681879546472 -7.211659939719013 a62.0847074926828,62.0847074926828 0 0,0 0.19664377976875175,-1.050478934593994 l 40.31668929178611 7.906816951775579" fill="red" stroke="none" /><path d="M 79.3925641242962 95.95851677861259 l -18.05772468146979 -3.541439689866365 a39.401717739078705,39.401717739078705 0 0,0 0.13625621354145445,-0.6644336876374319 l 17.99408917201334 3.851749033667199" fill="red" stroke="none" /><path d="M 79.46518482838121 95.60439243477599 l -28.338775587205507 -6.066094840360143 a49.98074720213816,49.98074720213816 0 0,0 0.18732215936383234,-0.8397285102437686 l 28.230159040839638 6.553001520153871" fill="red" stroke="none" /><path d="M 79.62865764111835 94.90015583598534 l -34.751468297051176 -8.699822999557409 a56.82389522406212,56.82389522406212 0 0,0 0.2457056249410554,-0.9468040025302944 l 34.59656634023981 9.296723427636566" fill="red" stroke="none" /><path d="M 79.71946130924805 94.55025226153421 l -29.11477569068934 -7.823667082799263 a51.14763556469448,51.14763556469448 0 0,0 0.2357984655672825,-0.8482925392395418 l 28.975790454555696 8.323670925457748" fill="red" stroke="none" /><path d="M 79.81627453868168 94.20196356495316 l -21.958270260397285 -6.307797401643481 a43.84631131909106,43.84631131909106 0 0,0 0.2146258208098464,-0.7236115715599785 l 21.846438542475735 6.684838359949999" fill="red" stroke="none" /><path d="M 80.02781315780177 93.51064311812611 l -28.14248893019247 -9.14404895443606 a50.59076400614099,50.59076400614099 0 0,0 0.27623209100465407,-0.8258987926197325 l 27.980919545416043 9.627120849978114" fill="red" stroke="none" /><path d="M 80.2630227832202 92.82701384747504 l -17.48866018225421 -6.355882967067195 a39.607807051380846,39.607807051380846 0 0,0 0.23839262241940087,-0.6387737067289903 l 17.376662971333182 6.655979810825526" fill="red" stroke="none" /><path d="M 80.52162464483688 92.15188598940014 l -27.131015129407455 -10.931471238049568 a50.250453763667345,50.250453763667345 0 0,0 0.33016537350065883,-0.799521640414351 l 26.938828069020595 11.396867448917229" fill="red" stroke="none" /><path d="M 80.95270993114464 91.15688171328213 l -32.039317650029446 -14.874949390738424 a56.32395780283571,56.32395780283571 0 0,0 0.4158365784634581,-0.875857885793268 l 31.778522877724235 15.424249692172225" fill="red" stroke="none" /><path d="M 81.10775173730289 90.83032412892265 l -26.574614038736065 -12.898443517457922 a50.53946439055455,50.53946439055455 0 0,0 0.38660280500191135,-0.7793676640609174 l 26.34865122078074 13.353970770017801" fill="red" stroke="none" /><line stroke="#e1ed5e" stroke-width="0.3" x1="26.266209847984243" x2="21.928928074336255" y1="57.711370442889674" y2="55.22380399835377" /><path d="M 25.398753493254645 57.213857153982495 a86.0,86.0 0 0,1 29.58750427330803,-30.492523968695096" fill="none" id="id11" stroke="none" /><text fill="#e1ed5e" style="font-size:6.75px; font-family:Arial;" text-anchor="middle"><textPath startOffset="21.46611528233685" xlink:href="#id11">November</textPath></text><path d="M 81.96595687620814 89.24020034530311 l -49.728729503037094 -29.670061386810573 a78.90733183875199,78.90733183875199 0 0,0 0.7059733834232617,-1.1604346191452424 l 49.21064032132762 30.521663779162893" fill="red" stroke="none" /><path d="M 82.54541684631803 88.32363383020206 l -23.943582640935816 -16.017228018041166 a49.80706064605075,49.80706064605075 0 0,0 0.48283328497567785,-0.7084982672037411 l 23.664324890291397 16.427004308515322" fill="red" stroke="none" /><path d="M 84.31358615837235 86.03803664274999 l -22.18933833356861 -19.750003529344724 a50.705712835929496,50.705712835929496 0 0,0 0.5859077941302347,-0.6469740201856002 l 21.846086898822332 20.12903033679988" fill="red" stroke="none" /><path d="M 85.05521093208273 85.24692304244772 l -25.249327252705655 -24.92542828090257 a56.47964912031462,56.47964912031462 0 0,0 0.6889554344636336,-0.6859968408787308 l 24.816536018074707 25.35636097243141" fill="red" stroke="none" /><path d="M 85.57189188830299 84.74124197986013 l -23.59177101242886 -24.94998806207736 a55.337640626587635,55.337640626587635 0 0,0 0.6977605222530421,-0.6484923607453565 l 23.158802606380963 25.352385008897365" fill="red" stroke="none" /><path d="M 86.10567301691215 84.25364557470407 l -19.580988292079933 -22.191012347698358 a50.59486664119763,50.59486664119763 0 0,0 0.6579891350643126,-0.5706016939951631 l 19.196105358368847 22.524779035113202" fill="red" stroke="none" /><path d="M 87.22198572758235 83.33499621200491 l -17.862822060996674 -23.29657730570595 a50.356616394665835,50.356616394665835 0 0,0 0.6924126984606228,-0.5215108892598731 l 17.45916320877766 23.600604784471678" fill="red" stroke="none" /><line stroke="#e1ed5e" stroke-width="0.3" x1="56.762969772571076" x2="54.21961505331055" y1="26.818313649435495" y2="22.513508569990535" /><path d="M 56.25429882871897 25.957352633546506 a86.0,86.0 0 0,1 42.265352541879196,-11.944610805530505" fill="none" id="id12" stroke="none" /><text fill="#e1ed5e" style="font-size:6.75px; font-family:Arial;" text-anchor="middle"><textPath startOffset="22.20632615414155" xlink:href="#id12">December</textPath></text></svg>