<?xml version="1.0" encoding="utf-8" ?>
<svg baseProfile="full" height="200mm" version="1.1" viewBox="0,0,200,200" width="200mm" xmlns="http://www.w3.org/2000/svg" xmlns:ev="http://www.w3.org/2001/xml-events" xmlns:xlink="http://www.w3.org/1999/xlink"><defs /><rect fill="#1a1a1a" height="200" width="200" x="0" y="0" /><text alignment-baseline="middle" fill="#e1ed5e" style="dominant-baseline: central; font-size:9.0px; font-family:Arial;" text-anchor="middle" x="100.0" y="100.0">2026</text><line stroke="#e1ed5e" stroke-width="0.3" x1="100.0" x2="100.0" y1="15.0" y2="10.0" /><path d="M 100.0 14.0 a86.0,86.0 0 0,1 42.46469731375804,11.215312516191453" fill="none" id="id13" stroke="none" /><text fill="#e1ed5e" style="font-size:6.75px; font-family:Arial;" text-anchor="middle"><textPath startOffset="22.20632615414155" xlink:href="#id13">January</textPath></text><path d="M 100.36148047927253 79.00311137660856 l 0.5673583610664482 -32.955473393297176 a53.9603568258323,53.9603568258323 0 0,0 0.9285636053446,0.02398205839656836 l -1.134548601605916 32.94082454275824" fill="red" stroke="none" /><path d="M 101.08401301168833 79.027996857942 l 2.6522515072596855 -51.31213956292499 a72.38063939445337,72.38063939445337 0 0,0 1.2436991248939726,0.07502332760859128 l -3.53511268099327 51.258882965936095" fill="red" stroke="none" /><path d="M 101.80526077348638 79.07773832637324 l 2.827871394575748 -32.773916192958346 a53.89569028379427,53.89569028379427 0 0,0 0.9236049852982868,0.08770742230606045 l -3.391601506964279 32.72038322613711" fill="red" stroke="none" /><path d="M 102.52436894288641 79.15227682838746 l 3.2898959125090266 -27.169895050675304 a48.36835055643387,48.36835055643387 0 0,0 0.8256829181357556,0.10719734003244256 l -3.757093559152628 27.109239387478723" fill="red" stroke="none" /><path d="M 103.95276090670814 79.375362276772 l 6.148523106470517 -32.081642324645316 a53.66551868005888,53.66551868005888 0 0,0 0.9057553558848727,0.1816860034865173 l -6.699844871822514 31.971052365081594" fill="red" stroke="none" /><path d="M 104.66035177308747 79.52364482259891 l 9.658035301725414 -42.43485702002944 a64.52004981844249,64.52004981844249 0 0,0 1.0807916781964764,0.255788471250483 l -10.387050666884415 42.26232263663809" fill="red" stroke="none" /><path d="M 105.36241919743992 79.69619591428918 l 8.404241899026877 -31.821100649540487 a53.91221245139173,53.91221245139173 0 0,0 0.8952048704009541,0.2446933076404719 l -8.95074465865154 31.67172080107372" fill="red" stroke="none" /><path d="M 106.40334571778207 80.00007090966166 l 19.117436998765093 -59.71056401070695 a83.69631449996471,83.69631449996471 0 0,0 1.3683039277542342,0.4511082919751758 l -20.142423748761747 59.372641994472545" fill="red" stroke="none" /><path d="M 107.08798089147638 80.2323363322302 l 19.87320285277444 -55.42435793914518 a79.87956899123844,79.87956899123844 0 0,0 1.2903124576903298,0.47523296756212224 l -20.824297636237347 55.074061703776735" fill="red" stroke="none" /><path d="M 107.76421540070413 80.48803036053334 l 23.292646202112408 -58.53590891839998 a84.0,84.0 0 0,0 1.33886452164645,0.5461564552656828 l -24.296794593347244 58.12629157695072" fill="red" stroke="none" /><path d="M 109.41281617654863 81.2277094730956 l 4.800796353387142 -9.574386901426926 a31.710580290764398,31.710580290764398 0 0,0 0.48583555433467407,0.24886384088552727 l -4.964892395310572 9.490330535228898" fill="red" stroke="none" /><path d="M 109.73455568895987 81.39251694778311 l 12.022544395037885 -22.98094522474255 a46.935794129990974,46.935794129990974 0 0,0 0.7126528787369066,0.3806744870891217 l -12.416342320303102 22.770592011151674" fill="red" stroke="none" /><line stroke="#e1ed5e" stroke-width="0.3" x1="143.23703022742887" x2="145.7803849466894" y1="26.81831364943548" y2="22.513508569990506" /><path d="M 143.74570117128098 25.957352633546492 a86.0,86.0 0 0,1 28.547481713284135,27.462654790039103" fill="none" id="id14" stroke="none" /><text fill="#e1ed5e" style="font-size:6.75px; font-family:Arial;" text-anchor="middle"><textPath startOffset="19.985693538727396" xlink:href="#id14">February</textPath></text><path d="M 110.99172775467656 82.1063720568725 l 20.060541032919158 -32.65690941337007 a59.32621868860131,59.32621868860131 0 0,0 0.8655436746839117,0.5420033696819362 l -20.61970385997533 32.30676170236519" fill="red" stroke="none" /><path d="M 111.90073688211348 82.69761687909136 l 19.67599410457594 -28.606765417508587 a55.72019256363179,55.72019256363179 0 0,0 0.7855720911663805,0.5503434524671178 l -20.16549733532597 28.263837122277533" fill="red" stroke="none" /><path d="M 112.48926042617603 83.11751280151076 l 19.01710710482158 -25.706571589823945 a52.9762128079452,52.9762128079452 0 0,0 0.7284326289337425,0.5486403541207587 l -19.456785887513703 25.37541464619734" fill="red" stroke="none" /><path d="M 113.34407831869373 83.78471172551755 l 6.823548229624664 -8.291753012510016 a31.738434637435887,31.738434637435887 0 0,0 0.41886037849909735,0.35078352121337064 l -6.965266145082879 8.173068333902826" fill="red" stroke="none" /><path d="M 114.42810811169701 84.74124197986012 l 18.316789705300554 -19.371317407331034 a47.65994604652775,47.65994604652775 0 0,0 0.5912483120785029,0.568780407774096 l -18.647521260991475 19.053153912794638" fill="red" stroke="none" /><path d="M 114.94478906791727 85.2469230424477 l 22.866641287764256 -22.573307468309622 a53.13156538113461,53.13156538113461 0 0,0 0.6369101777060153,0.6563919241112549 l -23.25181572917338 22.176351348648254" fill="red" stroke="none" /><path d="M 117.45458315368197 88.32363383020206 l 18.0460763767407 -12.07204972170968 a42.71163874696218,42.71163874696218 0 0,0 0.40353013508448193,0.6146040803449155 l -18.251203147183105 11.75962757738709" fill="red" stroke="none" /><line stroke="#e1ed5e" stroke-width="0.3" x1="172.23445277983987" x2="176.4835382374775" y1="55.19839476539836" y2="52.563006222186495" /><path d="M 173.08426987136738 54.67131705675599 a86.0,86.0 0 0,1 12.851231095245387,41.99856678651699" fill="none" id="id15" stroke="none" /><text fill="#e1ed5e" style="font-size:6.75px; font-family:Arial;" text-anchor="middle"><textPath startOffset="22.20632615414155" xlink:href="#id15">March</textPath></text><path d="M 118.03404312379186 89.2402003453031 l 18.481373833461017 -11.026694259661195 a42.52090065652882,42.52090065652882 0 0,0 0.36960852607893546,0.631780781432941 l -18.66844203401028 10.706934065874359" fill="red" stroke="none" /><path d="M 118.21658344932153 89.55222093294921 l 14.060449275931425 -8.064106424076853 a37.20882618389987,37.20882618389987 0 0,0 0.3138694873788525,0.5583387955484221 l -14.197176404602711 7.820884118593637" fill="red" stroke="none" /><line stroke="#e1ed5e" stroke-width="0.3" x1="184.98032266829074" x2="189.97916517819016" y1="98.17113171792111" y2="98.06355123074" /><path d="M 185.9800911702706 98.14961562048488 a86.0,86.0 0 0,1 -9.607161424134198,41.387399972396054" fill="none" id="id16" stroke="none" /><text fill="#e1ed5e" style="font-size:6.75px; font-family:Arial;" text-anchor="middle"><textPath startOffset="21.466115282336823" xlink:href="#id16">April</textPath></text><line stroke="#e1ed5e" stroke-width="0.3" x1="174.80103733775053" x2="179.2010983576182" y1="140.37084112569926" y2="142.7455964860345" /><path d="M 175.68104954172406 140.8457921977663 a86.0,86.0 0 0,1 -30.038265399797805,32.042727171017184" fill="none" id="id17" stroke="none" /><text fill="#e1ed5e" style="font-size:6.75px; font-family:Arial;" text-anchor="middle"><textPath startOffset="22.206326154141568" xlink:href="#id17">May</textPath></text><line stroke="#e1ed5e" stroke-width="0.3" x1="143.8653032363475" x2="146.44561519142675" y1="172.8068346515853" y2="177.08958963109032" /><path d="M 144.38136562736335 173.6633856474863 a86.0,86.0 0 0,1 -40.68145358897372,12.25698825130547" fill="none" id="id18" stroke="none" /><text fill="#e1ed5e" style="font-size:6.75px; font-family:Arial;" text-anchor="middle"><textPath startOffset="21.466115282336833" xlink:href="#id18">June</textPath></text><line stroke="#e1ed5e" stroke-width="0.3" x1="102.19456741930631" x2="102.32365962044197" y1="184.97166512339345" y2="189.96999836594603" /><path d="M 102.22038585953345 185.97133177190398 a86.0,86.0 0 0,1 -42.740103519485714,-10.115201625700543" fill="none" id="id19" stroke="none" /><text fill="#e1ed5e" style="font-size:6.75px; font-family:Arial;" text-anchor="middle"><textPath startOffset="22.20632615414155" xlink:href="#id19">July</textPath></text><line stroke="#e1ed5e" stroke-width="0.3" x1="58.666819895761336" x2="56.23545636021788" y1="174.27360380694188" y2="178.64263932499728" /><path d="M 58.180547188652646 175.14741091055294 a86.0,86.0 0 0,1 -31.652253787137756,-30.449443065178592" fill="none" id="id20" stroke="none" /><text fill="#e1ed5e" style="font-size:6.75px; font-family:Arial;" text-anchor="middle"><textPath startOffset="22.20632615414155" xlink:href="#id20">August</textPath></text><line stroke="#e1ed5e" stroke-width="0.3" x1="26.63291911575756" x2="22.317208475507996" y1="142.92168965132927" y2="145.44649492493687" /><path d="M 25.769776987707644 143.4266507060508 a86.0,86.0 0 0,1 -11.730757126820373,-40.83630448921669" fill="none" id="id21" stroke="none" /><text fill="#e1ed5e" style="font-size:6.75px; font-family:Arial;" text-anchor="middle"><textPath startOffset="21.46611528233685" xlink:href="#id21">September</textPath></text><line stroke="#e1ed5e" stroke-width="0.3" x1="15.007084014347285" x2="10.007500721073583" y1="101.09737516637583" y2="101.16192664675087" /><path d="M 14.007167355692545 101.11028546245083 a86.0,86.0 0 0,1 10.666146001902534,-42.60595125391555" fill="none" id="id22" stroke="none" /><text fill="#e1ed5e" style="font-size:6.75px; font-family:Arial;" text-anchor="middle"><textPath startOffset="22.20632615414155" xlink:href="#id22">October</textPath></text><line stroke="#e1ed5e" stroke-width="0.3" x1="26.266209847984243" x2="21.928928074336255" y1="57.711370442889674" y2="55.22380399835377" /><path d="M 25.398753493254645 57.213857153982495 a86.0,86.0 0 0,1 29.58750427330803,-30.492523968695096" fill="none" id="id23" stroke="none" /><text fill="#e1ed5e" style="font-size:6.75px; font-family:Arial;" text-anchor="middle"><textPath startOffset="21.46611528233685" xlink:href="#id23">November</textPath></text><line stroke="#e1ed5e" stroke-width="0.3" x1="56.762969772571076" x2="54.21961505331055" y1="26.818313649435495" y2="22.513508569990535" /><path d="M 56.25429882871897 25.957352633546506 a86.0,86.0 0 0,1 42.265352541879196,-11.944610805530505" fill="none" id="id24" stroke="none" /><text fill="#e1ed5e" style="font-size:6.75px; font-family:Arial;" text-anchor="middle"><textPath startOffset="22.20632615414155" xlink:href="#id24">December</textPath></text></svg>